<?xml version="1.0" encoding="UTF-8" standalone="no"?>
<svg
   xmlns:dc="http://purl.org/dc/elements/1.1/"
   xmlns:cc="http://creativecommons.org/ns#"
   xmlns:rdf="http://www.w3.org/1999/02/22-rdf-syntax-ns#"
   xmlns:svg="http://www.w3.org/2000/svg"
   xmlns="http://www.w3.org/2000/svg"
   viewBox="0 0 157.65199 157.65199"
   height="157.65199"
   width="157.65199"
   xml:space="preserve"
   id="svg2"
   version="1.1"><metadata
     id="metadata8"><rdf:RDF><cc:Work
         rdf:about=""><dc:format>image/svg+xml</dc:format><dc:type
           rdf:resource="http://purl.org/dc/dcmitype/StillImage" /></cc:Work></rdf:RDF></metadata><defs
     id="defs6"><clipPath
       id="clipPath18"
       clipPathUnits="userSpaceOnUse"><path
         id="path16"
         d="M 0,118.239 H 118.239 V 0 H 0 Z" /></clipPath><clipPath
       id="clipPath52"
       clipPathUnits="userSpaceOnUse"><path
         id="path50"
         d="M 0,0 H 118.238 V 118.238 H 0 Z" /></clipPath></defs><g
     transform="matrix(1.3333333,0,0,-1.3333333,0,157.652)"
     id="g10"><g
       id="g12"><g
         clip-path="url(#clipPath18)"
         id="g14"><g
           transform="translate(51.491,93.4468)"
           id="g20"><path
             id="path22"
             style="fill:#ff2d3c;fill-opacity:1;fill-rule:nonzero;stroke:none"
             d="m 0,0 v -3.814 c 0,-2.107 -1.707,-3.814 -3.814,-3.814 l -5.721,-11.443 3.814,-22.885 c 2.107,0 3.814,-1.707 3.814,-3.814 v -3.814 h -34.327 v 3.814 c 0,2.107 1.706,3.814 3.814,3.814 l 3.814,22.885 -5.721,11.443 c -2.108,0 -3.815,1.707 -3.815,3.814 V 7.628 h 7.629 V 0 h 7.628 v 7.628 h 7.628 V 0 h 7.629 v 7.628 l 7.628,0 z m 57.212,17.164 h -4.083 c 0.158,-0.612 0.269,-1.246 0.269,-1.908 v -45.769 l -5.051,-13.472 c -0.403,-1.074 -1.429,-1.785 -2.577,-1.785 -1.148,0 -2.174,0.711 -2.577,1.785 l -5.051,13.472 v 45.769 c 0,0.662 0.11,1.296 0.269,1.908 h -80.367 c -5.257,0 -9.535,-4.278 -9.535,-9.536 v -57.212 c 0,-5.258 4.278,-9.536 9.535,-9.536 h 99.168 c 5.258,0 9.536,4.278 9.536,9.536 V 7.628 c 0,5.258 -4.278,9.536 -9.536,9.536" /></g><g
           transform="translate(97.2611,114.4248)"
           id="g24"><path
             id="path26"
             style="fill:#000000;fill-opacity:1;fill-rule:nonzero;stroke:none"
             d="m 0,0 c 3.154,0 5.721,-2.568 5.721,-5.722 v -9.535 H -5.721 v 9.535 C -5.721,-2.568 -3.154,0 0,0 m -1.907,-49.584 h -3.814 v 22.885 h 3.814 z m -3.814,30.513 H 5.721 v -3.814 H -5.721 Z m 7.628,-7.628 H 5.721 V -49.584 H 1.907 Z M 0.793,-64.29 c -0.25,-0.66 -1.339,-0.658 -1.585,-0.002 l -4.085,10.894 H 4.876 Z M 0,-68.655 c 1.93,0 3.683,1.215 4.363,3.023 l 5.172,13.795 v 46.115 c 0,5.258 -4.278,9.536 -9.535,9.536 -5.258,0 -9.536,-4.278 -9.536,-9.536 v -46.115 l 5.174,-13.795 c 0.679,-1.808 2.431,-3.023 4.362,-3.023" /></g><g
           transform="translate(106.7962,34.3272)"
           id="g28"><path
             id="path30"
             style="fill:#000000;fill-opacity:1;fill-rule:nonzero;stroke:none"
             d="m 0,0 h -3.814 v -30.513 h -7.628 V 0 h -3.814 V -30.513 H -80.097 V 0 h -3.814 V -30.513 H -91.54 V 0 h -3.814 v -30.513 h -3.814 v -3.815 H 3.814 v 3.815 H 0 Z" /></g><path
           id="path32"
           style="fill:#000000;fill-opacity:1;fill-rule:nonzero;stroke:none"
           d="m 15.257,99.168 h 3.814 v -3.814 h -3.814 z m 15.256,0 h 3.814 v -3.814 h -3.814 z m 15.257,0 h 3.814 V 95.354 H 45.77 Z m 3.814,-9.535 c 0,-1.051 -0.855,-1.907 -1.907,-1.907 H 17.164 c -1.052,0 -1.907,0.856 -1.907,1.907 V 91.54 H 49.584 Z M 40.777,76.283 H 24.064 l -3.815,7.628 h 24.342 z m 6.9,-30.513 H 17.164 v 1.907 c 0,1.05 0.854,1.907 1.907,1.907 H 45.77 c 1.052,0 1.907,-0.857 1.907,-1.907 z M 24.5,72.469 H 40.338 L 43.517,53.398 H 21.321 Z M 15.91,84.061 20.902,74.079 17.41,53.124 C 15.068,52.406 13.349,50.25 13.349,47.677 v -5.721 h 38.142 v 5.721 c 0,2.573 -1.718,4.729 -4.06,5.447 l -3.492,20.955 4.991,9.982 c 2.552,0.573 4.468,2.848 4.468,5.572 v 13.349 H 41.956 v -7.628 h -3.815 v 7.628 H 26.699 v -7.628 h -3.814 v 7.628 H 11.443 V 89.633 c 0,-2.724 1.916,-4.999 4.467,-5.572" /><path
           id="path34"
           style="fill:#000000;fill-opacity:1;fill-rule:nonzero;stroke:none"
           d="M 57.212,102.982 H 83.911 V 99.168 H 57.212 Z" /><path
           id="path36"
           style="fill:#000000;fill-opacity:1;fill-rule:nonzero;stroke:none"
           d="M 57.212,95.354 H 83.911 V 91.54 H 57.212 Z" /><path
           id="path38"
           style="fill:#000000;fill-opacity:1;fill-rule:nonzero;stroke:none"
           d="M 57.212,87.726 H 83.911 V 83.912 H 57.212 Z" /><path
           id="path40"
           style="fill:#000000;fill-opacity:1;fill-rule:nonzero;stroke:none"
           d="M 57.212,80.097 H 83.911 V 76.283 H 57.212 Z" /><path
           id="path42"
           style="fill:#000000;fill-opacity:1;fill-rule:nonzero;stroke:none"
           d="m 80.097,72.469 h 3.814 v -3.814 h -3.814 z" /><path
           id="path44"
           style="fill:#000000;fill-opacity:1;fill-rule:nonzero;stroke:none"
           d="M 57.212,72.469 H 76.283 V 68.655 H 57.212 Z" /></g></g><g
       id="g46"><g
         clip-path="url(#clipPath52)"
         id="g48"><path
           id="path54"
           style="fill:#000000;fill-opacity:1;fill-rule:nonzero;stroke:none"
           d="M 0,3.814 H 3.814 V 0 H 0 Z" /><path
           id="path56"
           style="fill:#000000;fill-opacity:1;fill-rule:nonzero;stroke:none"
           d="m 114.425,3.814 h 3.814 V 0 h -3.814 z" /></g></g></g></svg>