<?xml version="1.0" encoding="UTF-8" standalone="no"?>
<svg
   xmlns:dc="http://purl.org/dc/elements/1.1/"
   xmlns:cc="http://creativecommons.org/ns#"
   xmlns:rdf="http://www.w3.org/1999/02/22-rdf-syntax-ns#"
   xmlns:svg="http://www.w3.org/2000/svg"
   xmlns="http://www.w3.org/2000/svg"
   viewBox="0 0 147.48 157.65199"
   height="157.65199"
   width="147.48"
   xml:space="preserve"
   id="svg2"
   version="1.1"><metadata
     id="metadata8"><rdf:RDF><cc:Work
         rdf:about=""><dc:format>image/svg+xml</dc:format><dc:type
           rdf:resource="http://purl.org/dc/dcmitype/StillImage" /></cc:Work></rdf:RDF></metadata><defs
     id="defs6"><clipPath
       id="clipPath18"
       clipPathUnits="userSpaceOnUse"><path
         id="path16"
         d="M 0,118.239 H 110.61 V 0 H 0 Z" /></clipPath></defs><g
     transform="matrix(1.3333333,0,0,-1.3333333,0,157.652)"
     id="g10"><g
       id="g12"><g
         clip-path="url(#clipPath18)"
         id="g14"><g
           transform="translate(82.8644,91.9912)"
           id="g20"><path
             id="path22"
             style="fill:#ff2d3c;fill-opacity:1;fill-rule:nonzero;stroke:none"
             d="m 0,0 c -8.048,7.637 -18.59,11.502 -29.722,10.934 -20.791,-1.095 -37.43,-18.275 -37.877,-39.115 -0.253,-11.784 4.675,-23.025 13.523,-30.844 1.676,-1.483 3.008,-3.23 3.962,-5.193 l 45.068,0.011 c 0.917,1.922 2.192,3.599 3.782,4.985 8.74,7.613 13.753,18.605 13.753,30.164 C 12.489,-17.96 8.054,-7.641 0,0" /></g><path
           id="path24"
           style="fill:#000000;fill-opacity:1;fill-rule:nonzero;stroke:none"
           d="m 53.399,118.239 h 3.813 v -11.442 h -3.813 z" /><g
           transform="translate(14.8507,100.6904)"
           id="g26"><path
             id="path28"
             style="fill:#000000;fill-opacity:1;fill-rule:nonzero;stroke:none"
             d="m 0,0 2.696,2.697 8.091,-8.09 -2.698,-2.696 z" /></g><path
           id="path30"
           style="fill:#000000;fill-opacity:1;fill-rule:nonzero;stroke:none"
           d="M 0,64.841 H 11.442 V 61.027 H 0 Z" /><path
           id="path32"
           style="fill:#000000;fill-opacity:1;fill-rule:nonzero;stroke:none"
           d="M 99.168,64.841 H 110.61 V 61.027 H 99.168 Z" /><g
           transform="translate(84.9708,95.2979)"
           id="g34"><path
             id="path36"
             style="fill:#000000;fill-opacity:1;fill-rule:nonzero;stroke:none"
             d="M 0,0 8.091,8.089 10.787,5.393 2.698,-2.697 Z" /></g><g
           transform="translate(78.1905,15.2564)"
           id="g38"><path
             id="path40"
             style="fill:#000000;fill-opacity:1;fill-rule:nonzero;stroke:none"
             d="m 0,0 h -45.771 c -1.049,0 -1.907,0.855 -1.907,1.907 0,1.053 0.858,1.907 1.907,1.907 H 0 C 1.05,3.814 1.906,2.96 1.906,1.907 1.906,0.855 1.05,0 0,0 m -22.886,-11.442 c -5.806,0 -11.085,2.925 -14.233,7.629 h 28.473 c -3.15,-4.702 -8.449,-7.629 -14.24,-7.629 M -45.771,11.443 H 0 c 1.05,0 1.906,-0.855 1.906,-1.907 C 1.906,8.483 1.05,7.628 0,7.628 h -45.771 c -1.049,0 -1.907,0.855 -1.907,1.908 0,1.052 0.858,1.907 1.907,1.907 M 0,15.257 h -45.771 c -3.153,0 -5.72,-2.568 -5.72,-5.721 0,-1.471 0.573,-2.8 1.486,-3.814 -0.915,-1.015 -1.486,-2.344 -1.486,-3.815 0,-3.153 2.567,-5.72 5.72,-5.72 h 4.197 c 3.565,-6.998 10.746,-11.444 18.688,-11.444 7.916,0 15.113,4.453 18.682,11.444 H 0 c 3.153,0 5.721,2.567 5.721,5.72 0,1.471 -0.574,2.8 -1.488,3.815 0.916,1.014 1.488,2.343 1.488,3.814 0,3.153 -2.568,5.721 -5.721,5.721" /></g><g
           transform="translate(82.004,68.6548)"
           id="g42"><path
             id="path44"
             style="fill:#000000;fill-opacity:1;fill-rule:nonzero;stroke:none"
             d="m 0,0 h -1.703 c -2.891,0 -5.404,-2.052 -5.847,-4.775 -0.272,-1.676 0.196,-3.372 1.285,-4.651 1.09,-1.28 2.678,-2.016 4.358,-2.016 H 0 v -1.908 c 0,-1.052 -0.856,-1.907 -1.907,-1.907 h -20.978 v 3.815 h 1.907 c 1.68,0 3.269,0.733 4.36,2.016 1.091,1.281 1.558,2.976 1.285,4.653 C -15.777,-2.052 -18.29,0 -21.182,0 h -1.703 v 3.814 h 9.535 v 5.721 c 0,0.561 0.245,1.09 0.674,1.456 0.433,0.367 0.987,0.522 1.567,0.425 0.883,-0.145 1.574,-1.059 1.574,-2.084 V 3.814 h 7.628 C -0.856,3.814 0,2.959 0,1.907 Z m -30.513,-15.257 c 0,1.682 -0.734,3.271 -2.018,4.36 -1.28,1.088 -2.977,1.558 -4.652,1.285 -2.658,-0.435 -4.675,-2.839 -4.768,-5.645 h -1.911 c -1.051,0 -1.908,0.855 -1.908,1.907 v 5.722 h -5.721 c -0.561,0 -1.09,0.245 -1.453,0.673 -0.369,0.434 -0.519,0.992 -0.427,1.567 0.144,0.884 1.059,1.574 2.084,1.574 h 5.517 v 5.721 c 0,1.052 0.857,1.907 1.908,1.907 h 1.907 c 0,-1.682 0.733,-3.27 2.016,-4.36 1.279,-1.088 2.98,-1.554 4.651,-1.285 2.658,0.435 4.679,2.839 4.769,5.645 h 3.82 v -7.628 h 5.517 c 1.025,0 1.94,-0.69 2.084,-1.572 0.094,-0.579 -0.056,-1.136 -0.425,-1.569 -0.364,-0.428 -0.894,-0.673 -1.455,-0.673 h -5.721 v -7.629 z M -1.907,7.628 h -3.814 v 1.704 c 0,2.891 -2.052,5.406 -4.773,5.848 -1.671,0.271 -3.372,-0.197 -4.652,-1.285 -1.284,-1.089 -2.017,-2.678 -2.017,-4.36 V 7.628 H -34.327 V 4.016 c 0,-1.024 -0.691,-1.939 -1.574,-2.082 -0.578,-0.1 -1.134,0.057 -1.567,0.425 -0.429,0.365 -0.674,0.894 -0.674,1.455 v 3.814 h -5.72 c -3.155,0 -5.722,-2.567 -5.722,-5.721 V 0 h -1.703 c -2.891,0 -5.404,-2.052 -5.847,-4.775 -0.272,-1.676 0.196,-3.372 1.285,-4.651 1.09,-1.28 2.678,-2.016 4.358,-2.016 h 1.907 v -1.908 c 0,-3.153 2.567,-5.721 5.722,-5.721 h 5.72 v 3.611 c 0,1.025 0.691,1.941 1.575,2.084 0.579,0.097 1.133,-0.058 1.567,-0.425 0.429,-0.366 0.673,-0.895 0.673,-1.456 v -3.814 h 32.42 c 3.154,0 5.721,2.568 5.721,5.721 v 5.722 h -5.721 c -0.561,0 -1.09,0.245 -1.453,0.673 -0.369,0.434 -0.519,0.992 -0.427,1.567 0.144,0.884 1.059,1.574 2.084,1.574 h 5.517 v 5.721 c 0,3.154 -2.567,5.721 -5.721,5.721" /></g></g></g></g></svg>