<?xml version="1.0" encoding="UTF-8" standalone="no"?>
<svg
   xmlns:dc="http://purl.org/dc/elements/1.1/"
   xmlns:cc="http://creativecommons.org/ns#"
   xmlns:rdf="http://www.w3.org/1999/02/22-rdf-syntax-ns#"
   xmlns:svg="http://www.w3.org/2000/svg"
   xmlns="http://www.w3.org/2000/svg"
   viewBox="0 0 125.14853 125.14853"
   height="125.14853"
   width="125.14853"
   xml:space="preserve"
   id="svg2"
   version="1.1"><metadata
     id="metadata8"><rdf:RDF><cc:Work
         rdf:about=""><dc:format>image/svg+xml</dc:format><dc:type
           rdf:resource="http://purl.org/dc/dcmitype/StillImage" /></cc:Work></rdf:RDF></metadata><defs
     id="defs6"><clipPath
       id="clipPath18"
       clipPathUnits="userSpaceOnUse"><path
         id="path16"
         d="M 0,93.861 H 93.861 V 0 H 0 Z" /></clipPath></defs><g
     transform="matrix(1.3333333,0,0,-1.3333333,0,125.14853)"
     id="g10"><g
       id="g12"><g
         clip-path="url(#clipPath18)"
         id="g14"><g
           transform="translate(72.6665,62.4912)"
           id="g20"><path
             id="path22"
             style="fill:#010101;fill-opacity:1;fill-rule:nonzero;stroke:none"
             d="m 0,0 v 11.266 l -4.152,1.386 c -0.368,1.141 -0.823,2.242 -1.356,3.287 l 1.953,3.909 -7.966,7.967 -3.908,-1.953 c -1.045,0.534 -2.147,0.987 -3.287,1.356 l -1.387,4.152 h -11.265 l -1.387,-4.152 c -1.14,-0.368 -2.24,-0.822 -3.286,-1.356 l -3.909,1.953 -7.967,-7.965 1.953,-3.91 c -0.533,-1.044 -0.986,-2.146 -1.355,-3.286 l -4.153,-1.386 V 0.002 l 4.153,-1.387 c 0.367,-1.139 0.822,-2.24 1.355,-3.286 l -1.926,-3.857 5.893,-6.532 6.728,2.37 -1.064,3.185 v 6.056 h 10.598 c -5.018,0 -9.084,4.066 -9.084,9.083 0,5.017 4.066,9.084 9.084,9.084 5.016,0 9.083,-4.067 9.083,-9.084 0,-5.017 -4.067,-9.083 -9.083,-9.083 h 10.596 v -6.056 l -1.062,-3.186 6.727,-2.37 5.894,6.531 -1.926,3.857 c 0.533,1.045 0.986,2.147 1.355,3.286 z" /></g><g
           transform="translate(33.9263,64.043)"
           id="g24"><path
             id="path26"
             style="fill:#ffffff;fill-opacity:1;fill-rule:nonzero;stroke:none"
             d="m 0,0 c -0.411,1.317 -0.621,2.691 -0.621,4.082 0,7.514 6.112,13.625 13.626,13.625 7.513,0 13.625,-6.111 13.625,-13.625 0,-1.456 -0.228,-2.889 -0.679,-4.257 l 2.877,-0.946 c 0.549,1.675 0.829,3.425 0.829,5.203 0,9.182 -7.47,16.653 -16.652,16.653 -9.183,0 -16.653,-7.471 -16.653,-16.653 0,-1.698 0.255,-3.376 0.759,-4.988 z" /></g><path
           id="path28"
           style="fill:#ffffff;fill-opacity:1;fill-rule:nonzero;stroke:none"
           d="M 56.014,54.5 H 37.847 v 3.028 H 56.014 Z M 39.361,68.125 c 0,4.174 3.396,7.569 7.57,7.569 4.173,0 7.57,-3.395 7.57,-7.569 0,-4.174 -3.397,-7.569 -7.57,-7.569 -4.174,0 -7.57,3.395 -7.57,7.569 M 59.042,21.194 H 34.82 v 1.514 c 0,0.836 0.679,1.515 1.514,1.515 h 21.194 c 0.835,0 1.514,-0.679 1.514,-1.515 z M 40.644,42.389 H 53.217 L 55.742,27.25 H 38.12 Z m 12.765,3.028 H 40.453 l -2.02,6.056 H 55.426 Z M 31.792,22.708 V 18.167 H 62.07 v 4.541 c 0,2.043 -1.364,3.755 -3.223,4.324 l -2.792,16.748 2.987,8.961 v 7.815 h -4.709 c 1.968,1.925 3.195,4.605 3.195,7.569 0,5.842 -4.755,10.598 -10.597,10.598 -5.843,0 -10.597,-4.756 -10.597,-10.598 0,-2.964 1.226,-5.644 3.195,-7.569 H 34.82 V 52.741 L 37.806,43.78 35.014,27.032 c -1.858,-0.569 -3.222,-2.281 -3.222,-4.324" /><g
           transform="translate(90.8335,7.5693)"
           id="g30"><path
             id="path32"
             style="fill:#ffffff;fill-opacity:1;fill-rule:nonzero;stroke:none"
             d="m 0,0 c 0,-2.504 -2.038,-4.542 -4.542,-4.542 h -78.722 c -2.504,0 -4.542,2.038 -4.542,4.542 v 4.542 h 27.25 V 3.028 c 0,-2.504 2.038,-4.542 4.542,-4.542 h 24.222 c 2.504,0 4.542,2.038 4.542,4.542 V 4.542 H 0 Z m -57.528,4.542 h 27.251 V 3.028 c 0,-0.836 -0.679,-1.514 -1.515,-1.514 h -24.222 c -0.836,0 -1.514,0.678 -1.514,1.514 z M 0,7.569 v 49.959 c 0,4.174 -3.396,7.57 -7.569,7.57 h -10.598 v -3.029 h 10.598 c 2.504,0 4.542,-2.038 4.542,-4.541 V 7.569 h -81.751 v 49.959 c 0,2.503 2.038,4.541 4.542,4.541 h 10.597 v 3.029 h -10.597 c -4.174,0 -7.57,-3.396 -7.57,-7.57 V 7.569 h -3.028 V 0 c 0,-4.174 3.396,-7.569 7.57,-7.569 h 78.722 c 4.174,0 7.57,3.395 7.57,7.569 v 7.569 z" /></g><path
           id="path34"
           style="fill:#ffffff;fill-opacity:1;fill-rule:nonzero;stroke:none"
           d="m 9.084,9.083 h 3.027 V 6.056 H 9.084 Z" /><path
           id="path36"
           style="fill:#ffffff;fill-opacity:1;fill-rule:nonzero;stroke:none"
           d="m 15.139,9.083 h 3.027 V 6.056 h -3.027 z" /><path
           id="path38"
           style="fill:#ffffff;fill-opacity:1;fill-rule:nonzero;stroke:none"
           d="m 21.195,9.083 h 3.027 V 6.056 h -3.027 z" /><g
           transform="translate(81.7505,18.167)"
           id="g40"><path
             id="path42"
             style="fill:#ffffff;fill-opacity:1;fill-rule:nonzero;stroke:none"
             d="M 0,0 H 3.027 V 45.417 C 3.027,47.086 1.67,48.444 0,48.444 H -9.084 V 45.417 H 0 Z" /></g><g
           transform="translate(9.0835,63.584)"
           id="g44"><path
             id="path46"
             style="fill:#ffffff;fill-opacity:1;fill-rule:nonzero;stroke:none"
             d="M 0,0 V -45.417 H 3.027 V 0 h 9.084 V 3.027 H 3.027 C 1.357,3.027 0,1.669 0,0" /></g></g></g></g></svg>