<?xml version="1.0" encoding="UTF-8" standalone="no"?>
<svg
   xmlns:dc="http://purl.org/dc/elements/1.1/"
   xmlns:cc="http://creativecommons.org/ns#"
   xmlns:rdf="http://www.w3.org/1999/02/22-rdf-syntax-ns#"
   xmlns:svg="http://www.w3.org/2000/svg"
   xmlns="http://www.w3.org/2000/svg"
   viewBox="0 0 125.14853 125.14853"
   height="125.14853"
   width="125.14853"
   xml:space="preserve"
   id="svg2"
   version="1.1"><metadata
     id="metadata8"><rdf:RDF><cc:Work
         rdf:about=""><dc:format>image/svg+xml</dc:format><dc:type
           rdf:resource="http://purl.org/dc/dcmitype/StillImage" /></cc:Work></rdf:RDF></metadata><defs
     id="defs6"><clipPath
       id="clipPath18"
       clipPathUnits="userSpaceOnUse"><path
         id="path16"
         d="M 0,93.861 H 93.861 V 0 H 0 Z" /></clipPath><clipPath
       id="clipPath50"
       clipPathUnits="userSpaceOnUse"><path
         id="path48"
         d="M 0,0 H 93.861 V 93.861 H 0 Z" /></clipPath></defs><g
     transform="matrix(1.3333333,0,0,-1.3333333,0,125.14853)"
     id="g10"><g
       id="g12"><g
         clip-path="url(#clipPath18)"
         id="g14"><g
           transform="translate(83.2643,39.7744)"
           id="g20"><path
             id="path22"
             style="fill:#010101;fill-opacity:1;fill-rule:nonzero;stroke:none"
             d="m 0,0 v 14.469 l -5.786,1.465 c -0.668,2.355 -1.607,4.619 -2.795,6.751 l 3.054,5.128 -10.229,10.23 -5.115,-3.048 c -3.389,1.898 -7.096,3.137 -10.921,3.693 v -7.669 c 11.204,-2.13 19.681,-11.962 19.681,-23.786 0,-13.378 -10.844,-24.222 -24.223,-24.222 -13.378,0 -24.222,10.844 -24.222,24.222 0,11.824 8.477,21.656 19.681,23.782 v 7.667 c -3.807,-0.559 -7.503,-1.802 -10.897,-3.703 l -5.14,3.06 -10.228,-10.227 3.054,-5.129 c -1.189,-2.131 -2.126,-4.395 -2.796,-6.75 l -5.785,-1.466 V -0.001 l 5.785,-1.466 c 0.669,-2.355 1.607,-4.619 2.796,-6.75 l -3.056,-5.128 10.23,-10.23 5.129,3.054 c 2.132,-1.188 4.395,-2.125 6.751,-2.794 l 1.466,-5.786 H -29.1 l 1.467,5.788 c 2.356,0.667 4.618,1.606 6.75,2.794 l 5.13,-3.055 10.229,10.23 -3.055,5.128 c 1.188,2.132 2.125,4.395 2.795,6.751 z" /></g><g
           transform="translate(46.9304,51.5488)"
           id="g24"><path
             id="path26"
             style="fill:#ffffff;fill-opacity:1;fill-rule:nonzero;stroke:none"
             d="m 0,0 c 0.836,0 1.515,-0.678 1.515,-1.514 h 3.027 c 0,1.972 -1.27,3.637 -3.027,4.264 V 6.056 H -1.514 V 2.75 c -1.757,-0.627 -3.027,-2.292 -3.027,-4.264 0,-2.504 2.038,-4.542 4.541,-4.542 0.836,0 1.515,-0.677 1.515,-1.513 0,-0.835 -0.679,-1.514 -1.515,-1.514 -0.835,0 -1.514,0.679 -1.514,1.514 h -3.027 c 0,-1.971 1.27,-3.636 3.027,-4.263 v -3.307 h 3.029 v 3.307 c 1.757,0.627 3.027,2.292 3.027,4.263 0,2.505 -2.038,4.542 -4.542,4.542 -0.835,0 -1.514,0.678 -1.514,1.513 C -1.514,-0.678 -0.835,0 0,0" /></g><g
           transform="translate(46.9304,33.3828)"
           id="g28"><path
             id="path30"
             style="fill:#ffffff;fill-opacity:1;fill-rule:nonzero;stroke:none"
             d="m 0,0 c -7.513,0 -13.625,6.111 -13.625,13.625 0,7.514 6.112,13.625 13.625,13.625 7.514,0 13.625,-6.111 13.625,-13.625 C 13.625,6.111 7.514,0 0,0 m 0,30.277 c -9.182,0 -16.652,-7.469 -16.652,-16.652 0,-9.182 7.47,-16.653 16.652,-16.653 9.182,0 16.653,7.471 16.653,16.653 0,9.183 -7.471,16.652 -16.653,16.652" /></g><g
           transform="translate(46.9304,24.2988)"
           id="g32"><path
             id="path34"
             style="fill:#ffffff;fill-opacity:1;fill-rule:nonzero;stroke:none"
             d="m 0,0 c -12.521,0 -22.708,10.188 -22.708,22.709 0,12.521 10.187,22.708 22.708,22.708 12.521,0 22.709,-10.187 22.709,-22.708 C 22.709,10.188 12.521,0 0,0 M -3.027,54.5 H 3.028 V 48.251 C 2.033,48.368 1.027,48.445 0,48.445 c -1.026,0 -2.032,-0.077 -3.027,-0.194 z m -6.056,7.57 c 0,0.836 0.679,1.514 1.514,1.514 H 7.569 c 0.836,0 1.515,-0.678 1.515,-1.514 V 57.528 H -9.083 Z M 25.736,22.709 c 0,12.102 -8.407,22.253 -19.68,24.987 V 54.5 h 6.055 v 7.57 c 0,2.504 -2.038,4.541 -4.542,4.541 H -7.569 c -2.503,0 -4.541,-2.037 -4.541,-4.541 V 54.5 h 6.054 V 47.696 C -17.329,44.962 -25.736,34.811 -25.736,22.709 -25.736,8.518 -14.19,-3.027 0,-3.027 c 14.191,0 25.736,11.545 25.736,25.736" /></g><g
           transform="translate(27.2712,80.5615)"
           id="g36"><path
             id="path38"
             style="fill:#ffffff;fill-opacity:1;fill-rule:nonzero;stroke:none"
             d="M 0,0 2.986,-0.496 4.714,9.863 -5.597,13.3 -6.555,10.43 -1.023,8.586 c -16.063,-7.855 -26.248,-24.004 -26.248,-42.14 h 3.028 c 0,17.234 9.837,32.538 25.274,39.749 z" /></g><path
           id="path40"
           style="fill:#ffffff;fill-opacity:1;fill-rule:nonzero;stroke:none"
           d="M 0,43.979 H 3.028 V 40.952 H 0 Z" /><path
           id="path42"
           style="fill:#ffffff;fill-opacity:1;fill-rule:nonzero;stroke:none"
           d="M 0,37.924 H 3.028 V 34.897 H 0 Z" /></g></g><g
       id="g44"><g
         clip-path="url(#clipPath50)"
         id="g46"><g
           transform="translate(65.5593,7.2588)"
           id="g52"><path
             id="path54"
             style="fill:#ffffff;fill-opacity:1;fill-rule:nonzero;stroke:none"
             d="M 0,0 1.032,6.195 -1.954,6.691 -3.682,-3.668 6.63,-7.104 l 0.957,2.87 -5.531,1.843 c 16.06,7.855 26.246,24.003 26.246,42.14 H 25.274 C 25.274,22.517 15.438,7.211 0,0" /></g><path
           id="path56"
           style="fill:#ffffff;fill-opacity:1;fill-rule:nonzero;stroke:none"
           d="m 90.834,53.063 h 3.027 v -3.028 h -3.027 z" /><path
           id="path58"
           style="fill:#ffffff;fill-opacity:1;fill-rule:nonzero;stroke:none"
           d="m 90.834,59.119 h 3.027 v -3.028 h -3.027 z" /></g></g></g></svg>