<?xml version="1.0" encoding="UTF-8" standalone="no"?>
<svg
   xmlns:dc="http://purl.org/dc/elements/1.1/"
   xmlns:cc="http://creativecommons.org/ns#"
   xmlns:rdf="http://www.w3.org/1999/02/22-rdf-syntax-ns#"
   xmlns:svg="http://www.w3.org/2000/svg"
   xmlns="http://www.w3.org/2000/svg"
   viewBox="0 0 125.14853 125.14853"
   height="125.14853"
   width="125.14853"
   xml:space="preserve"
   id="svg2"
   version="1.1"><metadata
     id="metadata8"><rdf:RDF><cc:Work
         rdf:about=""><dc:format>image/svg+xml</dc:format><dc:type
           rdf:resource="http://purl.org/dc/dcmitype/StillImage" /></cc:Work></rdf:RDF></metadata><defs
     id="defs6"><clipPath
       id="clipPath18"
       clipPathUnits="userSpaceOnUse"><path
         id="path16"
         d="M 0,93.861 H 93.861 V 0 H 0 Z" /></clipPath></defs><g
     transform="matrix(1.3333333,0,0,-1.3333333,0,125.14853)"
     id="g10"><g
       id="g12"><g
         clip-path="url(#clipPath18)"
         id="g14"><g
           transform="translate(73.8022,54.5)"
           id="g20"><path
             id="path22"
             style="fill:#010101;fill-opacity:1;fill-rule:nonzero;stroke:none"
             d="m 0,0 c -3.008,0 -5.993,-0.995 -8.401,-2.802 l -2.539,-1.903 c -3.203,-1.18 -5.334,-4.221 -5.334,-7.651 v -10.352 h 1.513 c 0,2.509 2.033,4.541 4.542,4.541 v 3.028 c 2.961,0 5.858,0.877 8.321,2.519 l 0.762,0.509 0.764,-0.509 c 2.463,-1.642 5.359,-2.519 8.32,-2.519 v -3.028 c 2.509,0 4.542,-2.032 4.542,-4.541 h 1.514 v 8.705 C 14.004,-6.281 7.723,0 0,0" /></g><g
           transform="translate(54.5004,62.0693)"
           id="g24"><path
             id="path26"
             style="fill:#010101;fill-opacity:1;fill-rule:nonzero;stroke:none"
             d="m 0,0 c 0,-4.18 -3.39,-7.569 -7.569,-7.569 -4.181,0 -7.571,3.389 -7.571,7.569 0,4.181 3.39,7.569 7.571,7.569 C -3.39,7.569 0,4.181 0,0" /></g><g
           transform="translate(31.0004,49.7969)"
           id="g28"><path
             id="path30"
             style="fill:#010101;fill-opacity:1;fill-rule:nonzero;stroke:none"
             d="m 0,0 -2.54,1.901 c -2.408,1.807 -5.394,2.802 -8.401,2.802 -7.723,0 -14.003,-6.281 -14.003,-14.003 v -8.705 h 1.513 c 0,2.509 2.033,4.541 4.541,4.541 0,1.673 1.356,3.028 3.029,3.028 H -3.75 c 1.673,0 3.027,-1.355 3.027,-3.028 2.509,0 4.542,-2.032 4.542,-4.541 H 5.333 V -7.653 C 5.333,-4.223 3.201,-1.182 0,0" /></g><g
           transform="translate(49.9584,42.3887)"
           id="g32"><path
             id="path34"
             style="fill:#ffffff;fill-opacity:1;fill-rule:nonzero;stroke:none"
             d="M 0,0 H -6.056 C -6.89,0 -7.569,0.679 -7.569,1.515 V 3.028 H 1.514 V 1.515 C 1.514,0.679 0.834,0 0,0 m -4.542,19.681 c 0,0.836 0.681,1.514 1.515,1.514 0.833,0 1.513,-0.678 1.513,-1.514 0,-0.835 -0.68,-1.514 -1.513,-1.514 -0.834,0 -1.515,0.679 -1.515,1.514 m -4.833,-8.474 c -3.149,2.362 -4.727,6.262 -4.115,10.183 0.715,4.596 4.605,8.305 9.246,8.82 0.413,0.045 0.823,0.068 1.228,0.068 2.618,0 5.086,-0.937 7.055,-2.7 2.243,-2.008 3.53,-4.888 3.53,-7.897 0,-3.365 -1.549,-6.452 -4.256,-8.478 C 2.186,10.358 1.514,9.01 1.514,7.598 V 6.056 h -3.028 v 9.362 c 1.758,0.627 3.028,2.292 3.028,4.263 0,2.504 -2.038,4.542 -4.541,4.542 -2.504,0 -4.542,-2.038 -4.542,-4.542 0,-1.971 1.269,-3.636 3.027,-4.263 V 6.056 h -3.027 v 1.542 c 0,1.412 -0.675,2.761 -1.806,3.609 m -14.848,6.96 c -4.173,0 -7.569,3.395 -7.569,7.569 0,4.174 3.396,7.57 7.569,7.57 1.332,0 2.641,-0.35 3.784,-1.011 l 1.517,2.619 c -1.603,0.929 -3.436,1.42 -5.301,1.42 -0.51,0 -1.009,-0.049 -1.503,-0.12 0,0.042 -0.01,0.081 -0.01,0.12 0,5.01 4.074,9.083 9.084,9.083 2.023,0 3.941,-0.666 5.519,-1.879 -1.57,-2.54 -2.492,-5.519 -2.492,-8.718 h 3.027 c 0,7.513 6.115,13.625 13.626,13.625 7.512,0 13.625,-6.112 13.625,-13.625 v -1.514 h 1.514 c 4.174,0 7.569,-3.396 7.569,-7.57 0,-4.174 -3.395,-7.569 -7.569,-7.569 H 10.51 c 0.055,0.5 0.088,1.004 0.088,1.514 0,3.87 -1.655,7.569 -4.539,10.152 -2.882,2.581 -6.757,3.816 -10.635,3.387 -5.978,-0.663 -10.985,-5.443 -11.907,-11.366 -0.194,-1.24 -0.212,-2.479 -0.075,-3.688 h -7.665 z M 4.542,1.515 V 3.028 H 7.569 V 6.056 H 4.542 v 1.542 c 0,0.465 0.221,0.909 0.587,1.182 2.208,1.653 3.81,3.862 4.691,6.36 h 8.347 c 5.843,0 10.597,4.755 10.597,10.596 0,5.351 -3.985,9.787 -9.144,10.499 -0.72,8.522 -7.886,15.238 -16.592,15.238 -4.897,0 -9.296,-2.14 -12.344,-5.516 -2.1,1.606 -4.648,2.488 -7.336,2.488 -6.679,0 -12.112,-5.433 -12.112,-12.111 0,-0.34 0.02,-0.677 0.046,-1.015 -3.599,-1.695 -6.101,-5.348 -6.101,-9.583 0,-5.841 4.754,-10.596 10.596,-10.596 h 8.388 c 0.882,-2.487 2.454,-4.713 4.643,-6.353 0.373,-0.28 0.594,-0.724 0.594,-1.189 V 6.056 h -3.027 V 3.028 h 3.027 V 1.515 c 0,-2.504 2.038,-4.542 4.542,-4.542 H 0 c 2.504,0 4.542,2.038 4.542,4.542" /></g><g
           transform="translate(39.3607,3.0273)"
           id="g36"><path
             id="path38"
             style="fill:#ffffff;fill-opacity:1;fill-rule:nonzero;stroke:none"
             d="M 0,0 H -6.055 V 6.056 H -9.083 V 0 H -27.25 v 6.056 h -3.027 V 0 h -6.056 v 7.747 c 0,1.958 1.248,3.69 3.104,4.31 l 3.698,1.232 4.766,-9.531 6.599,4.947 6.597,-4.947 4.766,9.531 3.698,-1.232 C -1.247,11.437 0,9.705 0,7.747 Z m -24.631,14.921 4.16,-4.16 -3.208,-2.407 -2.95,5.901 z m 6.465,1.732 c 1.628,0 3.164,0.375 4.541,1.036 v -0.408 l -4.541,-4.541 -4.542,4.541 v 0.408 c 1.378,-0.661 2.914,-1.036 4.542,-1.036 m -7.569,16.653 c 0,0.836 0.679,1.514 1.513,1.514 h 12.112 c 0.833,0 1.513,-0.678 1.513,-1.514 v -6.055 c 0,-4.174 -3.395,-7.57 -7.569,-7.57 -4.174,0 -7.569,3.396 -7.569,7.57 z m 16.031,-19.051 -2.948,-5.901 -3.208,2.407 4.16,4.16 z m -20.573,14.51 c 0,1.115 0.612,2.081 1.513,2.606 v -4.12 c 0,-0.381 0.024,-0.756 0.063,-1.127 -0.935,0.517 -1.576,1.501 -1.576,2.641 m 22.708,-1.514 v 4.12 c 0.901,-0.525 1.514,-1.491 1.514,-2.606 0,-1.14 -0.642,-2.124 -1.576,-2.641 0.039,0.371 0.062,0.746 0.062,1.127 m 5.423,-12.324 -8.451,2.818 v 2.144 c 0.816,0.84 1.511,1.798 2.015,2.87 3.102,0.261 5.555,2.838 5.555,6.006 0,2.9 -2.052,5.324 -4.777,5.913 -0.586,1.832 -2.284,3.17 -4.306,3.17 h -12.112 c -2.022,0 -3.721,-1.338 -4.307,-3.17 -2.725,-0.589 -4.776,-3.013 -4.776,-5.913 0,-3.168 2.452,-5.745 5.554,-6.004 0.505,-1.073 1.199,-2.031 2.016,-2.87 v -2.145 l -8.452,-2.815 C -37.28,13.896 -39.36,11.01 -39.36,7.747 V -3.027 H 3.028 V 7.747 c 0,3.263 -2.08,6.149 -5.174,7.18" /></g><g
           transform="translate(90.8334,3.0273)"
           id="g40"><path
             id="path42"
             style="fill:#ffffff;fill-opacity:1;fill-rule:nonzero;stroke:none"
             d="M 0,0 H -6.056 V 6.056 H -9.083 V 0 h -7.569 v 7.57 l 5.083,-3.812 4.765,9.531 3.699,-1.232 C -1.248,11.437 0,9.705 0,7.747 Z m -36.333,7.747 c 0,1.958 1.248,3.69 3.104,4.31 l 3.698,1.232 4.765,-9.531 5.085,3.812 V 0 h -7.569 v 6.056 h -3.027 V 0 h -6.056 z m 11.702,7.174 4.16,-4.16 -3.208,-2.407 -2.949,5.901 z m 6.464,1.732 c 1.628,0 3.164,0.375 4.542,1.036 v -0.408 l -4.542,-4.541 -4.541,4.541 v 0.408 c 1.378,-0.661 2.914,-1.036 4.541,-1.036 m -7.569,18.237 c 2.7,0.245 5.29,1.15 7.569,2.653 2.28,-1.503 4.87,-2.408 7.57,-2.653 v -7.639 c 0,-4.174 -3.396,-7.57 -7.57,-7.57 -4.173,0 -7.569,3.396 -7.569,7.57 z m 16.032,-20.635 -2.948,-5.901 -3.209,2.407 4.16,4.16 z m -20.573,14.51 c 0,1.115 0.612,2.081 1.513,2.606 v -4.12 c 0,-0.381 0.023,-0.756 0.062,-1.127 -0.934,0.517 -1.575,1.501 -1.575,2.641 m 22.708,-1.514 v 4.12 c 0.901,-0.525 1.513,-1.491 1.513,-2.606 0,-1.14 -0.641,-2.124 -1.575,-2.641 0.039,0.371 0.062,0.746 0.062,1.127 m 5.423,-12.324 -8.451,2.818 v 2.144 c 0.816,0.84 1.511,1.798 2.015,2.87 3.102,0.261 5.555,2.838 5.555,6.006 0,2.813 -1.938,5.164 -4.542,5.839 v 3.244 h -1.514 c -2.672,0 -5.258,0.784 -7.48,2.264 l -1.604,1.07 -1.603,-1.07 c -2.222,-1.48 -4.808,-2.264 -7.48,-2.264 h -1.514 v -3.244 c -2.604,-0.675 -4.542,-3.026 -4.542,-5.839 0,-3.168 2.453,-5.745 5.555,-6.004 0.504,-1.073 1.199,-2.031 2.015,-2.87 v -2.145 l -8.451,-2.815 c -3.094,-1.035 -5.174,-3.921 -5.174,-7.184 V -3.027 H 3.028 V 7.747 c 0,3.263 -2.08,6.149 -5.174,7.18" /></g></g></g></g></svg>