<?xml version="1.0" encoding="UTF-8"?>
<!DOCTYPE svg PUBLIC "-//W3C//DTD SVG 1.1//EN" "http://www.w3.org/Graphics/SVG/1.1/DTD/svg11.dtd">
<!-- Creator: CorelDRAW X8 -->
<svg xmlns="http://www.w3.org/2000/svg" xml:space="preserve" width="3.30444cm" height="3.55041cm" version="1.1" style="shape-rendering:geometricPrecision; text-rendering:geometricPrecision; image-rendering:optimizeQuality; fill-rule:evenodd; clip-rule:evenodd"
viewBox="0 0 236 254"
 xmlns:xlink="http://www.w3.org/1999/xlink">
 <defs>
  <style type="text/css">
   <![CDATA[
    .fil0 {fill:red;fill-rule:nonzero}
    .fil1 {fill:white;fill-rule:nonzero}
   ]]>
  </style>
 </defs>
 <g id="Layer_x0020_1">
  <metadata id="CorelCorpID_0Corel-Layer"/>
  <g id="_2117207278864">
   <path class="fil0" d="M153 177c0,-45 -31,-72 -64,-72 -6,0 -13,0 -19,3l52 -102 -50 0 -51 107c-11,22 -21,43 -21,65 0,49 33,76 77,76 43,0 76,-28 76,-77zm-45 1c0,23 -13,36 -31,36 -19,0 -32,-13 -32,-36 0,-23 13,-36 32,-36 19,0 31,14 31,36z"/>
   <path class="fil1" d="M183 45l36 0c6,0 10,-1 13,-4 3,-4 4,-8 4,-13l0 -11c0,-5 -1,-10 -4,-13 -3,-3 -7,-4 -13,-4l-23 0c-7,0 -10,1 -13,6l5 5c2,-3 4,-4 8,-4l23 0c4,0 6,1 8,3 2,2 3,5 3,8l0 9c0,3 -1,6 -3,8 -2,2 -4,3 -8,3l-4 0c2,-3 4,-6 4,-10 0,-4 -2,-7 -5,-9 -3,-3 -7,-4 -13,-4 -7,0 -11,1 -14,4 -2,2 -4,6 -4,10 0,4 1,7 4,9l-3 0 -1 7zm18 -7c-7,0 -12,-2 -12,-8 0,-6 5,-7 12,-7 6,0 11,1 11,7 0,6 -5,8 -11,8zm-17 48l37 0 0 -30 -37 0 0 7 30 0 0 15 -30 0 0 8zm18 42c5,0 7,0 10,0 6,-2 10,-6 10,-13 0,-5 -2,-7 -5,-10l4 0 0 -7 -53 0 0 7 19 0c-3,3 -4,6 -4,10 0,4 1,7 3,9 3,3 8,4 16,4l0 0zm0 -7c-9,0 -12,-2 -12,-8 0,-5 3,-8 12,-8 4,0 7,1 9,2 3,1 4,3 4,6 0,6 -4,8 -13,8l0 0zm-2 48l3 0c11,0 19,-7 19,-16 0,-10 -8,-16 -20,-16 -12,0 -19,6 -19,17 0,6 2,9 6,14l4 -5c-2,-3 -3,-5 -3,-9 0,-7 4,-10 10,-10l0 25zm5 -8l0 -17c6,0 10,3 10,9 0,6 -5,8 -10,8zm-21 47l37 0 0 -26 -16 0c-14,0 -15,-4 -15,-7l0 -1 -6 0 0 3c0,8 4,12 20,12l10 0 0 11 -30 0 0 8zm20 32l0 -9c0,-4 2,-6 5,-6 4,0 6,2 6,6l0 9 -11 0zm-20 -14l14 7 0 7 -14 0 0 7 37 0 0 -18c0,-7 -5,-12 -11,-12 -6,0 -10,3 -11,8l-15 -8 0 9z"/>
  </g>
 </g>
</svg>
