<?xml version="1.0" encoding="UTF-8"?>
<!DOCTYPE svg PUBLIC "-//W3C//DTD SVG 1.1//EN" "http://www.w3.org/Graphics/SVG/1.1/DTD/svg11.dtd">
<!-- Creator: CorelDRAW X8 -->
<svg xmlns="http://www.w3.org/2000/svg" xml:space="preserve" width="6.84305cm" height="1.12539cm" version="1.1" style="shape-rendering:geometricPrecision; text-rendering:geometricPrecision; image-rendering:optimizeQuality; fill-rule:evenodd; clip-rule:evenodd"
viewBox="0 0 8223 1352"
 xmlns:xlink="http://www.w3.org/1999/xlink">
 <defs>
  <style type="text/css">
   <![CDATA[
    .fil0 {fill:white}
    .fil1 {fill:white;fill-rule:nonzero}
   ]]>
  </style>
 </defs>
 <g id="Layer_x0020_1">
  <metadata id="CorelCorpID_0Corel-Layer"/>
  <g id="_2208906629616">
   <path class="fil0" d="M7011 139c-3,1 -4,4 -6,7l-15 30c-1,1 -1,3 -2,4 -4,8 -15,31 -16,38l-2 6c-4,7 -7,15 -8,23 -3,2 -10,27 -10,30 -4,11 -7,23 -9,34 -1,4 -3,12 -4,16 -1,7 -2,11 -3,18 -2,11 -5,26 -5,39 -2,4 -4,37 -4,45l0 28 0 26c0,9 2,13 2,21l1 17c1,8 -2,3 2,6 -1,4 0,21 2,26 1,5 -2,1 2,4 -2,6 4,30 4,31 2,4 -1,1 3,3 -2,5 -1,8 1,13 0,1 0,5 1,6 2,6 0,2 3,5 -1,5 -1,4 1,9 1,3 1,6 2,8 1,4 2,6 2,9 1,0 2,4 2,4 2,4 -1,0 3,3 -2,6 0,9 3,18 2,5 4,13 9,17 -2,6 2,11 4,16l5 13c2,3 1,2 4,4 -1,4 2,12 6,14 -1,4 0,1 0,4 1,1 2,4 3,5l9 19c3,5 0,2 4,4 -1,5 7,16 10,21 0,0 2,3 2,3 3,4 0,1 4,4 0,2 -1,0 1,3l11 19c4,6 3,5 7,7 -1,4 5,10 9,17 1,1 2,2 3,3 2,2 1,1 4,3 0,3 5,9 8,12l5 5c0,4 10,15 15,19 0,1 1,2 1,2 1,0 1,0 1,1 1,0 1,0 1,0 0,5 1,2 6,9l25 24 29 -28c3,-3 2,-3 2,-5 5,-2 26,-21 26,-25 4,-2 14,-10 14,-14 5,-2 1,0 4,-3l9 -8c2,-2 3,-4 5,-6 4,-4 5,-3 5,-6 5,-2 4,-2 9,-7l18 -18c3,-4 2,-1 2,-4 6,-3 11,-9 16,-14 5,-5 10,-9 14,-15 -1,-3 0,-1 -2,-1 -2,-5 0,-2 -3,-6l-18 -19c-2,-1 -2,-2 -3,-3 -4,-5 -1,-3 -4,-3 -2,-7 -2,-4 -6,-9 -3,-4 -3,-6 -6,-7l-17 -25c-2,-6 -3,-6 -6,-11l-17 -31 -10 -23c-1,0 -2,-3 -2,-3 -2,-3 -1,-3 -2,-3 -1,-7 -3,-9 -5,-15 -1,-2 -3,-10 -5,-12 -1,-6 -2,-11 -4,-17 -1,-3 -2,-13 -5,-15 0,-7 -2,-14 -3,-20 -1,-6 -4,-13 -4,-18 -1,-9 -2,-17 -2,-28 -2,-5 -3,-41 -3,-49 1,-6 1,-16 2,-23 1,-7 3,-19 1,-24 4,-2 2,2 3,-10 2,-14 11,-49 15,-62 2,-5 3,-6 2,-10 2,-2 2,-2 5,-8 4,-13 13,-34 20,-47 1,-2 1,0 2,-3 1,-4 1,-1 0,-5 4,-2 3,-1 6,-7l12 -20c2,-3 2,-1 1,-4 6,-3 7,-8 14,-17l42 -50c-4,-3 -3,-3 -6,-3 -3,-8 -35,-38 -43,-46 -1,-1 -3,-3 -3,-3 -3,-2 -2,-2 -4,-2 -2,-5 0,-2 -4,-6l-19 -19c-7,-7 -5,-6 -9,-7 -2,-4 0,-1 -3,-5 -2,-2 -3,-3 -4,-4 -10,-10 -53,-54 -59,-58 -5,4 -26,25 -31,32l-6 7c-2,3 -2,3 -4,5l-14 17c0,0 -2,3 -2,3 -1,2 0,0 -1,3 -4,2 -14,18 -17,22l-4 7c-1,2 0,-1 -2,3 -2,2 -10,14 -12,18 -2,4 -4,7 -6,10 -3,4 -5,6 -5,12zm995 748c0,3 1,3 5,6 2,3 4,5 7,8 5,5 9,10 14,13 4,-2 25,-22 25,-27 4,-2 2,0 5,-3l17 -21c8,-10 5,-4 5,-8 7,-3 19,-22 23,-29 4,-5 3,-1 2,-6 5,-2 16,-20 19,-26 2,-5 1,-1 1,-4 5,-3 11,-15 13,-21 5,-7 3,-5 3,-8 5,-3 8,-12 13,-22 0,0 2,-4 2,-4 2,-5 2,0 0,-5 3,-2 2,-1 4,-4l13 -30c2,-6 3,-1 1,-7 5,-4 6,-11 9,-19 2,-5 6,-17 7,-23l11 -43 5 -19c2,-7 4,-15 2,-21 4,-4 4,-10 5,-18 1,-7 3,-13 0,-19 5,-2 3,0 3,-7 0,-4 0,-4 1,-8 1,-6 1,-13 -1,-18 2,-1 2,1 3,-4l0 -33 0 -27c0,-9 -1,-16 -2,-26 0,-6 -1,-6 -1,-12 0,-6 -1,-7 -1,-12 -1,-9 -3,-20 -4,-28 -1,-6 -3,-16 -4,-22 -1,-6 -3,-13 -4,-19 -1,-6 -3,-12 -4,-17 -2,-5 -11,-44 -15,-47 -1,-10 -14,-38 -18,-50l-6 -12c-1,-3 -1,-2 -2,-2 -1,-8 -7,-16 -10,-23 -2,-5 -9,-18 -11,-20l-11 -20c-5,-7 -32,-51 -37,-53 0,0 0,-1 -1,-1l-41 -50c-5,-6 -10,-12 -16,-16l-62 61c-2,2 -1,1 -2,2 -3,4 -1,0 -2,4 -4,1 -1,-1 -5,3l-24 24c0,1 -1,1 -1,1 0,0 0,1 0,1l-40 39c-2,3 0,0 -2,4 -3,0 0,-1 -4,2l-12 12c4,6 10,10 14,15 5,6 9,13 15,16 0,3 -3,-1 5,8l38 57c2,3 -2,0 2,2 -1,4 0,1 1,4l13 27c4,9 9,28 14,32 -1,4 0,5 2,10 1,3 1,6 3,10 1,4 2,7 3,10 2,8 1,8 4,11 -2,5 1,13 3,23 1,8 2,7 4,8 -3,7 3,29 2,44 0,10 2,21 2,34 -1,7 -2,6 -2,14 0,6 1,9 -1,14 0,14 -3,22 -3,35 -1,0 0,-3 -2,5l-4 26c-2,1 -1,0 -2,4l-13 43c-2,2 -16,39 -17,42 -4,1 -12,20 -15,24l-9 17 -24 33c-4,4 -3,1 -4,7 -4,0 -14,15 -21,22 -6,5 -5,4 -8,10 -2,-1 -1,-2 -2,1 3,5 15,16 21,22 1,1 2,2 3,3 4,4 1,2 6,4 0,4 21,23 25,27 4,3 1,1 5,3 1,3 -1,1 3,5 5,5 26,27 32,30 0,5 11,12 14,16 5,5 11,13 18,16zm-528 -527c-2,-5 -2,-3 -7,-8 -10,-11 -43,-45 -49,-49 -8,5 -38,44 -40,57 -5,2 -15,38 -17,42 0,5 -2,10 -3,15 -4,21 -3,30 -4,50 0,10 1,8 3,9 -1,3 -2,3 -1,7 0,9 -1,3 3,5 -2,5 -2,7 -1,11 1,3 0,2 1,4 2,5 1,3 4,5 -2,5 -1,5 0,10l9 24c3,5 0,2 4,4 -1,4 -1,3 2,9 0,1 2,3 2,3 3,5 0,2 4,4 -1,4 -1,-1 0,3l4 8c6,9 3,7 9,9 -1,4 -2,1 4,9 6,7 2,5 9,8 0,5 9,13 14,17 4,2 0,0 5,2 0,3 -4,-1 2,4 4,4 13,10 18,12 0,3 2,3 5,5 8,5 16,10 25,13 2,3 6,3 9,5l34 11c35,9 70,7 106,-2 9,-2 38,-12 42,-16 4,-2 22,-10 23,-15 6,-2 8,-4 13,-8 4,-3 8,-5 9,-9 6,-2 19,-14 19,-20 4,-2 3,0 8,-6 1,-1 1,-2 2,-3 3,-5 1,-1 1,-4 5,-2 5,-5 9,-11 7,-9 7,-7 6,-12 4,-2 6,-7 8,-12 2,-6 2,-2 1,-6 3,-2 2,-1 5,-7 2,-7 9,-22 7,-28 3,-2 1,1 3,-3 0,-2 0,-3 1,-6 1,-4 2,-5 0,-10 3,-3 2,0 2,-4 1,-5 0,-5 -1,-7 4,-2 2,0 3,-4 2,-8 -1,-60 -7,-73 -1,-9 -12,-40 -17,-43 -4,-11 -12,-22 -18,-31l-16 -20c-3,-3 -4,-3 -6,-6l-56 55c-3,4 -2,1 -3,6 -6,0 -16,13 -21,18l-19 21c-5,0 -32,30 -38,36 0,0 -2,1 -2,2 -3,4 -1,0 -2,5 -5,0 -7,5 -14,10 -2,-3 -8,-10 -12,-10 -2,-6 -39,-42 -39,-42 -3,-2 0,-1 -3,-1l-37 -39c-4,-4 -3,-3 -5,-3z"/>
   <path class="fil0" d="M7091 1059c6,0 10,2 15,4 0,11 -20,115 -23,126 -2,9 -5,4 -16,8 -4,2 -4,2 -4,8l49 0c0,-11 -4,-6 -14,-12l20 -104c2,4 12,54 13,58l13 58 11 0 62 -102c2,-4 6,-12 9,-14l-19 96c-2,15 -7,9 -15,13 -4,2 -3,1 -3,7l66 0c3,-12 1,-4 -14,-12 0,-5 2,-13 3,-19l20 -104c1,-7 -1,-6 4,-8 5,-2 16,-2 16,-7 0,-3 0,-4 -4,-4 -16,0 -32,0 -48,0 -16,24 -44,70 -61,98 0,2 -1,3 -2,4l-2 3 -20 -91c-1,-5 -3,-9 -3,-14l-49 0c-5,0 -4,3 -4,8z"/>
   <path class="fil0" d="M7757 1190c-18,0 -14,-77 20,-77l13 1c0,9 -8,44 -11,57 -1,8 0,8 -12,15 -2,1 -6,4 -10,4zm-44 -26c0,33 24,55 50,38 10,-7 8,-8 14,-9 0,23 40,12 44,10 5,-2 3,-1 3,-7 -22,0 -17,-4 -12,-27 2,-13 5,-24 7,-36l6 -26c2,-13 -9,0 -22,-3 -30,-8 -60,-2 -78,24 -7,11 -12,23 -12,36z"/>
   <path class="fil0" d="M7323 1195l-5 0c-28,0 -20,-81 6,-81l5 0c29,0 19,81 -6,81zm-57 -33c0,66 115,62 115,-15 0,-16 -5,-25 -13,-33 -28,-27 -102,-15 -102,48z"/>
   <path class="fil0" d="M7646 1196c-19,0 -12,-32 -12,-38 16,0 32,-6 32,16 0,11 -9,22 -20,22zm-11 -49c2,-3 2,-7 3,-11 13,-39 47,-23 32,0 -6,10 -23,11 -35,11zm-34 19c0,13 -1,25 11,34 20,15 88,10 88,-29 0,-6 -5,-11 -8,-14 -4,-4 -12,-6 -17,-7 6,-4 30,-7 30,-28 0,-36 -104,-32 -104,44z"/>
   <path class="fil0" d="M7525 1162l0 0zm0 0c0,-7 11,-44 10,-52 -3,-18 -44,-6 -48,-4l0 7c21,0 18,-4 8,46 -2,10 -9,38 -9,46 53,0 17,-2 42,-31 4,-4 4,-2 5,-7 3,2 8,13 12,19 10,18 13,24 37,21 18,-3 20,-5 20,-12 -10,0 -14,1 -20,-4 -4,-5 -7,-9 -10,-15 -4,-5 -16,-26 -18,-31 3,-5 12,-14 17,-17 10,-6 18,-3 30,-2 2,-6 6,-17 8,-24 -6,0 -9,-1 -16,-1 -15,0 -27,9 -36,20l-32 41z"/>
   <path class="fil0" d="M7966 1205l60 0c-1,7 -3,16 -5,23 -1,7 -3,15 -3,24 8,0 17,-3 30,-3 7,-14 4,-44 12,-44l21 0c0,-7 1,-9 1,-17l-22 0c2,-8 7,-32 7,-39 -13,0 -19,1 -31,1 -1,9 -7,28 -7,38l-38 0c2,-3 3,-3 6,-6l41 -44c3,-3 4,-3 7,-6 2,-2 4,-3 6,-6 4,-4 8,-8 13,-12 6,-4 21,-16 6,-14 -5,0 -7,1 -13,1 -9,0 -14,10 -19,16 -3,3 -4,4 -7,7l-35 37c-5,6 -27,28 -28,33 -1,3 -1,8 -2,11z"/>
   <path class="fil0" d="M7876 1114c5,20 12,0 32,4 24,4 22,26 2,42 -18,13 -25,16 -44,27 -8,5 -7,7 -7,18 31,0 62,0 92,0l11 -39 -8 0 -11 17 -48 0c3,-3 8,-5 15,-8 11,-5 23,-10 33,-18 36,-30 4,-70 -48,-53 -8,3 -12,7 -19,10z"/>
   <path class="fil0" d="M7388 1162l0 6c0,34 37,50 68,34l16 -12c1,-1 1,-1 1,-1 0,0 0,-1 1,-1 -2,-2 -3,-3 -4,-6 -57,38 -62,-46 -29,-65 4,-2 12,-4 17,-4 6,0 7,6 8,11 2,5 5,11 5,17 9,-1 8,-6 9,-15 2,-6 4,-13 4,-21 -12,-1 -8,-4 -33,-4 -9,0 -18,2 -25,6l-19 12c-11,10 -19,27 -19,43z"/>
   <path class="fil0" d="M7423 1336l0 -21c6,1 8,3 8,9l0 3c0,6 -2,8 -8,9zm-14 -9l0 -3c0,-6 3,-8 8,-9l0 21c-5,-2 -8,-2 -8,-9zm8 -17c-22,0 -21,31 0,32l0 10 6 0 0 -10c16,-1 19,-19 12,-28 -3,-3 -6,-4 -12,-4l0 -12 -6 0 0 12z"/>
   <path class="fil0" d="M7169 1333c2,-4 1,-1 2,-6 0,-2 0,-4 1,-7 1,-6 2,-6 9,-4l2 3 -1 18 -14 -1 1 -3zm-12 3c0,5 -1,15 3,15 5,0 5,-5 5,-9l20 0c0,9 0,9 6,9 4,-9 -1,-14 -2,-20 -2,-22 8,-21 -18,-21 -11,0 -1,23 -14,26z"/>
   <path class="fil0" d="M7509 1314l0 28c9,0 7,-1 7,-18l2 4c1,1 2,2 2,4 8,16 13,-3 17,-9l0 19c9,0 7,0 7,-28 0,-5 -3,-4 -8,-4 -2,3 -3,6 -5,10 -2,5 -2,7 -6,10 0,-6 -3,-10 -5,-14 0,-1 -2,-3 -2,-3 -3,-6 -9,-4 -9,1z"/>
   <path class="fil0" d="M7107 1336c-6,0 -4,-6 -4,-21 21,0 13,21 4,21zm-12 -21l0 37 8 0 0 -10c11,0 20,0 20,-18 0,-8 -3,-12 -11,-14 -4,-1 -17,-1 -17,5z"/>
   <path class="fil0" d="M7790 1340c6,2 5,5 13,-7 1,-2 2,-3 3,-5l4 -5c0,6 -3,19 4,19 6,0 4,-11 4,-28 0,-5 -6,-6 -10,-1 -3,4 -4,8 -9,15 -1,0 -1,0 -1,0 0,-15 3,-18 -8,-18l0 30z"/>
   <path class="fil0" d="M7336 1338c0,4 4,8 13,-5 2,-4 4,-8 7,-10 0,6 -2,19 4,19 6,0 4,-11 4,-28 0,-5 -6,-6 -10,-1 -6,8 -6,14 -11,15l0 -18 -7 0 0 28z"/>
   <path class="fil0" d="M7488 1336c-3,0 -1,0 -5,-1 0,-20 -3,-22 12,-18 1,4 6,19 -7,19zm-12 -21l0 37 7 0 0 -10c8,0 21,0 21,-16 0,-9 -3,-14 -9,-16 -5,-1 -19,-2 -19,5z"/>
   <path class="fil0" d="M7287 1338c0,4 5,8 12,-5 2,-3 3,-4 4,-6l4 -5c0,2 0,15 0,17 2,6 8,4 8,-4 0,-12 1,-15 -1,-25 -15,0 -10,11 -20,18l0 -18 -7 0 0 28z"/>
   <path class="fil0" d="M7556 1328l12 -1c0,11 -1,11 -12,8l0 -7zm-4 -15c0,6 4,2 12,2 4,0 3,3 5,6 -13,0 -20,0 -20,11 0,13 19,11 27,7 0,-13 2,-26 -8,-29 -3,-1 -16,-2 -16,3z"/>
   <path class="fil0" d="M7617 1338c0,4 3,9 12,-5 2,-4 4,-9 7,-11 0,19 -2,20 7,20 0,-6 4,-45 -9,-29l-11 17c0,-19 2,-20 -6,-20l0 28z"/>
   <path class="fil0" d="M7938 1315l9 2c1,4 0,2 2,5l-13 0c0,-4 1,-4 2,-7zm-10 8c0,25 13,18 25,17 -1,-9 -3,-5 -9,-4 -5,1 -8,-2 -8,-8 9,0 12,1 19,-2 0,-10 -1,-16 -13,-17 -9,0 -14,6 -14,14z"/>
   <path class="fil0" d="M8060 1332c0,-6 6,-5 9,-5 5,0 4,3 4,8 -3,1 -13,3 -13,-3zm-4 -19c0,10 15,-6 16,8 -12,0 -19,1 -19,11 0,13 27,12 27,4 0,-14 2,-24 -9,-26 -1,-1 -15,-1 -15,3z"/>
   <path class="fil0" d="M7715 1314c0,17 -3,28 4,28 5,0 3,-4 3,-15l12 0c0,11 -1,15 4,15 7,0 4,-11 4,-28 0,-6 -8,-6 -8,0l0 8 -12 0c0,-9 2,-12 -3,-12 -4,0 -4,1 -4,4z"/>
   <path class="fil0" d="M7369 1314c0,17 -2,28 4,28 6,0 4,-4 4,-15l12 0c0,11 -1,15 4,15 7,0 4,-11 4,-28 0,-6 -8,-6 -8,0l0 8 -12 0c0,-9 1,-12 -4,-12 -3,0 -4,1 -4,4z"/>
   <path class="fil0" d="M8000 1327l8 0c0,11 0,11 -12,8 0,-5 0,-8 4,-8zm-9 -16c2,9 2,4 12,4 4,0 5,3 5,6 -17,0 -20,3 -20,15 9,6 3,6 19,6 10,0 8,-6 8,-23 0,-13 -15,-10 -24,-8z"/>
   <path class="fil0" d="M7877 1315l2 0c4,0 5,3 5,7l-12 0c0,-4 1,-7 5,-7zm-13 7c0,14 1,20 17,20 4,0 6,-2 8,-3 -3,-12 -14,6 -18,-11 9,0 17,2 20,-4 4,0 0,-14 -13,-15 -6,0 -14,4 -14,13z"/>
   <path class="fil0" d="M7681 1317l0 18c0,4 8,19 8,-8l12 0c0,11 -1,15 4,15 7,0 4,-11 4,-28 0,-6 -8,-6 -8,0l0 8 -12 0 0 -12c-6,0 -8,0 -8,7z"/>
   <path class="fil0" d="M7261 1328l1 -11 9 -2c4,7 3,8 3,17 -7,5 -2,5 -12,3 -1,-3 -1,-3 -1,-7zm-8 -5c0,13 1,19 16,19 9,0 13,-7 13,-16 0,-24 -29,-20 -29,-3z"/>
   <path class="fil0" d="M7602 1311l-1 25c-4,1 -8,1 -14,0l0 -25 -1 -1c-2,0 -2,0 -4,0 0,7 -1,20 0,27 1,6 2,5 8,5 5,0 10,0 15,0 0,7 -2,8 5,9 5,-9 -1,-14 -1,-22 -1,-10 3,-23 -7,-18z"/>
   <path class="fil0" d="M7136 1317l10 -2c3,7 2,8 2,17 0,0 -11,12 -13,-3 -1,-5 0,-7 1,-12zm-9 6c0,13 2,19 16,19 9,0 13,-7 13,-16 0,-24 -29,-20 -29,-3z"/>
   <path class="fil0" d="M7224 1314c0,17 -3,28 4,28 5,0 4,-4 4,-15 12,0 8,7 11,15 7,0 8,-1 6,-8 -2,-5 -2,-7 -6,-10 3,-3 5,-8 6,-14l-7 0c-3,7 0,12 -10,12l0 -12c-6,0 -8,-1 -8,4z"/>
   <path class="fil0" d="M7959 1314c0,17 -2,28 4,28 6,0 4,-4 4,-15 6,0 7,0 9,5 1,2 1,3 2,5 1,3 0,4 3,4 9,3 3,-13 -2,-17 3,-3 5,-8 5,-14l-6 0c-3,7 0,12 -11,12l0 -12c-5,0 -8,-1 -8,4z"/>
   <path class="fil0" d="M7655 1326c0,-5 2,-8 4,-11 11,0 11,1 11,17 -8,5 -3,5 -12,3 -1,-2 -3,-6 -3,-9zm-7 0c0,23 29,20 29,0 0,-9 -4,-17 -14,-17 -10,0 -15,8 -15,17z"/>
   <path class="fil0" d="M7069 1327c0,-8 0,-7 4,-12l6 0c3,5 7,13 3,18 -5,6 -13,3 -13,-6zm-7 -3c0,27 28,19 28,6 0,-8 1,-12 -4,-17 -3,-3 -6,-4 -10,-4 -9,1 -14,6 -14,15z"/>
   <path class="fil0" d="M7462 1335c-9,2 -5,3 -12,-3l0 -13c5,-3 1,-4 10,-4 4,6 7,11 2,20zm-7 7c23,0 18,-28 8,-32 -24,-8 -27,32 -8,32z"/>
   <path class="fil0" d="M8022 1338c0,4 2,4 5,4 2,-4 1,-8 1,-15l13 0c0,14 -1,15 6,15 2,-5 1,-25 1,-32l-7 0 0 12 -13 0 0 -12 -6 0 0 28z"/>
   <path class="fil0" d="M7893 1342c7,0 10,-2 12,-9 1,-6 1,-11 1,-18l6 0c11,0 -4,27 9,27 3,-5 1,-22 1,-28 0,-6 -5,-4 -18,-4 -5,0 -4,2 -4,6 -1,6 -1,6 -1,10 -3,19 -6,3 -6,16z"/>
   <path class="fil0" d="M7765 1335l-4 2 -6 -1c-1,-4 -2,-8 1,-10 6,0 6,0 11,1 0,7 2,5 -2,8zm-17 -21c0,30 -3,28 13,28 19,0 18,-21 4,-21l-9 0c0,-8 1,-11 -4,-11 -3,0 -4,1 -4,4z"/>
   <path class="fil0" d="M8082 1340c8,5 11,-3 12,-10 3,-13 -2,-15 11,-15 0,27 -2,27 7,27 0,-38 4,-32 -18,-32 -7,0 -4,9 -5,16 -2,16 -6,5 -7,14z"/>
   <path class="fil0" d="M7208 1342l12 -2 0 -5c-13,0 -18,4 -18,-11 0,-5 3,-8 7,-8 7,-1 8,5 11,-5 -9,-2 -20,-4 -24,8 -3,9 -1,23 12,23z"/>
   <path class="fil0" d="M7836 1315l10 0c0,8 -3,27 4,27 6,0 3,-10 3,-27l11 0c-1,-7 -2,-5 -28,-5l0 5z"/>
   <path class="fil0" d="M7038 1314l0 28c10,-1 7,-1 7,-25 6,-2 9,-2 17,-2 0,-6 0,-5 -14,-5 -5,0 -7,2 -10,4z"/>
   <path class="fil0" d="M7777 1314c0,17 -3,28 4,28 6,0 4,-11 4,-28 0,-6 -8,-6 -8,0z"/>
   <path class="fil0" d="M7794 1301c0,6 7,6 12,6 4,0 13,-9 6,-9 -5,0 -1,4 -9,4 -4,0 -2,-2 -8,-4 0,0 -1,3 -1,3z"/>
   <path class="fil0" d="M7298 1307c6,0 13,-3 13,-6 -1,-7 -6,1 -11,1 -5,0 -8,-7 -10,-2 -1,2 5,7 8,7z"/>
   <path class="fil0" d="M7602 1311c-1,2 -1,1 -1,4l0 20 -12 0c0,-5 1,-20 -2,-24l0 25c6,1 10,1 14,0l1 -25z"/>
   <polygon class="fil0" points="7169,1333 7168,1336 7182,1337 7183,1319 7181,1316 7181,1335 7169,1335 "/>
   <path class="fil0" d="M7765 1335l-9 0 0 -9c-3,2 -2,6 -1,10l6 1 4 -2z"/>
  </g>
  <g id="_2209147716192">
   <path class="fil1" d="M3842 978c-38,0 -48,0 -48,0l0 66c0,0 49,0 53,0 9,0 29,-8 29,-35 0,-26 -24,-31 -34,-31z"/>
   <path class="fil1" d="M3869 888c0,-31 -37,-29 -38,-29 -2,0 -37,0 -37,0l0 60c0,0 38,0 45,0 7,0 30,-5 30,-31z"/>
   <path class="fil1" d="M3859 1105l-178 0 0 -60 49 0 0 -187 -49 0 0 -60 160 0c47,0 92,27 92,82 0,23 -13,50 -26,60 24,16 42,40 42,72 0,56 -32,93 -90,93zm-359 -307l0 0 0 60 -46 0 0 187 46 0 0 61 -108 0 0 -124 -63 0 0 124 -108 0 0 -61 46 0 0 -187 -46 0 0 -60 108 0 0 123 63 0 0 -123 108 0zm122 374l0 0 237 0c44,0 81,-15 108,-44 27,-29 41,-69 41,-116 0,-31 -16,-58 -33,-73 9,-14 17,-43 17,-59 0,-47 -19,-88 -53,-116 -26,-21 -61,-33 -98,-33l-40 0 0 -171 -420 0 0 171 -219 0 0 192c0,0 30,0 46,0 0,26 0,31 0,57 -16,0 -46,0 -46,0l0 192 397 0 0 -72c-37,-15 -63,-53 -63,-98 0,-45 26,-83 63,-97l-1 -226 -58 0 0 56 -60 0 0 -110 301 0 0 110 -60 0 0 -56 -58 0 0 226c36,14 62,52 62,97 0,45 -26,83 -63,98l0 72z"/>
   <path class="fil1" d="M3540 950c0,-10 8,-18 17,-18 10,0 17,8 17,18 0,11 -7,19 -17,19 -9,0 -17,-8 -17,-19z"/>
  </g>
  <g id="_2209147716032">
   <path class="fil0" d="M6102 1137l551 0 0 -542 -551 0 0 542zm258 -209l-64 0 -73 63 137 0 0 -63zm95 -63l126 -143 -78 0 -126 143 78 0zm125 -127l-68 76 0 180 68 0 0 -256zm-203 195l126 0 0 -59 -126 0 0 59zm-44 -189c-12,-10 -34,-21 -68,-21l-2 0 0 59c8,1 13,5 16,9 4,5 6,12 6,19l0 3 0 0c0,0 2,19 -25,44 -26,24 -100,81 -100,81l0 53 49 0 104 -91c0,0 45,-37 49,-82l0 -1c0,-3 1,-6 1,-9 0,-22 -8,-47 -30,-64zm-154 20c-10,13 -16,31 -19,49l69 0c1,-5 2,-9 4,-13 6,-11 14,-16 21,-17l0 -60c-40,4 -63,23 -75,41z"/>
   <path class="fil0" d="M4283 1136l1776 0 0 -541 -1776 0 0 541zm284 -294c-10,9 -23,9 -31,9l-38 0 0 -67 39 0c9,0 22,1 30,9 7,6 10,15 10,24 0,9 -4,19 -10,25zm1277 5l-45 0c-8,0 -20,-1 -29,-8 -9,-8 -10,-18 -10,-24 0,-13 5,-21 11,-25 7,-4 20,-6 29,-6l44 0 0 63zm-51 -107c-21,0 -44,2 -63,16 -14,10 -29,28 -29,60 0,26 9,41 18,50 10,9 25,16 36,19l-61 106 64 0 52 -100 34 0 0 100 59 0 0 -251 -110 0zm-208 18l-76 121c-2,3 -7,13 -10,22 0,-3 2,-14 2,-31l0 -130 -59 0 0 251 59 0 0 -20 76 -121c3,-4 8,-15 10,-22 -1,4 -2,15 -2,32l0 131 59 0 0 -251 -59 0 0 18zm-290 22c17,0 28,7 36,22 5,9 8,20 9,30l55 -4c-3,-39 -24,-61 -29,-65 -23,-23 -52,-27 -71,-27 -19,0 -51,3 -77,29 -22,22 -37,57 -37,100 0,25 6,55 19,77 12,22 41,53 94,53 35,0 57,-14 71,-28 14,-13 27,-34 30,-63l-54 -5c-1,10 -5,24 -12,34 -10,14 -23,18 -35,18 -12,0 -30,-5 -41,-29 -6,-14 -9,-32 -9,-58 0,-23 3,-40 9,-55 9,-20 22,-29 42,-29zm-249 0c17,0 28,7 36,22 6,9 8,20 9,30l55 -4c-3,-39 -24,-61 -29,-65 -23,-23 -52,-27 -71,-27 -19,0 -50,3 -77,29 -22,22 -37,57 -37,100 0,25 6,55 19,77 12,22 41,53 94,53 35,0 57,-14 71,-28 14,-13 27,-34 30,-63l-54 -5c-1,10 -5,24 -12,34 -10,14 -23,18 -35,18 -12,0 -30,-5 -41,-29 -6,-14 -8,-32 -8,-58 0,-23 2,-40 8,-55 9,-20 22,-29 42,-29zm-228 149c-7,11 -19,22 -37,22 -18,0 -30,-11 -37,-22 -5,-9 -13,-27 -13,-64 0,-38 8,-55 13,-63 11,-17 24,-22 37,-22 14,0 26,5 37,22 5,8 13,25 13,63 0,37 -8,55 -13,64zm-37 -193c-21,0 -49,4 -73,26 -22,20 -40,55 -40,104 0,42 14,78 38,101 14,13 38,28 75,28 37,0 61,-15 76,-28 23,-23 37,-59 37,-101 0,-49 -18,-84 -40,-104 -24,-22 -52,-26 -73,-26zm-179 18c-21,-14 -47,-14 -69,-14l-93 0 0 251 58 0 0 -96 43 0c22,0 54,1 78,-30 12,-16 17,-32 17,-49 0,-34 -19,-53 -34,-62l0 0z"/>
  </g>
  <g id="_2208905412480">
   <path class="fil0" d="M2473 1093c-62,-11 -107,-55 -122,-121 -2,-8 -2,-17 -3,-35 -1,-29 2,-47 9,-69 14,-43 40,-73 77,-91 39,-19 93,-20 127,-3 39,20 62,59 68,115 1,8 1,17 1,20l0 7 -94 0 -93 0 0 11c1,26 7,49 17,68 4,9 8,14 17,23 20,20 40,28 72,28 23,0 39,-4 57,-16 4,-3 9,-5 10,-5 3,0 9,8 9,11 0,6 -18,23 -36,35 -14,10 -37,19 -57,22 -14,3 -45,3 -59,0zm-32 -202c-1,-1 1,-24 3,-35 6,-28 15,-48 27,-61 7,-7 10,-9 15,-10 4,-1 8,-2 10,-2 6,0 12,3 18,7 13,13 21,40 23,80l0 20 -13 0c-26,2 -83,3 -83,1z"/>
   <path class="fil0" d="M2111 1094c-13,-1 -51,-8 -64,-11l-10 -2 1 -49c2,-119 2,-184 1,-247 -1,-61 -1,-68 -4,-77 -3,-12 -7,-20 -12,-24 -2,-1 -8,-3 -13,-4 -15,-4 -15,-3 -15,-10 0,-4 0,-7 1,-8 2,-1 130,-26 135,-26 1,0 1,17 0,74 0,40 0,73 0,73 1,0 5,-2 11,-5 16,-7 31,-11 53,-11 14,-1 21,0 28,1 49,10 85,50 97,107 4,15 5,53 3,71 -2,16 -8,38 -13,52 -21,52 -65,87 -124,96 -14,2 -57,2 -75,0zm26 -22c-3,0 -5,-1 -6,-2 -2,-3 -5,-174 -3,-224l1 -40 10 -3c15,-4 31,-3 42,2 23,11 38,37 46,81 3,14 2,64 -1,81 -5,37 -16,65 -31,84 -7,9 -19,17 -28,20 -6,2 -19,2 -30,1z"/>
   <path class="fil0" d="M1569 1094c-30,-4 -57,-17 -77,-38 -17,-16 -28,-35 -37,-60 -12,-40 -12,-91 0,-130 13,-38 40,-71 74,-88 47,-23 113,-22 157,4 39,23 63,64 69,120 2,17 1,53 -2,68 -13,61 -51,104 -106,120 -6,1 -16,3 -21,4 -11,2 -46,2 -57,0l0 0zm19 -23c-21,-9 -36,-38 -43,-83 -5,-28 -5,-92 -1,-123 6,-44 19,-70 38,-79 14,-6 32,-2 44,9 27,24 40,92 35,174 -5,59 -17,91 -41,102 -9,4 -24,4 -32,0z"/>
   <path class="fil1" d="M2725 1095c-22,-3 -58,-11 -70,-16l-6 -2 0 -29c-1,-16 -1,-37 -1,-47l-1 -18 4 -2c2,-1 6,-2 8,-2l5 0 5 11c17,41 37,64 63,71 10,2 28,2 36,0 20,-8 31,-23 32,-44 0,-26 -14,-38 -67,-58 -32,-13 -43,-19 -57,-33 -14,-15 -21,-32 -23,-56 -1,-28 8,-52 28,-73 19,-20 45,-31 80,-35 31,-2 79,4 104,15l4 2 1 25c1,14 1,33 1,42l0 17 -6 2c-9,4 -10,3 -15,-11 -15,-40 -33,-59 -60,-65 -17,-3 -31,1 -41,12 -8,8 -11,15 -11,28 -1,14 1,21 10,30 10,11 27,21 60,35 41,17 60,31 71,53 7,13 9,24 8,45 0,16 -1,20 -5,30 -11,35 -38,58 -79,69 -14,3 -16,4 -44,4 -16,0 -31,0 -34,0z"/>
   <path class="fil1" d="M1135 1087c-1,0 -1,-4 -1,-9 0,-11 -1,-10 19,-14 16,-3 21,-6 28,-15 13,-17 16,-51 16,-189 0,-129 -2,-157 -16,-177 -6,-8 -16,-13 -33,-15l-14 -2 0 -10 0 -11 4 0c2,-1 82,-1 178,-1l174 1 1 5c0,3 1,31 1,63l1 58 -9 3c-13,4 -13,4 -19,-12 -15,-40 -32,-62 -56,-74 -16,-8 -23,-9 -69,-9l-40 0 0 7c-2,12 -4,92 -4,130l0 37 12 0c6,0 19,0 28,-1 14,-1 18,-1 23,-4 14,-6 24,-21 30,-44l3 -12 10 0 10 -1 0 152 -10 0 -10 -1 -3 -12c-6,-22 -16,-38 -29,-44 -6,-3 -21,-4 -50,-5l-14 -1 0 29c0,31 2,73 4,96 3,31 11,49 26,55 3,1 12,3 19,5 8,1 16,2 17,3 3,1 3,18 0,19 -2,1 -224,1 -227,0z"/>
   <path class="fil1" d="M1757 1087c-1,-1 -2,-4 -2,-10l1 -9 4 -1c3,0 8,-1 12,-2 12,-2 19,-9 23,-22 3,-10 5,-44 5,-112 0,-83 -2,-103 -10,-114 -5,-6 -8,-8 -19,-10 -6,-1 -11,-2 -13,-2 -2,-1 -3,-2 -3,-8 0,-6 1,-7 3,-8 4,-1 129,-26 133,-26l3 0 -1 18c0,10 -1,25 -1,33l-1 15 5 -8c14,-27 31,-43 52,-53 12,-5 20,-7 35,-7 17,0 34,6 34,12 0,3 -30,84 -32,85 -1,0 -7,-2 -13,-5 -14,-7 -26,-10 -39,-10 -15,0 -32,6 -39,13 -3,3 -3,3 -3,50 -1,46 0,102 3,124 2,19 7,29 18,33 3,2 25,5 33,5 0,0 1,4 0,9l0 10 -93 1c-52,0 -94,-1 -95,-1z"/>
  </g>
  <g id="_2208911691696">
   <polygon class="fil1" points="34,392 859,110 591,1103 286,1187 509,360 0,530 "/>
   <polygon class="fil1" points="279,489 429,439 221,1205 79,1242 "/>
  </g>
 </g>
</svg>
