<?xml version="1.0" encoding="UTF-8"?>
<!DOCTYPE svg PUBLIC "-//W3C//DTD SVG 1.1//EN" "http://www.w3.org/Graphics/SVG/1.1/DTD/svg11.dtd">
<!-- Creator: CorelDRAW X8 -->
<svg xmlns="http://www.w3.org/2000/svg" xml:space="preserve" width="1.54222cm" height="1.02659cm" version="1.1" style="shape-rendering:geometricPrecision; text-rendering:geometricPrecision; image-rendering:optimizeQuality; fill-rule:evenodd; clip-rule:evenodd"
viewBox="0 0 754 502"
 xmlns:xlink="http://www.w3.org/1999/xlink">
 <defs>
  <style type="text/css">
   <![CDATA[
    .fil0 {fill:red;fill-rule:nonzero}
   ]]>
  </style>
 </defs>
 <g id="Layer_x0020_1">
  <metadata id="CorelCorpID_0Corel-Layer"/>
  <path class="fil0" d="M650 502l-243 0 39 -193c24,-112 61,-191 111,-237 51,-46 116,-70 197,-72l-23 112c-41,10 -72,26 -94,49 -22,23 -39,59 -50,108l110 0 -47 233zm-405 0l-245 0 40 -193c24,-112 61,-191 111,-237 51,-46 116,-70 197,-72l-24 112c-40,10 -71,26 -93,49 -22,23 -39,59 -50,108l111 0 -47 233z"/>
 </g>
</svg>
