<?xml version="1.0" encoding="UTF-8"?>
<!DOCTYPE svg PUBLIC "-//W3C//DTD SVG 1.1//EN" "http://www.w3.org/Graphics/SVG/1.1/DTD/svg11.dtd">
<!-- Creator: CorelDRAW X8 -->
<svg xmlns="http://www.w3.org/2000/svg" xml:space="preserve" width="1.54752cm" height="1.02306cm" version="1.1" style="shape-rendering:geometricPrecision; text-rendering:geometricPrecision; image-rendering:optimizeQuality; fill-rule:evenodd; clip-rule:evenodd"
viewBox="0 0 66 43"
 xmlns:xlink="http://www.w3.org/1999/xlink">
 <defs>
  <style type="text/css">
   <![CDATA[
    .fil0 {fill:red;fill-rule:nonzero}
   ]]>
  </style>
 </defs>
 <g id="Layer_x0020_1">
  <metadata id="CorelCorpID_0Corel-Layer"/>
  <path class="fil0" d="M9 0l21 0 -3 17c-2,9 -5,16 -10,20 -4,4 -10,6 -17,6l2 -9c4,-1 6,-2 8,-4 2,-2 4,-6 4,-10l-9 0 4 -20zm35 0l22 0 -4 17c-2,9 -5,16 -9,20 -5,4 -10,6 -17,6l2 -9c3,-1 6,-2 8,-4 2,-2 3,-6 4,-10l-10 0 4 -20z"/>
 </g>
</svg>
