<?xml version="1.0" encoding="UTF-8"?>
<!DOCTYPE svg PUBLIC "-//W3C//DTD SVG 1.1//EN" "http://www.w3.org/Graphics/SVG/1.1/DTD/svg11.dtd">
<!-- Creator: CorelDRAW X8 -->
<svg xmlns="http://www.w3.org/2000/svg" xml:space="preserve" width="23.2082cm" height="2.20611cm" version="1.1" style="shape-rendering:geometricPrecision; text-rendering:geometricPrecision; image-rendering:optimizeQuality; fill-rule:evenodd; clip-rule:evenodd"
viewBox="0 0 1708927 162446"
 xmlns:xlink="http://www.w3.org/1999/xlink">
 <defs>
  <style type="text/css">
   <![CDATA[
    .fil0 {fill:red}
    .fil1 {fill:white;fill-rule:nonzero}
   ]]>
  </style>
 </defs>
 <g id="Layer_x0020_1">
  <metadata id="CorelCorpID_0Corel-Layer"/>
  <g id="_2117267721744">
   <path class="fil0" d="M15421 11272l951581 0c-7810,1300 -14206,4154 -19448,9396 -7757,7758 -10455,18213 -10455,31873l0 50424c0,15177 3709,22091 13322,30692l15178 -15177c-5565,-4891 -7420,-8264 -7420,-16696l0 -48737c0,-7083 1011,-12311 5902,-17202 4722,-4722 10118,-5902 16864,-5902l20912 0c6745,0 12479,1518 16864,5902 4553,4554 5901,10119 5901,17202l0 7589c-5058,-5565 -11298,-8263 -19899,-8263 -8769,0 -16358,3204 -21248,8600 -6746,7420 -7758,16190 -7758,31198 0,15179 1012,24116 7926,31537 5059,5396 12480,8432 21249,8432 9275,0 14840,-2868 20237,-8770l0 7758 20405 506 0 -79093c0,-13828 -2529,-24115 -10287,-31873 -5305,-5305 -11819,-8116 -19491,-9396l677750 0c8482,0 15421,6939 15421,15421l0 120333c0,8482 -6939,15420 -15421,15420l-603957 0 0 -39076c6240,6240 11805,8770 20912,8770 8769,0 16695,-2868 21755,-7927 6577,-6576 8938,-16189 8938,-36763 0,-11636 -338,-16021 -1518,-22429 -1180,-5903 -3879,-11299 -7420,-14841 -5060,-5059 -12986,-7926 -21755,-7926 -9613,0 -14840,2530 -21586,9276l0 -8264 -21249 0 0 119180 -645558 0 0 -39076c6241,6240 11805,8770 20912,8770 8770,0 16696,-2868 21755,-7927 6576,-6576 8937,-16189 8937,-36763 0,-11636 -336,-16021 -1517,-22429 -1180,-5903 -3879,-11299 -7420,-14841 -5059,-5059 -12985,-7926 -21755,-7926 -9613,0 -14840,2530 -21586,9276l0 -8264 -21248 0 0 119180 -384725 0c-8482,0 -15421,-6938 -15421,-15420l0 -120333c0,-8482 6939,-15421 15421,-15421zm1009201 80899c0,13323 -3204,21755 -13996,21755 -10793,0 -13829,-8432 -13829,-21755 0,-13322 3036,-21586 13829,-21586 10792,0 13996,8264 13996,21586zm-913191 38957l0 -87862 -22091 0 -30862 52279 0 -52279 -22091 0 0 87862 22091 0 30862 -53628 0 53628 22091 0zm96632 0l0 -87862 -22092 0 0 33222 -28163 0 0 -33222 -22092 0 0 87862 22092 0 0 -35246 28163 0 0 35246 22092 0zm87187 -68469l0 -19393 -73189 0 0 19393 25801 0 0 68469 22092 0 0 -68469 25296 0zm84659 31367l0 -9781c0,-25465 -15010,-41991 -38282,-41991 -23610,0 -38282,17202 -38282,44689 0,29850 13829,45197 40812,45197 6913,0 12984,-1181 18044,-3205 5565,-2361 8600,-4384 15177,-10624l-13322 -12985c-3879,3710 -5734,5058 -8938,6408 -2867,1180 -6577,1855 -10118,1855 -12818,0 -19394,-6409 -20069,-19563l54978 0zm-21587 -15009l-33391 0c506,-11805 6578,-18550 16696,-18550 10119,0 16021,6577 16695,18550zm93428 7926c0,18720 -3880,25466 -14841,25466 -10625,0 -14841,-6746 -14841,-23947 0,-11299 -337,-26477 14841,-26477 10961,0 14841,6577 14841,24958zm115012 44185l0 -87862 -22091 0 0 33222 -28163 0 0 -33222 -22092 0 0 87862 22092 0 0 -35246 28163 0 0 35246 22091 0zm96632 -37102l0 -9781c0,-25465 -15010,-41991 -38282,-41991 -23609,0 -38281,17202 -38281,44689 0,29850 13828,45197 40811,45197 6914,0 12986,-1181 18044,-3205 5566,-2361 8601,-4384 15179,-10624l-13324 -12985c-3878,3710 -5733,5058 -8937,6408 -2867,1180 -6578,1855 -10119,1855 -12817,0 -19394,-6409 -20068,-19563l54977 0zm-21586 -15009l-33391 0c506,-11805 6577,-18550 16695,-18550 10119,0 16022,6577 16696,18550zm104557 -16358l0 -19393 -73189 0 0 19393 25801 0 0 68469 22092 0 0 -68469 25296 0zm57000 30524l0 -20405 -51941 0 0 20405 51941 0zm111810 37945l0 -87862 -21586 0 -23103 46208 -23273 -46208 -21755 0 0 87862 22092 0 0 -50761 16696 32547 12479 0 16526 -32547 0 50761 21924 0zm204055 -44185c0,18720 -3879,25466 -14840,25466 -10625,0 -14841,-6746 -14841,-23947 0,-11299 -337,-26477 14841,-26477 10961,0 14840,6577 14840,24958zm64927 44185l0 -45871 30186 45871 26309 0 -33054 -46883 31029 -40979 -25633 0 -28837 41654 0 -41654 -22092 0 0 87862 22092 0zm136600 -37102l0 -9781c0,-25465 -15010,-41991 -38282,-41991 -23610,0 -38282,17202 -38282,44689 0,29850 13828,45197 40811,45197 6914,0 12986,-1181 18045,-3205 5565,-2361 8600,-4384 15178,-10624l-13323 -12985c-3879,3710 -5734,5058 -8938,6408 -2867,1180 -6577,1855 -10118,1855 -12818,0 -19394,-6409 -20069,-19563l54978 0zm-21587 -15009l-33391 0c506,-11805 6578,-18550 16696,-18550 10119,0 16020,6577 16695,18550zm104557 -16358l0 -19393 -73189 0 0 19393 25801 0 0 68469 22092 0 0 -68469 25296 0zm89043 68469l0 -87862 -22092 0 -30861 52279 0 -52279 -22092 0 0 87862 22092 0 30861 -53628 0 53628 22092 0zm96631 0l0 -87862 -22092 0 0 33222 -28163 0 0 -33222 -22092 0 0 87862 22092 0 0 -35246 28163 0 0 35246 22092 0zm83140 -68469l0 -19393 -58182 0 0 87862 21924 0 0 -68469 36258 0z"/>
   <path class="fil1" d="M119569 120513l0 -87692 -22049 0 -30802 52178 0 -52178 -22049 0 0 87692 22049 0 30802 -53524 0 53524 22049 0zm96444 0l0 -87692 -22049 0 0 33158 -28108 0 0 -33158 -22050 0 0 87692 22050 0 0 -35178 28108 0 0 35178 22049 0zm87018 -68335l0 -19357 -73049 0 0 19357 25753 0 0 68335 22049 0 0 -68335 25247 0zm84494 31305l0 -9761c0,-25416 -14980,-41911 -38207,-41911 -23564,0 -38208,17169 -38208,44603 0,29792 13802,45108 40733,45108 6900,0 12959,-1178 18009,-3198 5555,-2356 8584,-4376 15148,-10603l-13297 -12961c-3871,3704 -5722,5050 -8920,6396 -2862,1179 -6564,1852 -10099,1852 -12792,0 -19356,-6396 -20030,-19525l54871 0zm-21544 -14979l-33327 0c505,-11782 6565,-18515 16664,-18515 10099,0 15990,6565 16663,18515zm62949 -27436l0 -8247 -21207 0 0 119840 21881 0 0 -39891c6227,6228 11781,8752 20871,8752 8752,0 16663,-2860 21712,-7910 6564,-6564 8921,-16158 8921,-36692 0,-11614 -337,-15990 -1515,-22386 -1178,-5892 -3871,-11277 -7406,-14812 -5049,-5050 -12960,-7911 -21712,-7911 -9594,0 -14812,2525 -21545,9257zm30297 35346c0,18683 -3872,25416 -14811,25416 -10605,0 -14812,-6733 -14812,-23901 0,-11277 -337,-26425 14812,-26425 10939,0 14811,6564 14811,24910zm114791 44099l0 -87692 -22049 0 0 33158 -28109 0 0 -33158 -22049 0 0 87692 22049 0 0 -35178 28109 0 0 35178 22049 0zm96443 -37030l0 -9761c0,-25416 -14980,-41911 -38207,-41911 -23564,0 -38208,17169 -38208,44603 0,29792 13802,45108 40733,45108 6900,0 12960,-1178 18009,-3198 5555,-2356 8584,-4376 15149,-10603l-13297 -12961c-3871,3704 -5723,5050 -8921,6396 -2862,1179 -6564,1852 -10099,1852 -12792,0 -19356,-6396 -20030,-19525l54871 0zm-21544 -14979l-33327 0c506,-11782 6565,-18515 16664,-18515 10099,0 15990,6565 16663,18515zm104355 -16326l0 -19357 -73049 0 0 19357 25752 0 0 68335 22050 0 0 -68335 25247 0zm56890 30464l0 -20366 -51841 0 0 20366 51841 0zm111592 37871l0 -87692 -21544 0 -23059 46118 -23227 -46118 -21713 0 0 87692 22049 0 0 -50663 16663 32485 12455 0 16495 -32485 0 50663 21881 0zm173364 -79445l0 -8247 -21208 0 0 119840 21882 0 0 -39891c6227,6228 11781,8752 20871,8752 8752,0 16662,-2860 21712,-7910 6564,-6564 8920,-16158 8920,-36692 0,-11614 -336,-15990 -1514,-22386 -1178,-5892 -3871,-11277 -7406,-14812 -5050,-5050 -12960,-7911 -21712,-7911 -9594,0 -14812,2525 -21545,9257zm30297 35346c0,18683 -3872,25416 -14812,25416 -10604,0 -14811,-6733 -14811,-23901 0,-11277 -337,-26425 14811,-26425 10940,0 14812,6564 14812,24910zm64801 44099l0 -45782 30128 45782 26257 0 -32989 -46791 30970 -40901 -25585 0 -28781 41574 0 -41574 -22050 0 0 87692 22050 0zm136335 -37030l0 -9761c0,-25416 -14980,-41911 -38208,-41911 -23563,0 -38207,17169 -38207,44603 0,29792 13802,45108 40732,45108 6901,0 12960,-1178 18010,-3198 5554,-2356 8583,-4376 15148,-10603l-13297 -12961c-3871,3704 -5723,5050 -8921,6396 -2861,1179 -6564,1852 -10098,1852 -12793,0 -19356,-6396 -20030,-19525l54871 0zm-21545 -14979l-33326 0c505,-11782 6564,-18515 16663,-18515 10099,0 15990,6565 16663,18515zm104355 -16326l0 -19357 -73048 0 0 19357 25752 0 0 68335 22049 0 0 -68335 25247 0zm88870 68335l0 -87692 -22049 0 -30802 52178 0 -52178 -22049 0 0 87692 22049 0 30802 -53524 0 53524 22049 0zm96444 0l0 -87692 -22049 0 0 33158 -28108 0 0 -33158 -22049 0 0 87692 22049 0 0 -35178 28108 0 0 35178 22049 0zm82979 -68335l0 -19357 -58069 0 0 87692 21881 0 0 -68335 36188 0zm-625793 68840l0 -78939c0,-13803 -2525,-24069 -10267,-31812 -7911,-7911 -18514,-10267 -31643,-10267l-24237 0c-13634,0 -23901,2524 -31643,10267 -7743,7743 -10436,18178 -10436,31812l0 50325c0,15148 3703,22049 13297,30634l15148 -15148c-5554,-4882 -7405,-8248 -7405,-16664l0 -48643c0,-7069 1009,-12287 5891,-17168 4712,-4713 10099,-5891 16831,-5891l20871 0c6732,0 12455,1515 16831,5891 4544,4545 5891,10099 5891,17168l0 7575c-5049,-5555 -11277,-8248 -19861,-8248 -8753,0 -16327,3198 -21207,8584 -6733,7406 -7743,16158 -7743,31138 0,15148 1010,24069 7911,31475 5050,5386 12455,8415 21207,8415 9258,0 14812,-2860 20198,-8752l0 7743 20366 505zm-20871 -39386c0,13297 -3198,21713 -13970,21713 -10772,0 -13802,-8416 -13802,-21713 0,-13297 3030,-21544 13802,-21544 10772,0 13970,8247 13970,21544z"/>
  </g>
 </g>
</svg>
