<?xml version="1.0" encoding="UTF-8"?>
<!DOCTYPE svg PUBLIC "-//W3C//DTD SVG 1.1//EN" "http://www.w3.org/Graphics/SVG/1.1/DTD/svg11.dtd">
<!-- Creator: CorelDRAW X8 -->
<svg xmlns="http://www.w3.org/2000/svg" xml:space="preserve" width="10.0223cm" height="3.9285cm" version="1.1" style="shape-rendering:geometricPrecision; text-rendering:geometricPrecision; image-rendering:optimizeQuality; fill-rule:evenodd; clip-rule:evenodd"
viewBox="0 0 3855 1511"
 xmlns:xlink="http://www.w3.org/1999/xlink">
 <defs>
  <style type="text/css">
   <![CDATA[
    .fil1 {fill:white}
    .fil0 {fill:#FEFEFE;fill-rule:nonzero}
   ]]>
  </style>
 </defs>
 <g id="Layer_x0020_1">
  <metadata id="CorelCorpID_0Corel-Layer"/>
  <g id="_2082311493664">
   <path class="fil0" d="M549 841l0 -242 -66 0 0 -448 -368 0 0 24c0,203 -18,317 -59,424l-56 0 0 242 136 0 0 -116 277 0 0 116 136 0zm-207 -242l-142 0c30,-84 52,-170 52,-306l0 -16 90 0 0 322zm816 126l0 -574 -139 0 -129 253 -129 -253 -139 0 0 574 142 0 0 -275 81 142 90 0 82 -142 0 275 141 0zm565 0l0 -574 -123 0 -184 313 0 -313 -142 0 0 574 124 0 184 -313 0 313 141 0zm506 -448l0 -126 -424 0 0 126 142 0 0 448 141 0 0 -448 141 0zm506 58c0,-107 -82,-184 -196,-184l-227 0 0 574 141 0 0 -205 86 0c115,0 196,-78 196,-185zm-141 0c0,33 -26,58 -61,58l-80 0 0 -115 80 0c35,0 61,24 61,57zm672 390l0 -574 -123 0 -184 313 0 -313 -141 0 0 574 123 0 184 -313 0 313 141 0zm481 -725l-96 0c-1,32 -20,43 -42,43 -23,0 -42,-11 -43,-43l-96 0c2,95 76,123 139,123 62,0 136,-28 138,-123zm84 725l0 -574 -123 0 -184 313 0 -313 -141 0 0 574 123 0 184 -313 0 313 141 0z"/>
   <path class="fil1" d="M494 807l3287 0c41,0 74,33 74,74l0 556c0,41 -33,74 -74,74l-3287 0c-40,0 -74,-33 -74,-74l0 -556c0,-41 34,-74 74,-74zm465 422l-120 0c-8,26 -22,51 -61,51 -22,0 -38,-9 -47,-20 -11,-15 -18,-31 -18,-119 0,-87 7,-104 18,-118 9,-12 25,-21 47,-21 39,0 53,25 61,52l120 0c-18,-106 -91,-156 -182,-156 -56,0 -98,18 -133,53 -51,51 -49,118 -49,190 0,72 -2,139 49,190 35,35 77,54 133,54 91,0 164,-51 182,-156zm436 152l0 -479 -103 0 -154 261 0 -261 -117 0 0 479 102 0 154 -261 0 261 118 0zm512 97l0 -202 -54 0 0 -374 -308 0 0 20c0,170 -14,264 -48,354l-47 0 0 202 113 0 0 -97 231 0 0 97 113 0zm-172 -202l-118 0c25,-70 43,-142 43,-255l0 -14 75 0 0 269zm583 -177c0,-70 -15,-113 -49,-148 -35,-36 -79,-53 -134,-53 -55,0 -99,17 -133,53 -38,39 -49,80 -49,173l0 35c0,59 1,122 49,172 35,36 78,54 134,54 55,0 99,-18 133,-54 47,-49 49,-108 49,-170l0 -62zm-118 55c0,61 -5,88 -17,104 -11,14 -29,22 -48,22 -18,0 -36,-8 -47,-22 -12,-16 -17,-43 -17,-104l0 -33c0,-45 5,-81 17,-98 11,-13 28,-21 47,-21 20,0 37,8 48,21 12,17 17,53 17,98l0 33zm552 -98c0,-89 -68,-154 -163,-154l-190 0 0 479 118 0 0 -171 72 0c96,0 163,-65 163,-154zm-117 0c0,27 -22,48 -51,48l-67 0 0 -96 67 0c29,0 51,21 51,48zm560 325l0 -479 -103 0 -153 261 0 -261 -118 0 0 479 103 0 153 -261 0 261 118 0zm458 0l0 -479 -118 0 0 184 -125 0 0 -184 -118 0 0 479 118 0 0 -190 125 0 0 190 118 0z"/>
  </g>
 </g>
</svg>
