<?xml version="1.0" encoding="UTF-8"?>
<!DOCTYPE svg PUBLIC "-//W3C//DTD SVG 1.1//EN" "http://www.w3.org/Graphics/SVG/1.1/DTD/svg11.dtd">
<!-- Creator: CorelDRAW X8 -->
<svg xmlns="http://www.w3.org/2000/svg" xml:space="preserve" width="15.9629cm" height="10.0372cm" version="1.1" style="shape-rendering:geometricPrecision; text-rendering:geometricPrecision; image-rendering:optimizeQuality; fill-rule:evenodd; clip-rule:evenodd"
viewBox="0 0 17976 11303"
 xmlns:xlink="http://www.w3.org/1999/xlink">
 <defs>
  <style type="text/css">
   <![CDATA[
    .fil0 {fill:white}
    .fil1 {fill:white;fill-rule:nonzero}
   ]]>
  </style>
 </defs>
 <g id="Layer_x0020_1">
  <metadata id="CorelCorpID_0Corel-Layer"/>
  <g id="_2117265935008">
   <path class="fil0" d="M0 4243l0 -4125 59 0 1155 0 0 1650 1185 -1650 59 0 1355 0 -1567 1998 909 1202 -1428 0 -513 -760 0 760 -499 0 0 925 -715 0zm4652 -445c-29,-29 -57,-59 -84,-91 -11,-12 -22,-25 -32,-37l0 -352 -244 0c-193,-342 -290,-721 -290,-1137 0,-578 185,-1086 557,-1524 371,-438 924,-657 1659,-657l59 0c735,0 1288,219 1659,657 371,438 557,946 557,1524 0,417 -96,796 -287,1137l-1671 0c97,-32 190,-80 278,-146 359,-207 600,-594 600,-1038 0,-660 -535,-1196 -1196,-1196 -660,0 -1196,536 -1196,1196 0,529 343,978 820,1136 38,19 76,35 116,48l-1305 0 0 480zm4247 -480l466 -3200 59 0 1155 0 696 2416 695 -2416 59 0 1155 0 459 3148c-394,93 -754,284 -1078,560l0 0 -55 -425 65 -83 -75 0 -170 -1326 -386 1326 -1339 0 -385 -1326 -237 1846 -291 405 -46 0 0 -925 -747 0zm5340 -118l0 -3082 59 0 3678 0 0 4125 -59 0 -1416 0 0 -1527 594 0 -8 -675 -622 0c0,0 0,-252 0,-385 0,-159 32,-222 186,-222 124,0 436,0 436,0l0 -701c0,0 -459,0 -558,0 -599,0 -869,264 -869,769 0,440 0,539 0,539l-419 0 0 683 212 0 0 782c-85,-49 -174,-93 -265,-130 -132,-53 -268,-95 -407,-123 -86,-17 -172,-30 -259,-40 -83,-8 -167,-13 -251,-13l-32 0z"/>
   <path class="fil0" d="M1087 3631l3136 0 0 3233 -564 0 0 893 -651 0 0 -3136 -766 0 0 1627c0,86 -3,181 -9,283 -5,102 -20,206 -44,312 -51,244 -178,465 -380,663 -202,199 -557,298 -1064,298l-59 6c-63,-4 -119,-7 -168,-9 -49,-2 -97,-7 -144,-15 -28,-4 -55,-9 -83,-15 -27,-5 -57,-10 -88,-14l0 -990 59 0c39,11 78,20 115,26 37,6 76,11 115,15 255,-8 408,-99 460,-274 51,-175 76,-384 76,-628l0 -2275 59 0zm3878 3233l0 -3233 59 0 2475 0 0 990 -1320 0 0 578 1197 0 0 907 -1197 0 0 661 1320 0 0 97 -1282 0 0 893 -717 0 0 -893 -535 0zm3153 893l0 -4126 59 0 1155 0 0 1650 1185 -1650 59 0 1355 0 -1567 1998 1440 1905 0 223 -1334 0 -456 -675 0 -218 -147 0 -535 -793 0 793 -1158 0 0 893 -56 0zm5643 70c-39,-8 -78,-17 -116,-27l0 -936 -1250 0c-183,-322 -275,-712 -275,-1170 0,-719 216,-1262 648,-1630 433,-367 914,-551 1444,-551l59 0c71,0 144,4 218,12 75,8 152,20 230,35 118,24 235,59 351,106 116,48 227,107 333,177l0 1197 -59 0c-24,-28 -51,-57 -83,-89 -31,-31 -66,-65 -106,-100 -86,-75 -193,-143 -321,-206 -128,-63 -274,-96 -439,-100 -322,8 -574,128 -754,362 -181,234 -271,508 -271,822 0,354 101,626 303,817 202,190 443,289 722,297 148,-5 284,-32 408,-80 31,36 64,69 98,101l-1140 0 0 963z"/>
   <path class="fil1" d="M3972 11303l0 -4126 59 0 1155 0 0 1486 1344 0 0 -1486 59 0 1155 0 0 4126 -59 0 -1155 0 0 -1650 -1344 0 0 1650 -58 0 -1156 0zm6762 -1738l-1098 416c-60,17 -58,77 -14,91l275 86 106 322c12,36 23,49 45,49 23,1 31,-8 55,-29 28,-26 71,-67 138,-133l286 212c53,29 91,14 104,-49l179 -887c19,-77 -26,-100 -76,-78zm-793 573l0 0 625 -392c31,-21 40,2 26,18l-519 467 -26 233 -106 -326zm-1454 1165l0 -4126 59 0 1155 0 0 1609 607 0c83,0 191,4 324,12 134,8 273,33 419,77 220,63 421,180 604,353 182,173 274,444 274,814 0,369 -92,641 -274,816 -183,175 -382,294 -598,356 -146,44 -287,69 -425,77 -137,8 -245,12 -324,12l-59 0 -1762 0zm3630 0l0 -4126 59 0 1156 0 0 4126 -59 0 -1156 0zm2016 -4126l1114 0 0 2387 1538 -2387 59 0 1132 0 0 4126 -59 0 -1114 0 0 -2381 -1515 2381 -59 0 -1155 0 0 -4126 59 0zm743 -884l672 -247 58 0c24,90 59,159 107,206 47,47 98,81 153,100 35,16 71,27 106,33 35,5 67,8 94,8 28,0 59,-3 94,-8 36,-6 71,-17 107,-33 55,-19 106,-53 153,-100 47,-47 82,-116 106,-206l59 0 672 247c-102,236 -261,405 -475,507 -214,102 -443,153 -686,153l-59 0c-271,0 -511,-58 -719,-174 -209,-115 -356,-277 -442,-486z"/>
   <g>
    <path class="fil1" d="M6218 1468c-187,0 -211,0 -285,4 -73,3 -124,15 -168,32 -45,18 -84,41 -122,80 -39,38 -62,77 -80,122 -17,44 -29,94 -32,168 -3,74 -4,97 -4,285 0,188 1,212 4,285 3,74 15,124 32,168 18,46 41,84 80,123 38,38 77,62 122,79 44,18 95,29 168,33 74,3 98,4 285,4 188,0 212,-1 286,-4 73,-4 123,-15 167,-33 46,-17 84,-41 123,-79 38,-39 62,-77 80,-123 17,-44 28,-94 32,-168 3,-73 4,-97 4,-285 0,-188 -1,-211 -4,-285 -4,-74 -15,-124 -32,-168 -18,-45 -42,-84 -80,-122 -39,-39 -77,-62 -123,-80 -44,-17 -94,-29 -167,-32 -74,-4 -98,-4 -286,-4zm0 124c185,0 207,1 280,4 67,3 104,15 128,24 33,13 56,28 80,52 24,24 39,47 51,79 10,25 21,61 24,129 4,73 4,95 4,279 0,185 0,207 -4,280 -3,67 -14,104 -24,128 -12,32 -27,55 -51,80 -24,24 -47,39 -80,51 -24,10 -61,21 -128,24 -73,3 -95,4 -280,4 -184,0 -206,-1 -279,-4 -67,-3 -104,-14 -128,-24 -33,-12 -56,-27 -80,-51 -24,-25 -39,-48 -52,-80 -9,-24 -20,-61 -24,-128 -3,-73 -4,-95 -4,-280 0,-184 1,-206 4,-279 4,-68 15,-104 24,-129 13,-32 28,-55 52,-79 24,-24 47,-39 80,-52 24,-9 61,-21 128,-24 73,-3 95,-4 279,-4z"/>
    <path class="fil1" d="M6218 2390c-127,0 -230,-103 -230,-231 0,-127 103,-230 230,-230 128,0 231,103 231,230 0,128 -103,231 -231,231zm0 -586c-196,0 -355,159 -355,355 0,196 159,355 355,355 197,0 355,-159 355,-355 0,-196 -158,-355 -355,-355z"/>
    <path class="fil1" d="M6671 1790c0,46 -38,83 -83,83 -46,0 -83,-37 -83,-83 0,-46 37,-83 83,-83 45,0 83,37 83,83z"/>
   </g>
  </g>
 </g>
</svg>
