<?xml version="1.0" encoding="UTF-8"?>
<!DOCTYPE svg PUBLIC "-//W3C//DTD SVG 1.1//EN" "http://www.w3.org/Graphics/SVG/1.1/DTD/svg11.dtd">
<!-- Creator: CorelDRAW X8 -->
<svg xmlns="http://www.w3.org/2000/svg" xml:space="preserve" width="18.3482cm" height="3.73816cm" version="1.1" style="shape-rendering:geometricPrecision; text-rendering:geometricPrecision; image-rendering:optimizeQuality; fill-rule:evenodd; clip-rule:evenodd"
viewBox="0 0 1053 215"
 xmlns:xlink="http://www.w3.org/1999/xlink">
 <defs>
  <style type="text/css">
   <![CDATA[
    .fil4 {fill:black}
    .fil3 {fill:red}
    .fil2 {fill:white}
    .fil1 {fill:red;fill-rule:nonzero}
    .fil0 {fill:white;fill-rule:nonzero}
   ]]>
  </style>
 </defs>
 <g id="Layer_x0020_1">
  <metadata id="CorelCorpID_0Corel-Layer"/>
  <path class="fil0" d="M75 128l-22 40 5 2 0 17 -54 0 0 -17 14 -3 35 -59 -19 -29c-3,-5 -6,-8 -8,-10 -2,-1 -5,-2 -8,-2 -1,0 -2,0 -4,0 -1,0 -2,1 -3,1l-4 -22c2,-1 5,-3 8,-4 3,0 6,-1 9,-1 7,0 13,2 18,5 4,3 8,9 13,17l23 39 15 0 0 -39 -16 -3 0 -18 45 0 15 0 0 18 -15 3 0 39 14 0 23 -39c4,-8 9,-14 13,-17 4,-3 10,-5 17,-5 4,0 7,1 10,1 3,1 6,3 8,4l-4 22c-1,0 -3,-1 -4,-1 -1,0 -2,0 -3,0 -3,0 -6,1 -8,2 -2,2 -5,5 -8,10l-19 30 34 58 15 3 0 17 -55 0 0 -17 5 -2 -21 -40 -17 0 0 39 15 3 0 17 -60 0 0 -17 16 -3 0 -39 -18 0z"/>
  <path id="1" class="fil0" d="M312 123l-49 0 0 42 47 0 1 -18 22 0 0 40 -114 0 0 -17 15 -3 0 -104 -15 -3 0 -18 15 0 99 0 0 40 -22 0 -2 -17 -46 0 0 36 49 0 0 22zm2 -95l-27 0 0 -20 27 0 0 20zm-50 0l-26 0 0 -20 26 0 0 20z"/>
  <path id="2" class="fil0" d="M467 91l-22 0 -3 -19c-2,-3 -6,-5 -10,-7 -5,-1 -10,-2 -16,-2 -12,0 -22,4 -29,13 -6,10 -10,21 -10,36l0 5c0,15 4,27 10,36 7,9 17,14 29,14 6,0 11,-1 16,-3 4,-1 8,-4 10,-6l3 -20 22 0 0 29c-6,7 -13,12 -22,16 -9,4 -19,6 -31,6 -19,0 -35,-7 -47,-20 -13,-14 -19,-31 -19,-52l0 -5c0,-21 6,-38 19,-51 12,-14 28,-21 47,-21 12,0 22,2 31,6 9,5 16,10 22,17l0 28z"/>
  <polygon id="3" class="fil0" points="605,42 605,81 582,81 581,65 555,65 555,167 570,170 570,187 510,187 510,170 526,167 526,65 499,65 498,81 476,81 476,42 "/>
  <path id="4" class="fil1" d="M614 170l15 -3 0 -104 -15 -3 0 -18 59 0 0 18 -15 3 0 39 13 0 27 -39c6,-9 11,-14 16,-17 4,-3 10,-5 17,-5 4,0 7,1 10,1 3,1 5,3 8,4l-5 22c-2,-1 -4,-1 -4,-1 -1,0 -2,0 -3,0 -4,0 -6,1 -9,2 -2,2 -6,5 -9,10l-23 31 40 57 15 3 0 17 -57 0 0 -17 8 -2 -27 -40 -17 0 0 39 15 3 0 17 -59 0 0 -17z"/>
  <path id="5" class="fil1" d="M888 116c0,21 -6,38 -18,52 -12,14 -28,21 -47,21 -20,0 -36,-7 -48,-21 -12,-14 -18,-31 -18,-52l0 -2c0,-21 6,-39 18,-53 12,-14 28,-21 47,-21 20,0 36,7 48,21 12,14 18,32 18,53l0 2zm-29 -3c0,-15 -3,-27 -9,-36 -6,-9 -15,-14 -28,-14 -12,0 -21,5 -27,14 -6,9 -9,21 -9,36l0 3c0,15 3,27 9,37 6,9 15,13 28,13 12,0 21,-4 27,-13 6,-10 9,-22 9,-37l0 -3z"/>
  <path id="6" class="fil1" d="M961 42l0 18 -16 3 0 67 1 0 58 -59 0 -8 -15 -3 0 -18 15 0 29 0 16 0 0 18 -16 3 0 104 16 3 0 17 -60 0 0 -17 15 -3 0 -66 0 0 -59 59 0 7 16 3 0 17 -60 0 0 -17 16 -3 0 -104 -16 -3 0 -18 16 0 28 0 16 0zm47 -42l0 1c1,8 -2,15 -9,20 -6,6 -14,8 -24,8 -11,0 -19,-2 -26,-8 -6,-5 -9,-12 -8,-20l0 -1 20 0c0,4 1,7 3,10 2,2 6,3 11,3 4,0 8,-1 10,-3 2,-3 3,-6 3,-10l20 0z"/>
  <polygon id="7" class="fil2" points="0,205 608,205 608,215 0,215 "/>
  <polygon id="8" class="fil3" points="608,205 1053,205 1053,215 608,215 "/>
  <path class="fil4" d="M52 109l17 2 64 -6 28 4 3 5 -71 15 0 -1 -18 0 -2 3 -33 -1 12 -21zm182 6l5 1 34 -12 39 -1 0 11 -39 -13 -10 0 0 -3 -5 -2 -24 5 0 14zm114 5l7 3 8 -30 14 18c0,0 0,1 0,1l0 5 0 0 -29 0 0 0c0,1 0,2 0,3zm178 -9l29 0 0 7 -27 4 -2 0 0 -11zm103 0l29 0 40 1 -2 -2 8 -10 -67 4 -8 2 0 5zm128 3l29 1 0 -2c0,-2 0,-4 0,-7l-27 -9c-1,5 -2,11 -2,17l0 0zm102 3l29 1 0 0 -29 5c0,-1 0,-4 0,-6zm58 0l28 -5 0 -6 -28 6 0 5zm50 -9l35 -5 -1 1 -15 -7 -10 3 -9 8zm37 -6l29 -4 0 18 -29 -11 0 -3z"/>
 </g>
</svg>
