<?xml version="1.0" encoding="UTF-8"?>
<!DOCTYPE svg PUBLIC "-//W3C//DTD SVG 1.1//EN" "http://www.w3.org/Graphics/SVG/1.1/DTD/svg11.dtd">
<!-- Creator: CorelDRAW X7 -->
<svg xmlns="http://www.w3.org/2000/svg" xml:space="preserve" width="127.626mm" height="96.9066mm" version="1.1" style="shape-rendering:geometricPrecision; text-rendering:geometricPrecision; image-rendering:optimizeQuality; fill-rule:evenodd; clip-rule:evenodd"
viewBox="0 0 10732 8149"
 xmlns:xlink="http://www.w3.org/1999/xlink">
 <defs>
  <style type="text/css">
   <![CDATA[
    .fil1 {fill:#002374;fill-rule:nonzero}
    .fil0 {fill:red;fill-rule:nonzero}
   ]]>
  </style>
 </defs>
 <g id="Layer_x0020_1">
  <metadata id="CorelCorpID_0Corel-Layer"/>
  <path class="fil0" d="M5374 424c0,83 -71,292 -213,625 -141,322 -283,883 -430,1680 -145,798 -218,1425 -218,1879l57 1189 0 134c0,61 -45,122 -138,185 -91,62 -169,93 -231,93 -339,0 -532,-158 -581,-476l-7 -114c-4,-82 -2,-336 11,-763 13,-426 38,-831 73,-1212 -125,107 -524,468 -1201,1082 -274,250 -437,394 -487,435 -542,458 -901,801 -1079,1033 -21,32 -75,75 -166,126 -90,51 -158,75 -203,75 -272,0 -460,-192 -561,-579 0,-91 183,-290 549,-594l49 -42c427,-389 1081,-901 1964,-1536 -29,2 -64,8 -107,15 -208,36 -346,54 -413,54 -383,0 -725,-117 -1026,-351 -302,-233 -451,-534 -451,-899 0,-384 144,-741 435,-1070 292,-329 689,-609 1193,-840 505,-232 975,-381 1411,-450 435,-68 677,-103 725,-103 59,0 138,17 237,49 38,-19 110,-29 214,-29 124,0 249,37 374,114 126,77 199,170 220,282l0 8zm-1167 579c-9,-26 -40,-53 -92,-82 -52,-30 -93,-44 -121,-44 -214,0 -522,57 -926,170 -404,113 -760,301 -1068,564 -310,262 -464,550 -464,859 0,137 62,250 183,340 122,88 262,133 420,133 283,0 593,-24 926,-73 332,-48 583,-111 751,-186l-8 0c40,-46 117,-297 230,-751 113,-455 169,-754 169,-900l0 -30z"/>
  <path class="fil0" d="M5711 3878c-146,116 -259,173 -338,173 -51,0 -92,-20 -122,-61 -29,-40 -44,-89 -44,-147 0,-73 15,-165 44,-275 30,-111 55,-175 75,-192 20,-17 47,-25 80,-25 21,0 38,9 52,28 13,19 19,41 19,66 0,7 -17,48 -51,120 -41,89 -62,166 -62,231 0,30 5,56 15,75 10,19 21,29 32,29 22,0 49,-6 80,-19 31,-13 68,-37 113,-72 44,-35 72,-61 84,-79 13,-17 23,-40 31,-69 7,-29 13,-90 18,-184 2,-55 5,-89 8,-103 3,-15 11,-28 25,-40 14,-11 32,-17 56,-17 31,0 53,6 66,20 13,13 20,44 20,94 0,66 -12,209 -36,426 -24,218 -68,376 -131,474 -63,98 -149,147 -256,147 -96,0 -180,-25 -251,-76 -72,-50 -108,-94 -108,-133 0,-22 5,-40 17,-53 11,-14 25,-20 43,-20 16,0 29,6 39,20 68,78 149,117 246,117 123,0 201,-152 236,-455zm329 156c42,-42 90,-128 146,-258 7,-18 16,-36 25,-55 9,-19 17,-37 24,-56 4,-10 8,-19 13,-29 17,-37 34,-85 51,-143 17,-58 27,-100 32,-124 7,-40 38,-61 92,-61 35,0 57,6 65,19 8,12 17,27 27,44 9,18 20,64 34,138 13,74 23,137 30,189 10,61 26,125 49,192 58,-134 110,-248 156,-342 45,-93 82,-163 110,-208 28,-46 48,-74 60,-85 12,-10 24,-16 36,-16 23,0 48,7 74,20 27,13 42,27 46,40 5,64 10,184 16,360 2,63 6,119 12,168 6,49 16,90 31,123 20,41 30,76 30,104 0,24 -9,43 -28,58 -18,15 -44,23 -78,23 -50,0 -83,-34 -99,-102 -16,-68 -24,-188 -24,-360 0,-26 3,-75 7,-147l3 -45c-66,125 -121,238 -166,337 -62,136 -104,219 -126,248 -23,29 -48,43 -75,43l-12 0c-34,0 -60,-9 -78,-26 -18,-18 -38,-70 -59,-156 -22,-87 -37,-170 -48,-251 -5,-33 -9,-56 -13,-66 -19,68 -31,108 -36,121 -1,2 -3,6 -5,14 -14,43 -36,98 -66,166 -29,66 -57,119 -82,157 -25,38 -44,62 -57,71 -13,8 -29,13 -47,13 -20,0 -39,-8 -58,-23 -19,-14 -28,-31 -28,-50 0,-18 5,-32 15,-44l1 -1zm1933 -194c0,49 -42,108 -125,176 -82,69 -176,103 -280,103 -80,0 -143,-25 -189,-76 -46,-50 -69,-120 -69,-210 0,-133 47,-257 141,-373 93,-117 194,-175 300,-175 53,0 96,17 128,51 32,34 48,74 48,120 0,82 -39,161 -118,236 -79,74 -181,126 -305,154 -14,3 -21,12 -21,26 0,23 10,44 30,65 21,20 48,31 81,31 95,0 190,-49 284,-147 18,-19 35,-29 52,-29 29,0 43,16 43,48zm-477 -126c75,-15 141,-47 198,-96 57,-49 86,-93 86,-133 0,-15 -5,-29 -14,-39 -8,-11 -19,-16 -33,-16 -42,0 -87,30 -138,91 -50,60 -83,125 -99,193zm1115 -104c39,-101 93,-181 162,-240 68,-59 143,-89 224,-89 80,0 146,30 196,90 51,60 76,131 76,214 0,124 -50,239 -149,344 -99,105 -203,157 -310,157 -72,0 -130,-27 -175,-82 -45,-55 -68,-131 -70,-228 -137,-5 -224,3 -260,24 -3,25 -8,49 -13,72 -6,23 -9,46 -9,70l-3 50c0,34 -7,62 -23,84 -16,22 -39,32 -69,32 -55,0 -83,-31 -83,-93l3 -60c0,-10 5,-48 15,-111l14 -99c4,-28 13,-134 26,-318 1,-31 5,-52 9,-63 5,-11 17,-22 35,-33 18,-12 38,-18 58,-18 51,0 77,20 77,60 0,1 -1,6 -3,16 -21,110 -31,189 -31,238 0,2 2,6 5,11 4,5 5,8 6,8 9,2 25,3 48,3 41,0 90,-3 148,-9 57,-5 86,-10 86,-12l10 -18zm276 -143c-33,29 -65,76 -97,139 -32,64 -48,129 -48,196 0,38 7,71 21,97 14,26 33,39 58,39 57,0 118,-35 182,-105 65,-69 97,-148 97,-234 0,-49 -11,-89 -32,-121 -20,-32 -49,-47 -85,-47 -35,0 -67,12 -96,36l0 0zm-3176 2230c-46,82 -99,148 -159,197 -60,49 -120,73 -182,73 -36,0 -73,-19 -110,-57 -38,-39 -56,-98 -56,-177 0,-56 14,-141 42,-255 25,-94 37,-165 37,-214 19,-40 49,-60 89,-60 28,0 50,9 66,28 16,18 24,36 24,55 0,33 -11,81 -35,143 -14,37 -29,89 -44,157 -16,67 -24,111 -24,130 0,63 13,94 39,94 41,0 97,-40 167,-119 70,-79 116,-160 137,-243 21,-81 40,-134 57,-159 16,-25 40,-37 70,-37 49,0 74,27 74,82 0,8 -4,24 -12,48 -28,84 -42,179 -42,284 0,123 21,197 63,221 13,8 20,18 20,30 0,17 -12,33 -36,48 -24,15 -47,23 -69,23 -37,0 -66,-27 -86,-80 -21,-52 -30,-123 -30,-212zm547 101c0,14 7,25 22,36 15,10 29,15 41,15 83,0 154,-14 214,-43 36,-18 63,-27 81,-27 32,0 47,17 47,50 0,44 -35,82 -107,113 -71,30 -158,45 -262,45 -62,0 -116,-18 -160,-54 -45,-36 -67,-83 -67,-139 0,-48 16,-95 47,-142 31,-48 109,-104 233,-170 57,-30 95,-52 112,-67 17,-14 26,-29 26,-44 0,-13 -5,-23 -15,-31 -10,-8 -18,-11 -24,-11 -29,0 -92,20 -187,61 -10,4 -20,6 -29,6 -45,0 -68,-15 -68,-45 0,-49 40,-90 119,-122 79,-31 147,-47 205,-47 50,0 94,17 132,50 39,33 58,73 58,120 0,42 -15,83 -45,121 -30,39 -95,85 -194,140 -69,38 -116,71 -141,100 -26,28 -38,57 -38,85zm709 113c-9,38 -21,109 -35,212 -14,103 -23,172 -26,207 -3,35 -15,66 -36,90 -22,25 -41,37 -58,37 -22,0 -43,-8 -64,-24 -20,-16 -31,-34 -31,-53 0,-38 6,-82 18,-133 71,-283 110,-576 117,-877l0 -14c0,-59 1,-99 5,-119 4,-21 16,-41 36,-60 20,-19 43,-28 70,-28 23,0 41,10 56,30 14,21 21,50 21,88 0,39 -7,107 -21,204 53,-87 116,-160 189,-217 73,-58 140,-87 200,-87 53,0 98,19 135,57 37,38 56,86 56,143 0,153 -59,292 -178,418 -119,125 -236,187 -352,187 -54,0 -88,-20 -102,-61zm413 -582c-58,0 -133,56 -225,169 -92,112 -138,201 -138,265 0,17 8,32 24,45 17,13 36,20 58,20 60,0 129,-48 207,-142 78,-95 117,-186 117,-274 0,-30 -5,-51 -14,-64 -9,-13 -19,-19 -29,-19zm839 391c-124,164 -243,245 -357,245 -43,0 -80,-16 -110,-50 -31,-34 -46,-77 -46,-129 0,-125 56,-259 167,-401 112,-142 225,-213 339,-213 57,0 95,29 113,88 55,0 82,21 82,62 0,20 -5,56 -16,108 -19,98 -28,176 -28,234 0,61 4,103 12,128 9,25 15,41 18,48 4,8 16,16 35,24 19,9 28,22 28,38 0,24 -12,44 -37,60 -24,17 -50,25 -76,25 -45,0 -77,-23 -96,-67 -20,-45 -30,-97 -30,-157l0 -21c0,-7 1,-14 2,-22zm-39 -396c-48,0 -110,53 -186,159 -77,106 -115,196 -115,270 0,39 8,58 24,58 56,0 125,-49 207,-149 81,-99 122,-186 122,-260 0,-24 -5,-43 -16,-57 -11,-14 -22,-21 -36,-21zm596 588c-6,49 -33,73 -82,73 -62,0 -93,-44 -93,-134 0,-145 8,-269 23,-372 13,-80 19,-158 19,-236 0,-18 6,-34 18,-46 12,-13 28,-19 49,-19 72,0 107,43 107,129 0,28 -12,99 -38,214 -15,68 -22,118 -22,149 135,-298 257,-446 366,-446 44,0 80,17 107,52 26,35 40,113 41,233 0,110 6,165 17,165 9,0 38,-53 89,-160 56,-118 105,-196 145,-234 40,-38 82,-56 126,-56 52,0 90,22 114,67 24,46 40,122 50,229 7,86 17,150 29,194 12,43 33,72 62,86 24,12 35,29 35,52 0,20 -13,41 -40,61 -27,21 -55,31 -82,31 -49,0 -87,-24 -114,-71 -27,-48 -46,-144 -55,-287 -5,-69 -11,-115 -17,-138 -6,-22 -15,-33 -26,-33 -11,0 -26,16 -46,50 -20,34 -54,102 -103,203 -43,91 -80,154 -111,190 -31,36 -64,54 -100,54 -27,0 -55,-12 -83,-35 -27,-24 -42,-110 -45,-259 -2,-132 -11,-198 -25,-198 -20,0 -68,59 -144,177 -76,117 -133,222 -171,315zm1456 -437c94,-106 188,-159 282,-159 61,0 113,19 155,57 42,38 63,81 63,130 0,116 -59,223 -178,322 -118,99 -230,149 -335,149 -59,0 -103,-24 -133,-73 -31,-48 -46,-116 -46,-205 0,-151 27,-303 80,-455 5,-14 9,-28 13,-42 5,-18 22,-33 51,-45 28,-11 49,-17 63,-17 15,0 29,5 40,16 10,12 16,27 16,48 0,11 -9,47 -26,106 -21,69 -36,125 -45,168zm-15 159c-3,25 -5,48 -5,67 0,56 6,90 20,102 13,12 25,18 38,18 39,0 96,-27 171,-80 75,-54 113,-113 113,-179 0,-28 -7,-51 -22,-68 -14,-17 -32,-25 -54,-25 -73,0 -144,41 -213,123 -24,28 -40,42 -48,42z"/>
  <path class="fil1" d="M1168 7090c-29,-2 -61,-3 -96,-3 -61,0 -122,3 -181,9 -60,6 -94,14 -103,23 -9,10 -23,45 -41,106 -19,61 -29,104 -30,131 18,-3 38,-7 62,-13 104,-22 171,-34 199,-34 25,0 47,7 68,21 21,14 31,31 31,53 0,19 -5,32 -15,42 -11,9 -18,15 -23,19 -5,4 -27,7 -65,10 -75,7 -140,17 -194,31 -55,13 -85,24 -91,31 -6,7 -13,36 -21,86 -8,51 -11,84 -11,100 1,8 4,13 10,15 20,0 37,-2 51,-5 26,-6 90,-18 191,-36 102,-18 163,-27 184,-27 23,0 46,6 69,17 23,11 34,31 34,59 0,58 -74,87 -221,87 -83,0 -152,8 -206,24 -36,10 -78,18 -127,24 -6,0 -13,2 -22,5 -10,4 -21,6 -33,6 -60,0 -89,-32 -89,-97 0,-19 3,-39 10,-59 38,-217 67,-369 86,-458 10,-39 18,-91 24,-156 -3,-12 -7,-25 -12,-38 -5,-14 -8,-27 -8,-40l0 -1c0,-14 6,-27 19,-38 12,-11 27,-17 43,-17 17,3 29,7 34,13 2,2 5,5 8,7 21,0 92,-7 213,-20 121,-14 188,-20 199,-20 79,0 119,25 119,75 0,35 -22,58 -65,68zm810 667c0,10 -7,24 -19,42 -13,18 -36,27 -68,27 -40,0 -76,-34 -107,-102 -32,-68 -54,-142 -68,-223 -5,-26 -11,-58 -19,-94 -2,-6 -4,-19 -6,-38 -1,-20 -3,-31 -4,-32 -7,13 -14,27 -21,44 -51,112 -106,213 -165,305l-8 14c-2,5 -5,9 -9,12 -49,89 -90,134 -122,134 -45,0 -68,-20 -68,-61 0,-31 21,-72 64,-122 52,-63 119,-173 201,-331l85 -164c9,-16 25,-24 47,-24 13,0 29,4 47,12 17,8 29,17 35,28 6,11 12,29 17,53 29,136 55,243 78,322 24,78 49,128 77,148 22,11 33,28 33,50l0 0zm639 -150c0,42 -35,92 -106,150 -70,58 -149,87 -238,87 -68,0 -121,-21 -160,-64 -39,-43 -59,-103 -59,-179 0,-113 40,-218 120,-317 79,-98 164,-148 255,-148 45,0 81,15 108,43 28,29 42,63 42,102 0,70 -34,137 -101,200 -67,64 -154,107 -259,132 -12,2 -18,9 -18,21 0,20 9,38 26,55 17,18 40,27 69,27 80,0 161,-42 240,-125 16,-16 30,-24 45,-24 24,0 36,13 36,40zm-405 -107c64,-13 120,-40 168,-81 49,-42 73,-79 73,-113 0,-13 -4,-24 -11,-33 -8,-10 -17,-14 -29,-14 -35,0 -74,26 -116,77 -43,52 -71,106 -85,164zm1060 68c1,92 16,149 43,172 16,13 25,26 25,38 0,15 -11,29 -31,41 -21,13 -40,20 -59,20 -36,0 -64,-22 -84,-66 -19,-43 -29,-107 -29,-189l0 -43c0,-1 -9,-2 -27,-2 -43,0 -91,3 -147,10 -55,8 -82,16 -82,25 0,14 -4,35 -13,65 -4,14 -7,28 -7,43l3 51c0,28 -7,52 -21,72 -14,20 -35,30 -61,30 -47,0 -71,-26 -71,-79l3 -51c0,-12 4,-44 12,-94 12,-67 20,-154 26,-259l10 -131c1,-12 10,-26 27,-40 18,-14 37,-21 59,-21 43,0 65,16 65,49 0,0 -1,5 -2,14 -18,112 -27,184 -27,216 0,2 0,3 0,4 4,2 58,-2 164,-11 53,-6 84,-10 94,-13 5,-2 10,-38 16,-107 5,-64 15,-107 32,-130 15,-21 37,-32 64,-32 27,0 46,6 59,18 12,12 17,29 14,49l-11 45c-1,8 -4,20 -9,37 -24,81 -36,158 -36,230l1 39zm580 46c-105,138 -206,208 -303,208 -36,0 -68,-14 -94,-43 -26,-29 -39,-65 -39,-109 0,-107 48,-220 143,-341 94,-120 190,-181 287,-181 49,0 81,25 96,75 47,0 70,17 70,53 0,17 -5,47 -14,91 -16,83 -24,150 -24,199 0,52 4,88 11,109 7,21 12,34 15,41 4,6 13,13 29,20 16,8 24,19 24,32 0,21 -10,38 -31,51 -20,14 -42,21 -65,21 -37,0 -65,-19 -81,-57 -17,-38 -25,-82 -25,-133l0 -18c0,-6 0,-12 1,-18zm-33 -336c-40,0 -93,45 -158,134 -65,90 -98,167 -98,229 0,33 7,50 21,50 47,0 106,-42 175,-126 70,-85 104,-158 104,-222 0,-20 -4,-36 -13,-48 -9,-12 -19,-17 -31,-17zm1097 231c4,25 3,57 -2,97 -12,85 -18,139 -18,161 0,20 -11,39 -32,55 -21,17 -44,26 -70,26 -31,0 -47,-26 -47,-77 0,-6 2,-35 6,-87l11 -136c2,-27 6,-128 13,-303 6,-175 10,-274 10,-298 0,-29 9,-51 28,-68 18,-16 39,-24 63,-24 21,0 39,9 52,26 14,17 21,34 21,50 0,91 -7,192 -21,303l0 -1c-3,46 -5,81 -5,105 49,-35 113,-92 192,-172 78,-75 136,-127 174,-155 5,-4 10,-10 17,-18 34,-33 65,-56 96,-68l-1 0c5,-3 12,-4 21,-4 20,0 41,8 62,24 21,16 32,30 32,41 0,8 -4,14 -12,20 -34,41 -98,101 -192,179 -98,82 -174,150 -229,206 80,34 158,63 232,87 0,0 3,1 7,3 25,12 40,20 45,21 18,5 44,15 78,30 44,20 86,35 127,47 41,12 64,18 69,18 4,-7 14,-10 31,-10 21,0 41,11 58,32 18,22 26,40 26,53 0,22 -8,40 -25,56 -18,16 -38,23 -63,23 -26,0 -72,-11 -139,-34 -66,-23 -121,-44 -166,-63 -65,-28 -146,-61 -243,-97 -97,-37 -152,-56 -167,-56 -16,0 -29,3 -39,8zm1355 131c-124,98 -220,147 -287,147 -44,0 -78,-17 -103,-52 -26,-35 -38,-76 -38,-125 0,-62 12,-140 38,-234 25,-94 46,-148 63,-162 17,-15 40,-22 68,-22 18,0 32,8 44,24 11,16 17,35 17,56 0,6 -15,40 -44,102 -35,76 -53,141 -53,196 0,26 4,47 13,64 9,16 18,24 27,24 19,0 42,-5 68,-16 26,-11 58,-32 96,-61 37,-30 61,-52 72,-67 10,-15 19,-34 25,-59 7,-24 12,-76 16,-156 2,-46 4,-76 7,-88 2,-12 10,-23 21,-33 12,-10 28,-15 47,-15 27,0 46,5 57,17 11,11 16,38 16,80 0,56 -10,177 -30,362 -20,185 -58,319 -111,402 -54,83 -126,125 -218,125 -81,0 -152,-21 -213,-64 -61,-43 -91,-80 -91,-113 0,-19 4,-34 14,-46 9,-11 22,-17 37,-17 13,0 24,6 33,17 57,67 127,100 209,100 104,0 170,-129 200,-386zm939 117c0,10 -7,24 -19,42 -13,18 -36,27 -68,27 -40,0 -76,-34 -107,-102 -32,-68 -54,-142 -68,-223 -5,-26 -11,-58 -19,-94 -2,-6 -4,-19 -6,-38 -1,-20 -3,-31 -4,-32 -7,13 -14,27 -21,44 -51,112 -106,213 -165,305l-8 14c-2,5 -5,9 -9,12 -49,89 -90,134 -122,134 -45,0 -68,-20 -68,-61 0,-31 21,-72 64,-122 52,-63 119,-173 201,-331l85 -164c9,-16 25,-24 47,-24 13,0 29,4 47,12 17,8 29,17 35,28 6,11 12,29 17,53 29,136 55,243 78,322 24,78 49,128 77,148 22,11 33,28 33,50l0 0zm524 -163c-39,70 -83,126 -134,168 -51,41 -103,62 -155,62 -31,0 -62,-17 -94,-49 -32,-33 -47,-83 -47,-150 0,-48 12,-121 36,-217 21,-80 31,-140 31,-182 16,-34 41,-51 76,-51 23,0 42,8 55,24 14,15 21,31 21,47 0,28 -10,69 -30,121 -12,32 -24,76 -38,134 -13,57 -20,94 -20,110 0,53 11,80 33,80 35,0 83,-34 142,-101 60,-67 99,-136 117,-206 18,-69 34,-114 48,-135 14,-22 34,-32 60,-32 42,0 63,23 63,70 0,7 -4,20 -11,41 -24,71 -35,151 -35,240 0,105 17,168 53,188 11,7 17,15 17,25 0,15 -10,29 -31,41 -20,13 -40,20 -58,20 -32,0 -56,-23 -74,-68 -17,-44 -25,-105 -25,-180zm647 -87c18,4 35,12 51,23 16,12 34,32 56,62 42,58 75,96 99,114 24,18 51,27 79,27 30,0 45,9 45,28 0,18 -11,36 -31,54 -21,18 -53,27 -97,27 -68,0 -137,-56 -207,-169 -41,-66 -75,-99 -102,-99 -4,0 -14,3 -29,8 -16,5 -27,10 -32,15 -4,4 -8,29 -11,76l-7 111c-1,19 -8,34 -23,47 -14,13 -31,20 -52,20 -22,0 -39,-6 -52,-19 -12,-12 -19,-24 -19,-37 0,-15 5,-48 16,-98 24,-127 43,-282 57,-465 1,-23 11,-44 29,-64 17,-19 38,-29 62,-29 16,0 30,7 41,21 11,15 16,31 16,49 0,15 -2,30 -7,44 -6,18 -14,53 -26,107 -11,53 -17,94 -20,122 48,-14 85,-34 112,-60 26,-26 59,-67 99,-124 33,-47 64,-81 93,-103 29,-23 60,-34 95,-34 19,0 37,8 53,24 16,16 24,33 24,50 0,15 -4,26 -13,34 -9,7 -25,14 -48,21 -28,9 -59,32 -91,69 -68,78 -121,127 -160,148zm978 2c-27,94 -78,173 -154,238 -75,64 -150,97 -226,97 -59,0 -108,-22 -147,-66 -39,-43 -58,-97 -58,-161 0,-104 36,-206 106,-306 71,-101 157,-151 258,-151 69,0 125,25 167,76 43,51 64,112 64,182 0,31 -3,61 -10,90l0 1zm-314 -191c-28,25 -56,65 -83,119 -27,55 -40,110 -40,165 0,34 6,61 18,83 13,22 29,32 49,32 50,0 102,-29 156,-88 54,-59 80,-126 80,-199 0,-42 -8,-76 -26,-103 -17,-26 -42,-40 -73,-40 -30,0 -57,10 -80,31l-1 0zm850 -118c40,20 70,54 92,99 21,47 32,100 32,161 0,104 -33,196 -101,273 -67,78 -140,117 -218,117 -72,0 -128,-27 -169,-81 -41,-54 -61,-135 -61,-241 0,-125 22,-251 67,-379 45,-128 100,-223 165,-287 65,-65 133,-97 204,-97 47,0 84,15 112,44 28,29 42,69 42,119 0,36 -16,80 -46,130 -31,50 -70,97 -119,142zm-246 63c126,-102 202,-175 229,-218 27,-43 40,-77 40,-102 0,-34 -10,-51 -31,-51 -38,0 -80,34 -124,101 -45,68 -82,158 -114,270zm218 209c0,-47 -7,-86 -20,-119 -14,-32 -34,-51 -60,-55 -1,0 -9,6 -23,16l-143 107c-4,34 -7,69 -7,105 0,130 32,195 96,195 45,0 83,-26 112,-76 30,-51 45,-107 45,-168l0 -5zm658 142c-105,138 -206,208 -303,208 -36,0 -68,-14 -93,-43 -27,-29 -40,-65 -40,-109 0,-107 48,-220 143,-341 94,-120 190,-181 287,-181 49,0 81,25 96,75 47,0 70,17 70,53 0,17 -5,47 -13,91 -17,83 -25,150 -25,199 0,52 4,88 11,109 7,21 12,34 15,41 4,6 13,13 29,20 16,8 24,19 24,32 0,21 -10,38 -31,51 -20,14 -42,21 -64,21 -38,0 -66,-19 -82,-57 -17,-38 -25,-82 -25,-133l0 -18c0,-6 0,-12 1,-18zm-33 -336c-40,0 -93,45 -158,134 -65,90 -98,167 -98,229 0,33 7,50 21,50 47,0 106,-42 175,-126 70,-85 104,-158 104,-222 0,-20 -4,-36 -13,-48 -9,-12 -19,-17 -31,-17z"/>
 </g>
</svg>
