<?xml version="1.0" standalone="no"?>
<!DOCTYPE svg PUBLIC "-//W3C//DTD SVG 20010904//EN"
 "http://www.w3.org/TR/2001/REC-SVG-20010904/DTD/svg10.dtd">
<svg version="1.0" xmlns="http://www.w3.org/2000/svg"
 width="520.000000pt" height="520.000000pt" viewBox="0 0 520.000000 520.000000"
 preserveAspectRatio="xMidYMid meet">
<metadata>
Created by potrace 1.11, written by Peter Selinger 2001-2013
</metadata>
<g transform="translate(0.000000,520.000000) scale(0.100000,-0.100000)"
fill="#000000" stroke="none">
<path d="M916 4828 l-266 -373 114 -3 114 -3 5 -1362 c3 -942 8 -1396 16
-1472 39 -370 117 -653 232 -849 206 -349 570 -615 971 -711 168 -40 254 -47
428 -34 85 6 179 8 210 5 41 -5 51 -3 40 5 -11 8 -6 9 22 4 45 -7 233 33 357
77 401 140 721 433 901 822 182 394 224 843 115 1219 -118 406 -439 798 -803
981 -312 157 -657 205 -1317 185 -159 -4 -332 -11 -382 -15 l-93 -6 0 -324 c0
-178 2 -324 4 -324 3 0 65 9 138 20 422 61 794 81 983 51 210 -33 401 -108
536 -210 139 -106 275 -278 340 -432 59 -138 81 -248 81 -399 0 -113 -4 -151
-25 -233 -77 -293 -305 -596 -568 -755 -196 -118 -424 -159 -649 -116 -293 55
-613 261 -769 494 -159 238 -191 489 -191 1490 1 510 17 1880 23 1886 2 2 57
0 123 -4 65 -5 121 -7 123 -6 3 2 -517 732 -539 757 -4 5 -127 -160 -274 -365z"/>
<path d="M2663 13 c9 -2 23 -2 30 0 6 3 -1 5 -18 5 -16 0 -22 -2 -12 -5z"/>
</g>
</svg>
