<?xml version="1.0" encoding="UTF-8"?>
<!DOCTYPE svg PUBLIC "-//W3C//DTD SVG 1.1//EN" "http://www.w3.org/Graphics/SVG/1.1/DTD/svg11.dtd">
<!-- Creator: CorelDRAW X8 -->
<svg xmlns="http://www.w3.org/2000/svg" xml:space="preserve" width="5.87876cm" height="4.0874cm" version="1.1" style="shape-rendering:geometricPrecision; text-rendering:geometricPrecision; image-rendering:optimizeQuality; fill-rule:evenodd; clip-rule:evenodd"
viewBox="0 0 184 128"
 xmlns:xlink="http://www.w3.org/1999/xlink">
 <defs>
  <style type="text/css">
   <![CDATA[
    .fil1 {fill:red;fill-rule:nonzero}
    .fil0 {fill:white;fill-rule:nonzero}
   ]]>
  </style>
 </defs>
 <g id="Layer_x0020_1">
  <metadata id="CorelCorpID_0Corel-Layer"/>
  <g id="_2801280406624">
   <path class="fil0" d="M128 52l0 0c0,0 0,0 0,0 2,-3 5,-6 7,-8 1,-1 0,-1 0,-1 -3,3 -5,6 -7,9 0,0 -1,0 0,0zm-63 11c-7,0 -15,0 -23,0 2,-3 4,-5 6,-8 1,-1 1,-1 2,-1 1,-1 1,-1 0,-2 -2,-2 -5,-5 -8,-8 -1,-1 -2,-1 -2,0 -1,4 -4,6 -6,9 -1,2 -2,4 -1,6 0,1 0,2 0,3 0,1 0,1 0,1 -5,0 -10,0 -15,0 1,-1 2,-2 3,-3 5,-6 10,-12 16,-18 1,0 2,-1 3,-2 1,-1 2,-1 3,0 1,0 2,1 3,2 4,4 9,7 12,11 2,1 2,1 3,0 7,-10 14,-19 21,-27 2,-3 3,-5 5,-6 3,-3 5,-3 8,-1 1,2 2,4 4,5 2,3 4,6 7,8 5,6 10,12 16,18 1,1 1,1 1,0 3,-4 6,-7 9,-10 1,-1 1,-2 2,-2 2,-1 3,-1 4,0 2,2 5,3 7,5 7,6 15,13 22,19 0,0 0,0 1,1 -28,0 -55,0 -83,0 0,-1 1,-1 1,-2 1,-1 2,-3 3,-5 1,-4 3,-7 5,-10 2,-3 4,-6 7,-9 1,-1 1,-2 0,-3 -2,-3 -4,-5 -6,-8 0,0 -1,-1 -1,-1 -1,-2 -3,-1 -4,0 -2,1 -3,3 -4,4 -5,8 -11,15 -16,23 -2,1 -3,3 -4,5 -1,1 -2,3 -1,6z"/>
   <path class="fil0" d="M94 119c3,3 5,6 8,9 -1,0 -2,0 -3,0 -2,0 -4,0 -6,0 -1,0 -1,-1 -2,-1 -2,-3 -4,-5 -5,-8 -2,-3 -1,-6 3,-6 0,0 1,0 2,0 1,0 2,0 2,-1 0,-1 0,-2 0,-3 0,-1 -1,-2 -2,-2 -2,0 -4,0 -6,0 -1,0 -2,1 -2,2 0,2 0,5 0,7 0,4 0,7 0,11 0,0 0,1 -1,1 0,0 0,0 0,0 -2,0 -4,0 -6,0 -1,0 -1,-1 -1,-1 0,-7 0,-13 0,-20 0,-1 0,-2 0,-3 0,-2 1,-3 3,-3 6,0 12,0 18,0 2,0 5,2 5,5 1,3 1,6 0,10 -1,2 -3,3 -5,3 -1,0 -1,0 -2,0z"/>
   <path class="fil0" d="M133 128c-4,0 -7,0 -10,0 0,0 -1,-1 -1,-1 -2,-3 -4,-5 -6,-8 0,-1 -1,-2 0,-4 1,-1 2,-2 3,-2 1,0 2,0 2,0 1,0 1,0 1,0 2,0 2,-2 2,-4 -1,-1 -1,-2 -3,-2 -2,0 -3,0 -5,0 -1,0 -2,1 -2,2 0,0 0,0 0,1 0,6 0,11 0,17 0,0 0,1 -1,1 -2,0 -5,0 -7,0 -1,0 -1,-1 -1,-1 0,-7 0,-15 0,-22 0,-3 2,-4 5,-4 5,0 10,0 15,0 4,0 7,2 7,6 0,3 0,5 0,8 -1,3 -3,4 -6,4 0,0 -1,0 -1,0 0,1 1,1 1,1 2,3 4,5 7,8z"/>
   <path class="fil0" d="M61 128c-3,0 -6,0 -10,0 -2,0 -3,-2 -3,-4 0,-7 0,-13 0,-19 0,-3 1,-4 4,-4 6,0 12,0 18,0 1,0 1,0 1,1 0,1 0,3 0,4 0,1 0,1 -1,1 -3,0 -7,0 -10,0 0,0 -1,0 -1,0 -2,0 -3,1 -3,3 0,1 1,1 1,1 4,0 9,0 13,0 1,0 1,0 1,1 0,1 0,2 0,4 0,0 0,1 -1,1 -4,0 -8,0 -13,0 0,0 -1,0 -1,0 0,1 0,2 0,3 0,1 1,1 2,1 4,0 8,0 12,0 2,0 2,0 2,2 0,1 0,2 0,4 0,0 -1,1 -1,1 -3,0 -7,0 -10,0 0,0 0,0 0,0z"/>
   <path class="fil0" d="M149 116c1,0 2,0 2,0 1,0 1,0 1,-1 -1,-2 -2,-4 -3,-6 0,0 0,-1 0,-1 0,0 0,1 0,1 -1,2 -2,4 -3,6 0,1 0,1 1,1 0,0 1,0 2,0zm-16 12c1,-2 1,-4 2,-5 3,-7 5,-13 8,-19 1,-3 2,-4 5,-4 1,0 2,0 4,1 1,0 2,1 3,3 3,6 6,13 9,20 0,1 1,2 1,4 -3,0 -6,0 -8,0 -1,0 -1,-1 -1,-1 -1,-2 -1,-3 -2,-4 0,-1 0,-1 -1,-1 -3,0 -5,0 -8,0 -1,0 -1,0 -1,1 -1,1 -1,2 -2,4 0,0 0,1 -1,1 -3,0 -5,0 -8,0z"/>
   <path class="fil1" d="M11 77c-2,0 -4,0 -6,0 0,0 -1,0 -1,1 0,1 0,2 0,3 0,1 1,1 1,1 4,0 8,0 11,0 2,0 3,-1 3,-3 0,-1 -1,-2 -3,-2 -2,0 -3,0 -5,0zm0 9c-2,0 -4,0 -6,0 0,0 -1,1 -1,1 0,1 0,2 0,4 0,0 1,1 1,1 1,0 2,0 3,0 3,0 6,0 8,0 2,0 3,-1 3,-3 0,-2 -1,-3 -3,-3 -2,0 -3,0 -5,0zm-11 -2c0,-3 0,-7 0,-10 0,-1 0,-1 1,-1 5,0 10,0 16,0 4,0 6,2 6,6 0,2 0,3 -1,5 0,0 0,1 0,1 2,3 1,5 0,8 0,2 -2,2 -3,3 -1,0 -2,0 -3,0 -5,0 -10,0 -15,0 -1,0 -1,0 -1,-1 0,-4 0,-7 0,-11z"/>
   <path class="fil0" d="M32 101c4,0 9,0 13,0 1,0 1,0 1,1 0,1 0,3 0,4 0,1 0,1 -1,1 -2,0 -5,0 -8,0 0,0 -1,0 -1,1 0,6 0,12 0,18 0,1 0,2 -1,2 -2,0 -4,0 -6,0 -1,0 -1,-1 -1,-1 0,-7 0,-13 0,-19 0,-1 0,-1 -1,-1 -3,0 -5,0 -8,0 -1,0 -1,0 -1,-1 0,-1 0,-3 0,-5 0,0 0,0 1,0 4,0 9,0 13,0z"/>
   <path class="fil1" d="M121 96c-3,0 -7,0 -10,0 -1,0 -1,0 -1,-1 0,-7 0,-14 0,-21 0,-1 0,-1 1,-1 7,0 14,0 21,0 1,0 1,0 1,1 0,1 0,1 0,2 0,1 -1,1 -1,1 -6,0 -11,0 -17,0 -1,0 -1,0 -1,1 0,1 0,2 0,3 0,1 0,1 1,1 4,0 8,0 12,0 1,0 1,0 1,1 0,1 0,2 0,3 0,0 0,0 -1,0 -4,0 -8,0 -12,0 -1,0 -1,1 -1,1 0,1 0,2 0,3 0,1 0,2 1,2 5,0 10,0 15,0 3,0 3,-1 3,2 0,2 0,2 -2,2 -3,0 -7,0 -10,0 0,0 0,0 0,0z"/>
   <path class="fil1" d="M149 77c-2,0 -4,0 -7,0 -2,0 -3,2 -2,4 0,1 1,1 3,1 3,0 6,0 9,0 4,0 6,3 6,6 1,2 0,4 -1,5 -1,2 -3,3 -5,3 -4,0 -9,0 -14,0 -1,0 -1,0 -1,-2 0,0 0,-1 0,-2 -1,0 0,0 0,0 5,0 9,0 13,0 1,0 1,0 2,-1 2,0 2,-1 2,-2 0,-2 -1,-3 -2,-3 -4,0 -7,0 -10,0 -2,0 -3,0 -5,-1 -2,-2 -2,-5 -1,-7 0,-3 2,-5 4,-5 2,0 3,0 4,0 4,0 8,0 12,0 1,0 1,0 1,1 0,1 0,1 0,2 1,1 0,1 -1,1 -2,0 -4,0 -7,0z"/>
   <path class="fil1" d="M61 96c-3,0 -5,0 -8,0 0,0 0,0 0,-1 0,-1 0,-2 0,-2 -1,-1 0,-2 1,-1 4,0 8,0 12,0 1,0 2,0 2,-1 2,0 2,-1 2,-2 0,-2 -1,-3 -2,-3 -3,0 -6,0 -9,0 -1,0 -2,0 -4,0 -1,0 -3,-2 -3,-4 -1,-2 -1,-4 0,-6 1,-2 3,-3 5,-3 5,0 10,0 16,0 0,0 0,0 0,1 0,0 0,1 0,2 0,1 0,1 -1,1 -4,0 -8,0 -12,0 -1,0 -1,0 -2,0 -1,0 -2,1 -2,3 0,1 1,2 2,2 3,0 6,0 9,0 6,0 9,4 7,10 -1,2 -3,4 -6,4 -2,0 -5,0 -7,0 0,0 0,0 0,0z"/>
   <path class="fil1" d="M174 73c3,0 5,0 8,0 1,0 1,0 1,1 0,0 0,1 0,2 0,1 -1,1 -1,1 -5,0 -10,0 -14,0 -2,0 -2,1 -3,2 0,2 1,3 3,3 3,0 7,0 10,0 2,0 4,1 5,3 0,0 1,1 1,1l0 0c0,2 0,3 0,5 -1,3 -2,4 -5,5 -2,0 -4,0 -6,0 -3,0 -7,0 -10,0 -1,0 -1,0 -1,-1 0,-1 0,-2 0,-3 0,0 0,0 1,0 5,0 9,0 14,0 2,0 3,-1 3,-3 0,-2 -1,-3 -3,-3 -3,0 -6,0 -9,0 -5,0 -7,-2 -7,-7 0,-2 1,-4 3,-5 1,-1 2,-1 3,-1 3,0 5,0 7,0z"/>
   <path class="fil1" d="M103 89c0,-5 0,-10 0,-15 0,-1 0,-1 1,-1 1,0 2,0 2,0 1,0 1,0 1,1 0,7 0,14 0,21 0,1 0,1 -1,1 0,0 0,0 0,0 -3,0 -3,0 -6,-3 -3,-4 -7,-8 -10,-12 0,0 0,0 -1,0 0,-1 0,-1 0,-1 -1,0 -1,1 -1,1 0,4 0,9 0,13 0,2 0,2 -1,2 -1,0 -1,0 -2,0 -1,0 -1,0 -1,-1 0,-5 0,-9 0,-13 0,-3 0,-5 0,-8 0,-1 0,-1 2,-1 2,0 3,0 4,2 2,2 5,5 7,7 1,2 3,4 5,6 0,0 0,0 1,1z"/>
   <path class="fil1" d="M49 82c0,3 0,5 0,8 0,3 -3,5 -6,6 -4,0 -8,0 -12,0 -3,-1 -5,-2 -5,-6 0,-5 0,-11 0,-16 0,-1 0,-1 0,-1 1,0 2,0 3,0 1,0 1,0 1,1 0,4 0,9 0,14 0,1 0,1 0,2 0,1 1,1 2,2 3,0 7,0 10,-1 2,0 2,0 2,-2 0,-5 0,-10 0,-15 0,-1 0,-1 2,-1 0,0 1,0 1,0 1,0 2,0 2,1 0,3 0,5 0,8 0,0 0,0 0,0z"/>
   <path class="fil0" d="M92 0c20,0 38,6 53,19 14,11 23,25 28,42 0,0 0,1 0,1 0,1 0,1 0,1 -1,0 -1,0 -1,0 0,-3 -1,-5 -2,-7 -5,-13 -12,-25 -23,-34 -10,-10 -23,-16 -37,-19 -7,-2 -14,-2 -21,-2 -19,1 -35,7 -49,19 -14,11 -23,25 -28,42 0,0 0,0 0,0 0,1 0,1 -1,1 0,0 0,-1 0,-1 1,-3 2,-7 4,-11 11,-24 29,-40 54,-48 6,-2 12,-3 19,-3 1,0 3,0 4,0z"/>
   <path class="fil1" d="M77 84c0,-3 0,-6 0,-10 0,-1 0,-1 1,-1 1,0 2,0 2,0 1,0 1,0 1,1 0,5 0,11 0,16 0,2 0,3 0,5 0,0 0,1 -1,1 -1,0 -1,0 -2,0 -1,0 -1,-1 -1,-1 0,-4 0,-7 0,-11z"/>
  </g>
 </g>
</svg>
