<?xml version="1.0" encoding="UTF-8"?>
<!DOCTYPE svg PUBLIC "-//W3C//DTD SVG 1.1//EN" "http://www.w3.org/Graphics/SVG/1.1/DTD/svg11.dtd">
<!-- Creator: CorelDRAW X7 -->
<svg xmlns="http://www.w3.org/2000/svg" xml:space="preserve" width="83.7407mm" height="58.2233mm" version="1.1" style="shape-rendering:geometricPrecision; text-rendering:geometricPrecision; image-rendering:optimizeQuality; fill-rule:evenodd; clip-rule:evenodd"
viewBox="0 0 8374 5823"
 xmlns:xlink="http://www.w3.org/1999/xlink">
 <defs>
  <style type="text/css">
   <![CDATA[
    .fil0 {fill:#4C425A;fill-rule:nonzero}
    .fil1 {fill:red;fill-rule:nonzero}
   ]]>
  </style>
 </defs>
 <g id="Layer_x0020_1">
  <metadata id="CorelCorpID_0Corel-Layer"/>
  <g id="_2658609032960">
   <path class="fil0" d="M5818 2384l0 0c7,5 15,-12 21,-18 114,-131 229,-245 342,-376 9,-11 -3,-19 -15,-14 -140,112 -216,260 -336,388 -3,4 -15,17 -12,20zm-2845 478c-347,0 -688,0 -1035,0 90,-115 169,-235 260,-344 26,-32 60,-53 96,-69 31,-14 38,-27 10,-55 -126,-124 -250,-251 -376,-376 -36,-36 -94,-34 -108,9 -51,155 -159,270 -261,389 -68,80 -81,171 -65,270 8,49 15,98 23,147 4,23 -3,30 -27,30 -213,-1 -425,-1 -647,-1 43,-51 81,-97 120,-142 233,-266 466,-534 717,-784 42,-42 90,-78 133,-119 47,-44 94,-43 147,-13 58,33 110,74 157,120 175,172 373,317 550,486 59,55 60,54 108,-11 312,-419 628,-835 964,-1235 77,-93 157,-183 244,-268 110,-106 216,-111 331,-9 73,65 127,148 188,224 98,124 209,236 313,353 247,275 499,547 748,821 27,30 36,24 57,-5 120,-163 245,-323 392,-463 37,-36 78,-67 121,-95 52,-33 99,-34 151,3 112,81 221,166 328,253 342,280 677,570 1012,858 7,6 13,13 25,24 -1259,0 -2513,2 -3769,2 18,-23 36,-48 54,-69 57,-68 96,-145 119,-231 48,-174 144,-322 243,-470 90,-136 187,-267 294,-391 46,-54 44,-95 4,-152 -86,-121 -173,-242 -261,-363 -14,-19 -34,-34 -50,-52 -60,-69 -145,-48 -194,0 -62,60 -109,131 -160,199 -252,339 -504,679 -756,1018 -57,76 -114,151 -167,229 -58,86 -80,180 -33,282z"/>
   <path class="fil0" d="M4303 5443c110,139 236,245 348,379 -58,0 -107,0 -155,0 -84,0 -168,-1 -252,0 -33,0 -59,-10 -78,-37 -87,-120 -178,-237 -260,-359 -81,-121 -11,-248 135,-253 43,-2 86,5 129,-7 37,-10 58,-31 68,-67 12,-43 9,-87 5,-129 -6,-47 -41,-76 -91,-77 -93,-2 -187,-2 -280,-1 -48,1 -72,29 -72,83 0,113 0,225 0,338 0,156 -1,313 1,469 0,29 -6,41 -37,41 -1,0 -2,0 -3,0 -103,-3 -206,-2 -309,-1 -35,1 -49,-9 -49,-46 2,-298 2,-596 5,-893 1,-53 2,-106 13,-159 17,-79 68,-130 148,-130 271,-2 542,-3 812,0 113,2 209,97 240,223 38,156 22,310 -21,461 -32,108 -120,165 -233,165 -18,0 -35,0 -64,0zm-2835 -850c193,0 387,1 580,-2 45,0 53,14 51,54 -3,69 -2,139 0,208 1,31 -7,40 -40,40 -119,-2 -238,0 -357,-2 -32,0 -40,9 -39,40 1,281 -1,561 1,841 1,41 -10,51 -50,50 -100,-3 -200,-3 -300,0 -36,0 -48,-7 -48,-47 2,-278 1,-557 2,-836 0,-36 -6,-49 -46,-48 -118,3 -235,0 -353,2 -28,0 -39,-5 -38,-37 2,-75 2,-151 0,-227 -1,-30 8,-37 38,-37 199,1 399,1 599,1zm5330 697c37,0 74,0 111,1 21,0 28,-3 19,-28 -37,-96 -71,-193 -106,-290 -4,-9 -1,-24 -19,-24 -15,0 -22,9 -26,22 -35,95 -70,190 -105,286 -8,21 -7,37 24,34 34,-3 68,-1 102,-1zm-732 532c32,-79 62,-152 93,-226 119,-287 240,-574 357,-862 42,-105 117,-151 226,-152 58,0 115,1 173,11 80,13 132,55 163,131 127,308 257,615 385,923 23,56 46,112 71,174 -132,0 -258,0 -384,0 -28,1 -35,-20 -42,-39 -21,-57 -41,-114 -61,-172 -11,-30 -30,-45 -65,-45 -122,2 -245,1 -367,0 -32,0 -50,12 -61,43 -21,58 -44,116 -67,174 -8,22 -19,40 -47,40 -122,-1 -244,0 -374,0zm-3282 -1c-145,0 -290,1 -435,-1 -111,-1 -173,-65 -173,-175 -1,-290 -1,-580 0,-870 1,-115 71,-182 185,-182 285,-1 570,0 855,-1 35,0 44,8 43,42 -3,68 -3,135 0,203 1,33 -8,43 -42,43 -163,-2 -326,-1 -488,-1 -13,0 -26,0 -39,0 -112,1 -148,50 -122,161 7,29 28,16 43,16 193,1 386,2 580,0 40,-1 52,10 49,50 -4,56 -4,113 0,169 3,39 -12,44 -46,44 -193,-2 -387,0 -580,-2 -32,0 -46,6 -44,41 3,33 -1,67 1,101 3,61 15,72 76,72 185,0 370,0 555,0 66,0 66,0 66,64 0,64 -2,129 0,193 1,28 -8,35 -35,34 -150,-1 -300,0 -449,0 0,-1 0,-1 0,-1zm3269 0c-152,0 -293,0 -434,-1 -24,0 -41,-14 -55,-33 -84,-117 -169,-234 -252,-352 -39,-54 -61,-113 -25,-179 36,-64 95,-82 162,-83 26,0 52,1 78,-1 20,-1 42,-4 61,-11 49,-19 67,-97 48,-201 -8,-45 -38,-67 -96,-67 -88,-1 -177,0 -265,-1 -43,-1 -67,19 -75,59 -4,22 -6,45 -6,67 -1,253 -2,506 0,759 0,37 -10,45 -45,44 -103,-2 -206,-2 -309,0 -28,0 -35,-8 -35,-35 1,-332 0,-664 1,-996 1,-130 70,-197 202,-198 233,-1 467,3 700,-1 181,-4 304,95 322,284 12,127 11,256 -26,382 -36,123 -118,185 -247,187 -14,0 -35,-10 -43,8 -7,18 15,27 25,38 102,108 204,215 314,331z"/>
   <path class="fil1" d="M493 3517c-82,0 -164,1 -246,-1 -36,0 -48,14 -47,49 2,48 1,96 0,144 0,31 16,45 44,45 169,-1 338,5 506,-5 79,-5 106,-44 104,-136 -2,-56 -48,-95 -115,-96 -82,0 -164,0 -246,0zm5 425c-84,0 -167,2 -251,0 -37,-1 -49,12 -47,48 2,46 2,93 0,140 -1,34 10,51 47,50 47,-2 93,0 140,0 118,0 235,1 353,-1 82,-2 116,-45 114,-133 -2,-65 -47,-103 -119,-103 -79,-1 -158,-1 -237,-1zm-497 -93c0,-158 1,-316 -1,-474 -1,-39 8,-50 49,-51 235,-5 470,-1 705,1 185,2 283,89 299,273 6,76 -1,151 -44,218 -15,22 -11,41 1,62 68,121 56,243 3,365 -31,71 -94,102 -166,116 -43,9 -86,12 -130,12 -224,-1 -447,-1 -671,0 -35,1 -47,-6 -46,-44 2,-159 1,-319 1,-478z"/>
   <path class="fil1" d="M5521 4371c-159,0 -319,-1 -478,0 -34,1 -44,-10 -44,-43 1,-316 0,-632 -1,-948 0,-39 11,-60 54,-59 322,2 645,3 967,4 29,0 34,11 33,37 -1,38 -3,77 1,115 2,35 -9,43 -43,43 -251,-2 -503,0 -754,-3 -49,0 -61,14 -56,59 4,37 1,74 1,111 0,63 1,64 66,64 176,0 351,1 527,-1 36,-1 52,6 48,46 -4,37 -3,74 0,111 2,30 -8,38 -38,38 -187,-2 -374,0 -561,-2 -39,0 -49,12 -46,49 3,40 2,80 1,120 -1,48 23,65 68,64 218,0 435,2 653,0 130,0 130,-2 133,125 2,70 2,70 -67,70 -154,1 -309,0 -464,0 0,0 0,0 0,0z"/>
   <path class="fil1" d="M6819 3519c-108,0 -216,-1 -324,0 -88,1 -140,78 -110,160 18,49 53,71 118,71 150,1 299,-1 449,2 175,4 274,107 280,282 2,81 -3,161 -54,229 -55,74 -132,103 -222,103 -221,1 -441,3 -661,5 -62,0 -63,-1 -64,-61 0,-32 2,-64 0,-96 -3,-31 9,-38 38,-38 188,2 377,1 565,1 38,-1 77,4 115,-6 59,-15 95,-62 88,-115 -9,-74 -46,-111 -114,-112 -148,0 -296,2 -444,-1 -79,-1 -158,-11 -217,-74 -82,-90 -93,-197 -75,-311 20,-129 92,-210 212,-229 61,-9 125,-7 188,-8 175,-1 351,0 526,0 64,0 70,7 64,70 -2,24 -6,49 0,72 13,51 -9,58 -54,57 -101,-3 -203,-1 -304,-1z"/>
   <path class="fil1" d="M2780 4370c-116,0 -232,0 -348,1 -29,1 -35,-10 -34,-36 2,-36 3,-71 0,-106 -3,-41 13,-54 53,-54 185,2 370,2 555,2 39,0 78,3 116,-7 52,-13 80,-55 76,-116 -5,-71 -38,-108 -98,-109 -137,-1 -274,-1 -410,-1 -56,0 -109,-9 -163,-21 -85,-20 -139,-75 -162,-160 -27,-95 -31,-189 8,-282 42,-99 118,-151 224,-155 238,-9 476,-4 714,-1 28,0 37,9 35,36 -2,30 0,61 0,91 -1,57 -10,66 -68,67 -186,0 -371,0 -556,0 -19,0 -39,-1 -58,0 -82,1 -122,40 -121,116 1,75 42,115 123,115 134,1 267,1 401,1 267,0 401,194 308,447 -41,112 -121,168 -252,171 -114,3 -229,1 -343,1 0,0 0,0 0,0z"/>
   <path class="fil1" d="M7954 3325c116,0 232,2 348,-1 35,0 45,11 42,44 -3,30 -4,62 0,92 7,49 -17,59 -59,59 -208,-1 -416,-1 -624,0 -74,0 -104,26 -112,96 -10,88 30,135 119,135 155,1 309,-1 464,2 93,2 171,39 222,122 13,20 20,40 20,63l0 7c0,62 1,124 0,186 -1,146 -51,203 -197,230 -93,18 -186,9 -279,11 -153,2 -306,0 -459,1 -30,0 -40,-8 -38,-38 2,-38 2,-77 -1,-116 -2,-35 11,-42 44,-42 211,1 422,0 633,0 81,0 121,-38 122,-115 1,-75 -42,-116 -122,-116 -142,0 -284,-1 -425,-1 -205,0 -320,-126 -306,-331 7,-99 29,-188 120,-244 48,-29 102,-44 159,-44 110,1 220,0 329,0z"/>
   <path class="fil1" d="M4689 4042c0,-218 0,-432 0,-646 0,-75 0,-74 76,-71 25,1 52,2 77,-1 35,-5 47,13 46,43 -9,324 -2,648 -4,971 0,26 -8,36 -33,33 -3,-1 -7,-1 -10,0 -163,1 -161,0 -266,-124 -158,-186 -320,-370 -480,-554 -5,-6 -10,-13 -16,-18 -11,-9 -20,-26 -36,-20 -18,7 -10,26 -10,39 0,204 0,409 0,614 0,62 0,62 -61,62 -29,-1 -58,-3 -87,0 -39,5 -48,-11 -48,-47 1,-195 1,-390 1,-585 0,-116 -1,-232 0,-348 0,-60 8,-68 68,-73 91,-6 162,33 219,100 95,111 189,224 284,335 75,87 151,172 226,258 13,14 28,26 54,32z"/>
   <path class="fil1" d="M2214 3749c0,119 1,238 0,358 -1,157 -94,250 -251,254 -179,4 -357,6 -536,0 -171,-7 -255,-86 -256,-257 -3,-248 -1,-496 -3,-744 0,-26 6,-37 35,-35 37,2 74,3 111,-2 38,-5 50,7 50,46 -1,212 0,425 1,638 0,32 3,64 8,96 6,43 40,72 89,72 153,2 306,3 459,0 69,-1 98,-39 99,-115 0,-223 0,-445 1,-667 0,-68 0,-68 69,-68 23,0 46,4 68,-1 50,-10 59,13 58,58 -2,122 -1,244 -1,367 0,0 0,0 -1,0z"/>
   <path class="fil0" d="M4203 0c906,11 1717,291 2420,867 615,503 1029,1140 1253,1902 7,24 14,49 19,74 3,11 16,30 -8,34 -18,3 -23,-8 -27,-25 -29,-101 -59,-202 -94,-301 -217,-604 -564,-1120 -1041,-1548 -488,-438 -1053,-728 -1692,-874 -326,-74 -657,-104 -990,-88 -835,41 -1583,321 -2230,852 -626,513 -1045,1164 -1260,1945 -1,2 -1,3 -1,5 -2,21 -9,42 -35,33 -22,-7 -4,-28 -1,-40 44,-166 97,-330 166,-488 486,-1110 1309,-1844 2467,-2199 275,-84 558,-128 846,-141 69,-3 138,-8 208,-8z"/>
   <path class="fil1" d="M3511 3849c0,-155 0,-309 0,-464 0,-58 9,-65 68,-61 25,2 52,4 77,0 45,-8 57,12 56,53 -2,249 -3,498 -3,747 -1,65 2,129 3,193 1,38 -16,56 -56,54 -30,-3 -61,-5 -91,-1 -45,6 -55,-12 -55,-53 2,-156 1,-312 1,-468z"/>
  </g>
 </g>
</svg>
