<?xml version="1.0" encoding="UTF-8"?>
<!DOCTYPE svg PUBLIC "-//W3C//DTD SVG 1.1//EN" "http://www.w3.org/Graphics/SVG/1.1/DTD/svg11.dtd">
<!-- Creator: CorelDRAW X7 -->
<svg xmlns="http://www.w3.org/2000/svg" xml:space="preserve" width="72.8834mm" height="58.8903mm" version="1.1" style="shape-rendering:geometricPrecision; text-rendering:geometricPrecision; image-rendering:optimizeQuality; fill-rule:evenodd; clip-rule:evenodd"
viewBox="0 0 7289 5889"
 xmlns:xlink="http://www.w3.org/1999/xlink">
 <defs>
  <style type="text/css">
   <![CDATA[
    .fil0 {fill:#002374}
    .fil1 {fill:red}
    .fil2 {fill:#002374;fill-rule:nonzero}
   ]]>
  </style>
 </defs>
 <g id="Layer_x0020_1">
  <metadata id="CorelCorpID_0Corel-Layer"/>
  <g id="_2658711102512">
   <path class="fil0" d="M5940 2227c-216,212 -870,196 -1525,930 -135,151 -252,376 -321,542 0,0 -140,-441 -252,-714 18,101 184,751 184,751 -331,-130 -496,-322 -1114,-340 -515,-16 -820,150 -1252,189 -161,-406 -311,-991 -447,-1411 -8,3 -90,29 -94,30 23,121 455,1515 499,1629 506,-50 1191,-387 1953,-189 210,55 394,164 558,201 226,-567 856,-956 1400,-1183 188,-78 483,-148 636,-256 -162,-561 -406,-1335 -522,-1688 -64,25 -113,32 -138,47 50,229 338,1144 435,1462z"/>
   <path class="fil0" d="M4234 1817c44,-379 -23,-700 -287,-840 -385,-203 -670,23 -844,98 328,-924 385,-906 1068,-823 345,42 381,83 453,-218 -617,-13 -1165,-170 -1398,325 -98,209 -173,422 -258,637 -149,381 -272,395 -297,499 -16,66 -10,120 69,126 289,22 136,-400 712,-504 507,-92 619,236 566,668 -67,546 -836,1280 -1462,1192 -282,-39 -275,-189 -347,-302 -63,-100 -129,-48 -142,17 -60,296 412,665 1185,340 406,-173 868,-742 982,-1215z"/>
   <path class="fil1" d="M4473 1269c21,-114 28,-215 170,-211 35,1 62,13 46,143 -11,86 -164,582 -148,610 64,13 538,-29 658,-22 81,5 104,17 114,37 28,53 -17,145 -84,161 -139,32 -675,-40 -724,-6 -40,27 -123,583 -169,784 -17,72 -68,89 -122,82 -47,-7 150,-842 126,-864 -34,-31 -631,49 -700,-4 -26,-20 -39,-76 -1,-95 127,-64 578,-31 735,-67 31,-28 55,-317 99,-548z"/>
   <path class="fil2" d="M281 4442l460 0 0 659 -123 0 0 -542 -214 0 0 542 -123 0 0 -659zm-281 -268c1215,-14 2430,-11 3644,-17 1215,6 2430,3 3645,17 -1215,14 -2430,10 -3645,16 -1214,-6 -2429,-2 -3644,-16zm1291 1358l117 0c23,0 40,1 52,3 11,2 21,6 30,12 9,6 17,14 23,25 6,10 9,21 9,34 0,14 -4,26 -12,38 -7,11 -17,20 -30,26 18,5 32,14 42,26 9,13 14,27 14,44 0,14 -3,27 -9,39 -7,13 -15,23 -26,30 -10,8 -24,13 -39,14 -10,1 -34,2 -72,2l-99 0 0 -293zm59 49l0 0 0 68 38 0c24,0 38,-1 43,-1 11,-1 19,-5 24,-11 6,-5 9,-13 9,-23 0,-9 -2,-16 -8,-22 -5,-5 -12,-9 -22,-10 -6,-1 -22,-1 -50,-1l-34 0zm0 117l0 0 0 78 54 0c22,0 35,-1 41,-2 9,-2 16,-5 21,-12 6,-6 9,-14 9,-24 0,-9 -2,-17 -7,-23 -4,-6 -10,-10 -18,-13 -8,-3 -26,-4 -53,-4l-47 0zm479 127l-64 0 -25 -66 -117 0 -25 66 -62 0 114 -293 62 0 117 293zm-108 -116l0 0 -41 -108 -39 108 80 0zm141 -177l59 0 0 244 85 0 0 -244 59 0 0 244 87 0 0 -244 59 0 0 294 -349 -1 0 -293zm494 0l66 0 68 152 59 -152 61 0 -98 223c-11,24 -22,42 -33,55 -12,13 -26,19 -44,19 -17,0 -31,-1 -41,-3l0 -44c9,0 16,0 23,0 14,0 24,-2 29,-7 6,-5 12,-16 18,-33l-108 -210zm279 0l59 0 0 70c0,23 1,38 3,45 2,8 7,14 15,20 8,5 20,8 36,8 13,0 24,-2 34,-4 10,-3 18,-7 26,-12l0 -127 59 0 0 293 -59 0 0 -118c-12,6 -24,10 -36,12 -11,3 -23,4 -34,4 -29,0 -54,-6 -73,-20 -20,-14 -30,-38 -30,-72l0 -99zm293 293l0 -293 217 0 0 50 -158 0 0 65 147 0 0 49 -147 0 0 80 163 0 0 49 -222 0zm274 -293l219 0 0 49 -160 0 0 68 79 0c22,0 40,3 54,8 15,6 27,16 37,30 10,14 15,31 15,51 0,19 -5,36 -15,51 -10,14 -22,23 -35,29 -13,5 -32,7 -56,7l-138 0 0 -293zm59 244l0 0 57 0c19,0 32,-1 39,-3 8,-1 14,-6 20,-12 5,-6 8,-14 8,-23 0,-14 -5,-24 -15,-30 -9,-6 -26,-10 -49,-10l-60 0 0 78zm234 49l0 -293 59 0 0 116 116 0 0 -116 59 0 0 293 -59 0 0 -128 -116 0 0 128 -59 0zm297 -293l59 0 0 117 79 0c21,0 38,3 54,9 14,5 27,16 37,30 10,15 15,32 15,50 0,20 -5,37 -16,52 -10,14 -22,24 -34,28 -13,5 -32,7 -56,7l-138 0 0 -293zm59 244l0 0 58 0c18,0 31,-1 38,-3 7,-1 14,-6 19,-12 6,-6 9,-14 9,-23 0,-13 -5,-23 -14,-30 -9,-6 -26,-10 -50,-10l-60 0 0 78zm219 -244l0 0 59 0 0 293 -59 0 0 -293zm121 0l56 0 0 195 118 -195 59 0 0 293 -55 0 0 -191 -118 191 -60 0 0 -293zm152 -73l0 0 28 0c-2,18 -8,33 -20,43 -11,10 -25,15 -43,15 -17,0 -32,-5 -43,-15 -11,-10 -18,-25 -19,-43l27 0c1,10 5,17 10,22 6,5 14,7 25,7 11,0 20,-2 25,-7 6,-5 9,-12 10,-22zm256 73l59 0 0 244 115 0 0 -244 59 0 0 244 25 0 0 113 -49 0 0 -64 -209 0 0 -293zm298 293l0 -293 217 0 0 50 -158 0 0 65 147 0 0 49 -147 0 0 80 164 0 0 49 -223 0zm273 0l0 -293 59 0 0 116 116 0 0 -116 59 0 0 293 -59 0 0 -128 -116 0 0 128 -59 0zm361 0l0 -243 -86 0 0 -50 232 0 0 50 -86 0 0 243 -60 0zm-4577 -924c-25,-8 -46,-25 -63,-49 -16,-24 -24,-51 -24,-81 0,-36 10,-68 30,-95 20,-27 44,-44 71,-52 28,-7 71,-10 130,-10l120 0 0 487 -119 0 0 -176 -23 0 -113 176 -140 0 131 -200zm342 -287l440 0 0 116 -157 0 0 371 -119 0 0 -371 -164 0 0 -116zm637 175l35 0c50,0 88,4 114,12 27,8 49,25 68,50 18,25 27,56 27,95 0,37 -8,68 -25,93 -16,25 -37,42 -63,50 -26,8 -62,12 -108,12l-167 0 0 -487 119 0 0 175zm1048 -77l-99 56c-19,-20 -37,-34 -55,-41 -18,-8 -40,-12 -64,-12 -44,0 -80,14 -108,41 -27,27 -41,62 -41,105 0,41 13,75 40,102 26,26 61,39 104,39 53,0 94,-19 124,-56l93 66c-50,68 -122,102 -214,102 -84,0 -149,-25 -196,-76 -47,-51 -71,-110 -71,-179 0,-47 12,-90 35,-130 23,-40 55,-71 96,-94 41,-23 87,-34 137,-34 47,0 89,10 127,29 37,19 68,47 92,82zm474 389l-119 0 0 -487 415 0 0 487 -118 0 0 -369 -178 0 0 369zm839 0l-121 0 -118 -307 -121 307 -120 0 202 -487 76 0 202 487zm181 0l-119 0 0 -487 119 0 0 193 63 0c14,-65 45,-115 91,-151 46,-37 96,-55 150,-55 69,0 128,25 177,74 49,50 74,110 74,182 0,70 -24,131 -72,181 -47,51 -107,76 -179,76 -57,0 -108,-19 -154,-56 -46,-37 -75,-83 -87,-139l-63 0 0 182zm1115 -389l-99 56c-19,-20 -37,-34 -55,-41 -18,-8 -39,-12 -64,-12 -44,0 -80,14 -108,41 -27,27 -41,62 -41,105 0,41 13,75 40,102 26,26 61,39 104,39 53,0 94,-19 124,-56l94 66c-51,68 -123,102 -215,102 -83,0 -149,-25 -196,-76 -47,-51 -70,-110 -70,-179 0,-47 11,-90 34,-130 23,-40 55,-71 96,-94 41,-23 87,-34 138,-34 46,0 89,10 126,29 37,19 68,47 92,82zm329 -111c45,0 87,12 126,35 39,23 70,54 92,93 22,40 33,82 33,128 0,46 -11,89 -33,129 -23,40 -53,72 -91,94 -38,23 -80,34 -127,34 -67,0 -125,-25 -173,-75 -48,-49 -72,-110 -72,-181 0,-76 27,-140 81,-190 48,-45 102,-67 164,-67zm637 320l145 -307 79 0 118 487 -116 0 -63 -286 -141 286 -49 0 -138 -286 -63 286 -116 0 119 -487 78 0 147 307zm-841 904l0 -293 95 0c36,0 60,2 71,5 16,4 31,14 42,28 11,15 17,34 17,57 0,18 -3,34 -10,46 -7,12 -15,22 -25,29 -10,7 -20,11 -31,13 -14,3 -34,5 -61,5l-38 0 0 110 -60 0zm60 -243l0 0 0 83 32 0c23,0 39,-2 47,-5 8,-3 14,-7 18,-14 5,-7 7,-14 7,-23 0,-10 -3,-19 -9,-26 -7,-7 -15,-12 -24,-13 -7,-1 -22,-2 -43,-2l-28 0zm146 -866l0 0c-37,0 -68,14 -92,40 -25,26 -37,60 -37,102 0,42 12,76 36,103 25,26 55,39 93,39 37,0 68,-13 92,-40 25,-26 37,-61 37,-102 0,-42 -12,-76 -36,-102 -24,-27 -55,-40 -93,-40zm-1011 142l0 0c0,-42 -12,-76 -36,-102 -25,-27 -56,-40 -94,-40 -37,0 -68,14 -92,41 -24,27 -36,60 -36,100 0,43 12,77 36,103 24,27 55,40 92,40 37,0 68,-13 93,-40 25,-26 37,-60 37,-102zm-2977 149l0 0 36 0c21,0 37,-1 47,-4 9,-4 18,-10 25,-19 7,-9 11,-19 11,-32 0,-42 -23,-63 -70,-63l-49 0 0 118zm-834 -174l0 0 0 -117 -41 0c-45,0 -68,19 -68,58 0,39 25,59 76,59l33 0z"/>
  </g>
 </g>
</svg>
