<?xml version="1.0" encoding="UTF-8"?>
<!DOCTYPE svg PUBLIC "-//W3C//DTD SVG 1.1//EN" "http://www.w3.org/Graphics/SVG/1.1/DTD/svg11.dtd">
<!-- Creator: CorelDRAW X7 -->
<svg xmlns="http://www.w3.org/2000/svg" xml:space="preserve" width="132.37mm" height="39.8394mm" version="1.1" style="shape-rendering:geometricPrecision; text-rendering:geometricPrecision; image-rendering:optimizeQuality; fill-rule:evenodd; clip-rule:evenodd"
viewBox="0 0 13237 3984"
 xmlns:xlink="http://www.w3.org/1999/xlink">
 <defs>
  <style type="text/css">
   <![CDATA[
    .fil1 {fill:#E6E6E6}
    .fil5 {fill:#FEFEFE;fill-rule:nonzero}
    .fil4 {fill:#5677B9;fill-rule:nonzero}
    .fil2 {fill:#2957A4;fill-rule:nonzero}
    .fil0 {fill:#E6E6E6;fill-rule:nonzero}
    .fil3 {fill:white;fill-rule:nonzero}
   ]]>
  </style>
 </defs>
 <g id="Layer_x0020_1">
  <metadata id="CorelCorpID_0Corel-Layer"/>
  <g id="_2451680442496">
   <g>
    <path class="fil0" d="M9847 3482l0 420 -70 0 0 -420 -153 0 0 -64 375 0 0 64 -152 0zm310 241l165 0 -82 -238 -83 238zm227 179l-44 -125 -201 0 -41 125 -71 0 177 -484 74 0 178 484 -72 0zm120 -114l60 -20c7,26 19,46 36,60 17,14 38,21 62,21 24,0 43,-8 58,-22 14,-14 21,-33 21,-58 0,-19 -6,-35 -18,-47 -11,-13 -37,-27 -77,-44 -46,-18 -78,-39 -97,-60 -19,-22 -28,-48 -28,-80 0,-38 12,-69 37,-94 25,-24 58,-36 97,-36 27,0 52,6 74,18 22,12 42,31 60,55l-46 46c-14,-19 -29,-34 -43,-43 -14,-10 -29,-14 -45,-14 -19,0 -35,5 -47,16 -13,12 -19,26 -19,44 0,15 4,27 12,38 8,10 21,20 38,29 16,8 34,16 56,25 21,9 34,14 38,17 29,19 49,38 60,57 11,19 16,43 16,72 0,43 -13,77 -40,104 -27,26 -62,40 -105,40 -41,0 -76,-11 -104,-33 -29,-22 -47,-52 -56,-91zm424 114l0 -484 70 0 0 201 231 0 0 -201 69 0 0 484 -69 0 0 -220 -231 0 0 220 -70 0zm520 0l0 -484 70 0 0 230 205 -230 86 0 -215 231 252 253 -94 0 -234 -241 0 241 -70 0zm463 0l0 -484 358 0 0 63 -289 0 0 138 272 0 0 61 -272 0 0 158 289 0 0 64 -358 0zm778 0l-189 -323c-4,-7 -9,-16 -14,-27 -5,-11 -10,-25 -17,-43 2,12 3,25 4,38 1,15 1,36 1,65l0 290 -67 0 0 -484 71 0 181 309c7,11 13,24 20,38 6,13 13,28 20,45 -3,-18 -4,-35 -5,-53 -2,-17 -2,-34 -2,-51l0 -288 67 0 0 484 -70 0zm395 -420l0 420 -69 0 0 -420 -153 0 0 -64 375 0 0 64 -153 0z"/>
    <polygon class="fil0" points="7213,3419 7144,3419 7144,3629 6874,3629 6874,3419 6805,3419 6805,3901 6874,3901 6874,3691 7144,3691 7144,3901 7213,3901 "/>
    <path class="fil1" d="M7440 3660c1,-54 19,-98 53,-132 35,-34 79,-51 134,-52 55,1 100,18 135,52 34,34 52,78 53,132 -1,53 -19,97 -53,131 -35,34 -80,51 -135,52 -55,-1 -99,-18 -134,-52 -34,-34 -52,-78 -53,-131l0 0zm-71 0c0,44 11,85 31,122 21,37 51,67 89,90 39,23 84,34 137,35 54,-1 101,-12 140,-35 39,-23 69,-53 89,-90 21,-38 31,-78 32,-122 -1,-46 -11,-87 -32,-124 -21,-37 -51,-67 -90,-89 -39,-23 -84,-34 -138,-34 -52,0 -98,12 -136,34 -39,22 -69,52 -90,89 -21,37 -32,79 -32,124l0 0z"/>
    <polygon class="fil0" points="8358,3419 7956,3419 7956,3481 8122,3481 8122,3901 8191,3901 8191,3481 8358,3481 "/>
    <polygon class="fil0" points="8767,3419 8493,3419 8493,3901 8773,3901 8773,3839 8563,3839 8563,3689 8760,3689 8760,3627 8563,3627 8563,3481 8767,3481 "/>
    <polygon class="fil0" points="8985,3419 8916,3419 8916,3901 9203,3901 9203,3839 8985,3839 "/>
    <path class="fil0" d="M9322 3984c28,-9 48,-22 62,-42 14,-19 20,-39 20,-60 0,-21 -5,-37 -13,-50 -9,-12 -21,-18 -37,-18 -12,0 -22,4 -30,11 -7,8 -11,17 -12,29 1,12 4,21 10,28 6,7 15,11 25,12 3,13 3,27 -1,42 -5,15 -13,26 -24,35l0 13z"/>
   </g>
   <path class="fil2" d="M1489 3407c17,-21 34,-53 122,-75 0,0 3009,-1022 7013,-818 0,0 227,-8 165,91 -36,59 -103,62 -232,69 0,0 -43,7 -214,5 0,0 410,159 -1206,126 0,0 142,145 -452,103 0,0 -1657,-75 -5007,532 0,0 -263,57 -189,-33l0 0z"/>
   <path class="fil3" d="M10351 2039c0,0 468,386 -113,366 0,0 -113,9 -182,-224 0,0 -200,-456 -185,-629 -20,22 -131,156 -194,303 -37,85 -52,115 -104,196 -29,41 -56,78 -82,102 -257,238 -282,-66 -282,-66 -53,-259 80,-675 80,-675 97,-287 239,-169 239,-169 197,51 117,241 117,241 -42,145 -80,113 -80,113 -48,33 -62,102 -65,146 0,0 -18,160 54,37 54,-110 158,-293 234,-351 0,0 112,-119 178,-21 0,0 283,568 385,631l0 0zm-8013 1224c120,167 212,285 186,307 -81,72 -448,-216 -448,-216 -639,-529 -922,-1205 -984,-1369 -9,-24 9,-45 9,-45 22,-24 57,-38 150,-48 -1,0 0,0 0,0 -49,-24 -64,-30 -60,-46 9,-26 99,-26 99,-26 70,-3 122,-7 122,-7 103,-11 156,-21 156,-21 220,-35 307,-131 307,-131 218,-221 -132,-442 -132,-442 -888,-511 -1603,-269 -1603,-269 -39,11 -69,12 -112,-2 -20,-7 -28,-19 -28,-33 0,-50 101,-130 101,-130 440,-365 671,-256 671,-256 856,57 1233,504 1233,504 298,316 220,567 180,640 -146,267 -491,274 -491,274 -54,3 -101,4 -143,5 40,45 69,124 69,124 66,208 718,1187 718,1187l0 0zm-1150 -2143c48,88 -16,227 -16,227 -277,567 -624,1906 -693,2179l2 0c0,0 -2,4 -5,12 -6,24 -9,37 -9,37 -5,21 -10,39 -15,56 -7,42 -13,94 -12,155l-1 -1c3,73 -1,147 -22,157 -63,29 -95,-55 -112,-146 -61,-14 -111,-93 -111,-93 -225,-150 -57,-569 -57,-569 153,-606 909,-1884 909,-1884 89,-143 126,-160 142,-130l0 0zm1744 1187c-19,30 -37,64 -86,95 0,0 -250,153 -241,-63 0,0 8,-120 50,-231 0,0 115,-293 293,-463 17,-17 31,-18 40,-6 25,34 29,73 48,105 5,8 11,17 16,25 -21,110 -76,318 -85,475 -7,22 -22,42 -35,63l0 0zm659 -135c0,0 -1,-8 -8,-13 -16,-12 -97,25 -177,73 -13,8 -25,15 -36,21 -29,18 -58,36 -69,46 0,0 -52,41 -46,-51 0,-2 0,-3 0,-4l0 0c1,-21 5,-47 6,-75 0,0 71,-283 102,-363 0,0 17,-74 43,-160 0,0 121,-125 -101,-166 0,0 -106,-261 -220,150 0,0 0,0 0,0 -8,-42 -47,-107 -107,-133 -12,-7 -29,-12 -52,-14 -9,-1 -15,1 -35,-1 0,0 -106,-37 -220,106 -121,133 -475,557 -394,912 0,0 44,184 207,183 0,0 216,2 379,-152 0,0 49,-44 102,-108 2,22 5,46 11,70 1,4 2,9 4,13 0,0 6,42 39,73 25,23 65,40 129,32 6,-2 13,-3 20,-6 0,0 228,-55 223,-152 -3,-48 14,-58 14,-58 0,0 15,-8 10,-24 0,0 182,-122 176,-199l0 0zm3952 -740c102,71 272,229 244,393 0,0 -49,371 -662,358 0,0 -67,-4 -68,-45 0,-31 13,-55 65,-75 0,0 399,-129 138,-608 0,0 -99,76 -237,184 0,0 -97,106 -90,-45 0,0 9,-84 45,-116 0,0 222,-131 296,-336 37,-136 235,-250 254,-136 9,51 -50,83 -79,120 -67,83 19,258 94,306l0 0zm889 -278c107,-141 182,-77 182,-77 10,5 31,-1 40,-2 142,-11 25,129 25,129 -119,162 -228,466 -228,466 -27,69 -53,180 -53,180 -44,184 151,54 151,54 28,-20 53,-48 66,-60 22,-21 42,-24 42,-24 40,-5 -29,-217 -29,-217 -29,-83 -24,-87 -24,-87 -19,-103 38,-129 38,-129 61,-37 110,60 110,60 54,83 102,301 102,301 47,193 -98,178 -98,178 -60,11 -163,113 -163,113 -159,132 -382,145 -382,145 -221,8 -203,-187 -203,-187 -2,-210 424,-843 424,-843l0 0zm-2546 -497c-6,58 -37,106 -79,131 -60,46 -184,123 -224,112 -40,-10 5,-138 8,-174 2,-40 2,-70 10,-107 13,-88 83,-151 160,-143 79,9 135,90 125,181l0 0zm535 569c0,0 361,384 346,651 0,0 -49,370 -662,357 0,0 -152,-22 -3,-120 0,0 399,-128 138,-608 0,0 -247,290 -411,451l2 1c-468,456 -560,288 -560,288 -177,-254 -47,-811 -47,-811 69,-295 221,-191 221,-191 223,36 140,229 140,229 -28,148 -65,132 -65,132 -68,55 -83,299 -83,299 28,135 -92,322 254,22 82,-83 496,-549 562,-733 0,0 69,-179 168,33l0 0zm-2307 925c0,0 -46,-31 -43,-169 0,0 13,-239 175,-430 0,0 45,-57 82,-64 12,-3 32,15 42,88 2,18 -50,22 -31,79 0,0 87,219 269,120 -8,45 -16,90 -25,136 -95,131 -294,359 -469,240l0 0zm774 -2050c0,0 -199,-251 -166,39 0,0 27,604 -72,1356 -12,-29 -27,-59 -48,-88 0,0 -174,-232 -369,-168 0,0 -248,78 -392,454 0,0 -102,259 -73,454 0,0 -9,513 615,151 0,0 66,-41 143,-119 -15,64 -39,106 -42,172 0,0 -22,135 40,169 24,13 49,-5 104,-136 0,0 444,-1139 468,-1609 0,0 156,-234 -208,-675l0 0z"/>
   <path class="fil2" d="M9061 2538c123,8 260,9 451,28 99,9 252,9 274,74 19,59 -55,119 -188,145 -68,13 -110,24 -171,22 -72,-2 -227,3 -231,-80 -3,-52 -104,-51 -171,-54 -135,-5 -121,-43 -92,-89 18,-28 55,-47 128,-46l0 0z"/>
   <path class="fil2" d="M13197 500c0,-39 -32,-70 -71,-70l-2219 0c-39,0 -71,32 -71,71l0 2220c0,38 32,70 71,70l2220 0c39,0 71,-32 71,-71l-1 -2220z"/>
   <path class="fil4" d="M12880 1936c-36,-83 -46,-191 -52,-278 -83,185 -208,471 -350,449 -84,-13 -90,-160 -70,-301 -56,120 -109,245 -174,320 0,0 -5,6 -15,18 -16,19 -55,63 -91,72 -3,0 -7,1 -11,2 -11,1 -22,0 -34,-2 -29,-9 -55,-38 -78,-91 -5,-10 -8,-20 -11,-30 -3,-14 -5,-28 -7,-41 -25,40 -53,78 -85,109 -103,100 -214,162 -345,200 -118,33 -264,61 -381,4 -118,-59 -139,-197 -86,-313 19,-44 31,-18 23,32 -3,18 -6,36 -6,54 -10,300 455,157 583,84 95,-55 133,-96 180,-144 63,-63 108,-173 119,-267 26,-225 -254,-223 -386,-217 -4,0 -8,-1 -12,-2 -15,41 -31,81 -47,121 -32,78 -61,144 -92,223 -26,65 -68,150 -108,206 -24,34 -43,22 -41,-18 3,-71 41,-149 67,-212 30,-73 62,-145 92,-217 60,-142 118,-288 152,-441 10,-45 73,-38 66,10 -9,55 -21,108 -35,161 42,-58 86,-115 122,-178 37,-64 117,-235 18,-287 -82,-42 -192,26 -254,77 -70,56 -147,128 -204,220 -27,33 -44,14 -31,-13 51,-102 146,-202 232,-266 80,-60 209,-141 304,-73 108,77 67,238 15,339 -49,97 -114,180 -174,268 129,-1 285,17 358,138 8,12 14,26 20,39 32,-86 67,-158 92,-214 97,-212 147,-304 273,-486 17,-26 43,3 28,29 -176,308 -292,543 -364,832 -6,24 -11,48 -13,62 0,0 -1,2 0,2 -7,53 -11,125 13,169 5,10 10,16 16,20 0,1 0,1 0,1 31,23 70,-19 90,-46 52,-65 97,-138 136,-217 64,-129 131,-268 172,-414 13,-46 68,-36 65,16 -4,85 -27,166 -42,247 -12,57 -82,395 28,290 121,-115 200,-298 279,-462 15,-29 54,-24 59,14 15,125 17,241 57,360 18,54 -38,95 -60,42z"/>
   <path class="fil5" d="M13007 1411l0 403c0,127 -76,152 -200,152l-239 0c-124,0 -201,-25 -201,-152l0 -403 102 0 0 403c0,38 7,64 97,64l243 0c90,0 97,-26 97,-64l0 -403 101 0zm-1130 461l402 0 0 88 -503 0 0 -549 101 0 0 461zm-752 -150c29,0 344,0 344,0 67,0 84,12 84,59l0 37c0,33 -12,54 -73,54 0,0 -326,0 -355,0 0,-24 0,-126 0,-150zm408 -137c0,23 -7,48 -61,48 0,0 -318,0 -347,0 0,-23 0,-111 0,-134 29,0 350,0 350,0 10,0 58,2 58,39l0 47zm56 81c29,-17 46,-44 46,-80l0 -44c0,-49 -20,-131 -153,-131l-458 0 0 549 465 0c101,0 166,-49 166,-125l0 -62c0,-55 -22,-91 -66,-107z"/>
  </g>
 </g>
</svg>
