<?xml version="1.0" encoding="utf-8"?>
<!-- Generator: Adobe Illustrator 19.2.1, SVG Export Plug-In . SVG Version: 6.00 Build 0)  -->
<svg version="1.1" id="Слой_1" xmlns:svg="http://www.w3.org/2000/svg"
	 xmlns="http://www.w3.org/2000/svg" xmlns:xlink="http://www.w3.org/1999/xlink" x="0px" y="0px" viewBox="0 0 333 45"
	 style="enable-background:new 0 0 333 45;" xml:space="preserve">
<style type="text/css">
	.st0{fill:#20235A;}
</style>
<g transform="translate(0,-1007.3622)">
	<g transform="matrix(4.333015,0,0,-4.3454749,-1012.5558,3209.5446)">
		<path class="st0" d="M253,501.2c0-1.6-0.4-2.8-1.1-3.6c-0.7-0.8-1.9-1.2-3.4-1.2c-1.4,0-2.5,0.4-3.3,1.2c-0.7,0.8-1.1,2-1.1,3.6
			v5.6h3.1v-5.7c0-0.7,0.1-1.2,0.4-1.5c0.2-0.4,0.6-0.5,1-0.5c0.5,0,0.8,0.2,1,0.5c0.2,0.3,0.4,0.8,0.4,1.5v5.8h3.1V501.2z
			 M258,498.7h3v-2.1h-7v1.4l3.3,3.8h-3v2.1h6.6v-1.7L258,498.7z M269.4,496.6l-3.6,4.9c-0.3,0.4-0.5,0.7-0.7,1h0c0-0.5,0-1.1,0-1.7
			v-4.3h-2.8v10.2h2.9l3.4-4.7c0-0.1,0.1-0.1,0.2-0.2c0.1-0.1,0.1-0.2,0.2-0.3c0.1-0.1,0.1-0.2,0.2-0.3c0.1-0.1,0.1-0.2,0.1-0.2h0
			c0,0.2,0,0.6,0,1.1v4.6h2.8v-10.2H269.4L269.4,496.6z M276.4,499.4c0.1-0.3,0.2-0.6,0.5-0.7c0.3-0.2,0.7-0.3,1.2-0.3
			c0.7,0,1.4,0.1,2,0.4v-1.9c-0.7-0.3-1.6-0.4-2.7-0.4c-1.3,0-2.3,0.3-3,1c-0.7,0.6-1.1,1.5-1.1,2.7c0,0.8,0.2,1.5,0.5,2.1
			c0.3,0.6,0.8,1.1,1.4,1.4c0.6,0.3,1.3,0.5,2,0.5c0.8,0,1.4-0.1,1.9-0.4c0.5-0.3,0.9-0.7,1.2-1.2c0.3-0.5,0.4-1.1,0.4-1.9v-1.1
			L276.4,499.4L276.4,499.4z M278.2,501c0,0.8-0.3,1.3-0.9,1.3c-0.3,0-0.5-0.1-0.6-0.3c-0.2-0.2-0.3-0.5-0.3-0.9L278.2,501
			L278.2,501z M291.4,496.6h-3.1l-0.7,3.5c-0.1,0.4-0.1,0.8-0.1,1.1h0c-0.1-0.5-0.1-0.9-0.2-1.1l-0.8-3.6h-3.1l-1.9,7.3h3l0.6-4.2
			l0.1-0.9h0c0.1,0.6,0.1,0.9,0.1,1l0.9,4.2h2.9l0.8-4.2l0.1-0.5l0-0.5h0l0,0.2l0.6,5h2.7L291.4,496.6L291.4,496.6z M300.1,499
			c0-0.8-0.3-1.5-0.9-1.9c-0.6-0.5-1.5-0.7-2.6-0.7c-0.3,0-0.7,0-1.2,0.1c-0.5,0.1-0.9,0.1-1.2,0.2v2.1c0.9-0.4,1.6-0.6,2.2-0.6
			c0.6,0,0.9,0.2,0.9,0.5c0,0.1-0.1,0.2-0.2,0.3c-0.1,0.1-0.5,0.2-1.1,0.4c-0.6,0.2-1.1,0.5-1.4,0.8c-0.3,0.3-0.4,0.8-0.4,1.3
			c0,0.8,0.3,1.3,0.9,1.8c0.6,0.4,1.4,0.7,2.5,0.7c0.6,0,1.3-0.1,2-0.3v-2c-0.3,0.1-0.6,0.2-1,0.3c-0.4,0.1-0.7,0.1-0.9,0.1
			c-0.2,0-0.4,0-0.5-0.1c-0.1-0.1-0.2-0.2-0.2-0.3c0-0.1,0.1-0.2,0.2-0.3s0.4-0.2,0.8-0.3c0.7-0.2,1.3-0.5,1.6-0.8
			C300,500,300.1,499.5,300.1,499"/>
		<path class="st0" d="M304,500.3L304,500.3c0,0.4,0.3,0.7,0.6,0.8l0,0c0.5-0.3,0.9-0.6,1.4-0.8c-0.5-0.2-0.9-0.5-1.4-0.8l0,0
			C304.2,499.7,304,500,304,500.3L304,500.3z M240.3,500.3L240.3,500.3c0,0.4-0.3,0.7-0.6,0.8l0,0c-0.5-0.3-0.9-0.6-1.4-0.8
			c0.5-0.2,0.9-0.5,1.4-0.8l0,0C240,499.7,240.3,500,240.3,500.3L240.3,500.3z M242.5,502.7c-0.6,0.2-1.1,0.4-1.8,0.2
			c-1.1-0.4-1.3-0.7-2.3-1.4c-0.2-0.2-0.4-0.3-0.6-0.4c-0.6-0.2-0.9-0.2-1.1-0.1c-0.1,0-0.1,0.1-0.1,0.2c0,0.1,0.1,0.2,0.1,0.2
			c0.1,0,0.1,0,0.2-0.1c0.1-0.2,0.4-0.1,0.4,0.1c0,0.1,0,0.1,0,0.2c-0.3,0.3-0.5,0.4-0.7,0.3c-0.3-0.1-0.5-0.3-0.6-0.6
			c-0.1-0.3,0-0.6,0.3-0.8c0.1-0.1,0.3-0.1,0.5-0.1c-0.2,0-0.4-0.1-0.5-0.1c-0.3-0.2-0.4-0.5-0.3-0.8c0.1-0.3,0.3-0.5,0.6-0.6
			c0.3,0,0.5,0,0.7,0.3c0.1,0.1,0.1,0.2,0,0.2c-0.1,0.2-0.3,0.3-0.4,0.1c-0.1-0.2-0.2-0.1-0.2-0.1c-0.1,0-0.1,0.1-0.1,0.2
			c0,0.1,0,0.2,0.1,0.2c0.2,0.1,0.5,0.1,1.1-0.1c0.2-0.1,0.4-0.2,0.6-0.4c1-0.8,1.2-1,2.3-1.4c0.7-0.2,1.3,0,1.8,0.2
			c0.3,0.1,0.4,0.3,0.3,0.5c0,0.1-0.2,0.2-0.3,0.1c-0.5-0.3-1.1-0.4-1.7-0.3c-0.5,0.1-1,0.5-1.4,0.8c-0.1,0.1-0.2,0.1-0.3,0.2
			c-0.4,0.3-0.8,0.6-1.2,0.8c-0.4,0.1-0.7,0.2-0.9,0.2c0.2,0,0.5,0.1,0.9,0.2c0.4,0.2,0.8,0.5,1.2,0.8c0.1,0.1,0.2,0.1,0.3,0.2
			c0.4,0.3,0.9,0.7,1.4,0.8c0.6,0.2,1.2,0,1.7-0.3c0.2-0.1,0.3,0,0.3,0.1C242.9,502.3,242.7,502.6,242.5,502.7L242.5,502.7z
			 M233.7,500.3c0.9,0.5,1.1,0.5,1.5,0.5c0.4,0,0.8-0.2,0.8-0.5c0-0.3-0.3-0.5-0.8-0.5C234.8,499.8,234.6,499.8,233.7,500.3z
			 M241.1,500.3c-0.4,0.1-0.6,0.4-0.6,0.9c0,0.5,0.3,0.8,0.8,0.9l0,0l0,0l0,0l0,0l0,0h0l0,0l0,0h0h0c0.5,0,0.9-0.4,0.9-0.9
			c0,0,0.1,0,0.1,0c0.5,0,0.8-0.4,0.9-0.8l0,0v0v0l0,0l0,0v0v0v0v0l0,0v0l0,0c0-0.5-0.4-0.8-0.9-0.8c0,0-0.1,0-0.1,0
			c0-0.5-0.4-0.9-0.9-0.9h0h0h0l0,0h0l0,0h0l0,0l0,0l0,0c-0.4,0.1-0.8,0.4-0.8,0.9C240.4,499.9,240.7,500.2,241.1,500.3L241.1,500.3
			z M301.8,502.7c0.6,0.2,1.1,0.4,1.8,0.2c1.1-0.4,1.3-0.7,2.3-1.4c0.2-0.2,0.4-0.3,0.6-0.4c0.6-0.2,0.9-0.2,1.1-0.1
			c0.1,0,0.1,0.1,0.1,0.2c0,0.1-0.1,0.2-0.1,0.2c-0.1,0-0.1,0-0.2-0.1c-0.1-0.2-0.4-0.1-0.4,0.1c0,0.1,0,0.1,0,0.2
			c0.3,0.3,0.5,0.4,0.7,0.3c0.3-0.1,0.5-0.3,0.6-0.6c0.1-0.3,0-0.6-0.3-0.8c-0.1-0.1-0.3-0.1-0.5-0.1c0.2,0,0.4-0.1,0.5-0.1
			c0.3-0.2,0.4-0.5,0.3-0.8c-0.1-0.3-0.3-0.5-0.6-0.6c-0.3,0-0.5,0-0.7,0.3c-0.1,0.1-0.1,0.2,0,0.2c0.1,0.2,0.3,0.3,0.4,0.1
			c0.1-0.2,0.2-0.1,0.2-0.1c0.1,0,0.1,0.1,0.1,0.2c0,0.1,0,0.2-0.1,0.2c-0.2,0.1-0.5,0.1-1.1-0.1c-0.2-0.1-0.4-0.2-0.6-0.4
			c-1-0.8-1.2-1-2.3-1.4c-0.7-0.2-1.3,0-1.8,0.2c-0.3,0.1-0.4,0.3-0.3,0.5c0,0.1,0.2,0.2,0.3,0.1c0.5-0.3,1.1-0.4,1.7-0.3
			c0.5,0.1,1,0.5,1.4,0.8c0.1,0.1,0.2,0.1,0.3,0.2c0.4,0.3,0.8,0.6,1.2,0.8c0.4,0.1,0.7,0.2,0.9,0.2c-0.2,0-0.5,0.1-0.9,0.2
			c-0.4,0.2-0.8,0.5-1.2,0.8c-0.1,0.1-0.2,0.1-0.3,0.2c-0.4,0.3-0.9,0.7-1.4,0.8c-0.6,0.2-1.2,0-1.7-0.3c-0.2-0.1-0.3,0-0.3,0.1
			C301.4,502.3,301.5,502.6,301.8,502.7L301.8,502.7z M310.5,500.3c-0.9,0.5-1.1,0.5-1.5,0.5c-0.4,0-0.8-0.2-0.8-0.5
			c0-0.3,0.3-0.5,0.8-0.5C309.4,499.8,309.6,499.8,310.5,500.3z M303.2,500.3c0.4,0.1,0.6,0.4,0.6,0.9c0,0.5-0.3,0.8-0.8,0.9l0,0
			l0,0l0,0l0,0l0,0h0l0,0l0,0h0h0c-0.5,0-0.9-0.4-0.9-0.9c0,0-0.1,0-0.1,0c-0.5,0-0.8-0.4-0.9-0.8l0,0v0v0l0,0l0,0v0v0v0v0l0,0v0
			l0,0c0-0.5,0.4-0.8,0.9-0.8c0,0,0.1,0,0.1,0c0-0.5,0.4-0.9,0.9-0.9h0h0h0l0,0h0l0,0h0l0,0l0,0l0,0c0.4,0.1,0.8,0.4,0.8,0.9
			C303.8,499.9,303.5,500.2,303.2,500.3"/>
	</g>
</g>
</svg>
