<?xml version="1.0" encoding="UTF-8"?>
<!DOCTYPE svg PUBLIC "-//W3C//DTD SVG 1.1//EN" "http://www.w3.org/Graphics/SVG/1.1/DTD/svg11.dtd">
<!-- Creator: CorelDRAW X8 -->
<svg xmlns="http://www.w3.org/2000/svg" xml:space="preserve" width="30.0353cm" height="19.9893cm" version="1.1" style="shape-rendering:geometricPrecision; text-rendering:geometricPrecision; image-rendering:optimizeQuality; fill-rule:evenodd; clip-rule:evenodd"
viewBox="0 0 30035 19989"
 xmlns:xlink="http://www.w3.org/1999/xlink">
 <defs>
  <style type="text/css">
   <![CDATA[
    .str0 {stroke:#1C1C1A;stroke-width:35.28}
    .fil0 {fill:#25BB90;fill-rule:nonzero}
    .fil1 {fill:white;fill-rule:nonzero}
   ]]>
  </style>
 </defs>
 <g id="Layer_x0020_1">
  <metadata id="CorelCorpID_0Corel-Layer"/>
  <polygon class="fil0 str0" points="30018,19972 18,19972 18,18 30018,18 "/>
  <g id="_2236415648352">
   <path class="fil1" d="M9243 9084l1197 2353 -1105 229 -741 -1565 -440 794 37 1009 -1043 216 -154 -4151 1043 -216 71 1908c31,-166 92,-337 184,-511 92,-176 238,-466 440,-869l410 -757 1066 -222 -965 1782z"/>
   <polygon id="1" class="fil1" points="13474,9849 13507,10801 10748,11374 10594,7222 13285,6664 13318,7573 11716,7905 11740,8559 13089,8279 13121,9182 11773,9461 11800,10196 "/>
   <polygon id="2" class="fil1" points="15404,7184 15521,10390 14434,10615 14317,7410 13513,7576 13480,6624 16195,6061 16230,7013 "/>
   <polygon id="3" class="fil1" points="18256,6593 18373,9798 17286,10024 17169,6818 16366,6985 16333,6032 19047,5469 19082,6421 "/>
   <path id="4" class="fil1" d="M20616 8038l-1592 -2564 1182 -245 775 1502 501 -1767 1031 -214 -919 3127c-145,486 -260,789 -349,911 -88,120 -209,239 -359,355 -151,116 -381,207 -694,272l-548 113 -32 -902 356 -74c166,-35 303,-85 408,-151 106,-65 186,-187 240,-363z"/>
   <g>
    <path class="fil1" d="M17718 14982l575 1854 4704 -5018 -6717 -1474 589 1900c-4078,1264 -7158,1408 -9701,416 1531,2067 4700,3627 10550,2322z"/>
   </g>
  </g>
 </g>
</svg>
