<?xml version="1.0" encoding="UTF-8" standalone="no"?>
<!-- Created with Inkscape (http://www.inkscape.org/) -->

<svg
   xmlns:dc="http://purl.org/dc/elements/1.1/"
   xmlns:cc="http://creativecommons.org/ns#"
   xmlns:rdf="http://www.w3.org/1999/02/22-rdf-syntax-ns#"
   xmlns:svg="http://www.w3.org/2000/svg"
   xmlns="http://www.w3.org/2000/svg"
   xmlns:sodipodi="http://sodipodi.sourceforge.net/DTD/sodipodi-0.dtd"
   xmlns:inkscape="http://www.inkscape.org/namespaces/inkscape"
   width="210mm"
   height="297mm"
   viewBox="0 0 210 297"
   version="1.1"
   id="svg8"
   inkscape:version="0.92.4 (5da689c313, 2019-01-14)"
   sodipodi:docname="drawing.svg">
  <defs
     id="defs2">
    <clipPath
       id="clipPath26"
       clipPathUnits="userSpaceOnUse">
      <path
         inkscape:connector-curvature="0"
         id="path24"
         d="M 0,4283.991 H 5489.989 V 0 H 0 Z" />
    </clipPath>
  </defs>
  <sodipodi:namedview
     id="base"
     pagecolor="#ffffff"
     bordercolor="#666666"
     borderopacity="1.0"
     inkscape:pageopacity="0.0"
     inkscape:pageshadow="2"
     inkscape:zoom="0.49497475"
     inkscape:cx="403.17141"
     inkscape:cy="966.73923"
     inkscape:document-units="mm"
     inkscape:current-layer="g20"
     showgrid="false"
     inkscape:window-width="1920"
     inkscape:window-height="1137"
     inkscape:window-x="1912"
     inkscape:window-y="81"
     inkscape:window-maximized="1" />
  <metadata
     id="metadata5">
    <rdf:RDF>
      <cc:Work
         rdf:about="">
        <dc:format>image/svg+xml</dc:format>
        <dc:type
           rdf:resource="http://purl.org/dc/dcmitype/StillImage" />
        <dc:title></dc:title>
      </cc:Work>
    </rdf:RDF>
  </metadata>
  <g
     inkscape:label="Layer 1"
     inkscape:groupmode="layer"
     id="layer1">
    <g
       transform="matrix(0.35277777,0,0,-0.35277777,-883.73371,951.90189)"
       id="g18">
      <g
         id="g20">
        <g
           clip-path="url(#clipPath26)"
           id="g22"
           transform="matrix(0.09846629,0,0,0.09846629,2519.6973,2220.3954)">
          <g
             transform="translate(2421.1345,3208.8677)"
             id="g28">
            <path
               inkscape:connector-curvature="0"
               id="path30"
               style="fill:#8800ff;fill-opacity:1;fill-rule:nonzero;stroke:none"
               d="m 0,0 c 0,0 -445.228,553.136 -1168.131,426.233 -426.87,-74.936 -618.559,-683.332 -612.632,-713.009 2.164,-10.839 63.679,-213.866 156.269,-200.219 81.394,11.997 168.55,118.831 290.95,181.466 175.146,89.628 400.488,144.059 597.569,170.867 276.579,37.623 538.892,13.046 670.042,46.886 C -7.153,-72.61 0.125,-7.455 0,0" />
          </g>
          <g
             transform="translate(846.9642,2675.25)"
             id="g32">
            <path
               inkscape:connector-curvature="0"
               id="path34"
               style="fill:#000000;fill-opacity:1;fill-rule:nonzero;stroke:none"
               d="m 0,0 c 0,0 -210.831,173.46 -183.56,308.803 28.025,139.076 221.438,507.309 545.092,611.572 193.031,62.184 641.336,6.674 828.314,-108.901 99.484,-61.492 257.567,-153.985 285.444,-221.625 12.522,-30.385 33.909,-71.471 24.678,-94.684 -8.482,-21.332 -46.51,-25.419 -60.467,-39.209 -20.587,-20.339 -40.413,-31.701 -39.663,-31.798 10.66,-1.394 98.652,-13.824 98.652,-13.824 0,0 208.739,55.149 116.007,203.982 -88.446,141.955 -298.543,243.637 -407.964,303.822 C 933.729,1068.19 443.859,1061.292 354.68,1021.867 308.64,1001.514 203.136,962.372 110.732,897.301 -21.2,804.396 -81.448,845.342 -212.392,513.038 -242.494,436.646 -287.561,345.943 -277.414,272.775 -256.224,119.975 -126.1,12.121 -122.565,10.643 -111.979,6.214 0,0 0,0" />
          </g>
          <g
             transform="translate(641.1517,2627.8706)"
             id="g36">
            <path
               inkscape:connector-curvature="0"
               id="path38"
               style="fill:#000000;fill-opacity:1;fill-rule:nonzero;stroke:none"
               d="m 0,0 c 45.349,33.647 115.649,64.962 125.326,65.616 10.177,0.687 234.974,276.746 650.865,378.889 173.8,42.686 437.706,104.89 602.165,108.548 105.876,2.355 217.591,0.113 272.517,-14.004 64.753,-16.644 63.177,-45.828 63.177,-45.828 l -9.747,-35.508 c 0,0 -142.276,8.518 -342.796,-8.283 C 1242.874,439.49 1103.538,418.445 962.073,387.619 728.983,336.828 450.905,221.19 289.333,122.683 249.535,98.418 207.1,25.01 173.717,12.787 105.734,-12.106 9.995,-99.2 8.442,-104.827 c -4.274,-15.487 30.757,-88.631 81.184,-108.443 69.302,-27.226 161.201,0.465 161.201,0.465 0,0 112.356,-148.202 306.343,-233.228 172.288,-75.516 417.28,-94.59 579.574,-15.577 132.944,64.723 348.116,190.846 422.616,357.889 40,89.687 78.247,187.078 84.542,274.921 11.514,160.658 -36.161,291.552 -38.252,300.337 -10.889,45.75 86.466,14.432 86.466,14.432 0,0 126.906,-392.939 -45.943,-633.375 -308.61,-429.281 -653.683,-444.925 -747.453,-442.634 -81.147,1.983 -203.295,-20.774 -335.591,26.364 -157.418,56.091 -316.141,177.071 -363.86,263.904 0,0 -267.825,-113.973 -297.001,183.215 C -104.961,-42.917 -13.948,-10.349 0,0" />
          </g>
          <g
             transform="translate(1557.7357,2345.9263)"
             id="g40">
            <path
               inkscape:connector-curvature="0"
               id="path42"
               style="fill:#000000;fill-opacity:1;fill-rule:nonzero;stroke:none"
               d="m 0,0 c -18.982,10.926 -48.982,20.492 -28.661,58.45 18.997,35.483 57.703,10.193 76.182,-3.066 21.321,-15.299 178.1,-35.015 254.818,35.511 61.735,56.751 48.366,205.56 48.366,205.56 0,0 -2.417,26.482 11.238,36.919 10.468,8.001 64.347,15.598 82.659,-14.258 27.601,-45.002 18.429,-141.378 8.359,-181.438 C 439.793,85.299 395.364,38.137 368.927,13.008 264.146,-86.587 84.141,-48.427 0,0" />
          </g>
          <g
             transform="translate(690.6194,2790.0942)"
             id="g44">
            <path
               inkscape:connector-curvature="0"
               id="path46"
               style="fill:#000000;fill-opacity:1;fill-rule:nonzero;stroke:none"
               d="m 0,0 c 0,0 278.427,253.097 683.232,386.437 404.804,133.34 935.986,146.922 973.597,121.552 75.222,-50.741 28.873,-78.154 28.873,-78.154 0,0 -466.556,43.674 -818.402,-45.998 C 422.199,270.399 75.394,4.932 23.537,-42.935 4.109,-60.867 0,0 0,0" />
          </g>
          <g
             transform="translate(1226.5653,1900.6577)"
             id="g48">
            <path
               inkscape:connector-curvature="0"
               id="path50"
               style="fill:none;stroke:#000000;stroke-width:85;stroke-linecap:butt;stroke-linejoin:miter;stroke-miterlimit:4;stroke-dasharray:none;stroke-opacity:1"
               d="m 0,0 c 0,0 -58.514,122.673 -229.25,140.668 -193.787,20.425 -503.081,-66.312 -509.914,-119.597 -7.211,-56.232 138.019,-176.795 435.03,-166.206 C 45.961,-132.653 0,0 0,0 Z" />
          </g>
          <g
             transform="translate(2312.9661,2634.8867)"
             id="g52">
            <path
               inkscape:connector-curvature="0"
               id="path54"
               style="fill:none;stroke:#000000;stroke-width:85;stroke-linecap:butt;stroke-linejoin:miter;stroke-miterlimit:4;stroke-dasharray:none;stroke-opacity:1"
               d="m 0,0 c 0,0 155.983,152.028 276.73,226.339 57.289,35.257 145.031,86.411 185.938,60.754 C 503.576,261.436 497.648,158.968 479.12,112.07 444.989,25.677 350.015,-70.461 289.213,-130.189 146.715,-270.171 -47.136,-243.001 -72.621,-228.78 -120.787,-201.904 0,0 0,0 Z" />
          </g>
          <g
             transform="translate(1224.5262,2121.1812)"
             id="g56">
            <path
               inkscape:connector-curvature="0"
               id="path58"
               style="fill:none;stroke:#000000;stroke-width:85;stroke-linecap:butt;stroke-linejoin:miter;stroke-miterlimit:4;stroke-dasharray:none;stroke-opacity:1"
               d="M 0,0 C 0,0 -0.599,-170.136 23.157,-343 47.141,-517.52 95.577,-694.845 116.114,-707.982 141.165,-727.083 35.371,-567.894 0,0 Z" />
          </g>
          <g
             transform="translate(2196.1067,2424.394)"
             id="g60">
            <path
               inkscape:connector-curvature="0"
               id="path62"
               style="fill:none;stroke:#000000;stroke-width:85;stroke-linecap:butt;stroke-linejoin:miter;stroke-miterlimit:4;stroke-dasharray:none;stroke-opacity:1"
               d="M 0,0 C 0,0 147.156,-58.319 223.547,-195.792 253.865,-250.354 392.242,-773.276 383.312,-769.824 311.556,-742.083 253.701,-158.485 0,0 Z" />
          </g>
          <g
             transform="translate(3280.8347,2708.5327)"
             id="g64">
            <path
               inkscape:connector-curvature="0"
               id="path66"
               style="fill:none;stroke:#000000;stroke-width:85;stroke-linecap:butt;stroke-linejoin:miter;stroke-miterlimit:4;stroke-dasharray:none;stroke-opacity:1"
               d="m 0,0 c 0,0 -104.014,84.064 -216.727,151.876 -116.688,70.206 -242.268,124.152 -245.615,118.598 -6.579,-10.918 24.5,-212.617 148.304,-368.083 113.471,-142.491 281.49,-232.361 290.542,-225.397 11.691,8.994 -258.65,-527.177 -325.568,-730.973 -5.368,-16.348 563.185,-59.752 681.35,-100.935 121.526,-42.354 365.568,-111.815 548.225,-168.623 32.773,-10.192 93.048,120.385 126.948,243.426 39.328,142.745 55.447,325.387 60.561,348.238 1.71,7.644 0.636,-75.165 -8.947,-188.185 -5.142,-60.652 -105.961,-436.52 -164.631,-416.053 -218.153,76.099 -559.114,199.448 -559.114,199.448 l -660.058,104.939 c 0,0 323.038,721.285 338.822,722.351 7.672,0.518 -154.913,28.35 -269.386,165.289 -121.04,144.795 -219.763,413.437 -211.926,421.115 7.837,7.678 115.163,-30.349 225.602,-97.642 C -131.18,112.095 7.598,12.556 8.055,5.791 8.968,-7.738 0,0 0,0 Z" />
          </g>
          <g
             transform="translate(5038.7949,1708.7544)"
             id="g68">
            <path
               inkscape:connector-curvature="0"
               id="path70"
               style="fill:none;stroke:#000000;stroke-width:85;stroke-linecap:butt;stroke-linejoin:miter;stroke-miterlimit:4;stroke-dasharray:none;stroke-opacity:1"
               d="m 0,0 c 0,-28.648 -193.491,-126.613 -384.155,-118.744 -187.788,7.75 -318.86,174.17 -325.493,202.515 -7.447,31.813 128.5,104.699 298.577,95.291 C -161.588,165.263 0,28.648 0,0 Z" />
          </g>
          <g
             transform="translate(4274.1143,3549.8979)"
             id="g72">
            <path
               inkscape:connector-curvature="0"
               id="path74"
               style="fill:none;stroke:#000000;stroke-width:85;stroke-linecap:butt;stroke-linejoin:miter;stroke-miterlimit:4;stroke-dasharray:none;stroke-opacity:1"
               d="m 0,0 c 0,0 -232.93,37.836 -434.15,-15.217 -221.583,-58.421 -413.693,-208.807 -420.177,-222.172 -2.001,-4.123 -101.317,33.727 -152.507,-11.629 -13.855,-12.274 -48.156,-39.46 -59.704,-75.426 -11.55,-35.966 -0.346,-80.713 12.751,-107.978 22.714,-47.292 115.963,-47.239 115.963,-47.239 0,0 -181.43,-736.092 331.087,-990.844 694.398,-345.155 1049.886,123.662 1059.385,124.304 4.161,0.281 115.416,-72.396 184.043,-46.586 32.049,12.053 72.828,42.117 89.294,75.682 22.079,45.001 13.628,96.095 7.671,116.569 -25.589,87.941 -149.818,79.149 -151.145,79.464 -6.93,1.646 89.632,517.248 -120.589,825.557 C 359.49,-145.29 26.446,-2.886 0,0 Z" />
          </g>
          <g
             transform="translate(4261.7949,3571.7344)"
             id="g76">
            <path
               inkscape:connector-curvature="0"
               id="path78"
               style="fill:#ff0000;fill-opacity:1;fill-rule:nonzero;stroke:none"
               d="m 0,0 c 0,0 -241.693,333.452 -405.034,446.375 -56.334,38.945 -159.248,-36.679 -163.515,-40.844 -16.64,-16.238 -160.385,-507.749 -189.361,-483.987 -13.873,11.376 66.831,-125.353 246.407,-128.625 195.5,-3.562 491.897,125.758 491.897,125.758 z" />
          </g>
          <g
             transform="translate(4414.541,3495.0386)"
             id="g80">
            <path
               inkscape:connector-curvature="0"
               id="path82"
               style="fill:#ff0000;fill-opacity:1;fill-rule:nonzero;stroke:none"
               d="M 0,0 C 0,0 279.504,201.259 454.702,216.099 618.25,229.952 678.076,57.902 683.815,46.168 695.703,21.864 475.048,-199.676 500.885,-439.337 526.722,-678.999 -47.08,-103.603 -41.751,-39.512 -36.422,24.579 0,0 0,0" />
          </g>
          <g
             transform="translate(3503.8845,3493.2783)"
             id="g84">
            <path
               inkscape:connector-curvature="0"
               id="path86"
               style="fill:none;stroke:#000000;stroke-width:85;stroke-linecap:butt;stroke-linejoin:miter;stroke-miterlimit:4;stroke-dasharray:none;stroke-opacity:1"
               d="m 0,0 c 0,0 67.069,75.983 115.32,207.232 39.775,108.191 63.103,274.897 57.508,284.423 -4.542,7.732 97.216,100.407 185.423,45.394 152.273,-94.968 331.038,-367.048 334.734,-380.676 2.919,-10.762 71.803,-65.288 150.184,-81.913 78.38,-16.626 166.257,4.649 166.257,4.649 0,0 203.055,136.965 349.414,148.519 191.85,15.144 242.937,-155.335 243.2,-161.11 1.177,-25.827 -96.996,-109.081 -139.587,-237.363 -41.021,-123.554 -47.375,-253.219 -37.163,-261.132 9.83,-7.616 -56.483,-74.592 -167.947,-12.072 -124.564,69.868 -296.511,270.813 -299.202,276.415 -5.1,10.614 -207.049,242.452 -450.882,120.787 C 263.425,-168.511 15.236,-128.283 0,0 Z" />
          </g>
          <g
             transform="translate(4116.4609,3521.0435)"
             id="g88">
            <path
               inkscape:connector-curvature="0"
               id="path90"
               style="fill:#000000;fill-opacity:1;fill-rule:nonzero;stroke:none"
               d="M 0,0 C -7.009,103.807 71.462,193.64 175.269,200.648 279.075,207.657 368.908,129.187 375.917,25.38 382.925,-78.427 304.455,-168.26 200.648,-175.269 96.842,-182.277 7.008,-103.807 0,0" />
          </g>
          <g
             transform="translate(1935.1669,2932.2393)"
             id="g92">
            <path
               inkscape:connector-curvature="0"
               id="path94"
               style="fill:#000000;fill-opacity:1;fill-rule:nonzero;stroke:none"
               d="M 0,0 C -1.791,26.524 18.26,49.478 44.784,51.269 71.308,53.06 94.262,33.009 96.053,6.485 97.843,-20.04 77.793,-42.993 51.269,-44.784 24.745,-46.575 1.791,-26.524 0,0" />
          </g>
          <g
             transform="translate(1267.5292,2441.0845)"
             id="g96">
            <path
               inkscape:connector-curvature="0"
               id="path98"
               style="fill:#000000;fill-opacity:1;fill-rule:nonzero;stroke:none"
               d="M 0,0 C -1.791,26.524 18.26,49.478 44.784,51.269 71.308,53.06 94.262,33.009 96.053,6.485 97.843,-20.039 77.793,-42.993 51.269,-44.784 24.745,-46.575 1.791,-26.524 0,0" />
          </g>
          <g
             transform="translate(3614.1541,2872.0986)"
             id="g100">
            <path
               inkscape:connector-curvature="0"
               id="path102"
               style="fill:#000000;fill-opacity:1;fill-rule:nonzero;stroke:none"
               d="M 0,0 C -2.415,35.782 24.633,66.747 60.415,69.163 96.196,71.579 127.162,44.53 129.578,8.748 131.993,-27.034 104.945,-57.999 69.163,-60.415 33.382,-62.831 2.416,-35.782 0,0" />
          </g>
          <g
             transform="translate(4255.3857,2320.7969)"
             id="g104">
            <path
               inkscape:connector-curvature="0"
               id="path106"
               style="fill:#000000;fill-opacity:1;fill-rule:nonzero;stroke:none"
               d="M 0,0 C -2.416,35.782 24.633,66.747 60.415,69.163 96.196,71.579 127.161,44.53 129.577,8.749 131.993,-27.033 104.944,-57.999 69.163,-60.415 33.381,-62.831 2.416,-35.782 0,0" />
          </g>
          <g
             transform="translate(3732.1921,2285.4741)"
             id="g108">
            <path
               inkscape:connector-curvature="0"
               id="path110"
               style="fill:none;stroke:#000000;stroke-width:50;stroke-linecap:butt;stroke-linejoin:miter;stroke-miterlimit:4;stroke-dasharray:none;stroke-opacity:1"
               d="m 0,0 c 44.641,-35.756 136.458,-67.711 194.04,-59.534 53.742,7.632 74.672,54.306 80.76,54.718 12.12,0.817 -156.749,-59.14 -245.375,6.802 -20.611,15.335 -64.187,62.175 -80.941,114.738 -24.919,78.181 -19.08,166.74 -20.97,164.676 -1.651,-1.801 -25.236,-93.938 -6.674,-172.173 C -66.832,57.261 -16.015,12.826 0,0 Z" />
          </g>
          <g
             transform="translate(374.659,931.0083)"
             id="g112">
            <path
               inkscape:connector-curvature="0"
               id="path114"
               style="fill:#000000;fill-opacity:1;fill-rule:nonzero;stroke:none"
               d="m 0,0 c 0,0 1311.255,805.975 2395.23,805.975 1083.976,0 2465.596,-786.589 2465.596,-786.589 0,0 -1271.171,589.263 -2465.596,589.263 C 1200.805,608.649 0,0 0,0" />
          </g>
          <g
             transform="translate(737.9295,474.98)"
             id="g116">
            <path
               inkscape:connector-curvature="0"
               id="path118"
               style="fill:#df00ff;fill-opacity:1;fill-rule:nonzero;stroke:none"
               d="m 0,0 c -18.866,-6.193 -38.873,-8.759 -58.498,-10.395 -14.691,-1.225 -32.833,-3.941 -46.875,2.663 -3.243,2.549 -5.49,5.674 -6.753,9.363 -0.841,2.457 -1.503,6.805 -1.978,13.055 -0.473,6.237 -1.267,11.001 -2.389,14.286 -49.628,145.285 -99.258,290.569 -148.886,435.854 -1.68,4.918 -1.33,11.324 1.067,19.238 2.392,7.9 6.293,14.311 11.476,17.957 22.574,15.878 67.513,13.054 94.786,14.918 23.658,1.619 76.853,12.32 97.011,-6.092 2.396,-2.892 4.234,-7.845 5.294,-14.683 1.396,-9.008 2.243,-14.5 2.754,-16.147 1.153,-3.724 2.862,-6.829 5.119,-9.296 C 5.85,405.234 58.778,339.114 110.91,272.355 c 0.938,30.506 1.306,61.034 1.74,91.547 0.73,51.186 1.097,102.447 1.726,153.578 0.286,23.272 -6.214,84.726 15.941,102.303 1.732,0.923 3.385,1.723 4.952,2.383 1.554,0.654 3.516,1.337 5.82,1.943 13.197,3.471 27.555,4.227 41.16,5.158 14.692,1.004 29.709,1.624 44.418,3.758 21.577,3.642 43.166,7.203 64.77,10.682 13.072,1.368 34.281,1.59 42.061,-11.562 1.965,-3.978 3.211,-7.016 3.731,-9.115 1.041,-4.208 1.367,-10.489 0.988,-18.829 -0.379,-8.353 -0.09,-14.414 0.85,-18.196 31.967,-128.61 63.935,-257.22 95.902,-385.83 1.15,-4.63 5.35,-10.709 12.5,-16.98 7.077,-6.207 11.427,-11.902 11.807,-17.159 1.1,-10.303 1.029,-28.016 -8.186,-33.478 -15.768,-9.348 -42.194,-7.064 -61.402,-6.857 -17.867,0.193 -44.919,-1.848 -59.529,11.225 -2.073,2.577 -3.559,5.542 -4.456,8.895 -0.672,2.511 -1.222,6.739 -1.652,12.671 -0.43,5.932 -1.144,10.789 -2.149,14.555 -25.352,94.984 -50.705,189.97 -76.057,284.954 -21.948,-89.55 -13.559,-190.8 -10.769,-281.762 -0.087,-1.373 0.226,-3.309 0.927,-5.812 1.17,-4.173 3.546,-11.066 7.553,-19.472 3.688,-7.739 6.627,-13.502 7.487,-16.794 3.341,-12.781 4.866,-21.573 5.061,-25.566 0.18,-8.941 -3.013,-15.176 -9.286,-18.803 -4.345,-2.513 -11.708,-5.394 -21.928,-8.251 -37.38,-10.452 -85.313,-23.104 -123.119,-5.896 -3.879,1.977 -6.718,6.822 -8.598,14.353 -2.296,9.194 -4.199,15.244 -5.51,18.017 -26.905,37.098 -54.02,74.04 -81.348,110.829 -33.523,44.349 -66.548,95.404 -108.586,132.475 26.495,-82.01 52.989,-164.02 79.483,-246.03 1.597,-4.945 5.689,-11.965 12.335,-20.593 3.911,-5.077 7.109,-9.212 9.297,-12.363 2.192,-3.156 3.771,-5.506 4.729,-7.011 2.176,-3.853 4.167,-8.219 5.968,-13.093 1.8,-4.875 3.262,-10.535 4.838,-16.187 C 16.724,27.637 19.837,15.158 13.813,7.2 12.217,4.873 7.588,2.492 0,0" />
          </g>
          <g
             transform="translate(1346.1776,641.9468)"
             id="g120">
            <path
               inkscape:connector-curvature="0"
               id="path122"
               style="fill:#20ff00;fill-opacity:1;fill-rule:nonzero;stroke:none"
               d="m 0,0 c -7.652,-1.08 -14.59,-1.275 -20.027,-1.174 -5.436,0.102 -13.472,0.724 -24.126,1.824 -14.768,1.356 -39.188,1.439 -49.129,15.213 -0.272,3.044 -0.916,7.236 -1.945,12.557 -1.027,5.31 -1.815,11.023 -2.336,17.138 -32.901,139.079 -65.802,278.157 -98.703,417.236 -1.928,3.987 -5.357,9.185 -10.298,15.585 -2.759,3.35 -5.504,8.142 -5.94,12.609 -1.136,11.647 18.325,21.979 28.053,27.296 11.475,6.273 23.945,12.028 36.68,15.775 5.42,1.595 11.166,2.974 17.061,3.857 5.896,0.883 12.064,1.144 18.484,0.802 9.989,0.293 23.786,-0.806 29.976,-10.031 1.483,-2.335 2.461,-4.564 2.922,-6.676 0.739,-3.392 0.84,-8.361 0.322,-14.89 -0.519,-6.542 -0.407,-11.508 0.333,-14.889 18.19,-83.133 36.381,-166.267 54.571,-249.401 5.695,21.841 8.767,44.398 11.677,66.679 4.645,35.561 8.359,71.51 12.218,107.193 3.137,29.008 6.901,58.195 12.314,86.82 2.926,15.467 6.148,33.133 14.51,46.714 4.346,7.06 7.774,12.17 10.076,15.282 2.301,3.11 6.473,6.594 12.543,10.447 2.648,1.405 7.793,2.958 15.238,4.327 19.012,3.499 38.236,4.983 57.567,4.428 18.583,-0.534 39.858,-1.325 56.067,-12.146 1.472,-2.818 1.928,-7.362 1.366,-13.615 -0.563,-6.267 -0.608,-10.672 -0.146,-13.229 24.674,-136.591 49.35,-273.184 74.026,-409.776 0.617,-3.416 3,-7.617 7.034,-12.595 5.261,-6.492 7.912,-10.026 7.987,-10.445 3.486,-6.862 5.659,-13.159 6.711,-18.599 2.854,-14.746 -3.732,-27.173 -18.935,-29.818 -21.925,-3.814 -45.437,-1.607 -67.023,0.667 -14.922,1.572 -35.047,2.18 -48.321,11.059 -7.048,5.682 -7.666,18.507 -5.206,26.12 3.529,10.92 4.475,18.772 3.97,21.321 C 123.82,191.627 108.005,259.574 92.128,327.507 87.705,306.321 83.934,284.996 81.039,263.657 78.08,241.841 75.524,219.719 73.218,197.746 71.019,176.788 68.992,155.689 66.9,134.738 65.037,116.07 63.486,96.322 59.767,78.807 57.795,69.521 55.139,59.158 53.742,49.301 52.481,40.409 50.161,32.593 46.842,25.897 43.523,19.203 38.267,13.615 31.116,9.195 21.758,3.412 10.353,1.461 0,0" />
          </g>
          <g
             transform="translate(1762.9442,982.811)"
             id="g124">
            <path
               inkscape:connector-curvature="0"
               id="path126"
               style="fill:#ffe600;fill-opacity:1;fill-rule:nonzero;stroke:none"
               d="m 0,0 c 33.229,15.741 47.902,57.315 58.153,89.26 10.937,34.08 19.898,73.552 15.929,109.118 -0.943,8.448 -5.051,22.28 -16.392,20.694 C 41.755,216.843 27.029,205.986 15.199,196.643 0.543,185.067 -13.259,171.35 -23.443,154.794 -15.629,103.196 -7.814,51.598 0,0 m 25.577,-261.583 c -16.993,-3.286 -37.289,3.669 -53.531,8.01 -17.991,4.807 -42.279,9.802 -56.442,23.584 -6.709,7.124 -5.534,18.796 -4.558,26.9 1.037,8.61 1.988,16.365 1.051,21.92 -22.263,131.957 -44.525,263.916 -66.787,395.873 -0.217,1.281 -1.01,3.131 -2.376,5.529 -1.369,2.401 -2.894,5.007 -4.567,7.793 -1.669,2.781 -3.219,5.495 -4.628,8.11 -1.407,2.608 -2.223,4.564 -2.441,5.845 -1.114,14.322 4.803,33.924 20.221,35.021 9.128,0.648 19.916,-1.944 29.537,-3.047 13.505,-1.548 27.665,-2.624 41.497,-1.278 7.11,0.69 15.022,2.682 23.676,5.965 9.647,3.658 19.247,7.925 28.499,12.513 14.761,7.078 30.393,15.471 46.608,17.936 5.613,0.852 11.446,0.96 17.302,0.466 13.554,-1.613 25.059,-7.923 36.67,-14.644 7.89,-5.062 14.662,-9.075 20.324,-12.036 5.659,-2.959 10.25,-5.102 13.771,-6.384 47.856,-15.838 75.6,-55.112 81.43,-104.359 6.14,-51.879 -12.356,-106.093 -30.601,-153.05 -16.587,-42.691 -43.41,-105.925 -95.23,-113.894 -7.068,-1.086 -15.543,1.137 -25.238,6.497 -9.565,5.288 -19.159,10.531 -28.772,15.733 5.512,-36.398 11.025,-72.794 16.537,-109.191 0.778,-5.139 2.824,-11.458 6.215,-18.771 4.538,-9.783 7.761,-16.634 9.115,-20.307 1.643,-4.456 0.239,-12.045 -2.157,-21.346 -2.734,-10.609 -7.452,-17.905 -15.125,-19.388" />
          </g>
          <g
             transform="translate(2291.3796,782.9546)"
             id="g128">
            <path
               inkscape:connector-curvature="0"
               id="path130"
               style="fill:#ff7c06;fill-opacity:1;fill-rule:nonzero;stroke:none"
               d="m 0,0 c -7.686,0.026 -14.548,0.825 -19.887,1.704 -5.338,0.878 -13.161,2.644 -23.496,5.257 -14.376,3.463 -38.4,7.064 -46.212,22.089 0.164,3.052 0.122,7.292 -0.138,12.706 -0.261,5.402 -0.228,11.17 0.124,17.295 -12.719,142.349 -25.437,284.699 -38.155,427.049 -1.334,4.222 -3.974,9.857 -7.933,16.898 -2.242,3.711 -4.265,8.84 -4.064,13.33 0.523,11.673 21.118,19.116 31.474,22.996 12.182,4.564 25.273,8.476 38.344,10.362 5.562,0.802 11.415,1.345 17.344,1.376 5.931,0.03 12.042,-0.594 18.316,-1.85 9.902,-1.143 23.327,-4.22 28.102,-14.213 1.13,-2.524 1.778,-4.87 1.932,-7.026 0.249,-3.462 -0.355,-8.395 -1.79,-14.783 -1.437,-6.4 -2.028,-11.331 -1.778,-14.782 6.148,-84.879 12.297,-169.756 18.446,-254.634 8.703,20.809 14.921,42.693 20.94,64.323 9.61,34.534 18.358,69.581 27.212,104.344 7.198,28.258 15.037,56.607 24.428,84.169 5.072,14.885 10.741,31.903 20.914,44.162 5.283,6.367 9.386,10.935 12.094,13.686 2.709,2.749 7.313,5.603 13.843,8.549 2.809,1.013 8.099,1.815 15.631,2.108 19.24,0.749 38.4,-0.525 57.376,-3.832 18.258,-3.181 39.129,-7.009 53.562,-20.016 1.052,-3 0.857,-7.562 -0.583,-13.671 -1.443,-6.122 -2.113,-10.476 -2.02,-13.073 4.966,-138.712 9.932,-277.426 14.899,-416.14 0.125,-3.469 1.879,-7.967 5.151,-13.469 4.268,-7.176 6.381,-11.052 6.396,-11.477 2.465,-7.29 3.714,-13.832 3.982,-19.366 0.722,-14.958 -7.493,-26.362 -22.902,-26.813 -22.159,-0.651 -45.032,4.89 -65.985,10.221 -14.488,3.685 -34.254,7.17 -46.06,17.841 -6.143,6.637 -4.936,19.408 -1.431,26.595 5.027,10.31 7.07,17.941 6.933,20.536 -5.895,69.514 -11.854,139.022 -17.878,208.524 C 129.77,290.637 123.033,270.068 117.158,249.363 111.151,228.192 105.5,206.664 100.116,185.246 94.981,164.818 89.996,144.226 84.968,123.788 80.489,105.579 76.167,86.264 70.021,69.451 66.764,60.541 62.68,50.664 59.909,41.109 57.408,32.49 54.016,25.085 49.799,18.934 45.582,12.782 39.614,8.004 31.945,4.652 21.914,0.267 10.401,-0.035 0,0" />
          </g>
          <g
             transform="translate(2730.2024,793.6821)"
             id="g132">
            <path
               inkscape:connector-curvature="0"
               id="path134"
               style="fill:#000dfc;fill-opacity:1;fill-rule:nonzero;stroke:none"
               d="m 0,0 c -22.227,10.071 -44.202,21.133 -63.323,36.051 -12.337,9.626 -28.085,21.771 -29.447,38.979 -3.291,134.649 -6.583,269.296 -9.873,403.945 -0.674,16.533 0.477,36.031 9.798,50.266 6.288,9.602 16.135,17.681 27.008,19.735 12.363,2.336 22.846,1.802 34.962,-1.366 11.434,-2.989 22.461,-7.993 33.636,-13.566 28.424,10.011 56.902,19.86 85.437,29.551 6.186,1.285 13.104,3.316 20.748,6.095 7.629,2.774 15.285,5.646 22.949,8.618 2.867,0.402 6.563,-0.489 11.07,-2.698 4.502,-2.207 8.892,-4.964 13.143,-8.261 4.251,-3.298 8.26,-6.707 12.016,-10.219 3.755,-3.512 6.572,-6.161 8.451,-7.914 6.951,-7.204 13.896,-14.422 21.021,-21.449 5.592,-5.515 9.648,-10.472 12.159,-14.842 2.513,-4.373 3.256,-8.84 2.223,-13.362 -1.034,-4.525 -4.522,-10.478 -9.53,-17.689 -4.879,-7.025 -15.643,-14.026 -24.235,-14.543 -3.129,-0.188 -7.519,0.439 -12.658,2.451 -5.15,2.018 -9.229,3.132 -11.954,3.07 -19.974,-0.458 -41.939,-11.109 -60.72,-18.406 -25.631,-9.959 -52.283,-20.936 -74.997,-37.207 0.874,-114.113 1.748,-228.226 2.622,-342.34 0.03,-3.898 2.403,-8.538 7.087,-13.917 4.69,-5.384 7.119,-11.19 7.076,-17.171 C 34.513,22.124 21.889,4.65 0,0" />
          </g>
          <g
             transform="translate(3093.0906,1054.98)"
             id="g136">
            <path
               inkscape:connector-curvature="0"
               id="path138"
               style="fill:#00f900;fill-opacity:1;fill-rule:nonzero;stroke:none"
               d="m 0,0 c 35.571,9.119 57.854,47.151 73.97,76.518 17.218,31.376 33.523,68.404 36.416,104.071 0.686,8.458 -0.684,22.832 -12.112,23.442 C 82.233,204.888 65.739,197.036 52.375,190.124 35.811,181.557 19.679,170.724 6.556,156.422 4.37,104.281 2.185,52.141 0,0 m -24.825,-261.652 c -17.26,0.018 -35.807,10.722 -50.869,18.082 -16.698,8.157 -39.517,17.708 -50.735,33.926 -5.207,8.279 -1.834,19.503 0.666,27.277 2.655,8.253 5.063,15.683 5.205,21.315 3.359,133.78 6.719,267.56 10.079,401.339 0.033,1.299 -0.391,3.266 -1.272,5.881 -0.881,2.618 -1.877,5.467 -2.982,8.521 -1.104,3.048 -2.102,6.01 -2.983,8.844 -0.88,2.83 -1.305,4.905 -1.274,6.204 1.633,14.232 11.137,32.385 26.456,30.515 9.055,-1.106 19.118,-5.712 28.321,-8.631 12.92,-4.097 26.575,-7.857 40.37,-9.178 7.092,-0.677 15.217,-0.233 24.316,1.336 10.143,1.75 20.357,4.108 30.29,6.844 15.804,4.131 32.716,9.386 49.068,8.709 5.66,-0.234 11.394,-1.241 17.035,-2.845 12.978,-4.172 23.043,-12.562 33.135,-21.372 6.766,-6.475 12.637,-11.707 17.619,-15.693 4.983,-3.985 9.072,-6.965 12.279,-8.895 43.915,-24.7 63.592,-68.56 59.912,-117.981 -3.879,-52.091 -32.354,-101.773 -59.203,-144.396 -24.37,-38.685 -62.711,-95.694 -115.03,-93.623 -7.13,0.282 -15.007,4.083 -23.479,11.195 -8.358,7.015 -16.752,13.993 -25.173,20.935 -1.542,-36.78 -3.083,-73.559 -4.624,-110.339 -0.218,-5.193 0.581,-11.785 2.507,-19.611 2.577,-10.471 4.427,-17.811 5.052,-21.674 0.759,-4.688 -2.062,-11.869 -6.181,-20.542 -4.699,-9.893 -10.711,-16.151 -18.505,-16.143" />
          </g>
          <g
             transform="translate(3497.2029,756.5132)"
             id="g140">
            <path
               inkscape:connector-curvature="0"
               id="path142"
               style="fill:#ff0000;fill-opacity:1;fill-rule:nonzero;stroke:none"
               d="m 0,0 c -17.09,1.748 -33.754,8.864 -48.796,16.021 -13.833,6.583 -29.013,14.038 -39.814,25.272 -7.08,7.363 -10.396,15.416 -9.588,23.037 1.021,9.636 7.792,18.379 13.053,26.222 4.049,5.279 7.232,9.453 9.526,12.504 2.295,3.05 3.742,5.415 4.349,7.101 11.014,26.829 22.111,53.622 33.29,80.382 -32.203,101.508 -66.027,202.475 -101.452,302.903 -0.373,1.331 -4.908,6.678 -13.66,16.035 -3.51,3.737 -6.024,8.055 -7.553,12.945 -1.525,4.884 -3.969,11.838 -3.703,17.212 0.608,12.275 33.188,23.247 44.289,27.87 22.153,9.226 47.097,18.852 71.743,16.747 4.73,-0.404 8.003,-1.597 9.752,-3.489 9.771,-5.413 15.322,-15.818 17.66,-26.42 0.418,-5.697 1.215,-11.209 2.383,-16.537 1.167,-5.323 2.21,-10.649 3.134,-15.956 17.883,-61.43 35.24,-123.006 52.07,-184.733 30.838,58.483 62.212,116.676 94.116,174.584 4.39,9.463 8.972,18.869 13.68,28.167 4.683,9.25 11.2,14.713 19.575,16.33 4.887,0.725 10.926,0.624 18.011,-0.21 9.228,-1.087 18.942,-3.309 27.762,-6.057 10.325,-3.217 20.071,-8.002 29.734,-12.976 11.865,-6.296 27.298,-13.11 32.503,-26.595 0.172,-2.214 0.285,-4.088 0.319,-5.615 0.033,-1.535 -0.096,-3.379 -0.389,-5.519 -1.363,-10.007 -8.92,-18.235 -15.445,-24.141 -6.699,-6.063 -15.507,-12.451 -20.631,-20.856 C 165.109,322.037 97.012,188.439 31.676,53.46 29.742,43.869 27.812,34.276 25.887,24.683 23.539,15.272 18.619,2.379 7.939,-0.183 7.013,-0.514 5.791,-0.608 4.264,-0.447 2.727,-0.285 1.311,-0.134 0,0" />
          </g>
          <g
             transform="translate(3757.2166,738.5659)"
             id="g144">
            <path
               inkscape:connector-curvature="0"
               id="path146"
               style="fill:#0098ff;fill-opacity:1;fill-rule:nonzero;stroke:none"
               d="m 0,0 c -3.5,0.505 -6.583,2.449 -9.273,5.268 -2.931,3.069 -5.706,6.944 -7.723,11.595 -2.021,4.659 -3.795,9.503 -5.326,14.527 -1.532,5.018 -2.754,9.903 -3.665,14.614 -0.911,4.716 -1.575,8.849 -1.975,12.409 -0.831,11.756 -1.638,23.804 4.445,34.471 5.132,8.999 15.54,14.852 17.705,17.53 8.537,10.564 8.041,53.995 11.429,81.051 2.822,22.54 5.666,45.127 8.844,67.638 1.845,13.076 3.685,26.159 5.529,39.239 2.719,19.298 5.463,38.614 8.158,57.893 2.965,21.212 5.735,42.525 8.278,63.783 2.261,18.896 4.212,38.158 6.568,56.805 0.268,2.115 0.473,5.075 0.519,8.782 0.046,3.7 0.099,7.538 0.173,11.457 0.074,3.92 0.112,7.637 0.125,11.133 0.013,3.489 0.134,6.1 0.375,7.821 0.599,4.282 2.125,7.464 4.587,9.523 2.459,2.054 7.944,4.021 16.442,5.875 3.5,0.813 7.859,0.844 13.077,0.091 3.792,-0.548 9.337,-1.571 16.618,-3.077 7.281,-1.506 15.002,-3.42 23.129,-5.734 8.129,-2.314 15.883,-4.807 23.223,-7.469 7.334,-2.661 13.009,-5.196 16.998,-7.565 9.646,-6.335 15.354,-12.283 17.116,-17.822 1.761,-5.535 2.163,-11.312 1.208,-17.295 -0.887,-5.564 -3.088,-12.826 -6.33,-21.687 -3.154,-8.621 -7.887,-17.702 -13.301,-25.188 -8.793,-61.747 -17.609,-123.492 -26.447,-185.232 -3.367,-21.177 -6.229,-42.469 -9.043,-63.683 -3.215,-24.236 -7.255,-48.386 -11.814,-72.451 14.221,-1.377 28.427,-2.902 42.617,-4.581 14.195,-1.68 28.398,-3.303 42.61,-4.852 5.665,28.466 11.257,57.024 16.375,85.512 3.702,20.611 6.77,42.085 9.631,62.282 0.708,4.995 2.358,13.766 4.442,25.932 2.25,13.126 4.498,26.251 6.747,39.377 2.413,14.087 4.717,28.199 6.896,42.319 1.814,11.766 3.848,23.656 5.685,35.275 2.239,14.155 4.217,28.731 6.648,43.02 1.595,9.377 2.446,14.297 2.52,14.727 0.29,1.701 0.515,4.419 0.67,8.124 0.155,3.697 0.305,7.421 0.459,11.125 0.154,3.696 0.283,7.311 0.401,10.806 0.115,3.486 0.316,6.093 0.607,7.804 1.455,8.535 7.598,15.133 17.576,20.054 8.807,4.343 21.983,6.251 31.66,4.362 5.983,-1.167 14.358,-3.358 24.646,-6.713 10.194,-3.325 20.564,-7.573 30.191,-12.121 8.575,-4.051 17.615,-9.169 25.234,-14.961 6.967,-5.297 10.053,-10.288 9.161,-14.965 -5.224,-9.585 -9.386,-17.51 -12.494,-23.744 -3.113,-6.245 -6.069,-12.306 -8.858,-18.158 -2.795,-5.864 -4.386,-9.864 -4.787,-11.989 -0.883,-4.689 -1.463,-7.77 -1.744,-9.256 -0.282,-1.496 -0.487,-3.219 -0.614,-5.173 -0.127,-1.952 -0.503,-5.2 -1.111,-9.707 -0.61,-4.506 -1.879,-11.877 -3.807,-22.089 -2.25,-11.914 -4.343,-23.873 -6.4,-35.814 -2.26,-13.113 -4.477,-26.277 -6.723,-39.387 -1.9,-11.085 -3.836,-22.196 -5.926,-33.258 -1.809,-9.573 -3.024,-15.88 -3.557,-18.831 -3.503,-19.443 -6.701,-39.318 -10.416,-58.855 -2.058,-10.83 -4.136,-21.709 -6.484,-32.492 -1.75,-8.04 -3.24,-14.712 -4.467,-19.981 -1.228,-5.28 -2.603,-11.966 -4.128,-20.046 -0.643,-3.41 -1.225,-6.493 -1.747,-9.255 -0.523,-2.773 -0.848,-5.688 -0.962,-8.743 14.247,-2.257 28.495,-4.545 42.724,-6.886 14.236,-2.341 28.475,-4.731 42.7,-7.16 6.173,26.584 12.284,53.24 17.884,79.893 4.087,19.451 7.59,39.746 10.833,58.786 0.846,4.964 2.767,13.69 5.212,25.788 2.681,13.265 5.361,26.531 8.043,39.796 2.894,14.327 5.685,28.684 8.344,43.049 2.185,11.812 4.591,23.745 6.794,35.411 2.657,14.082 5.069,28.592 7.922,42.803 1.874,9.325 2.872,14.218 2.958,14.646 0.771,3.82 0.89,9.21 0.357,16.164 -0.533,6.948 -0.469,12.126 0.216,15.529 0.852,4.238 3.382,8.37 7.597,12.386 4.206,4.005 9.281,7.401 15.21,10.173 5.922,2.766 12.057,4.72 18.399,5.845 6.33,1.123 12.419,0.958 17.813,-0.708 7.212,-2.227 15.626,-5.372 24.904,-8.893 9.267,-3.517 17.734,-7.439 25.365,-11.749 7.622,-4.306 13.853,-8.888 18.658,-13.705 4.808,-4.821 6.679,-9.577 5.666,-14.218 -2.76,-12.644 -7.163,-25.202 -14.164,-36.128 -6.215,-9.7 -9.75,-16.265 -10.49,-19.645 -1.02,-4.661 -1.667,-7.616 -1.946,-8.885 -0.277,-1.269 -0.489,-2.786 -0.626,-4.518 -0.137,-1.74 -0.563,-4.764 -1.254,-9.035 -0.695,-4.279 -2.161,-11.5 -4.382,-21.651 -2.616,-11.951 -5.097,-23.941 -7.513,-35.929 -2.674,-13.262 -5.34,-26.561 -8.011,-39.809 -2.264,-11.234 -4.573,-22.497 -7.034,-33.706 -2.137,-9.733 -3.555,-16.099 -4.175,-19.036 -5.51,-26.072 -10.721,-52.661 -16.255,-78.902 -4.55,-21.585 -9.293,-43.191 -14.533,-64.65 3.503,-2.992 6.329,-7.493 8.459,-13.503 2.132,-6.019 3.635,-12.236 4.514,-18.635 0.879,-6.406 1.226,-12.59 1.045,-18.535 -0.181,-5.945 -0.555,-10.194 -1.121,-12.73 -0.757,-3.389 -2.029,-7.535 -3.815,-12.461 -1.787,-4.926 -4.101,-9.636 -6.916,-14.098 -2.822,-4.475 -5.961,-8.324 -9.41,-11.552 -3.449,-3.227 -7.236,-4.853 -11.31,-4.819 -14.967,0.124 -30.055,3.198 -44.776,5.711 -26.51,4.528 -53.14,9.26 -79.716,13.835 -32.766,5.641 -65.557,11.349 -98.302,16.971 -33.154,5.692 -66.48,10.998 -99.756,15.713 C 138.417,-5.044 110.315,-1.312 82.33,1.738 65.561,3.567 48.333,5.414 31.552,5.224 25.801,5.158 20.224,4.164 15.018,2.084 9.809,0.003 4.799,-0.692 0,0" />
          </g>
          <g
             transform="translate(4417.3467,595.105)"
             id="g148">
            <path
               inkscape:connector-curvature="0"
               id="path150"
               style="fill:#cd00ff;fill-opacity:1;fill-rule:nonzero;stroke:none"
               d="m 0,0 c -15.116,10.607 -30.296,21.18 -45.132,32.141 -10.256,7.578 -16.39,12.06 -18.347,13.413 -9.452,7.147 -33.209,20.542 -34.334,34.748 36.711,158.646 73.421,317.293 110.134,475.939 0.586,2.531 6.985,5.654 19.019,8.915 12.425,3.367 21.339,3.861 26.271,1.819 11.093,-4.594 21.147,-11.71 31.122,-18.161 12.026,-7.774 25.065,-15.252 38.969,-18.937 18.816,-4.985 40.101,-0.61 58.651,3.261 12.527,2.614 29.186,8.407 41.954,3.862 17.393,-10.331 29.508,-30.309 40.516,-46.436 9.637,-14.119 23.614,-31.361 25.153,-49.298 -0.122,-4.01 -6.325,-9.438 -18.411,-15.824 -7.66,-4.046 -17.277,-9.921 -26.412,-7.622 -4.972,1.251 -8.527,2.977 -10.474,4.842 -1.955,1.871 -3.449,2.713 -4.472,2.545 -8.69,0.532 -17.096,0.754 -25.197,0.655 -8.105,-0.098 -16.105,-0.239 -23.966,-0.423 -28.449,-1.778 -58.172,-4.437 -84.027,-17.453 L 75.405,305.242 c 9.754,2.168 19.901,3.617 29.829,4.558 12.482,1.181 24.973,2.222 37.49,3.136 16.32,-5.897 28.552,-27.143 37.7,-40.119 8.836,-12.534 26.911,-33.9 24.008,-49.505 -0.437,-2.348 -2.317,-4.99 -4.878,-7.427 -2.573,-2.448 -5.559,-4.667 -8.949,-6.663 -3.396,-2.001 -7.043,-3.597 -10.922,-4.795 -3.886,-1.199 -7.27,-1.865 -10.152,-1.989 -2.221,0.594 -5.247,1.291 -9.056,2.079 -3.823,0.79 -8.68,1.737 -14.544,2.84 -33.073,2.068 -67.823,-8.945 -99.28,-17.466 -5.5,-22.063 -10.999,-44.123 -16.498,-66.186 19.644,5.657 39.822,9.372 59.916,12.955 14.54,2.593 33.625,8.535 46.223,4.709 14.607,-4.436 28.397,-26.986 38.555,-39.942 8.193,-10.452 29.589,-32.99 26.422,-44.324 -0.834,-2.986 -4.398,-6.986 -7.442,-10.407 -3.049,-3.426 -6.473,-6.528 -10.258,-9.294 -3.796,-2.774 -7.465,-5.132 -11.013,-7.073 -3.562,-1.948 -6.739,-2.983 -9.555,-3.106 -1.41,-0.068 -3.586,1.319 -6.525,4.136 -2.948,2.824 -5.502,4.524 -7.66,5.109 -1.295,0.35 -2.225,0.372 -2.762,0.075 C 131.14,36.551 116.515,34.563 101.86,32.21 84.202,29.375 66.636,25.049 49.563,19.632 32.632,14.261 16.067,7.572 0,0" />
          </g>
          <g
             transform="translate(4714.9062,518.9683)"
             id="g152">
            <path
               inkscape:connector-curvature="0"
               id="path154"
               style="fill:#5700ff;fill-opacity:1;fill-rule:nonzero;stroke:none"
               d="m 0,0 c -18.791,6.004 -36.877,14.936 -51.867,26.771 -9.865,7.79 -25.43,20.794 -22.297,36.137 43.369,152.459 86.734,304.919 130.103,457.379 1.067,3.75 3.084,7.79 6.062,12.121 2.972,4.321 6.472,8.287 10.489,11.869 4.018,3.58 8.237,6.537 12.658,8.874 4.416,2.333 8.655,3.593 12.721,3.771 1.039,0.143 3.187,-0.253 6.42,-1.182 19.495,-5.601 37.061,-18.397 52.701,-30.414 10.75,-8.261 33.813,-23.328 33.701,-35.289 -0.115,-12.275 -13.569,-29.971 -20.675,-43.274 -6.808,-12.745 -13.605,-25.733 -19.268,-38.958 -4.068,-9.504 -8.059,-19.239 -11.072,-29.227 -0.877,-2.903 -1.665,-5.498 -2.354,-7.771 -0.691,-2.284 -1.129,-4.527 -1.301,-6.734 55.534,43.134 111.648,85.493 168.341,127.093 8.867,6.339 20.564,9.219 30.572,5.121 17.367,-7.108 32.215,-22.766 44.353,-36.526 11.809,-13.388 31.668,-41.15 24.145,-54.761 -10.602,-19.179 -52.534,-35.601 -77.397,-50.756 -52.217,-31.825 -104.066,-65.682 -150.856,-105.58 29.444,-61.711 58.013,-123.816 85.7,-186.336 2.634,-4.999 8.793,-9.933 17.95,-14.984 7.99,-4.406 11.789,-10.02 10.606,-15.286 -4.427,-19.705 -26.551,-37.081 -41.468,-50.389 -12.216,-10.898 -38.85,-36.681 -54.982,-28.853 -27.244,13.22 -44.42,70.928 -57.38,99.885 -11.711,27.087 -23.535,54.336 -36.709,80.562 -6.242,12.424 -12.487,26.075 -21.625,36.83 C 65.723,131.96 54.173,93.827 42.623,55.693 41.871,53.207 41.842,48.465 42.524,41.468 43.207,34.473 43.313,29.453 42.862,26.429 41.394,14.413 35.254,0.061 22.182,-2.598 16.744,-3.668 9.125,-2.916 0,0" />
          </g>
        </g>
      </g>
    </g>
  </g>
</svg>
