<?xml version="1.0" encoding="UTF-8"?>
<!DOCTYPE svg PUBLIC "-//W3C//DTD SVG 1.1//EN" "http://www.w3.org/Graphics/SVG/1.1/DTD/svg11.dtd">
<!-- Creator: CorelDRAW X8 -->
<svg xmlns="http://www.w3.org/2000/svg" xml:space="preserve" width="15.2654cm" height="11.2099cm" version="1.1" style="shape-rendering:geometricPrecision; text-rendering:geometricPrecision; image-rendering:optimizeQuality; fill-rule:evenodd; clip-rule:evenodd"
viewBox="0 0 15265 11208"
 xmlns:xlink="http://www.w3.org/1999/xlink">
 <defs>
  <style type="text/css">
   <![CDATA[
    .str0 {stroke:white;stroke-width:39.215;stroke-linecap:round;stroke-linejoin:round}
    .str1 {stroke:white;stroke-width:39.215;stroke-linecap:round;stroke-linejoin:round}
    .str2 {stroke:white;stroke-width:331.268;stroke-linecap:round;stroke-linejoin:round}
    .str4 {stroke:white;stroke-width:331.268;stroke-linecap:round;stroke-linejoin:round}
    .str3 {stroke:white;stroke-width:331.268;stroke-linecap:round;stroke-linejoin:round}
    .fil3 {fill:none}
    .fil0 {fill:none;fill-rule:nonzero}
    .fil4 {fill:#FEFEFE}
    .fil7 {fill:#E5097F}
    .fil6 {fill:#E51A4B}
    .fil1 {fill:#FEFEFE;fill-rule:nonzero}
    .fil2 {fill:#A82682;fill-rule:nonzero}
    .fil5 {fill:#5E224F;fill-rule:nonzero}
   ]]>
  </style>
 </defs>
 <g id="Слой_x0020_1">
  <metadata id="CorelCorpID_0Corel-Layer"/>
  <g id="_2788273763456">
   <g>
    <path class="fil0 str0" d="M831 8805l-202 -942c-47,73 -86,142 -117,206 -31,65 -55,128 -71,192 -15,64 -23,129 -23,196 0,40 4,96 12,170 8,73 13,119 14,137l0 93c-2,19 -11,32 -26,39 -11,5 -25,7 -41,7 -15,0 -37,-2 -67,-7 -11,-1 -27,-2 -48,-2 -26,0 -46,1 -60,2 -20,2 -33,4 -39,4 -22,0 -39,-9 -49,-27 -10,-18 -15,-53 -15,-107 0,-91 12,-173 36,-245 25,-73 56,-138 93,-195 37,-57 91,-133 162,-227 69,-94 119,-168 149,-223 31,-54 46,-110 46,-167 0,-10 -1,-26 -4,-46l-137 0 0 -77 530 0 0 77 -104 0 235 1088 206 -1088 -82 0 0 -77 499 0 0 77 -120 0 248 1142 128 0 0 78 -497 0 0 -78 82 0 -210 -975 -181 975 98 0 0 78 -541 0 0 -78 96 0zm1707 -1142l-142 0 0 -77 576 0 0 77 -147 0 342 1142 128 0 0 78 -557 0 0 -78 141 0 -138 -480c-13,62 -34,127 -61,196 -28,69 -62,133 -101,192 -38,59 -82,106 -130,142 -47,36 -97,54 -148,54 -57,0 -106,-19 -146,-55 -41,-38 -61,-93 -61,-167 0,-174 104,-411 313,-712 70,-101 116,-186 137,-256 0,-11 -2,-30 -6,-56zm-244 835c1,36 13,66 35,89 22,23 45,35 70,35 47,0 91,-28 132,-83 41,-55 76,-120 103,-195 28,-75 45,-140 52,-195l-83 -295c-69,96 -128,190 -178,280 -14,26 -29,51 -42,74 -14,24 -28,52 -42,83 -14,32 -25,65 -34,100 -9,34 -13,70 -13,107zm2064 -540l-250 -2c-16,0 -24,-12 -24,-37 0,-113 -16,-189 -47,-229 -31,-40 -66,-60 -105,-60 -100,0 -151,83 -156,248 0,16 -1,35 -3,58 -1,22 -2,38 -2,48 0,56 7,101 23,134 14,34 35,58 60,75 25,15 57,26 93,33 37,7 67,12 91,15 95,15 171,40 226,77 55,37 93,78 113,122 21,44 31,88 31,132 0,52 -8,106 -25,161 -16,55 -50,103 -101,145 -51,42 -122,62 -215,62 -77,0 -151,-13 -222,-39 -16,-5 -38,-13 -66,-23 -28,-10 -50,-17 -67,-21 -16,-4 -30,-6 -43,-6 -55,0 -82,43 -82,128 0,15 1,29 3,42 2,14 3,23 3,27 0,7 -9,11 -26,11 -2,0 -13,0 -35,-1 -21,-1 -43,-1 -65,-1 -20,3 -40,9 -61,18 -21,9 -33,14 -38,14 -10,0 -19,-11 -28,-34 -8,-23 -12,-50 -12,-81 0,-45 9,-85 26,-120 18,-36 44,-64 78,-85 35,-20 76,-31 124,-31 59,0 154,23 284,69 43,16 76,24 98,24 96,0 144,-99 144,-297 0,-69 -17,-125 -52,-168 -35,-44 -99,-70 -193,-80 -66,-8 -115,-14 -146,-20 -31,-5 -66,-18 -106,-39 -40,-20 -73,-51 -100,-95 -27,-43 -40,-99 -40,-169 0,-90 23,-166 71,-228 47,-60 107,-105 181,-133 73,-28 148,-43 226,-43 72,0 137,11 194,33 58,22 106,51 145,86 39,36 69,75 90,118 20,43 31,84 31,123 0,26 -9,39 -25,39zm703 847l0 -1142 -80 0 -43 0c-35,0 -63,6 -83,16 -21,10 -41,35 -60,74 -19,39 -38,99 -59,181 -10,37 -18,62 -24,74 -5,13 -18,19 -37,19 -22,0 -36,-8 -42,-23 -7,-16 -10,-37 -12,-63 -1,-51 -13,-104 -33,-161 -5,-14 -15,-39 -32,-75 -16,-37 -24,-62 -24,-75 0,-18 7,-35 21,-49 14,-15 34,-22 61,-22 9,0 26,3 51,9 25,6 52,10 81,14 29,4 67,5 116,5 10,0 22,0 35,0 14,-1 25,-1 32,-1l550 0c8,0 19,0 33,1 13,0 25,0 34,0 49,0 88,-1 117,-5 29,-4 56,-8 81,-14 25,-6 42,-9 51,-9 26,0 47,7 60,22 14,14 21,31 21,49 0,14 -8,38 -23,72 -16,34 -26,60 -33,78 -21,58 -33,111 -35,161 0,57 -17,86 -52,86 -14,0 -26,-5 -33,-15 -8,-10 -14,-21 -17,-34 -4,-13 -13,-48 -27,-105 -18,-64 -37,-111 -57,-141 -20,-29 -43,-48 -69,-56 -25,-9 -60,-13 -102,-13l-80 0 0 1142 154 0 0 78 -595 0 0 -78 154 0zm1532 -571l69 0c-11,-36 -28,-63 -51,-82 -23,-19 -45,-29 -66,-29 -38,0 -77,8 -116,22 -38,15 -70,36 -94,63 13,84 29,154 47,212 19,65 33,117 41,154 9,38 13,87 13,146 0,33 -6,66 -19,98 17,9 40,13 69,13 107,0 187,-28 241,-84 54,-56 88,-121 103,-194l-92 0 0 -76 485 0 0 76 -68 2c-37,65 -84,125 -141,179 -57,54 -120,97 -189,128 -69,31 -140,47 -212,47 -49,0 -102,-3 -160,-8 -57,-6 -105,-15 -144,-27 3,-22 4,-38 4,-49 0,-44 -10,-84 -29,-122 -19,-37 -47,-78 -84,-122 -57,-70 -100,-127 -128,-173 -29,-45 -48,-86 -57,-123 -10,-37 -15,-79 -15,-129 0,-144 32,-260 97,-350 64,-90 144,-153 241,-190 96,-38 194,-57 296,-57 62,0 126,8 192,24 66,16 129,46 188,89 59,43 103,103 133,179l89 0 0 78 -460 0 0 -78 58 0c-9,-55 -33,-104 -72,-148 -39,-44 -97,-66 -172,-66 -62,0 -113,20 -153,60 -39,39 -68,90 -86,153 -18,62 -27,127 -27,194 0,32 2,62 6,92 89,-78 192,-117 309,-117 47,0 94,9 140,25 46,17 86,42 121,74 35,32 61,71 77,116l76 0 0 78 -460 0 0 -78zm741 -648l834 0c71,0 126,2 162,8 38,5 67,20 90,44 22,24 33,62 33,114 0,64 -18,125 -55,185 -37,60 -96,112 -178,157 -83,45 -189,77 -319,94l0 27c98,4 190,27 275,69 86,42 157,106 213,193 55,88 85,197 90,328l85 0 0 78 -478 0 0 -78 72 0 0 -39c0,-129 -18,-233 -55,-312 -36,-78 -83,-134 -141,-167 -57,-33 -120,-49 -187,-49l0 567 91 0 0 78 -532 0 0 -78 154 0 0 -1142 -154 0 0 -77zm441 515c51,-1 99,-11 142,-30 43,-18 81,-43 113,-74 31,-31 56,-66 72,-104 17,-38 25,-77 25,-117 0,-75 -47,-113 -140,-113l-212 0 0 438zm1872 -143l-251 -2c-15,0 -23,-12 -23,-37 0,-113 -16,-189 -47,-229 -31,-40 -66,-60 -105,-60 -100,0 -152,83 -156,248 -1,16 -2,35 -3,58 -2,22 -3,38 -3,48 0,56 8,101 23,134 15,34 36,58 61,75 25,15 56,26 93,33 37,7 67,12 90,15 96,15 171,40 226,77 55,37 93,78 114,122 21,44 31,88 31,132 0,52 -8,106 -25,161 -17,55 -51,103 -101,145 -51,42 -123,62 -215,62 -77,0 -151,-13 -222,-39 -16,-5 -38,-13 -66,-23 -28,-10 -51,-17 -67,-21 -16,-4 -30,-6 -43,-6 -55,0 -82,43 -82,128 0,15 1,29 3,42 2,14 3,23 3,27 0,7 -9,11 -26,11 -2,0 -14,0 -35,-1 -21,-1 -43,-1 -65,-1 -20,3 -40,9 -61,18 -21,9 -34,14 -38,14 -10,0 -19,-11 -28,-34 -8,-23 -12,-50 -12,-81 0,-45 8,-85 26,-120 18,-36 44,-64 78,-85 35,-20 76,-31 123,-31 60,0 155,23 284,69 44,16 77,24 99,24 96,0 144,-99 144,-297 0,-69 -17,-125 -52,-168 -35,-44 -99,-70 -193,-80 -67,-8 -115,-14 -146,-20 -31,-5 -66,-18 -106,-39 -40,-20 -74,-51 -101,-95 -26,-43 -40,-99 -40,-169 0,-90 24,-166 71,-228 48,-60 108,-105 182,-133 73,-28 148,-43 225,-43 73,0 138,11 195,33 58,22 106,51 145,86 39,36 69,75 89,118 21,43 31,84 31,123 0,26 -8,39 -24,39zm642 200l68 0 26 -52c12,-24 22,-47 29,-67 10,-20 17,-35 22,-44 5,-9 11,-21 17,-36 22,-43 45,-90 71,-141 25,-50 52,-95 80,-133 28,-38 60,-69 95,-91 36,-23 77,-35 123,-35 58,0 113,11 164,34 -24,60 -36,94 -39,104 -3,9 -5,29 -8,61 -4,31 -6,60 -6,88l-37 0c-22,-8 -41,-16 -59,-24 -30,-15 -63,-22 -100,-22 -36,0 -68,12 -96,37 -28,25 -56,61 -84,110 -28,48 -68,125 -122,231 99,23 185,55 259,95 73,41 134,105 182,190 48,86 73,200 76,342l111 0 0 78 -504 0 0 -78 72 0c2,-47 4,-80 4,-100 0,-69 -6,-130 -17,-182 -11,-52 -29,-98 -56,-139 -26,-40 -61,-74 -107,-101 -45,-27 -100,-48 -164,-60l0 582 114 0 0 78 -556 0 0 -78 154 0 0 -1142 -154 0 0 -77 569 0 0 77 -127 0 0 495zm1330 -495l-143 0 0 -77 577 0 0 77 -147 0 341 1142 128 0 0 78 -556 0 0 -78 141 0 -139 -480c-12,62 -33,127 -61,196 -28,69 -61,133 -100,192 -39,59 -82,106 -130,142 -48,36 -97,54 -148,54 -57,0 -106,-19 -147,-55 -40,-38 -61,-93 -61,-167 0,-174 105,-411 314,-712 70,-101 115,-186 137,-256 0,-11 -2,-30 -6,-56zm-245 835c2,36 14,66 36,89 22,23 45,35 70,35 47,0 91,-28 132,-83 41,-55 76,-120 103,-195 27,-75 45,-140 52,-195l-83 -295c-69,96 -129,190 -178,280 -15,26 -29,51 -42,74 -14,24 -28,52 -42,83 -14,32 -26,65 -34,100 -9,34 -14,70 -14,107zm1952 307l102 0 0 78 -493 0 0 -78 104 0 0 -593c-92,-22 -172,-56 -241,-102 -69,-46 -125,-106 -167,-180 -42,-74 -69,-163 -80,-267l-113 0 0 -77 527 0 0 77 -88 0c0,122 17,219 50,290 34,72 73,122 119,149 46,28 91,41 135,41 57,0 109,-17 157,-54 47,-36 84,-86 112,-149 27,-64 41,-135 41,-214 0,-19 -1,-40 -4,-63l-85 0 0 -77 526 0 0 77 -113 0c-33,298 -196,481 -489,549l0 593zm1163 -1142l-142 0 0 -77 576 0 0 77 -146 0 341 1142 128 0 0 78 -556 0 0 -78 140 0 -138 -480c-13,62 -33,127 -61,196 -28,69 -62,133 -101,192 -38,59 -82,106 -130,142 -47,36 -97,54 -148,54 -57,0 -106,-19 -146,-55 -41,-38 -61,-93 -61,-167 0,-174 104,-411 313,-712 70,-101 116,-186 137,-256 0,-11 -2,-30 -6,-56zm-244 835c2,36 13,66 35,89 22,23 45,35 70,35 47,0 91,-28 132,-83 42,-55 76,-120 103,-195 28,-75 46,-140 53,-195l-84 -295c-69,96 -128,190 -178,280 -14,26 -28,51 -42,74 -14,24 -27,52 -42,83 -14,32 -25,65 -34,100 -9,34 -13,70 -13,107zm-10434 2155l0 417 154 0 0 78 -595 0 0 -78 154 0 0 -678c0,-97 2,-191 5,-282 37,-89 96,-159 177,-209 81,-51 171,-77 270,-77 98,0 182,17 253,49 71,33 124,77 161,134 37,57 55,120 55,188 0,67 -14,128 -41,183 -27,55 -64,98 -112,130 -48,31 -102,47 -160,47 -30,0 -55,-4 -72,-11 -18,-6 -45,-19 -80,-37 -20,-10 -33,-17 -41,-21l-128 167zm0 -111l119 -150c11,9 24,16 37,22 14,6 24,9 31,9 29,0 57,-16 83,-48 25,-33 38,-94 38,-184 0,-89 -11,-159 -33,-211 -22,-52 -63,-78 -123,-78 -46,0 -79,16 -101,49 -22,32 -37,72 -42,119 -6,47 -9,106 -9,177l0 45 0 250zm1387 -43l68 0c-11,-36 -28,-63 -51,-82 -22,-19 -45,-29 -66,-29 -38,0 -77,8 -115,22 -39,15 -70,36 -94,63 13,84 29,155 46,212 20,65 34,117 42,154 8,38 12,87 12,146 0,34 -6,66 -18,98 17,9 40,13 68,13 107,0 187,-28 242,-84 53,-56 88,-121 103,-194l-93 0 0 -76 486 0 0 76 -69 2c-36,65 -83,125 -140,179 -57,54 -120,97 -190,128 -69,31 -139,47 -211,47 -50,0 -103,-3 -160,-8 -58,-6 -105,-15 -144,-27 2,-22 3,-38 3,-48 0,-45 -9,-85 -28,-122 -20,-38 -48,-79 -85,-123 -57,-70 -99,-127 -128,-172 -28,-46 -47,-87 -57,-124 -10,-36 -15,-79 -15,-129 0,-143 33,-260 97,-350 64,-90 145,-153 241,-190 96,-38 195,-57 296,-57 62,0 126,8 192,24 67,16 129,46 188,89 59,43 104,103 133,179l90 0 0 78 -460 0 0 -78 57 0c-9,-55 -33,-104 -72,-148 -39,-44 -96,-66 -172,-66 -62,0 -113,20 -152,60 -40,39 -68,90 -86,153 -18,62 -27,127 -27,194 0,32 2,62 5,92 90,-78 193,-117 310,-117 47,0 93,9 139,25 46,17 86,42 121,74 35,32 61,71 77,116l76 0 0 78 -459 0 0 -78zm1901 -188l-486 0 0 -78 80 0c0,-124 -20,-210 -58,-258 -39,-49 -86,-73 -143,-73 -38,0 -74,12 -107,36 -33,24 -61,66 -82,125 -22,59 -33,138 -33,238 0,73 5,143 16,209 10,67 27,149 51,247 27,108 40,197 40,269 0,8 0,17 -2,26 -1,10 -3,20 -6,29 -2,10 -5,17 -6,22 -2,6 -3,12 -4,16 -2,4 -3,7 -4,10 12,8 27,12 45,12 45,0 90,-22 136,-66 46,-44 84,-102 114,-172 30,-71 45,-144 45,-218 0,-20 -1,-35 -2,-45l-80 0 0 -78 486 0 0 78 -76 0c-4,77 -25,149 -63,216 -38,67 -88,126 -150,176 -61,50 -129,89 -202,116 -73,27 -144,41 -214,41 -52,0 -98,-8 -135,-22l0 -26c0,-33 -2,-61 -7,-84 -4,-25 -17,-55 -37,-93 -20,-37 -52,-85 -95,-143 -51,-65 -89,-122 -115,-172 -26,-49 -43,-92 -50,-129 -7,-36 -11,-77 -11,-121 0,-116 26,-218 77,-305 51,-87 120,-154 207,-200 86,-46 181,-70 283,-70 173,0 298,43 373,129 76,86 122,179 139,280l76 0 0 78zm891 -383l-105 0 0 -77 544 0 0 77 -152 0 0 1142 154 0 0 78 -543 0 0 -78 102 0 0 -439c0,-11 0,-18 -1,-21 0,-3 -1,-11 -1,-24 -1,-38 -8,-62 -22,-73 -14,-10 -39,-20 -74,-30 -37,-11 -76,-27 -118,-48 -43,-21 -79,-42 -109,-65l0 700 103 0 0 78 -545 0 0 -78 154 0 0 -1142 -154 0 0 -77 545 0 0 77 -103 0 0 330c53,52 105,90 155,114 49,24 106,38 170,42l0 -486zm1023 0l-142 0 0 -77 576 0 0 77 -146 0 341 1142 128 0 0 78 -556 0 0 -78 140 0 -138 -480c-13,62 -33,127 -61,196 -28,69 -62,133 -100,192 -39,59 -83,106 -131,142 -47,36 -97,54 -147,54 -58,0 -107,-19 -147,-55 -41,-37 -61,-93 -61,-167 0,-174 104,-411 313,-712 70,-101 116,-186 137,-256 0,-11 -2,-30 -6,-56zm-244 835c2,36 13,66 35,89 22,23 45,35 70,35 47,0 91,-28 132,-83 42,-55 76,-120 103,-195 28,-75 46,-140 53,-195l-84 -295c-69,96 -128,190 -178,280 -14,26 -28,51 -42,74 -14,24 -27,52 -42,83 -14,32 -25,65 -34,100 -9,34 -13,70 -13,107zm1588 307l0 -1142 -80 0 -43 0c-34,0 -62,6 -83,16 -21,10 -40,35 -59,74 -19,39 -39,99 -59,181 -10,37 -18,62 -24,75 -6,12 -18,18 -37,18 -22,0 -36,-8 -43,-23 -6,-16 -10,-37 -11,-63 -2,-51 -13,-104 -34,-161 -4,-14 -15,-39 -31,-75 -16,-37 -24,-62 -24,-75 0,-18 7,-34 21,-49 13,-15 34,-22 61,-22 8,0 25,3 50,9 26,6 53,11 81,14 29,4 68,5 116,5 10,0 22,0 36,0 13,-1 24,-1 32,-1l550 0c8,0 19,0 32,1 14,0 25,0 35,0 48,0 87,-1 116,-5 29,-3 56,-8 82,-14 25,-6 42,-9 50,-9 27,0 47,7 61,22 13,14 21,31 21,49 0,14 -8,38 -24,72 -15,34 -26,60 -32,78 -22,58 -33,111 -36,161 0,57 -17,86 -51,86 -15,0 -26,-5 -34,-15 -8,-10 -13,-21 -17,-34 -4,-13 -12,-48 -27,-105 -17,-64 -36,-111 -57,-141 -20,-29 -42,-48 -68,-56 -25,-8 -60,-13 -103,-13l-80 0 0 1142 154 0 0 78 -595 0 0 -78 154 0zm1102 0l0 -1142 -153 0 0 -77 594 0 0 77 -154 0 0 1142 154 0 0 78 -594 0 0 -78 153 0z"/>
    <path id="1" class="fil1" d="M831 8805l-202 -942c-47,73 -86,142 -117,206 -31,65 -55,128 -71,192 -15,64 -23,129 -23,196 0,40 4,96 12,170 8,73 13,119 14,137l0 93c-2,19 -11,32 -26,39 -11,5 -25,7 -41,7 -15,0 -37,-2 -67,-7 -11,-1 -27,-2 -48,-2 -26,0 -46,1 -60,2 -20,2 -33,4 -39,4 -22,0 -39,-9 -49,-27 -10,-18 -15,-53 -15,-107 0,-91 12,-173 36,-245 25,-73 56,-138 93,-195 37,-57 91,-133 162,-227 69,-94 119,-168 149,-223 31,-54 46,-110 46,-167 0,-10 -1,-26 -4,-46l-137 0 0 -77 530 0 0 77 -104 0 235 1088 206 -1088 -82 0 0 -77 499 0 0 77 -120 0 248 1142 128 0 0 78 -497 0 0 -78 82 0 -210 -975 -181 975 98 0 0 78 -541 0 0 -78 96 0zm1707 -1142l-142 0 0 -77 576 0 0 77 -147 0 342 1142 128 0 0 78 -557 0 0 -78 141 0 -138 -480c-13,62 -34,127 -61,196 -28,69 -62,133 -101,192 -38,59 -82,106 -130,142 -47,36 -97,54 -148,54 -57,0 -106,-19 -146,-55 -41,-38 -61,-93 -61,-167 0,-174 104,-411 313,-712 70,-101 116,-186 137,-256 0,-11 -2,-30 -6,-56zm-244 835c1,36 13,66 35,89 22,23 45,35 70,35 47,0 91,-28 132,-83 41,-55 76,-120 103,-195 28,-75 45,-140 52,-195l-83 -295c-69,96 -128,190 -178,280 -14,26 -29,51 -42,74 -14,24 -28,52 -42,83 -14,32 -25,65 -34,100 -9,34 -13,70 -13,107zm2064 -540l-250 -2c-16,0 -24,-12 -24,-37 0,-113 -16,-189 -47,-229 -31,-40 -66,-60 -105,-60 -100,0 -151,83 -156,248 0,16 -1,35 -3,58 -1,22 -2,38 -2,48 0,56 7,101 23,134 14,34 35,58 60,75 25,15 57,26 93,33 37,7 67,12 91,15 95,15 171,40 226,77 55,37 93,78 113,122 21,44 31,88 31,132 0,52 -8,106 -25,161 -16,55 -50,103 -101,145 -51,42 -122,62 -215,62 -77,0 -151,-13 -222,-39 -16,-5 -38,-13 -66,-23 -28,-10 -50,-17 -67,-21 -16,-4 -30,-6 -43,-6 -55,0 -82,43 -82,128 0,15 1,29 3,42 2,14 3,23 3,27 0,7 -9,11 -26,11 -2,0 -13,0 -35,-1 -21,-1 -43,-1 -65,-1 -20,3 -40,9 -61,18 -21,9 -33,14 -38,14 -10,0 -19,-11 -28,-34 -8,-23 -12,-50 -12,-81 0,-45 9,-85 26,-120 18,-36 44,-64 78,-85 35,-20 76,-31 124,-31 59,0 154,23 284,69 43,16 76,24 98,24 96,0 144,-99 144,-297 0,-69 -17,-125 -52,-168 -35,-44 -99,-70 -193,-80 -66,-8 -115,-14 -146,-20 -31,-5 -66,-18 -106,-39 -40,-20 -73,-51 -100,-95 -27,-43 -40,-99 -40,-169 0,-90 23,-166 71,-228 47,-60 107,-105 181,-133 73,-28 148,-43 226,-43 72,0 137,11 194,33 58,22 106,51 145,86 39,36 69,75 90,118 20,43 31,84 31,123 0,26 -9,39 -25,39zm703 847l0 -1142 -80 0 -43 0c-35,0 -63,6 -83,16 -21,10 -41,35 -60,74 -19,39 -38,99 -59,181 -10,37 -18,62 -24,74 -5,13 -18,19 -37,19 -22,0 -36,-8 -42,-23 -7,-16 -10,-37 -12,-63 -1,-51 -13,-104 -33,-161 -5,-14 -15,-39 -32,-75 -16,-37 -24,-62 -24,-75 0,-18 7,-35 21,-49 14,-15 34,-22 61,-22 9,0 26,3 51,9 25,6 52,10 81,14 29,4 67,5 116,5 10,0 22,0 35,0 14,-1 25,-1 32,-1l550 0c8,0 19,0 33,1 13,0 25,0 34,0 49,0 88,-1 117,-5 29,-4 56,-8 81,-14 25,-6 42,-9 51,-9 26,0 47,7 60,22 14,14 21,31 21,49 0,14 -8,38 -23,72 -16,34 -26,60 -33,78 -21,58 -33,111 -35,161 0,57 -17,86 -52,86 -14,0 -26,-5 -33,-15 -8,-10 -14,-21 -17,-34 -4,-13 -13,-48 -27,-105 -18,-64 -37,-111 -57,-141 -20,-29 -43,-48 -69,-56 -25,-9 -60,-13 -102,-13l-80 0 0 1142 154 0 0 78 -595 0 0 -78 154 0zm1532 -571l69 0c-11,-36 -28,-63 -51,-82 -23,-19 -45,-29 -66,-29 -38,0 -77,8 -116,22 -38,15 -70,36 -94,63 13,84 29,154 47,212 19,65 33,117 41,154 9,38 13,87 13,146 0,33 -6,66 -19,98 17,9 40,13 69,13 107,0 187,-28 241,-84 54,-56 88,-121 103,-194l-92 0 0 -76 485 0 0 76 -68 2c-37,65 -84,125 -141,179 -57,54 -120,97 -189,128 -69,31 -140,47 -212,47 -49,0 -102,-3 -160,-8 -57,-6 -105,-15 -144,-27 3,-22 4,-38 4,-49 0,-44 -10,-84 -29,-122 -19,-37 -47,-78 -84,-122 -57,-70 -100,-127 -128,-173 -29,-45 -48,-86 -57,-123 -10,-37 -15,-79 -15,-129 0,-144 32,-260 97,-350 64,-90 144,-153 241,-190 96,-38 194,-57 296,-57 62,0 126,8 192,24 66,16 129,46 188,89 59,43 103,103 133,179l89 0 0 78 -460 0 0 -78 58 0c-9,-55 -33,-104 -72,-148 -39,-44 -97,-66 -172,-66 -62,0 -113,20 -153,60 -39,39 -68,90 -86,153 -18,62 -27,127 -27,194 0,32 2,62 6,92 89,-78 192,-117 309,-117 47,0 94,9 140,25 46,17 86,42 121,74 35,32 61,71 77,116l76 0 0 78 -460 0 0 -78zm741 -648l834 0c71,0 126,2 162,8 38,5 67,20 90,44 22,24 33,62 33,114 0,64 -18,125 -55,185 -37,60 -96,112 -178,157 -83,45 -189,77 -319,94l0 27c98,4 190,27 275,69 86,42 157,106 213,193 55,88 85,197 90,328l85 0 0 78 -478 0 0 -78 72 0 0 -39c0,-129 -18,-233 -55,-312 -36,-78 -83,-134 -141,-167 -57,-33 -120,-49 -187,-49l0 567 91 0 0 78 -532 0 0 -78 154 0 0 -1142 -154 0 0 -77zm441 515c51,-1 99,-11 142,-30 43,-18 81,-43 113,-74 31,-31 56,-66 72,-104 17,-38 25,-77 25,-117 0,-75 -47,-113 -140,-113l-212 0 0 438zm1872 -143l-251 -2c-15,0 -23,-12 -23,-37 0,-113 -16,-189 -47,-229 -31,-40 -66,-60 -105,-60 -100,0 -152,83 -156,248 -1,16 -2,35 -3,58 -2,22 -3,38 -3,48 0,56 8,101 23,134 15,34 36,58 61,75 25,15 56,26 93,33 37,7 67,12 90,15 96,15 171,40 226,77 55,37 93,78 114,122 21,44 31,88 31,132 0,52 -8,106 -25,161 -17,55 -51,103 -101,145 -51,42 -123,62 -215,62 -77,0 -151,-13 -222,-39 -16,-5 -38,-13 -66,-23 -28,-10 -51,-17 -67,-21 -16,-4 -30,-6 -43,-6 -55,0 -82,43 -82,128 0,15 1,29 3,42 2,14 3,23 3,27 0,7 -9,11 -26,11 -2,0 -14,0 -35,-1 -21,-1 -43,-1 -65,-1 -20,3 -40,9 -61,18 -21,9 -34,14 -38,14 -10,0 -19,-11 -28,-34 -8,-23 -12,-50 -12,-81 0,-45 8,-85 26,-120 18,-36 44,-64 78,-85 35,-20 76,-31 123,-31 60,0 155,23 284,69 44,16 77,24 99,24 96,0 144,-99 144,-297 0,-69 -17,-125 -52,-168 -35,-44 -99,-70 -193,-80 -67,-8 -115,-14 -146,-20 -31,-5 -66,-18 -106,-39 -40,-20 -74,-51 -101,-95 -26,-43 -40,-99 -40,-169 0,-90 24,-166 71,-228 48,-60 108,-105 182,-133 73,-28 148,-43 225,-43 73,0 138,11 195,33 58,22 106,51 145,86 39,36 69,75 89,118 21,43 31,84 31,123 0,26 -8,39 -24,39zm642 200l68 0 26 -52c12,-24 22,-47 29,-67 10,-20 17,-35 22,-44 5,-9 11,-21 17,-36 22,-43 45,-90 71,-141 25,-50 52,-95 80,-133 28,-38 60,-69 95,-91 36,-23 77,-35 123,-35 58,0 113,11 164,34 -24,60 -36,94 -39,104 -3,9 -5,29 -8,61 -4,31 -6,60 -6,88l-37 0c-22,-8 -41,-16 -59,-24 -30,-15 -63,-22 -100,-22 -36,0 -68,12 -96,37 -28,25 -56,61 -84,110 -28,48 -68,125 -122,231 99,23 185,55 259,95 73,41 134,105 182,190 48,86 73,200 76,342l111 0 0 78 -504 0 0 -78 72 0c2,-47 4,-80 4,-100 0,-69 -6,-130 -17,-182 -11,-52 -29,-98 -56,-139 -26,-40 -61,-74 -107,-101 -45,-27 -100,-48 -164,-60l0 582 114 0 0 78 -556 0 0 -78 154 0 0 -1142 -154 0 0 -77 569 0 0 77 -127 0 0 495zm1330 -495l-143 0 0 -77 577 0 0 77 -147 0 341 1142 128 0 0 78 -556 0 0 -78 141 0 -139 -480c-12,62 -33,127 -61,196 -28,69 -61,133 -100,192 -39,59 -82,106 -130,142 -48,36 -97,54 -148,54 -57,0 -106,-19 -147,-55 -40,-38 -61,-93 -61,-167 0,-174 105,-411 314,-712 70,-101 115,-186 137,-256 0,-11 -2,-30 -6,-56zm-245 835c2,36 14,66 36,89 22,23 45,35 70,35 47,0 91,-28 132,-83 41,-55 76,-120 103,-195 27,-75 45,-140 52,-195l-83 -295c-69,96 -129,190 -178,280 -15,26 -29,51 -42,74 -14,24 -28,52 -42,83 -14,32 -26,65 -34,100 -9,34 -14,70 -14,107zm1952 307l102 0 0 78 -493 0 0 -78 104 0 0 -593c-92,-22 -172,-56 -241,-102 -69,-46 -125,-106 -167,-180 -42,-74 -69,-163 -80,-267l-113 0 0 -77 527 0 0 77 -88 0c0,122 17,219 50,290 34,72 73,122 119,149 46,28 91,41 135,41 57,0 109,-17 157,-54 47,-36 84,-86 112,-149 27,-64 41,-135 41,-214 0,-19 -1,-40 -4,-63l-85 0 0 -77 526 0 0 77 -113 0c-33,298 -196,481 -489,549l0 593zm1163 -1142l-142 0 0 -77 576 0 0 77 -146 0 341 1142 128 0 0 78 -556 0 0 -78 140 0 -138 -480c-13,62 -33,127 -61,196 -28,69 -62,133 -101,192 -38,59 -82,106 -130,142 -47,36 -97,54 -148,54 -57,0 -106,-19 -146,-55 -41,-38 -61,-93 -61,-167 0,-174 104,-411 313,-712 70,-101 116,-186 137,-256 0,-11 -2,-30 -6,-56zm-244 835c2,36 13,66 35,89 22,23 45,35 70,35 47,0 91,-28 132,-83 42,-55 76,-120 103,-195 28,-75 46,-140 53,-195l-84 -295c-69,96 -128,190 -178,280 -14,26 -28,51 -42,74 -14,24 -27,52 -42,83 -14,32 -25,65 -34,100 -9,34 -13,70 -13,107zm-10434 2155l0 417 154 0 0 78 -595 0 0 -78 154 0 0 -678c0,-97 2,-191 5,-282 37,-89 96,-159 177,-209 81,-51 171,-77 270,-77 98,0 182,17 253,49 71,33 124,77 161,134 37,57 55,120 55,188 0,67 -14,128 -41,183 -27,55 -64,98 -112,130 -48,31 -102,47 -160,47 -30,0 -55,-4 -72,-11 -18,-6 -45,-19 -80,-37 -20,-10 -33,-17 -41,-21l-128 167zm0 -111l119 -150c11,9 24,16 37,22 14,6 24,9 31,9 29,0 57,-16 83,-48 25,-33 38,-94 38,-184 0,-89 -11,-159 -33,-211 -22,-52 -63,-78 -123,-78 -46,0 -79,16 -101,49 -22,32 -37,72 -42,119 -6,47 -9,106 -9,177l0 45 0 250zm1387 -43l68 0c-11,-36 -28,-63 -51,-82 -22,-19 -45,-29 -66,-29 -38,0 -77,8 -115,22 -39,15 -70,36 -94,63 13,84 29,155 46,212 20,65 34,117 42,154 8,38 12,87 12,146 0,34 -6,66 -18,98 17,9 40,13 68,13 107,0 187,-28 242,-84 53,-56 88,-121 103,-194l-93 0 0 -76 486 0 0 76 -69 2c-36,65 -83,125 -140,179 -57,54 -120,97 -190,128 -69,31 -139,47 -211,47 -50,0 -103,-3 -160,-8 -58,-6 -105,-15 -144,-27 2,-22 3,-38 3,-48 0,-45 -9,-85 -28,-122 -20,-38 -48,-79 -85,-123 -57,-70 -99,-127 -128,-172 -28,-46 -47,-87 -57,-124 -10,-36 -15,-79 -15,-129 0,-143 33,-260 97,-350 64,-90 145,-153 241,-190 96,-38 195,-57 296,-57 62,0 126,8 192,24 67,16 129,46 188,89 59,43 104,103 133,179l90 0 0 78 -460 0 0 -78 57 0c-9,-55 -33,-104 -72,-148 -39,-44 -96,-66 -172,-66 -62,0 -113,20 -152,60 -40,39 -68,90 -86,153 -18,62 -27,127 -27,194 0,32 2,62 5,92 90,-78 193,-117 310,-117 47,0 93,9 139,25 46,17 86,42 121,74 35,32 61,71 77,116l76 0 0 78 -459 0 0 -78zm1901 -188l-486 0 0 -78 80 0c0,-124 -20,-210 -58,-258 -39,-49 -86,-73 -143,-73 -38,0 -74,12 -107,36 -33,24 -61,66 -82,125 -22,59 -33,138 -33,238 0,73 5,143 16,209 10,67 27,149 51,247 27,108 40,197 40,269 0,8 0,17 -2,26 -1,10 -3,20 -6,29 -2,10 -5,17 -6,22 -2,6 -3,12 -4,16 -2,4 -3,7 -4,10 12,8 27,12 45,12 45,0 90,-22 136,-66 46,-44 84,-102 114,-172 30,-71 45,-144 45,-218 0,-20 -1,-35 -2,-45l-80 0 0 -78 486 0 0 78 -76 0c-4,77 -25,149 -63,216 -38,67 -88,126 -150,176 -61,50 -129,89 -202,116 -73,27 -144,41 -214,41 -52,0 -98,-8 -135,-22l0 -26c0,-33 -2,-61 -7,-84 -4,-25 -17,-55 -37,-93 -20,-37 -52,-85 -95,-143 -51,-65 -89,-122 -115,-172 -26,-49 -43,-92 -50,-129 -7,-36 -11,-77 -11,-121 0,-116 26,-218 77,-305 51,-87 120,-154 207,-200 86,-46 181,-70 283,-70 173,0 298,43 373,129 76,86 122,179 139,280l76 0 0 78zm891 -383l-105 0 0 -77 544 0 0 77 -152 0 0 1142 154 0 0 78 -543 0 0 -78 102 0 0 -439c0,-11 0,-18 -1,-21 0,-3 -1,-11 -1,-24 -1,-38 -8,-62 -22,-73 -14,-10 -39,-20 -74,-30 -37,-11 -76,-27 -118,-48 -43,-21 -79,-42 -109,-65l0 700 103 0 0 78 -545 0 0 -78 154 0 0 -1142 -154 0 0 -77 545 0 0 77 -103 0 0 330c53,52 105,90 155,114 49,24 106,38 170,42l0 -486zm1023 0l-142 0 0 -77 576 0 0 77 -146 0 341 1142 128 0 0 78 -556 0 0 -78 140 0 -138 -480c-13,62 -33,127 -61,196 -28,69 -62,133 -100,192 -39,59 -83,106 -131,142 -47,36 -97,54 -147,54 -58,0 -107,-19 -147,-55 -41,-37 -61,-93 -61,-167 0,-174 104,-411 313,-712 70,-101 116,-186 137,-256 0,-11 -2,-30 -6,-56zm-244 835c2,36 13,66 35,89 22,23 45,35 70,35 47,0 91,-28 132,-83 42,-55 76,-120 103,-195 28,-75 46,-140 53,-195l-84 -295c-69,96 -128,190 -178,280 -14,26 -28,51 -42,74 -14,24 -27,52 -42,83 -14,32 -25,65 -34,100 -9,34 -13,70 -13,107zm1588 307l0 -1142 -80 0 -43 0c-34,0 -62,6 -83,16 -21,10 -40,35 -59,74 -19,39 -39,99 -59,181 -10,37 -18,62 -24,75 -6,12 -18,18 -37,18 -22,0 -36,-8 -43,-23 -6,-16 -10,-37 -11,-63 -2,-51 -13,-104 -34,-161 -4,-14 -15,-39 -31,-75 -16,-37 -24,-62 -24,-75 0,-18 7,-34 21,-49 13,-15 34,-22 61,-22 8,0 25,3 50,9 26,6 53,11 81,14 29,4 68,5 116,5 10,0 22,0 36,0 13,-1 24,-1 32,-1l550 0c8,0 19,0 32,1 14,0 25,0 35,0 48,0 87,-1 116,-5 29,-3 56,-8 82,-14 25,-6 42,-9 50,-9 27,0 47,7 61,22 13,14 21,31 21,49 0,14 -8,38 -24,72 -15,34 -26,60 -32,78 -22,58 -33,111 -36,161 0,57 -17,86 -51,86 -15,0 -26,-5 -34,-15 -8,-10 -13,-21 -17,-34 -4,-13 -12,-48 -27,-105 -17,-64 -36,-111 -57,-141 -20,-29 -42,-48 -68,-56 -25,-8 -60,-13 -103,-13l-80 0 0 1142 154 0 0 78 -595 0 0 -78 154 0zm1102 0l0 -1142 -153 0 0 -77 594 0 0 77 -154 0 0 1142 154 0 0 78 -594 0 0 -78 153 0z"/>
   </g>
   <g>
    <path class="fil0 str1" d="M752 8734l-202 -942c-47,73 -86,142 -117,206 -31,64 -55,128 -71,192 -15,64 -23,129 -23,195 0,40 4,97 12,171 8,73 13,119 14,137l0 93c-2,19 -11,32 -26,39 -11,5 -25,7 -41,7 -15,0 -37,-2 -67,-7 -11,-1 -27,-2 -48,-2 -26,0 -46,1 -60,2 -20,2 -33,3 -39,3 -22,0 -39,-9 -49,-26 -10,-18 -15,-54 -15,-107 0,-91 12,-173 36,-245 25,-73 56,-138 93,-195 37,-57 91,-133 162,-228 69,-93 119,-168 149,-222 31,-55 46,-110 46,-167 0,-11 -1,-26 -4,-46l-137 0 0 -78 530 0 0 78 -104 0 235 1088 206 -1088 -82 0 0 -78 499 0 0 78 -120 0 248 1142 128 0 0 78 -497 0 0 -78 82 0 -210 -975 -181 975 98 0 0 78 -541 0 0 -78 96 0zm1707 -1142l-143 0 0 -78 577 0 0 78 -147 0 341 1142 129 0 0 78 -557 0 0 -78 141 0 -138 -480c-13,61 -34,127 -61,196 -28,69 -62,133 -101,192 -38,58 -82,106 -130,142 -47,36 -97,54 -148,54 -57,0 -106,-19 -146,-56 -41,-37 -61,-92 -61,-166 0,-174 104,-412 313,-712 70,-101 116,-186 137,-256 0,-11 -2,-30 -6,-56zm-244 834c1,37 13,66 35,89 22,24 45,35 70,35 47,0 91,-27 132,-82 41,-56 76,-121 103,-195 28,-75 45,-140 52,-195l-83 -295c-69,96 -128,189 -178,280 -14,26 -29,51 -42,74 -14,24 -28,51 -42,83 -14,32 -26,65 -34,100 -9,34 -13,69 -13,106zm2064 -539l-250 -2c-16,0 -24,-12 -24,-37 0,-113 -16,-189 -47,-229 -31,-40 -66,-60 -105,-60 -100,0 -151,83 -156,248 0,16 -1,35 -3,58 -1,22 -2,38 -2,48 0,56 7,101 22,134 15,34 36,58 61,74 25,16 57,27 93,34 37,6 67,12 91,15 95,14 171,40 226,77 55,37 93,78 113,122 21,44 31,88 31,131 0,53 -8,107 -25,162 -17,55 -50,103 -101,145 -51,41 -122,62 -215,62 -77,0 -151,-13 -222,-39 -16,-5 -38,-13 -66,-23 -28,-10 -50,-17 -67,-21 -16,-4 -30,-6 -43,-6 -55,0 -82,42 -82,128 0,15 1,28 3,42 2,14 3,23 3,27 0,7 -9,11 -26,11 -2,0 -14,-1 -35,-1 -21,-1 -43,-1 -65,-1 -20,3 -40,9 -61,18 -21,9 -34,13 -38,13 -10,0 -19,-11 -28,-34 -8,-22 -12,-49 -12,-80 0,-45 9,-85 26,-120 18,-36 44,-64 78,-85 35,-21 76,-31 124,-31 59,0 154,23 284,69 43,16 76,24 98,24 96,0 144,-99 144,-297 0,-69 -17,-125 -52,-168 -35,-44 -99,-71 -193,-80 -66,-8 -115,-15 -146,-20 -31,-6 -66,-19 -106,-39 -40,-20 -73,-52 -100,-95 -27,-43 -41,-100 -41,-169 0,-91 24,-167 72,-228 47,-61 107,-105 181,-134 73,-28 148,-42 226,-42 72,0 137,11 194,33 58,22 106,51 145,86 39,36 69,75 90,118 20,43 31,84 31,123 0,26 -9,39 -25,39zm703 847l0 -1142 -80 0 -43 0c-35,0 -63,5 -83,16 -21,10 -41,35 -60,73 -19,39 -38,100 -59,182 -10,37 -18,62 -24,74 -5,13 -18,18 -37,18 -22,0 -36,-7 -42,-22 -7,-16 -10,-37 -12,-63 -2,-51 -13,-105 -33,-161 -5,-14 -15,-40 -32,-76 -16,-36 -24,-61 -24,-74 0,-18 7,-35 21,-49 14,-15 34,-22 61,-22 9,0 26,3 51,9 25,5 52,10 81,14 29,3 67,5 116,5 10,0 22,0 35,-1 14,0 25,-1 32,-1l550 0c8,0 19,1 33,1 13,1 25,1 34,1 49,0 88,-2 117,-5 29,-4 56,-9 81,-14 25,-6 42,-9 50,-9 27,0 48,7 61,22 14,14 21,30 21,49 0,14 -8,38 -23,72 -16,34 -26,60 -33,78 -21,57 -33,111 -35,161 0,57 -17,85 -52,85 -15,0 -26,-4 -33,-14 -8,-10 -14,-21 -17,-35 -4,-13 -13,-48 -28,-104 -17,-64 -36,-111 -56,-141 -20,-30 -43,-48 -69,-56 -25,-9 -60,-13 -102,-13l-80 0 0 1142 154 0 0 78 -595 0 0 -78 154 0zm1532 -571l69 0c-11,-36 -28,-63 -51,-82 -23,-19 -45,-29 -66,-29 -39,0 -77,8 -116,22 -38,15 -70,36 -94,63 13,84 29,154 47,211 19,66 33,117 41,155 9,37 13,86 13,146 0,33 -6,66 -19,98 17,8 40,13 68,13 108,0 188,-28 242,-85 54,-55 88,-120 103,-193l-92 0 0 -76 485 0 0 76 -68 2c-37,65 -84,124 -141,179 -57,54 -120,97 -189,128 -69,31 -140,47 -212,47 -49,0 -103,-3 -160,-9 -57,-5 -105,-14 -144,-26 3,-23 4,-39 4,-49 0,-44 -10,-85 -29,-122 -19,-37 -47,-78 -84,-122 -57,-70 -100,-128 -128,-173 -29,-45 -48,-86 -57,-123 -10,-37 -15,-80 -15,-129 0,-144 32,-261 97,-350 64,-90 144,-153 241,-191 96,-37 194,-56 296,-56 62,0 126,8 192,24 66,16 129,46 188,89 59,43 103,103 133,179l89 0 0 78 -460 0 0 -78 58 0c-9,-55 -33,-105 -72,-148 -39,-44 -97,-66 -172,-66 -63,0 -113,20 -153,60 -39,39 -68,90 -86,152 -18,63 -27,127 -27,194 0,33 2,63 6,93 89,-78 192,-117 309,-117 47,0 94,8 140,25 46,17 86,41 121,74 35,32 61,71 77,116l76 0 0 78 -460 0 0 -78zm741 -649l834 0c71,0 126,3 162,9 38,5 67,20 90,44 22,24 33,62 33,114 0,63 -18,125 -55,185 -37,60 -96,112 -178,157 -83,45 -189,76 -319,94l0 27c98,4 190,27 275,69 86,41 157,106 213,193 55,88 85,197 90,328l85 0 0 78 -478 0 0 -78 72 0 0 -39c0,-129 -18,-233 -55,-312 -36,-79 -83,-134 -141,-167 -58,-33 -120,-50 -187,-50l0 568 91 0 0 78 -532 0 0 -78 154 0 0 -1142 -154 0 0 -78zm441 515c51,-1 99,-10 142,-29 43,-19 81,-43 113,-75 31,-30 56,-65 72,-103 17,-38 25,-77 25,-117 0,-75 -47,-113 -140,-113l-212 0 0 437zm1872 -142l-251 -2c-15,0 -23,-12 -23,-37 0,-113 -16,-189 -47,-229 -32,-40 -66,-60 -105,-60 -100,0 -152,83 -156,248 -1,16 -2,35 -3,58 -2,22 -3,38 -3,48 0,56 8,101 23,134 15,34 36,58 61,74 25,16 56,27 93,34 37,6 67,12 90,15 96,14 171,40 226,77 55,37 93,78 114,122 21,44 31,88 31,131 0,53 -8,107 -25,162 -17,55 -51,103 -101,145 -51,41 -123,62 -215,62 -77,0 -151,-13 -222,-39 -16,-5 -38,-13 -66,-23 -28,-10 -51,-17 -67,-21 -16,-4 -31,-6 -43,-6 -55,0 -82,42 -82,128 0,15 1,28 3,42 2,14 3,23 3,27 0,7 -9,11 -26,11 -2,0 -14,-1 -35,-1 -21,-1 -43,-1 -66,-1 -19,3 -39,9 -60,18 -21,9 -34,13 -38,13 -10,0 -20,-11 -28,-34 -8,-22 -13,-49 -13,-80 0,-45 9,-85 27,-120 18,-36 44,-64 78,-85 35,-21 76,-31 123,-31 60,0 155,23 284,69 44,16 77,24 99,24 96,0 144,-99 144,-297 0,-69 -17,-125 -52,-168 -35,-44 -99,-71 -193,-80 -67,-8 -115,-15 -146,-20 -31,-6 -66,-19 -106,-39 -40,-20 -74,-52 -101,-95 -26,-43 -40,-100 -40,-169 0,-91 24,-167 71,-228 48,-61 108,-105 182,-134 73,-28 148,-42 225,-42 73,0 138,11 195,33 58,22 106,51 145,86 39,36 69,75 89,118 21,43 31,84 31,123 0,26 -8,39 -24,39zm642 199l68 0 26 -51c12,-24 22,-47 29,-67 10,-20 17,-35 22,-44 5,-9 11,-21 17,-36 22,-43 45,-90 71,-141 25,-50 52,-95 80,-133 28,-38 60,-69 95,-92 36,-22 77,-34 123,-34 58,0 113,11 164,33 -24,60 -36,95 -39,105 -3,9 -5,29 -8,60 -4,31 -6,61 -6,89l-37 0c-22,-8 -41,-16 -59,-24 -30,-15 -63,-22 -100,-22 -36,0 -68,12 -96,37 -28,24 -56,61 -84,110 -28,48 -69,125 -122,231 99,23 185,54 259,95 73,41 134,104 182,190 48,86 73,200 76,342l111 0 0 78 -504 0 0 -78 72 0c2,-47 4,-80 4,-100 0,-69 -6,-130 -17,-182 -11,-52 -29,-99 -56,-139 -26,-41 -61,-75 -107,-101 -45,-28 -100,-48 -164,-60l0 582 114 0 0 78 -556 0 0 -78 154 0 0 -1142 -154 0 0 -78 569 0 0 78 -127 0 0 494zm1330 -494l-143 0 0 -78 577 0 0 78 -147 0 341 1142 128 0 0 78 -556 0 0 -78 141 0 -139 -480c-12,61 -33,127 -61,196 -28,69 -61,133 -100,192 -39,58 -82,106 -130,142 -48,36 -97,54 -148,54 -57,0 -106,-19 -147,-56 -40,-37 -61,-92 -61,-166 0,-174 105,-412 314,-712 70,-101 115,-186 137,-256 0,-11 -2,-30 -6,-56zm-245 834c2,37 14,66 36,89 22,24 45,35 70,35 47,0 91,-27 132,-82 41,-56 76,-121 103,-195 27,-75 45,-140 52,-195l-83 -295c-69,96 -129,189 -178,280 -15,26 -29,51 -42,74 -14,24 -28,51 -42,83 -14,32 -26,65 -34,100 -9,34 -14,69 -14,106zm1952 308l102 0 0 78 -493 0 0 -78 104 0 0 -594c-92,-21 -173,-55 -241,-101 -69,-46 -125,-106 -167,-180 -42,-74 -69,-163 -80,-267l-113 0 0 -78 527 0 0 78 -88 0c0,122 17,218 50,290 34,72 73,121 119,149 46,28 91,41 135,41 57,0 109,-18 157,-54 47,-36 84,-86 112,-150 27,-63 41,-134 41,-213 0,-20 -1,-41 -4,-63l-85 0 0 -78 526 0 0 78 -113 0c-33,298 -196,481 -489,548l0 594zm1163 -1142l-142 0 0 -78 576 0 0 78 -146 0 341 1142 128 0 0 78 -556 0 0 -78 140 0 -138 -480c-13,61 -33,127 -61,196 -28,69 -62,133 -101,192 -38,58 -82,106 -130,142 -47,36 -97,54 -148,54 -57,0 -106,-19 -146,-56 -41,-37 -61,-92 -61,-166 0,-174 104,-412 313,-712 70,-101 116,-186 137,-256 0,-11 -2,-30 -6,-56zm-244 834c2,37 13,66 35,89 22,24 45,35 70,35 47,0 91,-27 132,-82 42,-56 76,-121 103,-195 28,-75 46,-140 53,-195l-84 -295c-69,96 -128,189 -178,280 -14,26 -28,51 -42,74 -14,24 -27,51 -42,83 -14,32 -25,65 -34,100 -9,34 -13,69 -13,106zm-10434 2156l0 417 154 0 0 78 -595 0 0 -78 154 0 0 -678c0,-97 2,-191 5,-282 37,-89 96,-159 177,-210 81,-51 171,-76 270,-76 98,0 182,17 253,49 71,33 124,77 161,134 37,57 55,120 55,188 0,67 -14,128 -41,183 -27,55 -64,98 -112,129 -48,32 -102,47 -160,47 -31,0 -55,-3 -73,-10 -17,-6 -44,-19 -80,-37 -19,-10 -32,-17 -40,-21l-128 167zm0 -111l119 -150c11,9 24,16 37,22 14,6 24,9 31,9 29,0 57,-16 83,-49 25,-32 38,-93 38,-183 0,-89 -11,-160 -33,-211 -22,-52 -63,-78 -123,-78 -46,0 -79,16 -102,49 -21,32 -36,71 -41,118 -6,47 -9,107 -9,178l0 45 0 250zm1387 -43l68 0c-11,-36 -28,-63 -51,-82 -23,-19 -45,-29 -66,-29 -38,0 -77,8 -115,22 -39,15 -70,36 -94,63 13,84 29,154 46,211 20,66 34,117 42,155 8,38 12,86 12,146 0,33 -6,66 -18,98 17,9 40,13 68,13 107,0 187,-28 241,-84 54,-56 89,-121 104,-194l-93 0 0 -76 486 0 0 76 -69 2c-36,65 -83,124 -140,179 -57,54 -120,97 -190,128 -69,31 -139,47 -211,47 -50,0 -103,-3 -160,-9 -58,-5 -106,-14 -144,-26 2,-22 3,-39 3,-49 0,-44 -9,-85 -28,-122 -20,-37 -48,-78 -85,-122 -57,-70 -99,-128 -128,-173 -28,-45 -47,-86 -57,-123 -10,-37 -15,-80 -15,-129 0,-144 32,-260 97,-350 64,-90 145,-153 241,-191 96,-37 195,-56 296,-56 62,0 126,8 192,24 67,16 129,46 188,89 59,43 104,103 133,179l90 0 0 78 -460 0 0 -78 57 0c-9,-55 -33,-105 -72,-148 -39,-44 -96,-66 -172,-66 -62,0 -113,20 -152,60 -40,39 -69,90 -86,153 -18,62 -27,126 -27,193 0,33 2,63 5,93 90,-78 193,-117 310,-117 47,0 93,8 139,25 46,17 86,42 121,74 35,32 61,71 77,116l76 0 0 78 -459 0 0 -78zm1901 -189l-486 0 0 -77 80 0c0,-125 -20,-211 -58,-259 -39,-48 -87,-72 -143,-72 -38,0 -74,12 -107,36 -33,24 -61,66 -82,125 -22,59 -33,138 -33,237 0,74 5,144 16,210 10,66 27,149 51,247 27,108 40,197 40,268 0,8 0,17 -2,27 -1,10 -3,19 -6,29 -2,10 -5,17 -6,22 -2,6 -3,11 -4,15 -2,4 -3,8 -4,11 12,8 27,11 45,11 45,0 90,-22 136,-65 46,-44 84,-102 114,-172 30,-71 45,-144 45,-219 0,-20 -1,-34 -2,-44l-80 0 0 -78 486 0 0 78 -76 0c-4,77 -25,149 -63,216 -38,67 -88,126 -150,176 -61,50 -129,89 -202,116 -73,27 -144,41 -214,41 -52,0 -98,-8 -135,-23l0 -26c0,-32 -2,-60 -7,-84 -4,-24 -17,-54 -37,-92 -20,-37 -52,-85 -95,-143 -51,-65 -89,-122 -115,-172 -26,-50 -43,-92 -50,-129 -7,-36 -11,-77 -11,-121 0,-116 26,-218 77,-305 51,-87 120,-154 207,-200 86,-47 181,-70 283,-70 173,0 298,43 373,129 76,86 122,179 139,280l76 0 0 77zm891 -382l-105 0 0 -78 544 0 0 78 -152 0 0 1142 154 0 0 78 -543 0 0 -78 102 0 0 -439c0,-11 0,-18 -1,-21 0,-3 -1,-11 -1,-24 -1,-38 -8,-63 -22,-73 -14,-10 -39,-20 -74,-30 -37,-12 -76,-27 -118,-48 -43,-21 -79,-42 -109,-66l0 701 103 0 0 78 -545 0 0 -78 154 0 0 -1142 -154 0 0 -78 545 0 0 78 -103 0 0 330c53,51 105,89 155,114 49,24 106,38 170,42l0 -486zm1023 0l-142 0 0 -78 576 0 0 78 -146 0 341 1142 128 0 0 78 -556 0 0 -78 140 0 -138 -480c-13,61 -33,127 -61,196 -28,69 -62,133 -101,192 -38,59 -82,106 -130,142 -47,36 -97,54 -148,54 -57,0 -106,-19 -146,-56 -41,-37 -61,-92 -61,-166 0,-174 104,-412 313,-712 70,-101 116,-186 137,-256 0,-11 -2,-30 -6,-56zm-244 835c2,36 13,65 35,89 22,23 45,34 70,34 47,0 91,-27 132,-82 42,-56 76,-120 103,-195 28,-75 46,-140 53,-195l-84 -295c-69,96 -128,189 -178,280 -14,26 -28,51 -42,74 -14,24 -27,51 -42,83 -14,32 -25,65 -34,100 -9,34 -13,69 -13,107zm1588 307l0 -1142 -80 0 -43 0c-34,0 -62,6 -83,16 -21,10 -40,35 -59,74 -19,38 -39,99 -59,181 -10,37 -18,62 -24,74 -6,13 -18,19 -37,19 -22,0 -36,-8 -43,-23 -6,-16 -10,-37 -11,-63 -2,-51 -13,-104 -34,-161 -4,-14 -15,-40 -31,-76 -16,-36 -24,-61 -24,-74 0,-18 7,-35 21,-49 13,-15 34,-22 61,-22 8,0 25,3 50,9 26,5 53,10 81,14 29,3 68,5 116,5 10,0 22,0 36,-1 13,0 24,-1 31,-1l551 0c8,0 19,1 32,1 14,1 25,1 35,1 48,0 87,-2 116,-5 29,-4 56,-9 82,-14 25,-6 42,-9 50,-9 27,0 47,7 61,22 13,14 21,30 21,49 0,14 -8,38 -24,72 -15,34 -26,60 -32,78 -22,57 -33,111 -36,161 0,57 -17,86 -51,86 -15,0 -26,-5 -34,-15 -8,-10 -13,-21 -17,-35 -4,-13 -12,-47 -27,-104 -17,-64 -36,-111 -57,-141 -20,-30 -42,-48 -68,-56 -25,-9 -60,-13 -103,-13l-80 0 0 1142 154 0 0 78 -595 0 0 -78 154 0zm1102 0l0 -1142 -153 0 0 -78 594 0 0 78 -154 0 0 1142 154 0 0 78 -594 0 0 -78 153 0z"/>
    <path id="1" class="fil2" d="M752 8734l-202 -942c-47,73 -86,142 -117,206 -31,64 -55,128 -71,192 -15,64 -23,129 -23,195 0,40 4,97 12,171 8,73 13,119 14,137l0 93c-2,19 -11,32 -26,39 -11,5 -25,7 -41,7 -15,0 -37,-2 -67,-7 -11,-1 -27,-2 -48,-2 -26,0 -46,1 -60,2 -20,2 -33,3 -39,3 -22,0 -39,-9 -49,-26 -10,-18 -15,-54 -15,-107 0,-91 12,-173 36,-245 25,-73 56,-138 93,-195 37,-57 91,-133 162,-228 69,-93 119,-168 149,-222 31,-55 46,-110 46,-167 0,-11 -1,-26 -4,-46l-137 0 0 -78 530 0 0 78 -104 0 235 1088 206 -1088 -82 0 0 -78 499 0 0 78 -120 0 248 1142 128 0 0 78 -497 0 0 -78 82 0 -210 -975 -181 975 98 0 0 78 -541 0 0 -78 96 0zm1707 -1142l-143 0 0 -78 577 0 0 78 -147 0 341 1142 129 0 0 78 -557 0 0 -78 141 0 -138 -480c-13,61 -34,127 -61,196 -28,69 -62,133 -101,192 -38,58 -82,106 -130,142 -47,36 -97,54 -148,54 -57,0 -106,-19 -146,-56 -41,-37 -61,-92 -61,-166 0,-174 104,-412 313,-712 70,-101 116,-186 137,-256 0,-11 -2,-30 -6,-56zm-244 834c1,37 13,66 35,89 22,24 45,35 70,35 47,0 91,-27 132,-82 41,-56 76,-121 103,-195 28,-75 45,-140 52,-195l-83 -295c-69,96 -128,189 -178,280 -14,26 -29,51 -42,74 -14,24 -28,51 -42,83 -14,32 -26,65 -34,100 -9,34 -13,69 -13,106zm2064 -539l-250 -2c-16,0 -24,-12 -24,-37 0,-113 -16,-189 -47,-229 -31,-40 -66,-60 -105,-60 -100,0 -151,83 -156,248 0,16 -1,35 -3,58 -1,22 -2,38 -2,48 0,56 7,101 22,134 15,34 36,58 61,74 25,16 57,27 93,34 37,6 67,12 91,15 95,14 171,40 226,77 55,37 93,78 113,122 21,44 31,88 31,131 0,53 -8,107 -25,162 -17,55 -50,103 -101,145 -51,41 -122,62 -215,62 -77,0 -151,-13 -222,-39 -16,-5 -38,-13 -66,-23 -28,-10 -50,-17 -67,-21 -16,-4 -30,-6 -43,-6 -55,0 -82,42 -82,128 0,15 1,28 3,42 2,14 3,23 3,27 0,7 -9,11 -26,11 -2,0 -14,-1 -35,-1 -21,-1 -43,-1 -65,-1 -20,3 -40,9 -61,18 -21,9 -34,13 -38,13 -10,0 -19,-11 -28,-34 -8,-22 -12,-49 -12,-80 0,-45 9,-85 26,-120 18,-36 44,-64 78,-85 35,-21 76,-31 124,-31 59,0 154,23 284,69 43,16 76,24 98,24 96,0 144,-99 144,-297 0,-69 -17,-125 -52,-168 -35,-44 -99,-71 -193,-80 -66,-8 -115,-15 -146,-20 -31,-6 -66,-19 -106,-39 -40,-20 -73,-52 -100,-95 -27,-43 -41,-100 -41,-169 0,-91 24,-167 72,-228 47,-61 107,-105 181,-134 73,-28 148,-42 226,-42 72,0 137,11 194,33 58,22 106,51 145,86 39,36 69,75 90,118 20,43 31,84 31,123 0,26 -9,39 -25,39zm703 847l0 -1142 -80 0 -43 0c-35,0 -63,5 -83,16 -21,10 -41,35 -60,73 -19,39 -38,100 -59,182 -10,37 -18,62 -24,74 -5,13 -18,18 -37,18 -22,0 -36,-7 -42,-22 -7,-16 -10,-37 -12,-63 -2,-51 -13,-105 -33,-161 -5,-14 -15,-40 -32,-76 -16,-36 -24,-61 -24,-74 0,-18 7,-35 21,-49 14,-15 34,-22 61,-22 9,0 26,3 51,9 25,5 52,10 81,14 29,3 67,5 116,5 10,0 22,0 35,-1 14,0 25,-1 32,-1l550 0c8,0 19,1 33,1 13,1 25,1 34,1 49,0 88,-2 117,-5 29,-4 56,-9 81,-14 25,-6 42,-9 50,-9 27,0 48,7 61,22 14,14 21,30 21,49 0,14 -8,38 -23,72 -16,34 -26,60 -33,78 -21,57 -33,111 -35,161 0,57 -17,85 -52,85 -15,0 -26,-4 -33,-14 -8,-10 -14,-21 -17,-35 -4,-13 -13,-48 -28,-104 -17,-64 -36,-111 -56,-141 -20,-30 -43,-48 -69,-56 -25,-9 -60,-13 -102,-13l-80 0 0 1142 154 0 0 78 -595 0 0 -78 154 0zm1532 -571l69 0c-11,-36 -28,-63 -51,-82 -23,-19 -45,-29 -66,-29 -39,0 -77,8 -116,22 -38,15 -70,36 -94,63 13,84 29,154 47,211 19,66 33,117 41,155 9,37 13,86 13,146 0,33 -6,66 -19,98 17,8 40,13 68,13 108,0 188,-28 242,-85 54,-55 88,-120 103,-193l-92 0 0 -76 485 0 0 76 -68 2c-37,65 -84,124 -141,179 -57,54 -120,97 -189,128 -69,31 -140,47 -212,47 -49,0 -103,-3 -160,-9 -57,-5 -105,-14 -144,-26 3,-23 4,-39 4,-49 0,-44 -10,-85 -29,-122 -19,-37 -47,-78 -84,-122 -57,-70 -100,-128 -128,-173 -29,-45 -48,-86 -57,-123 -10,-37 -15,-80 -15,-129 0,-144 32,-261 97,-350 64,-90 144,-153 241,-191 96,-37 194,-56 296,-56 62,0 126,8 192,24 66,16 129,46 188,89 59,43 103,103 133,179l89 0 0 78 -460 0 0 -78 58 0c-9,-55 -33,-105 -72,-148 -39,-44 -97,-66 -172,-66 -63,0 -113,20 -153,60 -39,39 -68,90 -86,152 -18,63 -27,127 -27,194 0,33 2,63 6,93 89,-78 192,-117 309,-117 47,0 94,8 140,25 46,17 86,41 121,74 35,32 61,71 77,116l76 0 0 78 -460 0 0 -78zm741 -649l834 0c71,0 126,3 162,9 38,5 67,20 90,44 22,24 33,62 33,114 0,63 -18,125 -55,185 -37,60 -96,112 -178,157 -83,45 -189,76 -319,94l0 27c98,4 190,27 275,69 86,41 157,106 213,193 55,88 85,197 90,328l85 0 0 78 -478 0 0 -78 72 0 0 -39c0,-129 -18,-233 -55,-312 -36,-79 -83,-134 -141,-167 -58,-33 -120,-50 -187,-50l0 568 91 0 0 78 -532 0 0 -78 154 0 0 -1142 -154 0 0 -78zm441 515c51,-1 99,-10 142,-29 43,-19 81,-43 113,-75 31,-30 56,-65 72,-103 17,-38 25,-77 25,-117 0,-75 -47,-113 -140,-113l-212 0 0 437zm1872 -142l-251 -2c-15,0 -23,-12 -23,-37 0,-113 -16,-189 -47,-229 -32,-40 -66,-60 -105,-60 -100,0 -152,83 -156,248 -1,16 -2,35 -3,58 -2,22 -3,38 -3,48 0,56 8,101 23,134 15,34 36,58 61,74 25,16 56,27 93,34 37,6 67,12 90,15 96,14 171,40 226,77 55,37 93,78 114,122 21,44 31,88 31,131 0,53 -8,107 -25,162 -17,55 -51,103 -101,145 -51,41 -123,62 -215,62 -77,0 -151,-13 -222,-39 -16,-5 -38,-13 -66,-23 -28,-10 -51,-17 -67,-21 -16,-4 -31,-6 -43,-6 -55,0 -82,42 -82,128 0,15 1,28 3,42 2,14 3,23 3,27 0,7 -9,11 -26,11 -2,0 -14,-1 -35,-1 -21,-1 -43,-1 -66,-1 -19,3 -39,9 -60,18 -21,9 -34,13 -38,13 -10,0 -20,-11 -28,-34 -8,-22 -13,-49 -13,-80 0,-45 9,-85 27,-120 18,-36 44,-64 78,-85 35,-21 76,-31 123,-31 60,0 155,23 284,69 44,16 77,24 99,24 96,0 144,-99 144,-297 0,-69 -17,-125 -52,-168 -35,-44 -99,-71 -193,-80 -67,-8 -115,-15 -146,-20 -31,-6 -66,-19 -106,-39 -40,-20 -74,-52 -101,-95 -26,-43 -40,-100 -40,-169 0,-91 24,-167 71,-228 48,-61 108,-105 182,-134 73,-28 148,-42 225,-42 73,0 138,11 195,33 58,22 106,51 145,86 39,36 69,75 89,118 21,43 31,84 31,123 0,26 -8,39 -24,39zm642 199l68 0 26 -51c12,-24 22,-47 29,-67 10,-20 17,-35 22,-44 5,-9 11,-21 17,-36 22,-43 45,-90 71,-141 25,-50 52,-95 80,-133 28,-38 60,-69 95,-92 36,-22 77,-34 123,-34 58,0 113,11 164,33 -24,60 -36,95 -39,105 -3,9 -5,29 -8,60 -4,31 -6,61 -6,89l-37 0c-22,-8 -41,-16 -59,-24 -30,-15 -63,-22 -100,-22 -36,0 -68,12 -96,37 -28,24 -56,61 -84,110 -28,48 -69,125 -122,231 99,23 185,54 259,95 73,41 134,104 182,190 48,86 73,200 76,342l111 0 0 78 -504 0 0 -78 72 0c2,-47 4,-80 4,-100 0,-69 -6,-130 -17,-182 -11,-52 -29,-99 -56,-139 -26,-41 -61,-75 -107,-101 -45,-28 -100,-48 -164,-60l0 582 114 0 0 78 -556 0 0 -78 154 0 0 -1142 -154 0 0 -78 569 0 0 78 -127 0 0 494zm1330 -494l-143 0 0 -78 577 0 0 78 -147 0 341 1142 128 0 0 78 -556 0 0 -78 141 0 -139 -480c-12,61 -33,127 -61,196 -28,69 -61,133 -100,192 -39,58 -82,106 -130,142 -48,36 -97,54 -148,54 -57,0 -106,-19 -147,-56 -40,-37 -61,-92 -61,-166 0,-174 105,-412 314,-712 70,-101 115,-186 137,-256 0,-11 -2,-30 -6,-56zm-245 834c2,37 14,66 36,89 22,24 45,35 70,35 47,0 91,-27 132,-82 41,-56 76,-121 103,-195 27,-75 45,-140 52,-195l-83 -295c-69,96 -129,189 -178,280 -15,26 -29,51 -42,74 -14,24 -28,51 -42,83 -14,32 -26,65 -34,100 -9,34 -14,69 -14,106zm1952 308l102 0 0 78 -493 0 0 -78 104 0 0 -594c-92,-21 -173,-55 -241,-101 -69,-46 -125,-106 -167,-180 -42,-74 -69,-163 -80,-267l-113 0 0 -78 527 0 0 78 -88 0c0,122 17,218 50,290 34,72 73,121 119,149 46,28 91,41 135,41 57,0 109,-18 157,-54 47,-36 84,-86 112,-150 27,-63 41,-134 41,-213 0,-20 -1,-41 -4,-63l-85 0 0 -78 526 0 0 78 -113 0c-33,298 -196,481 -489,548l0 594zm1163 -1142l-142 0 0 -78 576 0 0 78 -146 0 341 1142 128 0 0 78 -556 0 0 -78 140 0 -138 -480c-13,61 -33,127 -61,196 -28,69 -62,133 -101,192 -38,58 -82,106 -130,142 -47,36 -97,54 -148,54 -57,0 -106,-19 -146,-56 -41,-37 -61,-92 -61,-166 0,-174 104,-412 313,-712 70,-101 116,-186 137,-256 0,-11 -2,-30 -6,-56zm-244 834c2,37 13,66 35,89 22,24 45,35 70,35 47,0 91,-27 132,-82 42,-56 76,-121 103,-195 28,-75 46,-140 53,-195l-84 -295c-69,96 -128,189 -178,280 -14,26 -28,51 -42,74 -14,24 -27,51 -42,83 -14,32 -25,65 -34,100 -9,34 -13,69 -13,106zm-10434 2156l0 417 154 0 0 78 -595 0 0 -78 154 0 0 -678c0,-97 2,-191 5,-282 37,-89 96,-159 177,-210 81,-51 171,-76 270,-76 98,0 182,17 253,49 71,33 124,77 161,134 37,57 55,120 55,188 0,67 -14,128 -41,183 -27,55 -64,98 -112,129 -48,32 -102,47 -160,47 -31,0 -55,-3 -73,-10 -17,-6 -44,-19 -80,-37 -19,-10 -32,-17 -40,-21l-128 167zm0 -111l119 -150c11,9 24,16 37,22 14,6 24,9 31,9 29,0 57,-16 83,-49 25,-32 38,-93 38,-183 0,-89 -11,-160 -33,-211 -22,-52 -63,-78 -123,-78 -46,0 -79,16 -102,49 -21,32 -36,71 -41,118 -6,47 -9,107 -9,178l0 45 0 250zm1387 -43l68 0c-11,-36 -28,-63 -51,-82 -23,-19 -45,-29 -66,-29 -38,0 -77,8 -115,22 -39,15 -70,36 -94,63 13,84 29,154 46,211 20,66 34,117 42,155 8,38 12,86 12,146 0,33 -6,66 -18,98 17,9 40,13 68,13 107,0 187,-28 241,-84 54,-56 89,-121 104,-194l-93 0 0 -76 486 0 0 76 -69 2c-36,65 -83,124 -140,179 -57,54 -120,97 -190,128 -69,31 -139,47 -211,47 -50,0 -103,-3 -160,-9 -58,-5 -106,-14 -144,-26 2,-22 3,-39 3,-49 0,-44 -9,-85 -28,-122 -20,-37 -48,-78 -85,-122 -57,-70 -99,-128 -128,-173 -28,-45 -47,-86 -57,-123 -10,-37 -15,-80 -15,-129 0,-144 32,-260 97,-350 64,-90 145,-153 241,-191 96,-37 195,-56 296,-56 62,0 126,8 192,24 67,16 129,46 188,89 59,43 104,103 133,179l90 0 0 78 -460 0 0 -78 57 0c-9,-55 -33,-105 -72,-148 -39,-44 -96,-66 -172,-66 -62,0 -113,20 -152,60 -40,39 -69,90 -86,153 -18,62 -27,126 -27,193 0,33 2,63 5,93 90,-78 193,-117 310,-117 47,0 93,8 139,25 46,17 86,42 121,74 35,32 61,71 77,116l76 0 0 78 -459 0 0 -78zm1901 -189l-486 0 0 -77 80 0c0,-125 -20,-211 -58,-259 -39,-48 -87,-72 -143,-72 -38,0 -74,12 -107,36 -33,24 -61,66 -82,125 -22,59 -33,138 -33,237 0,74 5,144 16,210 10,66 27,149 51,247 27,108 40,197 40,268 0,8 0,17 -2,27 -1,10 -3,19 -6,29 -2,10 -5,17 -6,22 -2,6 -3,11 -4,15 -2,4 -3,8 -4,11 12,8 27,11 45,11 45,0 90,-22 136,-65 46,-44 84,-102 114,-172 30,-71 45,-144 45,-219 0,-20 -1,-34 -2,-44l-80 0 0 -78 486 0 0 78 -76 0c-4,77 -25,149 -63,216 -38,67 -88,126 -150,176 -61,50 -129,89 -202,116 -73,27 -144,41 -214,41 -52,0 -98,-8 -135,-23l0 -26c0,-32 -2,-60 -7,-84 -4,-24 -17,-54 -37,-92 -20,-37 -52,-85 -95,-143 -51,-65 -89,-122 -115,-172 -26,-50 -43,-92 -50,-129 -7,-36 -11,-77 -11,-121 0,-116 26,-218 77,-305 51,-87 120,-154 207,-200 86,-47 181,-70 283,-70 173,0 298,43 373,129 76,86 122,179 139,280l76 0 0 77zm891 -382l-105 0 0 -78 544 0 0 78 -152 0 0 1142 154 0 0 78 -543 0 0 -78 102 0 0 -439c0,-11 0,-18 -1,-21 0,-3 -1,-11 -1,-24 -1,-38 -8,-63 -22,-73 -14,-10 -39,-20 -74,-30 -37,-12 -76,-27 -118,-48 -43,-21 -79,-42 -109,-66l0 701 103 0 0 78 -545 0 0 -78 154 0 0 -1142 -154 0 0 -78 545 0 0 78 -103 0 0 330c53,51 105,89 155,114 49,24 106,38 170,42l0 -486zm1023 0l-142 0 0 -78 576 0 0 78 -146 0 341 1142 128 0 0 78 -556 0 0 -78 140 0 -138 -480c-13,61 -33,127 -61,196 -28,69 -62,133 -101,192 -38,59 -82,106 -130,142 -47,36 -97,54 -148,54 -57,0 -106,-19 -146,-56 -41,-37 -61,-92 -61,-166 0,-174 104,-412 313,-712 70,-101 116,-186 137,-256 0,-11 -2,-30 -6,-56zm-244 835c2,36 13,65 35,89 22,23 45,34 70,34 47,0 91,-27 132,-82 42,-56 76,-120 103,-195 28,-75 46,-140 53,-195l-84 -295c-69,96 -128,189 -178,280 -14,26 -28,51 -42,74 -14,24 -27,51 -42,83 -14,32 -25,65 -34,100 -9,34 -13,69 -13,107zm1588 307l0 -1142 -80 0 -43 0c-34,0 -62,6 -83,16 -21,10 -40,35 -59,74 -19,38 -39,99 -59,181 -10,37 -18,62 -24,74 -6,13 -18,19 -37,19 -22,0 -36,-8 -43,-23 -6,-16 -10,-37 -11,-63 -2,-51 -13,-104 -34,-161 -4,-14 -15,-40 -31,-76 -16,-36 -24,-61 -24,-74 0,-18 7,-35 21,-49 13,-15 34,-22 61,-22 8,0 25,3 50,9 26,5 53,10 81,14 29,3 68,5 116,5 10,0 22,0 36,-1 13,0 24,-1 31,-1l551 0c8,0 19,1 32,1 14,1 25,1 35,1 48,0 87,-2 116,-5 29,-4 56,-9 82,-14 25,-6 42,-9 50,-9 27,0 47,7 61,22 13,14 21,30 21,49 0,14 -8,38 -24,72 -15,34 -26,60 -32,78 -22,57 -33,111 -36,161 0,57 -17,86 -51,86 -15,0 -26,-5 -34,-15 -8,-10 -13,-21 -17,-35 -4,-13 -12,-47 -27,-104 -17,-64 -36,-111 -57,-141 -20,-30 -42,-48 -68,-56 -25,-9 -60,-13 -103,-13l-80 0 0 1142 154 0 0 78 -595 0 0 -78 154 0zm1102 0l0 -1142 -153 0 0 -78 594 0 0 78 -154 0 0 1142 154 0 0 78 -594 0 0 -78 153 0z"/>
   </g>
   <g>
    <g id="_2788273733792">
     <g>
      <path class="fil0 str2" d="M7076 166l2585 0c234,0 439,58 614,176 178,118 312,265 406,443 93,178 140,369 140,575l0 2023c0,82 -43,142 -129,184 -85,40 -273,60 -564,60 -440,0 -770,71 -989,212 -218,142 -327,306 -327,494 0,167 52,278 156,331 151,71 226,153 226,244 0,44 -20,82 -62,115 -42,34 -84,51 -125,51 -260,0 -491,-161 -694,-481l0 1805 -1237 0 0 -6232zm1246 352l0 3606c212,-450 614,-729 1207,-834l0 -2167c0,-143 -47,-281 -141,-410 -94,-130 -222,-195 -388,-195l-678 0z"/>
      <path id="1" class="fil1" d="M7076 166l2585 0c234,0 439,58 614,176 178,118 312,265 406,443 93,178 140,369 140,575l0 2023c0,82 -43,142 -129,184 -85,40 -273,60 -564,60 -440,0 -770,71 -989,212 -218,142 -327,306 -327,494 0,167 52,278 156,331 151,71 226,153 226,244 0,44 -20,82 -62,115 -42,34 -84,51 -125,51 -260,0 -491,-161 -694,-481l0 1805 -1237 0 0 -6232zm1246 352l0 3606c212,-450 614,-729 1207,-834l0 -2167c0,-143 -47,-281 -141,-410 -94,-130 -222,-195 -388,-195l-678 0z"/>
     </g>
     <g>
      <polygon class="fil3 str3" points="7037,6304 8335,6304 8335,6408 7037,6408 "/>
      <polygon id="1" class="fil4" points="7037,6304 8335,6304 8335,6408 7037,6408 "/>
     </g>
    </g>
    <g>
     <path class="fil3 str4" d="M9560 6306l-68 0 0 102 1841 0 0 -102 -511 0 0 -6038 511 0 0 -102 -1841 0 0 0c262,4 492,63 690,176 208,118 365,265 474,443 110,178 165,369 165,575l0 2023c0,82 -51,142 -151,184 -100,40 -319,60 -661,60 -162,0 -312,7 -449,21l0 2658zm-214 -4867c-54,67 -117,146 -187,236 -119,154 -250,334 -392,542 -142,207 -281,433 -418,678 -136,244 -261,501 -375,771 -113,270 -199,545 -255,823 -29,-284 -94,-563 -197,-836 -102,-272 -225,-530 -370,-771 -145,-242 -297,-466 -457,-674 -159,-207 -305,-388 -439,-541 -133,-154 -244,-276 -332,-367 -88,-91 -132,-139 -132,-145l0 -887 68 0 0 -102 -1824 0 0 102 494 0 0 6038 -494 0 0 102 1824 0 0 -102 -68 0 0 -4853c278,421 500,796 665,1126 165,330 290,640 375,930 85,289 141,568 166,835 26,267 38,549 38,845l0 1117 -68 0 0 102 1433 0 0 -102 -69 0 0 -384c0,-370 3,-695 9,-977 6,-281 20,-535 42,-763 23,-227 60,-439 111,-635 51,-196 123,-398 213,-606 91,-207 206,-427 346,-660 86,-145 184,-302 293,-473l0 -369z"/>
     <path id="1" class="fil4" d="M9560 6306l-68 0 0 102 1841 0 0 -102 -511 0 0 -6038 511 0 0 -102 -1841 0 0 0c262,4 492,63 690,176 208,118 365,265 474,443 110,178 165,369 165,575l0 2023c0,82 -51,142 -151,184 -100,40 -319,60 -661,60 -162,0 -312,7 -449,21l0 2658zm-214 -4867c-54,67 -117,146 -187,236 -119,154 -250,334 -392,542 -142,207 -281,433 -418,678 -136,244 -261,501 -375,771 -113,270 -199,545 -255,823 -29,-284 -94,-563 -197,-836 -102,-272 -225,-530 -370,-771 -145,-242 -297,-466 -457,-674 -159,-207 -305,-388 -439,-541 -133,-154 -244,-276 -332,-367 -88,-91 -132,-139 -132,-145l0 -887 68 0 0 -102 -1824 0 0 102 494 0 0 6038 -494 0 0 102 1824 0 0 -102 -68 0 0 -4853c278,421 500,796 665,1126 165,330 290,640 375,930 85,289 141,568 166,835 26,267 38,549 38,845l0 1117 -68 0 0 102 1433 0 0 -102 -69 0 0 -384c0,-370 3,-695 9,-977 6,-281 20,-535 42,-763 23,-227 60,-439 111,-635 51,-196 123,-398 213,-606 91,-207 206,-427 346,-660 86,-145 184,-302 293,-473l0 -369z"/>
    </g>
   </g>
   <g>
    <path class="fil5" d="M6952 97l2585 0c234,0 439,59 614,176 178,118 312,265 405,443 94,178 141,370 141,575l0 2023c0,82 -43,142 -129,184 -85,40 -273,60 -564,60 -440,0 -770,72 -989,212 -218,143 -327,307 -327,494 0,167 52,278 156,331 151,71 226,153 226,245 0,43 -20,82 -62,114 -42,34 -84,51 -125,51 -260,0 -491,-161 -694,-481l0 1806 -1237 0 0 -6233zm1246 353l0 3605c212,-450 614,-729 1207,-834l0 -2166c0,-144 -47,-282 -141,-410 -94,-130 -222,-195 -388,-195l-678 0z"/>
    <polygon class="fil6" points="6913,6236 8211,6236 8211,6339 6913,6339 "/>
   </g>
   <path class="fil7" d="M9436 6237l-68 0 0 102 1841 0 0 -102 -511 0 0 -6038 511 0 0 -102 -1841 0 0 0c262,4 491,63 690,176 208,118 365,265 474,443 110,178 165,370 165,575l0 2023c0,82 -51,142 -151,184 -100,40 -319,60 -661,60 -162,0 -312,7 -449,22l0 2657zm-214 -4867c-54,67 -117,146 -187,236 -119,154 -250,334 -392,542 -142,207 -281,433 -418,678 -136,244 -261,502 -375,772 -113,270 -199,544 -256,822 -28,-284 -93,-562 -196,-835 -102,-273 -226,-530 -370,-772 -145,-242 -297,-466 -457,-674 -159,-207 -305,-388 -439,-541 -133,-154 -244,-276 -332,-367 -88,-91 -132,-139 -132,-145l0 -887 68 0 0 -102 -1824 0 0 102 494 0 0 6038 -494 0 0 102 1824 0 0 -102 -68 0 0 -4852c278,420 500,796 665,1125 165,330 290,640 375,930 85,290 141,568 166,836 26,267 38,548 38,844l0 1117 -68 0 0 102 1433 0 0 -102 -69 0 0 -384c0,-369 3,-695 9,-976 6,-282 20,-536 42,-764 23,-227 60,-439 111,-635 51,-196 123,-398 213,-605 91,-208 206,-428 346,-661 86,-145 184,-302 293,-473l0 -369z"/>
  </g>
 </g>
</svg>
