<?xml version="1.0" encoding="UTF-8"?>
<!DOCTYPE svg PUBLIC "-//W3C//DTD SVG 1.1//EN" "http://www.w3.org/Graphics/SVG/1.1/DTD/svg11.dtd">
<!-- Creator: CorelDRAW X8 -->
<svg xmlns="http://www.w3.org/2000/svg" xml:space="preserve" width="10.552cm" height="1.74589cm" version="1.1" style="shape-rendering:geometricPrecision; text-rendering:geometricPrecision; image-rendering:optimizeQuality; fill-rule:evenodd; clip-rule:evenodd"
viewBox="0 0 10552 1746"
 xmlns:xlink="http://www.w3.org/1999/xlink">
 <defs>
  <style type="text/css">
   <![CDATA[
    .fil2 {fill:#FF7200}
    .fil0 {fill:#231F20;fill-rule:nonzero}
    .fil1 {fill:#FF7200;fill-rule:nonzero}
   ]]>
  </style>
 </defs>
 <g id="Слой_x0020_1">
  <metadata id="CorelCorpID_0Corel-Layer"/>
  <path class="fil0" d="M1765 1731l-376 -521 369 -474 -177 0 -353 456 -3 0 0 -456 -155 0 0 995 155 0 0 -502 3 0 359 502 178 0zm701 -371c0,-220 -116,-385 -326,-385 -210,0 -325,165 -325,385 0,220 115,386 325,386 210,0 326,-166 326,-386zm-151 -1c0,159 -58,265 -175,265 -117,0 -174,-106 -174,-265 0,-160 57,-264 174,-264 117,0 175,104 175,264zm1313 372l0 -517c0,-147 -99,-239 -257,-239 -110,0 -199,40 -246,80 -41,-43 -120,-80 -236,-80 -101,0 -194,22 -267,52l0 704 150 0 0 -613c32,-14 75,-22 126,-22 92,0 151,46 151,120l0 515 152 0 0 -585c30,-32 78,-50 135,-50 86,0 142,48 142,133l0 502 150 0zm1189 0l0 -517c0,-147 -99,-239 -257,-239 -110,0 -199,40 -246,80 -41,-43 -119,-80 -236,-80 -100,0 -193,22 -266,52l0 704 149 0 0 -613c32,-14 76,-22 127,-22 92,0 151,46 151,120l0 515 151 0 0 -585c30,-32 78,-50 136,-50 85,0 142,48 142,133l0 502 149 0zm797 -430c0,-199 -114,-326 -306,-326 -208,0 -334,158 -334,385 0,236 130,386 364,386 101,0 200,-22 258,-52l-44 -113c-51,28 -130,45 -205,45 -125,0 -211,-67 -226,-200l492 -69c1,-19 1,-38 1,-56zm-144 -24l-359 50c3,-154 78,-242 194,-242 99,0 163,63 165,192zm671 -296c-22,-4 -50,-6 -83,-6 -110,0 -216,22 -287,52l0 704 149 0 0 -614c29,-13 74,-19 117,-19 27,0 54,2 76,8l28 -125zm599 545c0,-144 -114,-187 -217,-225 -73,-28 -127,-51 -127,-118 0,-54 43,-95 122,-95 53,0 119,23 152,44l47 -105c-52,-30 -126,-52 -216,-52 -165,0 -259,85 -259,208 0,138 111,184 210,221 75,27 132,53 132,121 0,62 -54,101 -135,101 -56,0 -137,-24 -176,-48l-51 116c54,29 145,52 231,52 186,0 287,-87 287,-220zm719 168l0 -467c0,-183 -107,-252 -285,-252 -99,0 -199,26 -258,52l39 104c49,-24 134,-46 204,-46 95,0 157,33 157,127l0 46c-224,13 -444,50 -444,256 0,145 107,232 320,232 105,0 213,-23 267,-52zm-143 -76c-24,11 -80,19 -128,19 -114,0 -174,-48 -174,-126 0,-132 151,-144 302,-152l0 259zm919 113l0 -508c0,-157 -101,-248 -308,-248 -115,0 -210,22 -284,52l0 704 149 0 0 -613c31,-12 82,-22 136,-22 103,0 156,54 156,140l0 495 151 0zm522 -7l0 -125c-13,5 -33,10 -51,10 -55,0 -99,-27 -99,-94l0 -412 150 0 0 -113 -150 0 0 -217 -147 46 0 171 -100 0 0 113 100 0 0 420c0,145 73,217 203,217 39,0 76,-8 94,-16zm361 -81c0,-55 -44,-99 -99,-99 -55,0 -99,44 -99,99 0,55 44,99 99,99 55,0 99,-44 99,-99zm754 51l0 -704 -150 0 0 612c-24,11 -74,20 -131,20 -99,0 -150,-45 -150,-140l0 -492 -150 0 0 489c0,186 104,267 300,267 112,0 221,-22 281,-52zm680 37l0 -120 -335 0 327 -621 -517 0 0 120 304 0 -327 621 548 0z"/>
  <g id="_2533775643552">
   <path class="fil1" d="M2264 245c1,4 3,7 4,11 0,3 1,7 2,10 2,-3 4,-7 5,-10 2,-4 4,-7 6,-11l137 -219c1,-2 3,-4 4,-5 1,-1 3,-2 4,-2 1,-1 3,-1 4,-1 2,-1 4,-1 6,-1l37 0 -44 356 -43 0 32 -257c0,-4 1,-8 1,-12 1,-4 2,-8 3,-13l-136 220c-4,7 -11,11 -19,11l-7 0c-3,0 -7,-1 -10,-3 -3,-2 -5,-4 -6,-8l-84 -220c0,4 0,9 0,13 0,4 -1,8 -1,11l-31 258 -44 0 44 -356 36 0c5,0 8,1 10,2 2,1 4,3 6,7l84 219zm421 128l-24 0c-6,0 -10,-2 -13,-5 -2,-3 -3,-7 -3,-12l4 -47c-6,10 -12,20 -19,28 -6,8 -14,15 -21,21 -8,6 -16,10 -24,13 -8,3 -17,5 -26,5 -10,0 -19,-2 -27,-6 -8,-4 -15,-9 -21,-17 -5,-7 -10,-17 -13,-28 -3,-11 -5,-24 -5,-38 0,-15 2,-29 6,-43 3,-14 9,-28 16,-40 6,-13 15,-24 24,-35 10,-11 21,-20 33,-27 11,-8 24,-14 38,-18 14,-4 28,-6 43,-6 11,0 21,1 32,2 10,2 20,5 30,9l-30 244zm-108 -36c8,0 16,-2 23,-7 8,-5 15,-12 22,-21 6,-9 13,-20 19,-32 5,-12 10,-25 15,-39l11 -85c-7,-1 -14,-1 -20,-1 -15,0 -29,3 -42,10 -13,7 -24,17 -34,28 -9,12 -17,25 -23,41 -5,15 -8,31 -8,48 0,19 3,34 9,44 7,9 16,14 28,14zm317 -173c5,-8 10,-14 14,-20 4,-5 8,-10 12,-13 4,-4 9,-6 14,-8 5,-1 11,-2 19,-2l19 0 -4 24c-1,4 -2,7 -5,8 -2,1 -4,2 -7,3 -3,0 -6,1 -9,3 -4,2 -7,5 -10,9l-36 47c-5,7 -10,12 -14,16 -5,4 -11,7 -18,8 9,2 17,6 23,11 6,5 11,12 15,22l45 101 -27 0c-8,0 -14,-2 -18,-5 -4,-2 -7,-6 -10,-11l-35 -78c-3,-6 -6,-11 -12,-15 -5,-5 -11,-7 -17,-7l-26 5 -13 111 -45 0 30 -252 45 0 -13 110 20 -4c3,0 6,-1 9,-2 2,-1 4,-2 6,-3 2,-1 4,-3 6,-5 2,-1 4,-3 5,-6l37 -47zm276 163c-9,10 -17,18 -25,24 -7,6 -15,11 -23,15 -8,4 -16,6 -24,8 -8,1 -18,2 -27,2 -15,0 -28,-2 -39,-7 -11,-5 -20,-12 -28,-21 -8,-10 -13,-20 -17,-33 -4,-13 -6,-27 -6,-42 0,-21 3,-40 9,-59 7,-18 16,-35 27,-49 11,-15 25,-26 41,-35 16,-8 33,-12 52,-12 17,0 31,3 42,8 11,6 21,15 30,26l-15 18c-1,1 -3,3 -4,4 -2,1 -4,1 -5,1 -3,0 -5,-1 -7,-3 -3,-2 -5,-4 -9,-7 -3,-2 -8,-4 -13,-7 -5,-2 -12,-3 -20,-3 -11,0 -22,3 -32,9 -9,6 -18,15 -26,25 -7,11 -13,23 -17,37 -4,15 -7,30 -7,47 0,10 2,19 4,27 2,9 6,15 10,21 5,6 10,10 17,13 6,4 14,5 22,5 11,0 20,-1 28,-5 7,-3 13,-6 18,-10 5,-4 9,-7 13,-11 3,-3 7,-4 10,-4 4,0 6,1 9,4l12 14zm110 -206l-19 160c-2,19 -1,33 3,42 5,10 14,14 26,14 7,0 15,-2 23,-6 8,-4 15,-9 22,-17 8,-7 14,-16 21,-27 6,-10 12,-22 16,-35l16 -131 47 0 -31 252 -23 0c-11,0 -17,-6 -17,-17l3 -43c-13,21 -27,37 -44,47 -16,11 -33,16 -51,16 -10,0 -19,-2 -27,-6 -9,-5 -15,-11 -20,-19 -5,-8 -9,-18 -11,-30 -2,-11 -2,-25 0,-40l19 -160 47 0zm339 158c2,8 4,16 6,23 2,-6 4,-11 8,-17l90 -154c3,-4 6,-7 9,-8 3,-2 6,-2 10,-2l39 0 -31 252 -42 0 21 -171c1,-3 1,-7 2,-11 1,-4 2,-8 3,-12l-106 178c-2,3 -4,5 -6,6 -2,2 -5,3 -8,3l-7 0c-2,0 -5,-1 -7,-3 -2,-1 -3,-3 -4,-6l-54 -178c-1,5 -2,10 -2,15 -1,5 -2,9 -2,13 -3,13 -5,25 -8,38 -2,12 -5,24 -7,36 -3,13 -6,25 -10,38 -3,12 -7,25 -12,39 -1,4 -3,8 -7,11 -3,2 -7,4 -12,4l-28 0c13,-40 25,-80 35,-122 11,-41 20,-85 28,-130l37 0c3,0 6,0 10,2 3,1 5,4 6,8l49 148zm386 94l-25 0c-6,0 -10,-2 -12,-5 -2,-3 -3,-7 -3,-12l4 -47c-6,10 -12,20 -19,28 -7,8 -14,15 -22,21 -7,6 -15,10 -24,13 -8,3 -16,5 -25,5 -10,0 -19,-2 -27,-6 -8,-4 -15,-9 -21,-17 -6,-7 -11,-17 -14,-28 -3,-11 -5,-24 -5,-38 0,-15 2,-29 6,-43 4,-14 9,-28 16,-40 7,-13 15,-24 25,-35 9,-11 20,-20 32,-27 12,-8 24,-14 38,-18 14,-4 28,-6 43,-6 11,0 22,1 32,2 11,2 21,5 31,9l-30 244zm-108 -36c7,0 15,-2 23,-7 7,-5 14,-12 21,-21 7,-9 13,-20 19,-32 6,-12 11,-25 15,-39l11 -85c-7,-1 -13,-1 -20,-1 -15,0 -28,3 -41,10 -13,7 -25,17 -34,28 -10,12 -18,25 -23,41 -6,15 -9,31 -9,48 0,19 4,34 10,44 6,9 15,14 28,14zm223 -99c5,-21 11,-39 18,-54 7,-14 16,-26 27,-36 10,-9 23,-16 38,-20 14,-4 32,-6 52,-6l49 0 -31 251 -45 0 26 -216 -8 0c-12,0 -22,1 -30,4 -9,3 -16,8 -23,14 -6,6 -12,15 -16,26 -5,10 -9,24 -13,39 -6,26 -12,48 -19,65 -6,17 -13,31 -21,42 -8,10 -16,18 -26,22 -9,5 -19,7 -30,7 -8,0 -13,-1 -16,-2 -3,-1 -5,-4 -4,-7l3 -27 8 0c7,0 14,-2 20,-5 5,-4 10,-10 15,-18 4,-8 8,-18 12,-31 4,-13 9,-29 14,-48zm292 -117l-15 122c5,-6 11,-12 17,-18 6,-5 12,-9 19,-13 6,-4 13,-7 20,-9 6,-2 13,-3 20,-3 8,0 16,2 24,5 7,3 13,7 18,12 5,6 8,12 11,19 3,8 4,16 4,26 0,15 -3,30 -10,43 -6,14 -15,26 -26,37 -12,10 -25,18 -39,25 -15,6 -31,9 -47,9 -12,0 -22,-1 -31,-4 -9,-3 -16,-8 -21,-13 -6,-6 -10,-13 -12,-21 -2,-8 -2,-16 -1,-26l23 -191 46 0zm-24 194c-1,8 2,15 7,20 6,5 15,8 27,8 9,0 17,-2 25,-7 8,-4 14,-10 20,-17 6,-7 11,-15 14,-24 4,-9 6,-18 6,-27 0,-5 -1,-9 -2,-13 -1,-4 -2,-8 -5,-11 -2,-4 -5,-6 -9,-8 -4,-2 -8,-3 -14,-3 -8,0 -15,2 -23,6 -7,4 -14,10 -21,17 -6,6 -11,14 -16,22 -4,9 -7,17 -8,26l-1 11zm402 -194l-30 252 -47 0 14 -115 -105 0 -13 115 -47 0 30 -252 47 0 -13 103 105 0 13 -103 46 0zm133 218c12,0 22,-3 32,-9 10,-7 18,-15 24,-26 7,-11 12,-23 16,-38 4,-14 6,-28 6,-44 0,-22 -5,-40 -14,-51 -8,-11 -21,-17 -38,-17 -12,0 -22,3 -32,10 -9,6 -18,15 -24,25 -7,11 -12,24 -16,38 -4,14 -5,29 -5,44 0,23 4,40 13,51 8,12 21,17 38,17zm-4 37c-14,0 -27,-2 -38,-7 -12,-5 -22,-12 -30,-20 -8,-9 -15,-20 -20,-33 -4,-13 -6,-28 -6,-44 0,-15 1,-28 4,-41 3,-14 7,-26 13,-37 6,-12 12,-22 20,-31 8,-10 16,-18 26,-25 9,-6 20,-11 31,-15 11,-4 22,-5 34,-5 14,0 27,2 38,7 12,4 22,11 30,20 9,9 15,20 20,33 4,13 7,27 7,44 0,21 -4,41 -10,60 -7,18 -16,35 -28,49 -11,14 -25,25 -41,33 -16,8 -32,12 -50,12zm376 -37c11,0 22,-3 32,-9 9,-7 18,-15 24,-26 7,-11 12,-23 16,-38 4,-14 5,-28 5,-44 0,-22 -4,-40 -13,-51 -9,-11 -21,-17 -38,-17 -12,0 -23,3 -32,10 -10,6 -18,15 -25,25 -6,11 -12,24 -15,38 -4,14 -6,29 -6,44 0,23 5,40 13,51 9,12 22,17 39,17zm-5 37c-13,0 -26,-2 -37,-7 -12,-5 -22,-12 -30,-20 -9,-9 -15,-20 -20,-33 -4,-13 -7,-28 -7,-44 0,-15 2,-28 5,-41 3,-14 7,-26 13,-37 5,-12 12,-22 20,-31 7,-10 16,-18 26,-25 9,-6 20,-11 31,-15 11,-4 22,-5 34,-5 14,0 27,2 38,7 12,4 22,11 30,20 8,9 15,20 19,33 5,13 7,27 7,44 0,21 -3,41 -10,60 -6,18 -15,35 -27,49 -12,14 -25,25 -41,33 -16,8 -33,12 -51,12zm444 -321c-21,4 -39,10 -53,19 -14,9 -25,20 -34,33 -8,13 -15,27 -19,42 -4,15 -7,30 -9,45 6,-10 12,-19 20,-28 7,-8 16,-15 25,-21 9,-6 19,-11 30,-14 11,-3 22,-5 34,-5 11,0 20,2 29,6 9,3 17,9 24,16 6,7 12,16 15,28 4,11 6,24 6,39 0,13 -2,26 -4,40 -3,13 -7,25 -13,37 -5,12 -12,23 -19,34 -8,10 -17,19 -27,26 -9,7 -20,13 -32,18 -11,4 -23,6 -36,6 -13,0 -25,-2 -36,-7 -12,-4 -21,-11 -29,-21 -9,-10 -15,-23 -20,-39 -5,-15 -7,-34 -7,-56 0,-13 1,-28 2,-44 1,-16 4,-32 7,-48 4,-16 9,-32 16,-48 7,-15 15,-29 26,-42 11,-13 24,-25 39,-34 15,-9 33,-16 54,-20l95 -17 0 24c0,5 -1,9 -4,13 -2,4 -6,6 -11,7l-69 11zm-109 218c0,22 4,39 13,51 8,11 20,17 35,17 13,0 24,-4 34,-11 10,-7 18,-16 25,-28 8,-11 13,-24 17,-39 4,-14 6,-29 6,-44 0,-20 -4,-34 -11,-44 -7,-10 -18,-15 -32,-15 -13,0 -24,3 -35,10 -11,6 -20,15 -28,26 -7,10 -13,22 -18,36 -4,13 -6,27 -6,41zm285 -152l-19 160c-2,19 -1,33 3,42 5,10 13,14 26,14 7,0 15,-2 23,-6 7,-4 15,-9 22,-17 7,-7 14,-16 21,-27 6,-10 11,-22 16,-35l16 -131 46 0 -30 252 -23 0c-11,0 -17,-6 -17,-17l3 -43c-13,21 -28,37 -44,47 -16,11 -33,16 -51,16 -10,0 -20,-2 -28,-6 -8,-5 -14,-11 -19,-19 -6,-8 -9,-18 -11,-30 -2,-11 -2,-25 0,-40l19 -160 47 0zm202 32c4,-5 10,-10 17,-14 6,-4 14,-8 22,-11 7,-3 16,-6 25,-8 9,-2 18,-2 28,-2 13,0 24,1 34,4 9,4 17,8 23,13 7,6 11,12 14,19 3,6 5,13 5,21 0,6 -1,12 -3,18 -2,6 -6,12 -10,17 -4,6 -10,11 -17,15 -7,5 -15,8 -25,11 15,3 26,9 34,19 8,9 12,21 12,35 0,10 -2,21 -6,31 -5,10 -12,19 -21,28 -9,8 -20,14 -34,19 -13,5 -29,8 -47,8 -32,0 -60,-10 -83,-31l12 -19c1,-2 2,-4 4,-5 2,-1 3,-2 6,-2 3,0 6,1 9,4 3,2 7,4 12,7 5,3 10,5 17,7 7,3 15,4 25,4 10,0 19,-2 27,-4 8,-3 15,-7 20,-11 5,-5 10,-11 12,-17 3,-6 5,-13 5,-20 0,-13 -4,-22 -13,-27 -8,-6 -19,-9 -34,-9 -6,0 -11,1 -18,1 -6,1 -12,2 -18,3 0,-6 0,-12 1,-18 0,-5 2,-11 4,-17 5,1 9,1 13,2 5,0 9,0 14,0 10,0 19,-1 26,-3 8,-2 14,-5 19,-9 5,-4 9,-8 11,-13 2,-5 3,-10 3,-16 0,-4 0,-8 -2,-11 -1,-4 -4,-7 -7,-10 -3,-3 -8,-5 -13,-7 -6,-1 -12,-2 -20,-2 -10,0 -19,1 -26,3 -7,2 -13,4 -18,7 -4,3 -8,5 -12,8 -3,2 -5,3 -8,3 -2,1 -3,0 -5,0 -1,-1 -3,-2 -5,-5l-9 -16zm430 -32l-30 252 -47 0 14 -115 -105 0 -14 115 -47 0 31 -252 46 0 -12 103 105 0 12 -103 47 0zm239 55c0,11 -2,21 -7,30 -4,9 -12,18 -24,25 -12,7 -28,14 -49,19 -21,5 -47,10 -80,13 0,2 0,3 0,5 0,1 0,3 0,5 0,21 5,38 14,49 10,11 24,17 43,17 12,0 22,-2 30,-5 8,-3 14,-7 20,-11 6,-4 10,-8 14,-11 5,-3 9,-5 13,-5 3,0 6,2 8,5l12 14c-8,9 -17,16 -25,23 -8,6 -16,11 -24,15 -9,4 -18,7 -27,9 -9,2 -19,3 -30,3 -14,0 -27,-2 -39,-7 -11,-5 -21,-12 -29,-21 -8,-9 -14,-19 -19,-32 -4,-13 -6,-27 -6,-42 0,-13 1,-26 4,-39 2,-13 6,-25 12,-36 5,-12 11,-23 19,-33 8,-9 16,-18 26,-25 10,-7 20,-13 32,-17 12,-4 24,-6 38,-6 12,0 24,2 33,5 9,4 17,9 23,14 6,6 11,12 14,19 3,7 4,14 4,20zm-77 -25c-10,0 -19,3 -28,7 -8,4 -16,9 -22,17 -7,7 -12,16 -17,25 -5,10 -9,21 -11,32 24,-3 44,-7 59,-10 15,-4 26,-8 34,-13 8,-5 14,-10 16,-15 3,-5 4,-10 4,-16 0,-3 -1,-6 -2,-9 -1,-3 -3,-6 -6,-9 -3,-2 -6,-4 -11,-6 -4,-2 -9,-3 -16,-3zm297 176c-8,10 -17,18 -24,24 -8,6 -16,11 -23,15 -8,4 -16,6 -25,8 -8,1 -17,2 -27,2 -14,0 -27,-2 -39,-7 -11,-5 -20,-12 -28,-21 -7,-10 -13,-20 -17,-33 -4,-13 -6,-27 -6,-42 0,-21 3,-40 10,-59 6,-18 15,-35 26,-49 12,-15 25,-26 41,-35 16,-8 33,-12 52,-12 17,0 31,3 42,8 12,6 21,15 30,26l-15 18c-1,1 -2,3 -4,4 -1,1 -3,1 -5,1 -2,0 -5,-1 -7,-3 -2,-2 -5,-4 -9,-7 -3,-2 -7,-4 -13,-7 -5,-2 -12,-3 -20,-3 -11,0 -21,3 -31,9 -10,6 -19,15 -26,25 -8,11 -13,23 -18,37 -4,15 -6,30 -6,47 0,10 1,19 3,27 3,9 6,15 10,21 5,6 10,10 17,13 7,4 14,5 23,5 11,0 20,-1 27,-5 7,-3 13,-6 18,-10 5,-4 10,-7 13,-11 4,-3 7,-4 11,-4 3,0 6,1 8,4l12 14zm236 -151c0,11 -2,21 -6,30 -5,9 -13,18 -25,25 -12,7 -28,14 -49,19 -20,5 -47,10 -79,13 -1,2 -1,3 -1,5 0,1 0,3 0,5 0,21 5,38 15,49 9,11 23,17 43,17 11,0 21,-2 29,-5 8,-3 15,-7 20,-11 6,-4 11,-8 15,-11 4,-3 8,-5 12,-5 3,0 6,2 9,5l12 14c-9,9 -17,16 -25,23 -9,6 -17,11 -25,15 -9,4 -18,7 -27,9 -9,2 -19,3 -30,3 -14,0 -27,-2 -38,-7 -12,-5 -22,-12 -30,-21 -8,-9 -14,-19 -19,-32 -4,-13 -6,-27 -6,-42 0,-13 1,-26 4,-39 3,-13 7,-25 12,-36 5,-12 12,-23 19,-33 8,-9 16,-18 26,-25 10,-7 21,-13 32,-17 12,-4 25,-6 38,-6 13,0 24,2 33,5 9,4 17,9 23,14 6,6 11,12 14,19 3,7 4,14 4,20zm-77 -25c-10,0 -19,3 -27,7 -9,4 -16,9 -23,17 -7,7 -12,16 -17,25 -5,10 -9,21 -11,32 24,-3 44,-7 59,-10 15,-4 27,-8 35,-13 8,-5 13,-10 15,-15 3,-5 4,-10 4,-16 0,-3 0,-6 -2,-9 -1,-3 -3,-6 -6,-9 -3,-2 -6,-4 -10,-6 -5,-2 -10,-3 -17,-3z"/>
   <path class="fil1" d="M7584 169c0,6 -1,12 -4,19 -2,6 -6,12 -11,18 -4,5 -11,11 -19,15 -8,5 -17,9 -28,13 9,0 17,2 25,4 7,2 13,6 18,10 6,5 10,10 13,16 2,7 4,14 4,23 0,11 -3,22 -8,33 -5,11 -12,20 -21,28 -9,9 -20,15 -33,21 -13,5 -28,7 -43,7 -15,0 -28,-2 -40,-7 -11,-5 -21,-11 -29,-20 -7,-9 -13,-19 -17,-31 -4,-12 -6,-25 -6,-40 0,-14 2,-27 4,-41 3,-13 8,-26 13,-37 6,-12 13,-23 21,-33 8,-10 17,-19 27,-26 10,-7 20,-13 32,-17 12,-4 24,-6 37,-6 11,0 21,1 29,4 8,3 15,7 20,11 6,5 9,10 12,17 3,6 4,12 4,19zm-153 95c0,2 0,3 0,4 0,1 0,2 0,4 0,10 1,19 3,28 2,9 5,16 9,22 4,6 10,11 16,14 6,3 14,5 23,5 8,-1 15,-2 22,-5 7,-3 13,-7 18,-12 5,-5 9,-10 12,-17 3,-6 5,-13 5,-20 0,-6 -1,-11 -3,-16 -2,-5 -6,-9 -10,-12 -5,-4 -11,-6 -18,-7 -7,-1 -16,0 -27,2l-50 10zm83 -114c-10,0 -19,2 -27,6 -8,5 -16,11 -22,18 -7,8 -13,17 -18,27 -5,11 -9,22 -12,34l43 -9c14,-3 25,-6 34,-10 9,-4 15,-7 20,-12 5,-4 8,-9 9,-13 2,-5 3,-9 3,-14 0,-3 -1,-7 -2,-10 -1,-3 -2,-6 -5,-9 -2,-2 -5,-4 -9,-6 -4,-1 -9,-2 -14,-2zm271 185c5,0 9,-1 13,-1 4,-1 8,-3 11,-5 4,-3 7,-6 10,-9 4,-4 7,-9 10,-15l20 -35 -101 -252 45 0c5,0 8,1 10,3 3,2 5,4 6,8l56 159c4,13 7,26 9,39 3,-6 6,-13 9,-19 3,-7 7,-14 10,-21l84 -158c2,-3 4,-5 7,-8 3,-2 7,-3 11,-3l42 0 -170 308c-6,10 -11,18 -17,24 -6,7 -12,12 -18,16 -6,3 -12,6 -18,8 -6,1 -13,2 -19,2 -11,0 -18,-1 -23,-3 -5,-2 -7,-6 -6,-11l3 -27 16 0zm219 -182c5,-5 11,-10 17,-14 7,-4 14,-8 22,-11 8,-3 16,-6 25,-8 9,-2 19,-2 28,-2 13,0 25,1 34,4 10,4 18,8 24,13 6,6 11,12 14,19 2,6 4,13 4,21 0,6 -1,12 -3,18 -2,6 -5,12 -9,17 -5,6 -10,11 -17,15 -7,5 -16,8 -26,11 15,3 27,9 35,19 8,9 12,21 12,35 0,10 -2,21 -7,31 -5,10 -11,19 -20,28 -10,8 -21,14 -34,19 -14,5 -29,8 -47,8 -33,0 -61,-10 -83,-31l11 -19c1,-2 2,-4 4,-5 2,-1 4,-2 6,-2 3,0 6,1 10,4 3,2 7,4 11,7 5,3 11,5 18,7 6,3 15,4 25,4 10,0 19,-2 27,-4 8,-3 14,-7 20,-11 5,-5 9,-11 12,-17 3,-6 4,-13 4,-20 0,-13 -4,-22 -12,-27 -8,-6 -20,-9 -35,-9 -5,0 -11,1 -17,1 -7,1 -13,2 -18,3 0,-6 0,-12 0,-18 1,-5 2,-11 4,-17 5,1 9,1 14,2 4,0 9,0 13,0 10,0 19,-1 27,-3 7,-2 13,-5 18,-9 5,-4 9,-8 11,-13 3,-5 4,-10 4,-16 0,-4 -1,-8 -2,-11 -2,-4 -4,-7 -8,-10 -3,-3 -7,-5 -13,-7 -5,-1 -12,-2 -20,-2 -10,0 -18,1 -25,3 -7,2 -13,4 -18,7 -5,3 -9,5 -12,8 -3,2 -6,3 -8,3 -2,1 -4,0 -5,0 -2,-1 -3,-2 -5,-5l-10 -16zm368 -98c-21,4 -39,10 -53,19 -14,9 -25,20 -34,33 -8,13 -15,27 -19,42 -4,15 -7,30 -9,45 6,-10 12,-19 20,-28 7,-8 16,-15 25,-21 9,-6 19,-11 30,-14 11,-3 22,-5 34,-5 11,0 20,2 29,6 9,3 17,9 24,16 6,7 12,16 15,28 4,11 6,24 6,39 0,13 -2,26 -4,40 -3,13 -7,25 -13,37 -5,12 -12,23 -19,34 -8,10 -17,19 -27,26 -9,7 -20,13 -32,18 -11,4 -23,6 -36,6 -13,0 -25,-2 -36,-7 -12,-4 -21,-11 -29,-21 -9,-10 -15,-23 -20,-39 -5,-15 -7,-34 -7,-56 0,-13 1,-28 2,-44 1,-16 4,-32 7,-48 4,-16 9,-32 16,-48 7,-15 15,-29 26,-42 11,-13 24,-25 39,-34 15,-9 33,-16 54,-20l95 -17 0 24c0,5 -1,9 -4,13 -2,4 -6,6 -11,7l-69 11zm-109 218c0,22 4,39 13,51 8,11 20,17 35,17 13,0 24,-4 34,-11 10,-7 18,-16 25,-28 8,-11 13,-24 17,-39 4,-14 6,-29 6,-44 0,-20 -4,-34 -11,-44 -7,-10 -18,-15 -32,-15 -13,0 -24,3 -35,10 -11,6 -20,15 -28,26 -7,10 -13,22 -18,36 -4,13 -6,27 -6,41zm415 -97c0,11 -2,21 -6,30 -5,9 -13,18 -25,25 -12,7 -28,14 -49,19 -20,5 -47,10 -79,13 0,2 0,3 0,5 0,1 0,3 0,5 0,21 4,38 14,49 9,11 24,17 43,17 11,0 21,-2 29,-5 8,-3 15,-7 20,-11 6,-4 11,-8 15,-11 4,-3 8,-5 12,-5 3,0 6,2 9,5l12 14c-9,9 -17,16 -25,23 -8,6 -17,11 -25,15 -9,4 -17,7 -27,9 -9,2 -19,3 -29,3 -15,0 -28,-2 -39,-7 -12,-5 -22,-12 -30,-21 -8,-9 -14,-19 -18,-32 -5,-13 -7,-27 -7,-42 0,-13 1,-26 4,-39 3,-13 7,-25 12,-36 5,-12 12,-23 19,-33 8,-9 17,-18 26,-25 10,-7 21,-13 33,-17 11,-4 24,-6 37,-6 13,0 24,2 33,5 10,4 17,9 23,14 6,6 11,12 14,19 3,7 4,14 4,20zm-77 -25c-10,0 -19,3 -27,7 -9,4 -16,9 -23,17 -6,7 -12,16 -17,25 -5,10 -8,21 -11,32 25,-3 44,-7 59,-10 15,-4 27,-8 35,-13 8,-5 13,-10 16,-15 2,-5 3,-10 3,-16 0,-3 0,-6 -1,-9 -2,-3 -4,-6 -7,-9 -2,-2 -6,-4 -10,-6 -5,-2 -10,-3 -17,-3zm256 13c5,-8 10,-14 14,-20 4,-5 8,-10 13,-13 4,-4 8,-6 13,-8 5,-1 12,-2 19,-2l20 0 -5 24c-1,4 -2,7 -4,8 -2,1 -5,2 -8,3 -2,0 -6,1 -9,3 -3,2 -7,5 -10,9l-36 47c-5,7 -9,12 -14,16 -5,4 -11,7 -18,8 9,2 17,6 23,11 6,5 11,12 15,22l45 101 -26 0c-9,0 -15,-2 -19,-5 -4,-2 -7,-6 -9,-11l-36 -78c-2,-6 -6,-11 -11,-15 -5,-5 -11,-7 -18,-7l-25 5 -14 111 -45 0 31 -252 45 0 -14 110 21 -4c3,0 5,-1 8,-2 2,-1 5,-2 7,-3 2,-1 3,-3 5,-5 2,-1 4,-3 6,-6l36 -47zm170 -43l-19 160c-2,19 -1,33 4,42 4,10 13,14 25,14 8,0 15,-2 23,-6 8,-4 15,-9 23,-17 7,-7 14,-16 20,-27 6,-10 12,-22 16,-35l16 -131 47 0 -30 252 -24 0c-11,0 -17,-6 -17,-17l4 -43c-13,21 -28,37 -45,47 -16,11 -33,16 -50,16 -11,0 -20,-2 -28,-6 -8,-5 -15,-11 -20,-19 -5,-8 -9,-18 -10,-30 -2,-11 -2,-25 0,-40l18 -160 47 0zm378 206c-9,10 -17,18 -24,24 -8,6 -16,11 -24,15 -8,4 -16,6 -24,8 -8,1 -17,2 -27,2 -15,0 -27,-2 -39,-7 -11,-5 -20,-12 -28,-21 -7,-10 -13,-20 -17,-33 -4,-13 -6,-27 -6,-42 0,-21 3,-40 9,-59 7,-18 16,-35 27,-49 12,-15 25,-26 41,-35 16,-8 33,-12 52,-12 17,0 31,3 42,8 11,6 21,15 30,26l-15 18c-1,1 -3,3 -4,4 -2,1 -3,1 -5,1 -2,0 -5,-1 -7,-3 -2,-2 -5,-4 -9,-7 -3,-2 -8,-4 -13,-7 -5,-2 -12,-3 -20,-3 -11,0 -21,3 -31,9 -10,6 -19,15 -26,25 -8,11 -14,23 -18,37 -4,15 -6,30 -6,47 0,10 1,19 3,27 2,9 6,15 10,21 5,6 10,10 17,13 6,4 14,5 23,5 10,0 20,-1 27,-5 7,-3 13,-6 18,-10 5,-4 9,-7 13,-11 3,-3 7,-4 10,-4 4,0 7,1 9,4l12 14zm36 46l30 -252 23 0c11,0 16,5 16,16l-3 41c12,-20 26,-35 40,-45 15,-10 30,-15 46,-15 17,0 29,5 37,16 9,12 13,28 13,50 12,-23 26,-40 42,-50 15,-11 31,-16 49,-16 21,0 36,8 46,24 9,17 12,40 8,70l-19 161 -46 0 19 -161c2,-19 1,-33 -2,-42 -4,-9 -11,-13 -23,-13 -7,0 -14,1 -21,5 -7,4 -14,9 -20,16 -6,7 -12,15 -18,26 -6,10 -11,21 -15,34l-15 135 -47 0 19 -161c2,-9 2,-17 2,-24 0,-7 -1,-13 -3,-18 -1,-4 -4,-8 -8,-10 -3,-2 -8,-3 -14,-3 -8,0 -15,2 -22,5 -7,4 -14,10 -20,17 -7,8 -13,17 -18,27 -6,11 -11,23 -15,36l-16 131 -45 0zm580 0l-24 0c-7,0 -11,-2 -13,-5 -2,-3 -3,-7 -3,-12l4 -47c-6,10 -12,20 -19,28 -7,8 -14,15 -22,21 -7,6 -15,10 -23,13 -9,3 -17,5 -26,5 -10,0 -19,-2 -27,-6 -8,-4 -15,-9 -21,-17 -6,-7 -10,-17 -14,-28 -3,-11 -5,-24 -5,-38 0,-15 2,-29 6,-43 4,-14 9,-28 16,-40 7,-13 15,-24 25,-35 10,-11 20,-20 32,-27 12,-8 25,-14 38,-18 14,-4 28,-6 43,-6 11,0 22,1 32,2 11,2 21,5 31,9l-30 244zm-108 -36c8,0 15,-2 23,-7 7,-5 14,-12 21,-21 7,-9 13,-20 19,-32 6,-12 11,-25 15,-39l11 -85c-7,-1 -13,-1 -20,-1 -14,0 -28,3 -41,10 -13,7 -24,17 -34,28 -10,12 -17,25 -23,41 -6,15 -8,31 -8,48 0,19 3,34 9,44 6,9 15,14 28,14zm400 -216l-30 252 -47 0 14 -115 -105 0 -14 115 -47 0 31 -252 46 0 -12 103 105 0 12 -103 47 0zm239 55c0,11 -2,21 -7,30 -4,9 -12,18 -24,25 -12,7 -28,14 -49,19 -21,5 -47,10 -80,13 0,2 0,3 0,5 0,1 0,3 0,5 0,21 5,38 14,49 10,11 24,17 43,17 12,0 22,-2 30,-5 8,-3 14,-7 20,-11 5,-4 10,-8 14,-11 5,-3 9,-5 13,-5 3,0 6,2 8,5l12 14c-8,9 -17,16 -25,23 -8,6 -16,11 -25,15 -8,4 -17,7 -26,9 -9,2 -19,3 -30,3 -14,0 -27,-2 -39,-7 -11,-5 -21,-12 -29,-21 -8,-9 -14,-19 -19,-32 -4,-13 -6,-27 -6,-42 0,-13 1,-26 4,-39 2,-13 6,-25 12,-36 5,-12 11,-23 19,-33 8,-9 16,-18 26,-25 10,-7 20,-13 32,-17 12,-4 24,-6 38,-6 12,0 24,2 33,5 9,4 17,9 23,14 6,6 11,12 14,19 3,7 4,14 4,20zm-77 -25c-10,0 -19,3 -28,7 -8,4 -16,9 -22,17 -7,7 -13,16 -17,25 -5,10 -9,21 -11,32 24,-3 44,-7 59,-10 15,-4 26,-8 34,-13 8,-5 14,-10 16,-15 3,-5 4,-10 4,-16 0,-3 -1,-6 -2,-9 -1,-3 -3,-6 -6,-9 -3,-2 -6,-4 -11,-6 -4,-2 -10,-3 -16,-3z"/>
  </g>
  <polygon class="fil2" points="0,941 598,941 598,1515 0,1515 "/>
 </g>
</svg>
