<?xml version="1.0" encoding="UTF-8"?>
<!DOCTYPE svg PUBLIC "-//W3C//DTD SVG 1.1//EN" "http://www.w3.org/Graphics/SVG/1.1/DTD/svg11.dtd">
<!-- Creator: CorelDRAW X7 -->
<svg xmlns="http://www.w3.org/2000/svg" xml:space="preserve" width="117.321mm" height="35.31mm" version="1.1" style="shape-rendering:geometricPrecision; text-rendering:geometricPrecision; image-rendering:optimizeQuality; fill-rule:evenodd; clip-rule:evenodd"
viewBox="0 0 11732 3531"
 xmlns:xlink="http://www.w3.org/1999/xlink">
 <defs>
  <style type="text/css">
   <![CDATA[
    .fil1 {fill:#999999}
    .fil5 {fill:#FEFEFE;fill-rule:nonzero}
    .fil4 {fill:#5677B9;fill-rule:nonzero}
    .fil2 {fill:#2957A4;fill-rule:nonzero}
    .fil3 {fill:#999999;fill-rule:nonzero}
    .fil0 {fill:#999999;fill-rule:nonzero}
   ]]>
  </style>
 </defs>
 <g id="Layer_x0020_1">
  <metadata id="CorelCorpID_0Corel-Layer"/>
  <g id="_2658711098320">
   <g>
    <path class="fil0" d="M8727 3086l0 372 -61 0 0 -372 -136 0 0 -56 333 0 0 56 -136 0zm275 214l147 0 -73 -212 -74 212zm201 158l-38 -110 -178 0 -37 110 -63 0 157 -428 66 0 157 428 -64 0zm107 -101l53 -18c7,24 17,42 32,54 15,12 34,18 55,18 22,0 38,-6 51,-19 13,-13 19,-30 19,-51 0,-17 -5,-31 -16,-42 -10,-11 -32,-24 -68,-39 -41,-16 -69,-34 -86,-53 -17,-19 -25,-43 -25,-72 0,-33 11,-61 33,-82 22,-22 51,-33 86,-33 24,0 46,6 65,17 20,10 37,27 53,49l-40 40c-13,-17 -26,-30 -38,-38 -13,-9 -26,-13 -40,-13 -17,0 -31,5 -42,15 -11,10 -16,23 -16,39 0,13 3,24 10,33 7,10 18,18 34,26 14,7 30,14 49,22 19,8 30,13 34,16 26,16 43,33 53,50 10,16 15,38 15,64 0,37 -12,68 -36,92 -24,23 -55,35 -93,35 -37,0 -68,-10 -93,-29 -25,-20 -41,-46 -49,-81zm376 101l0 -428 62 0 0 177 205 0 0 -177 61 0 0 428 -61 0 0 -194 -205 0 0 194 -62 0zm461 0l0 -428 61 0 0 203 182 -203 77 0 -191 204 224 224 -84 0 -208 -213 0 213 -61 0zm410 0l0 -428 317 0 0 56 -255 0 0 121 241 0 0 54 -241 0 0 141 255 0 0 56 -317 0zm689 0l-167 -286c-4,-6 -8,-14 -12,-24 -5,-9 -10,-22 -16,-38 2,10 3,22 4,34 1,13 1,32 1,57l0 257 -59 0 0 -428 63 0 160 273c6,10 12,21 18,34 5,12 11,25 17,40 -2,-16 -3,-32 -4,-47 -1,-15 -2,-30 -2,-45l0 -255 59 0 0 428 -62 0zm351 -372l0 372 -61 0 0 -372 -136 0 0 -56 332 0 0 56 -135 0z"/>
    <polygon class="fil0" points="6393,3030 6332,3030 6332,3216 6092,3216 6092,3030 6031,3030 6031,3457 6092,3457 6092,3271 6332,3271 6332,3457 6393,3457 "/>
    <path class="fil1" d="M6594 3244c1,-48 17,-87 48,-117 30,-30 70,-45 118,-46 49,1 89,16 119,46 31,30 47,69 48,117 -1,47 -17,86 -48,116 -30,30 -70,46 -119,47 -48,-1 -88,-17 -118,-47 -31,-30 -47,-69 -48,-116l0 0zm-63 0c0,39 10,75 28,108 19,33 45,60 79,80 34,20 74,30 121,31 48,-1 90,-11 124,-31 35,-21 61,-47 79,-80 19,-33 28,-69 28,-108 0,-41 -10,-77 -28,-110 -19,-33 -45,-59 -80,-79 -34,-20 -75,-30 -122,-30 -46,0 -86,10 -121,30 -34,20 -60,46 -79,79 -19,33 -29,70 -29,110l0 0z"/>
    <polygon class="fil0" points="7408,3030 7051,3030 7051,3085 7199,3085 7199,3457 7260,3457 7260,3085 7408,3085 "/>
    <polygon class="fil0" points="7770,3030 7528,3030 7528,3457 7776,3457 7776,3402 7589,3402 7589,3269 7764,3269 7764,3214 7589,3214 7589,3085 7770,3085 "/>
    <polygon class="fil0" points="7964,3030 7902,3030 7902,3457 8156,3457 8156,3402 7964,3402 "/>
    <path class="fil0" d="M8262 3531c25,-7 43,-20 55,-37 12,-17 18,-35 18,-53 0,-19 -4,-34 -12,-44 -8,-11 -19,-17 -32,-17 -11,0 -20,4 -27,10 -6,7 -10,15 -10,26 0,10 3,19 8,25 6,6 13,9 23,10 2,12 2,24 -2,37 -4,13 -11,24 -21,31l0 12z"/>
   </g>
   <path class="fil2" d="M1319 3020c16,-19 30,-48 109,-67 0,0 2667,-906 6215,-724 0,0 202,-8 147,80 -32,52 -92,55 -206,61 0,0 -38,6 -189,4 0,0 363,141 -1070,112 0,0 127,129 -400,92 0,0 -1469,-67 -4438,471 0,0 -233,51 -168,-29l0 0z"/>
   <path class="fil3" d="M9174 1807c0,0 416,342 -100,325 0,0 -100,8 -161,-199 0,0 -177,-404 -164,-557 -18,19 -116,138 -172,268 -33,76 -46,102 -92,174 -26,36 -50,69 -73,90 -227,211 -250,-58 -250,-58 -47,-230 71,-599 71,-599 86,-254 212,-149 212,-149 174,45 104,213 104,213 -38,129 -71,101 -71,101 -43,28 -55,90 -58,128 0,0 -16,143 48,34 47,-98 140,-260 208,-312 0,0 99,-105 157,-18 0,0 251,503 341,559l0 0zm-7102 1085c106,148 188,253 166,273 -73,63 -398,-192 -398,-192 -567,-469 -817,-1068 -872,-1213 -8,-22 8,-41 8,-41 20,-21 50,-33 132,-42 0,0 1,0 0,0 -43,-21 -56,-26 -52,-41 8,-23 87,-23 87,-23 63,-2 108,-6 108,-6 92,-10 139,-19 139,-19 195,-31 272,-116 272,-116 193,-196 -117,-392 -117,-392 -788,-452 -1421,-238 -1421,-238 -35,10 -61,10 -99,-2 -18,-6 -25,-16 -25,-29 0,-44 89,-116 89,-116 391,-323 596,-226 596,-226 758,50 1092,447 1092,447 264,279 195,502 160,567 -129,237 -436,243 -436,243 -47,2 -89,4 -126,4 35,40 61,110 61,110 59,184 636,1052 636,1052l0 0zm-1019 -1899c43,77 -14,201 -14,201 -246,502 -553,1689 -614,1931l1 0c0,0 -2,4 -4,10 -5,22 -8,34 -8,34 -4,18 -9,34 -13,49 -7,37 -12,84 -11,137l-1 0c2,64 0,130 -20,139 -55,25 -84,-49 -99,-129 -54,-13 -98,-83 -98,-83 -200,-133 -51,-504 -51,-504 136,-538 806,-1671 806,-1671 79,-126 111,-141 126,-114l0 0zm1546 1051c-17,27 -33,58 -76,85 0,0 -222,136 -214,-56 0,0 7,-106 44,-205 0,0 102,-259 260,-410 15,-15 27,-16 35,-5 22,30 26,64 43,92 4,8 9,16 14,23 -18,97 -67,282 -75,421 -6,19 -20,37 -31,55l0 0zm584 -119c0,0 -1,-7 -7,-12 -14,-10 -86,23 -158,65 -11,7 -21,13 -31,18 -26,17 -51,33 -61,42 0,0 -46,36 -41,-46 0,-1 0,-2 0,-3l0 0c1,-18 4,-42 5,-67 0,0 63,-251 91,-321 0,0 14,-66 38,-142 0,0 107,-111 -90,-147 0,0 -94,-231 -195,133 0,0 0,0 0,0 -7,-38 -41,-96 -94,-118 -11,-6 -26,-11 -47,-13 -8,0 -13,2 -30,-1 0,0 -94,-32 -196,94 -107,118 -420,494 -349,809 0,0 39,163 184,162 0,0 191,2 336,-135 0,0 43,-38 90,-95 1,19 4,40 10,61 1,5 2,9 3,13 0,0 5,36 35,64 22,20 58,35 114,28 6,-1 12,-3 18,-5 0,0 202,-49 197,-135 -2,-42 13,-51 13,-51 0,0 13,-7 9,-22 0,0 161,-108 156,-176l0 0zm3502 -656c91,63 242,203 217,349 0,0 -44,328 -587,317 0,0 -59,-3 -60,-40 0,-27 11,-49 58,-67 0,0 353,-114 122,-538 0,0 -88,67 -210,162 0,0 -86,95 -80,-39 0,0 8,-74 39,-103 0,0 198,-116 263,-298 33,-120 208,-221 225,-120 8,45 -44,74 -70,106 -59,73 17,229 83,271l0 0zm788 -246c95,-125 161,-69 161,-69 9,5 28,-1 36,-1 126,-10 23,114 23,114 -106,144 -202,413 -202,413 -25,61 -48,159 -48,159 -38,164 134,48 134,48 25,-17 47,-42 59,-53 19,-19 37,-21 37,-21 36,-5 -26,-192 -26,-192 -26,-74 -21,-77 -21,-77 -17,-91 34,-115 34,-115 53,-32 97,54 97,54 48,73 91,266 91,266 41,171 -87,158 -87,158 -54,10 -144,100 -144,100 -142,117 -339,129 -339,129 -196,7 -180,-166 -180,-166 -2,-186 375,-747 375,-747l0 0zm-2256 -441c-6,52 -33,94 -70,117 -53,40 -163,108 -198,99 -36,-9 4,-123 6,-154 2,-36 2,-63 9,-96 12,-77 74,-133 142,-126 70,8 120,79 111,160l0 0zm474 505c0,0 320,340 307,576 0,0 -44,329 -587,317 0,0 -135,-20 -3,-106 0,0 354,-114 122,-539 0,0 -218,257 -363,399l1 1c-414,404 -496,256 -496,256 -157,-226 -42,-719 -42,-719 61,-262 196,-169 196,-169 198,32 124,203 124,203 -25,131 -57,116 -57,116 -61,50 -74,266 -74,266 25,119 -81,285 225,19 73,-73 440,-487 499,-649 0,0 61,-159 148,29l0 0zm-2045 819c0,0 -40,-27 -38,-149 0,0 12,-212 155,-381 0,0 40,-51 73,-58 11,-2 29,14 37,79 2,16 -44,19 -27,70 0,0 77,194 238,106 -7,40 -14,80 -22,120 -84,117 -261,319 -416,213l0 0zm686 -1816c0,0 -176,-223 -147,34 0,0 25,535 -64,1202 -10,-26 -24,-52 -42,-78 0,0 -154,-206 -327,-149 0,0 -220,70 -348,402 0,0 -90,230 -64,403 0,0 -9,455 545,133 0,0 58,-35 127,-105 -13,57 -35,94 -37,152 0,0 -20,120 35,151 21,11 43,-5 92,-122 0,0 394,-1009 415,-1426 0,0 138,-206 -185,-597l0 0z"/>
   <path class="fil2" d="M8031 2250c109,6 231,8 400,24 88,9 223,9 242,66 18,52 -48,106 -166,128 -60,12 -98,22 -152,20 -64,-2 -200,3 -204,-71 -3,-46 -93,-46 -152,-48 -120,-5 -107,-38 -81,-79 15,-25 48,-41 113,-40l0 0z"/>
   <path class="fil2" d="M11697 444c0,-35 -28,-63 -63,-63l-1967 0c-35,0 -63,28 -63,63l0 1967c0,35 29,63 63,63l1968 0c34,0 62,-29 62,-63l0 -1967z"/>
   <path class="fil4" d="M11415 1716c-31,-74 -40,-169 -45,-247 -74,165 -185,418 -310,398 -75,-11 -80,-141 -63,-267 -49,107 -96,218 -154,285 0,0 -4,5 -13,16 -14,16 -49,55 -81,63 -2,0 -6,1 -9,1 -10,2 -20,1 -31,-1 -25,-8 -49,-33 -69,-81 -4,-8 -7,-17 -9,-26 -3,-13 -5,-25 -7,-37 -22,36 -47,69 -75,97 -91,89 -190,144 -306,177 -105,30 -233,55 -337,4 -105,-52 -124,-174 -77,-278 17,-38 28,-15 21,29 -3,16 -5,32 -6,48 -8,266 404,139 517,74 84,-49 118,-85 159,-127 56,-57 96,-154 106,-237 23,-199 -225,-198 -342,-193 -4,0 -7,0 -11,-1 -13,36 -27,72 -41,107 -29,70 -54,128 -82,197 -23,58 -60,133 -95,183 -22,30 -39,20 -37,-16 3,-62 36,-132 60,-188 27,-64 54,-128 81,-192 53,-126 104,-255 135,-391 9,-40 64,-33 58,9 -7,49 -18,96 -31,143 38,-51 76,-102 109,-158 32,-56 103,-208 15,-254 -72,-38 -170,23 -225,68 -62,49 -130,113 -180,195 -24,29 -40,12 -28,-11 45,-91 129,-179 205,-236 71,-54 185,-125 270,-65 96,69 59,211 13,300 -44,86 -101,160 -154,238 114,-1 253,15 317,122 7,11 13,23 18,35 28,-77 59,-141 82,-190 85,-188 130,-269 241,-431 16,-22 39,3 26,26 -157,273 -259,482 -323,738 -6,21 -10,42 -12,54 0,0 0,2 0,2 -6,47 -10,111 12,150 4,8 9,14 14,18 0,0 0,0 0,0 28,21 62,-16 80,-40 46,-57 86,-123 120,-192 57,-115 117,-238 153,-368 11,-40 60,-32 58,15 -4,75 -24,147 -38,219 -10,50 -73,349 25,256 107,-101 177,-264 247,-409 13,-26 48,-21 52,13 14,111 15,213 51,319 16,48 -34,84 -54,37z"/>
   <path class="fil5" d="M11529 1250l0 358c0,112 -68,135 -178,135l-212 0c-110,0 -177,-23 -177,-135l0 -358 90 0 0 358c0,34 6,56 85,56l216 0c80,0 86,-22 86,-56l0 -358 90 0zm-1002 409l357 0 0 79 -447 0 0 -488 90 0 0 409zm-667 -133c26,0 306,0 306,0 59,0 74,11 74,52l0 33c0,30 -11,48 -65,48 0,0 -289,0 -315,0 0,-21 0,-112 0,-133zm362 -121c0,20 -6,43 -54,43 0,0 -282,0 -308,0 0,-21 0,-99 0,-119 26,0 311,0 311,0 8,0 51,2 51,34l0 42zm50 71c25,-15 40,-38 40,-70l0 -40c0,-43 -17,-116 -136,-116l-406 0 0 488 413 0c89,0 147,-44 147,-112l0 -55c0,-48 -20,-80 -58,-95z"/>
  </g>
 </g>
</svg>
