<?xml version="1.0" encoding="UTF-8"?>
<!DOCTYPE svg PUBLIC "-//W3C//DTD SVG 1.1//EN" "http://www.w3.org/Graphics/SVG/1.1/DTD/svg11.dtd">
<!-- Creator: CorelDRAW X8 -->
<svg xmlns="http://www.w3.org/2000/svg" xml:space="preserve" width="18.1722cm" height="5.20223cm" version="1.1" style="shape-rendering:geometricPrecision; text-rendering:geometricPrecision; image-rendering:optimizeQuality; fill-rule:evenodd; clip-rule:evenodd"
viewBox="0 0 18172 5202"
 xmlns:xlink="http://www.w3.org/1999/xlink">
 <defs>
  <style type="text/css">
   <![CDATA[
    .fil0 {fill:#E41B42;fill-rule:nonzero}
    .fil1 {fill:#5A2A59;fill-rule:nonzero}
   ]]>
  </style>
 </defs>
 <g id="Слой_x0020_1">
  <metadata id="CorelCorpID_0Corel-Layer"/>
  <g id="_2822889898096">
   <path class="fil0" d="M4060 2865c73,0 132,-59 132,-132 0,-73 -59,-132 -132,-132 -73,0 -132,59 -132,132 0,73 59,132 132,132z"/>
   <path class="fil0" d="M4420 3238c73,0 132,-59 132,-132 0,-73 -59,-132 -132,-132 -73,0 -132,59 -132,132 0,73 59,132 132,132z"/>
   <path class="fil0" d="M3993 3379c73,0 132,-59 132,-132 0,-73 -59,-132 -132,-132 -73,0 -132,59 -132,132 0,73 59,132 132,132z"/>
   <path class="fil0" d="M3616 3133c73,0 132,-59 132,-132 0,-73 -59,-132 -132,-132 -73,0 -132,59 -132,132 0,73 59,132 132,132z"/>
   <path class="fil0" d="M3574 2685c72,0 132,-59 132,-132 0,-73 -60,-132 -132,-132 -73,0 -132,59 -132,132 0,73 59,132 132,132z"/>
   <path class="fil0" d="M3897 2373c73,0 132,-59 132,-132 0,-73 -59,-132 -132,-132 -73,0 -132,59 -132,132 0,73 59,132 132,132z"/>
   <path class="fil0" d="M4343 2431c73,0 132,-59 132,-132 0,-73 -59,-132 -132,-132 -73,0 -132,59 -132,132 0,73 59,132 132,132z"/>
   <path class="fil0" d="M4576 2816c73,0 132,-59 132,-132 0,-73 -59,-132 -132,-132 -73,0 -132,59 -132,132 0,73 59,132 132,132z"/>
   <path class="fil0" d="M4780 3610c73,0 132,-59 132,-132 0,-72 -59,-131 -132,-131 -73,0 -132,59 -132,131 0,73 59,132 132,132z"/>
   <path class="fil0" d="M4385 3849c73,0 132,-59 132,-132 0,-73 -59,-132 -132,-132 -73,0 -132,59 -132,132 0,73 59,132 132,132z"/>
   <path class="fil0" d="M3926 3893c73,0 132,-59 132,-132 0,-73 -59,-132 -132,-132 -73,0 -132,59 -132,132 0,73 59,132 132,132z"/>
   <path class="fil0" d="M3493 3733c73,0 132,-59 132,-132 0,-73 -59,-132 -132,-132 -73,0 -132,59 -132,132 0,73 59,132 132,132z"/>
   <path class="fil0" d="M3172 3401c73,0 132,-59 132,-132 0,-73 -59,-132 -132,-132 -72,0 -132,59 -132,132 0,73 60,132 132,132z"/>
   <path class="fil0" d="M3028 2963c73,0 132,-59 132,-132 0,-73 -59,-132 -132,-132 -73,0 -132,59 -132,132 0,73 59,132 132,132z"/>
   <path class="fil0" d="M3087 2505c73,0 132,-59 132,-132 0,-72 -59,-131 -132,-131 -73,0 -132,59 -132,131 0,73 59,132 132,132z"/>
   <path class="fil0" d="M3340 2119c73,0 132,-59 132,-132 0,-73 -59,-132 -132,-132 -73,0 -132,59 -132,132 0,73 59,132 132,132z"/>
   <path class="fil0" d="M3734 1881c73,0 132,-60 132,-132 0,-73 -59,-132 -132,-132 -72,0 -132,59 -132,132 0,72 60,132 132,132z"/>
   <path class="fil0" d="M4194 1837c73,0 132,-59 132,-132 0,-73 -59,-132 -132,-132 -73,0 -132,59 -132,132 0,73 59,132 132,132z"/>
   <path class="fil0" d="M4626 1997c73,0 132,-59 132,-132 0,-73 -59,-132 -132,-132 -72,0 -132,59 -132,132 0,73 60,132 132,132z"/>
   <path class="fil0" d="M4947 2329c73,0 132,-59 132,-132 0,-73 -59,-132 -132,-132 -73,0 -132,59 -132,132 0,73 59,132 132,132z"/>
   <path class="fil0" d="M5092 2767c73,0 132,-59 132,-132 0,-73 -59,-132 -132,-132 -73,0 -132,59 -132,132 0,73 59,132 132,132z"/>
   <path class="fil0" d="M5032 3224c73,0 132,-59 132,-132 0,-73 -59,-132 -132,-132 -73,0 -132,59 -132,132 0,73 59,132 132,132z"/>
   <path class="fil1" d="M5140 3983c73,0 132,-59 132,-132 0,-72 -59,-132 -132,-132 -73,0 -132,60 -132,132 0,73 59,132 132,132z"/>
   <path class="fil1" d="M4762 4252c73,0 132,-59 132,-132 0,-73 -59,-132 -132,-132 -73,0 -132,59 -132,132 0,73 59,132 132,132z"/>
   <path class="fil1" d="M4322 4397c73,0 132,-59 132,-132 0,-72 -59,-131 -132,-131 -73,0 -132,59 -132,131 0,73 59,132 132,132z"/>
   <path class="fil1" d="M3859 4407c73,0 132,-59 132,-132 0,-73 -59,-132 -132,-132 -73,0 -132,59 -132,132 0,73 59,132 132,132z"/>
   <path class="fil1" d="M3413 4238c51,0 92,-41 92,-91 0,-51 -41,-91 -92,-91 -50,0 -91,40 -91,91 0,50 41,91 91,91z"/>
   <path class="fil1" d="M2729 3629c50,0 91,-42 91,-92 0,-50 -41,-91 -91,-91 -51,0 -92,41 -92,91 0,50 41,92 92,92z"/>
   <path class="fil1" d="M2551 3241c73,0 132,-59 132,-132 0,-73 -59,-132 -132,-132 -73,0 -132,59 -132,132 0,73 59,132 132,132z"/>
   <path class="fil1" d="M2507 2780c73,0 132,-60 132,-132 0,-73 -59,-132 -132,-132 -73,0 -132,59 -132,132 0,72 59,132 132,132z"/>
   <path class="fil1" d="M2601 2326c73,0 132,-59 132,-132 0,-73 -59,-132 -132,-132 -73,0 -132,59 -132,132 0,73 59,132 132,132z"/>
   <path class="fil1" d="M2825 1920c73,0 132,-59 132,-132 0,-73 -59,-132 -132,-132 -73,0 -132,59 -132,132 0,73 59,132 132,132z"/>
   <path class="fil1" d="M3158 1598c73,0 132,-59 132,-132 0,-73 -59,-132 -132,-132 -73,0 -132,59 -132,132 0,73 59,132 132,132z"/>
   <path class="fil1" d="M3572 1388c73,0 132,-59 132,-132 0,-72 -59,-131 -132,-131 -73,0 -132,59 -132,131 0,73 59,132 132,132z"/>
   <path class="fil1" d="M4029 1310c73,0 132,-59 132,-132 0,-73 -59,-132 -132,-132 -73,0 -132,59 -132,132 0,73 59,132 132,132z"/>
   <path class="fil1" d="M4488 1330c51,0 92,-41 92,-92 0,-50 -41,-91 -92,-91 -50,0 -91,41 -91,91 0,51 41,92 91,92z"/>
   <path class="fil1" d="M5582 3181c73,0 132,-60 132,-132 0,-73 -59,-132 -132,-132 -73,0 -132,59 -132,132 0,72 59,132 132,132z"/>
   <path class="fil1" d="M5422 3615c72,0 132,-59 132,-132 0,-72 -60,-132 -132,-132 -73,0 -132,60 -132,132 0,73 59,132 132,132z"/>
   <path class="fil1" d="M5500 4316c50,0 91,-41 91,-92 0,-50 -41,-91 -91,-91 -51,0 -92,41 -92,91 0,51 41,92 92,92z"/>
   <path class="fil1" d="M5132 4639c73,0 132,-59 132,-132 0,-72 -59,-132 -132,-132 -73,0 -132,60 -132,132 0,73 59,132 132,132z"/>
   <path class="fil1" d="M2004 2597c73,0 132,-59 132,-132 0,-73 -59,-132 -132,-132 -73,0 -132,59 -132,132 0,73 59,132 132,132z"/>
   <path class="fil1" d="M2115 2146c73,0 132,-59 132,-132 0,-73 -59,-132 -132,-132 -73,0 -132,59 -132,132 0,73 59,132 132,132z"/>
   <path class="fil1" d="M2324 1731c73,0 132,-59 132,-132 0,-72 -59,-132 -132,-132 -73,0 -132,60 -132,132 0,73 59,132 132,132z"/>
   <path class="fil1" d="M2619 1333c51,0 92,-41 92,-91 0,-51 -41,-92 -92,-92 -50,0 -91,41 -91,92 0,50 41,91 91,91z"/>
   <path class="fil1" d="M6028 2174c51,0 92,-41 92,-92 0,-50 -41,-91 -92,-91 -50,0 -91,41 -91,91 0,51 41,92 91,92z"/>
   <path class="fil1" d="M6124 2669c73,0 132,-59 132,-132 0,-73 -59,-132 -132,-132 -73,0 -132,59 -132,132 0,73 59,132 132,132z"/>
   <path class="fil1" d="M6116 3133c72,0 132,-59 132,-132 0,-73 -60,-132 -132,-132 -73,0 -132,59 -132,132 0,73 59,132 132,132z"/>
   <path class="fil1" d="M6004 3584c73,0 132,-59 132,-132 0,-73 -59,-132 -132,-132 -73,0 -132,59 -132,132 0,73 59,132 132,132z"/>
   <path class="fil1" d="M5498 5021c73,0 132,-60 132,-132 0,-73 -59,-132 -132,-132 -73,0 -132,59 -132,132 0,72 59,132 132,132z"/>
   <path class="fil1" d="M5090 5202c51,0 92,-41 92,-91 0,-51 -41,-92 -92,-92 -50,0 -91,41 -91,92 0,50 41,91 91,91z"/>
   <path class="fil1" d="M1508 2415c72,0 132,-59 132,-132 0,-73 -60,-132 -132,-132 -73,0 -133,59 -133,132 0,73 60,132 133,132z"/>
   <path class="fil1" d="M1629 1966c73,0 132,-59 132,-132 0,-72 -59,-132 -132,-132 -73,0 -132,60 -132,132 0,73 59,132 132,132z"/>
   <path class="fil1" d="M1828 1547c73,0 132,-59 132,-132 0,-73 -59,-132 -132,-132 -73,0 -132,59 -132,132 0,73 59,132 132,132z"/>
   <path class="fil1" d="M2100 1169c72,0 132,-59 132,-132 0,-72 -60,-131 -132,-131 -73,0 -132,59 -132,131 0,73 59,132 132,132z"/>
   <path class="fil1" d="M2434 847c73,0 132,-59 132,-132 0,-73 -59,-132 -132,-132 -73,0 -132,59 -132,132 0,73 59,132 132,132z"/>
   <path class="fil1" d="M6640 2579c50,0 91,-41 91,-91 0,-51 -41,-92 -91,-92 -51,0 -92,41 -92,92 0,50 41,91 92,91z"/>
   <path class="fil1" d="M6642 3084c73,0 132,-59 132,-132 0,-73 -59,-132 -132,-132 -73,0 -132,59 -132,132 0,73 59,132 132,132z"/>
   <path class="fil1" d="M6561 3542c73,0 132,-59 132,-132 0,-73 -59,-132 -132,-132 -73,0 -132,59 -132,132 0,73 59,132 132,132z"/>
   <path class="fil1" d="M964 3119c50,0 91,-41 91,-92 0,-50 -41,-91 -91,-91 -51,0 -92,41 -92,91 0,51 41,92 92,92z"/>
   <path class="fil1" d="M954 2694c73,0 132,-59 132,-132 0,-72 -59,-132 -132,-132 -72,0 -132,60 -132,132 0,73 60,132 132,132z"/>
   <path class="fil1" d="M1015 2233c72,0 132,-59 132,-132 0,-72 -60,-131 -132,-131 -73,0 -132,59 -132,131 0,73 59,132 132,132z"/>
   <path class="fil1" d="M1143 1787c73,0 132,-59 132,-132 0,-73 -59,-132 -132,-132 -73,0 -132,59 -132,132 0,73 59,132 132,132z"/>
   <path class="fil1" d="M1336 1364c73,0 132,-59 132,-132 0,-73 -59,-132 -132,-132 -73,0 -132,59 -132,132 0,73 59,132 132,132z"/>
   <path class="fil1" d="M1590 975c73,0 132,-59 132,-132 0,-73 -59,-132 -132,-132 -73,0 -132,59 -132,132 0,73 59,132 132,132z"/>
   <path class="fil1" d="M1899 628c73,0 132,-59 132,-132 0,-73 -59,-132 -132,-132 -73,0 -132,59 -132,132 0,73 59,132 132,132z"/>
   <path class="fil1" d="M2257 290c50,0 91,-41 91,-91 0,-51 -41,-92 -91,-92 -51,0 -92,41 -92,92 0,50 41,91 92,91z"/>
   <path class="fil1" d="M7165 3035c73,0 132,-59 132,-132 0,-72 -59,-132 -132,-132 -73,0 -132,60 -132,132 0,73 59,132 132,132z"/>
   <path class="fil1" d="M7105 3496c73,0 132,-59 132,-132 0,-73 -59,-132 -132,-132 -73,0 -132,59 -132,132 0,73 59,132 132,132z"/>
   <path class="fil1" d="M433 2935c51,0 92,-41 92,-91 0,-51 -41,-91 -92,-91 -50,0 -91,40 -91,91 0,50 41,91 91,91z"/>
   <path class="fil1" d="M449 2471c50,0 91,-41 91,-92 0,-50 -41,-91 -91,-91 -51,0 -92,41 -92,91 0,51 41,92 92,92z"/>
   <path class="fil1" d="M524 2052c73,0 132,-59 132,-132 0,-72 -59,-131 -132,-131 -73,0 -132,59 -132,131 0,73 59,132 132,132z"/>
   <path class="fil1" d="M657 1607c72,0 132,-59 132,-132 0,-73 -60,-132 -132,-132 -73,0 -132,59 -132,132 0,73 59,132 132,132z"/>
   <path class="fil1" d="M845 1182c73,0 132,-59 132,-132 0,-73 -59,-132 -132,-132 -73,0 -132,59 -132,132 0,73 59,132 132,132z"/>
   <path class="fil1" d="M1087 785c73,0 132,-59 132,-132 0,-73 -59,-132 -132,-132 -73,0 -132,59 -132,132 0,73 59,132 132,132z"/>
   <path class="fil1" d="M1377 422c73,0 132,-59 132,-132 0,-73 -59,-132 -132,-132 -73,0 -132,59 -132,132 0,73 59,132 132,132z"/>
   <path class="fil1" d="M7686 2946c50,0 91,-41 91,-92 0,-50 -41,-91 -91,-91 -51,0 -92,41 -92,91 0,51 41,92 92,92z"/>
   <path class="fil1" d="M7641 3409c50,0 91,-42 91,-92 0,-50 -41,-91 -91,-91 -51,0 -92,41 -92,91 0,50 41,92 92,92z"/>
   <path class="fil1" d="M170 1387c51,0 92,-41 92,-92 0,-50 -41,-91 -92,-91 -50,0 -91,41 -91,91 0,51 41,92 91,92z"/>
   <path class="fil1" d="M356 1001c73,0 132,-59 132,-132 0,-73 -59,-132 -132,-132 -73,0 -132,59 -132,132 0,73 59,132 132,132z"/>
   <path class="fil1" d="M588 598c73,0 132,-59 132,-132 0,-73 -59,-132 -132,-132 -73,0 -132,59 -132,132 0,73 59,132 132,132z"/>
   <path class="fil1" d="M863 183c51,0 92,-41 92,-92 0,-50 -41,-91 -92,-91 -50,0 -91,41 -91,91 0,51 41,92 91,92z"/>
   <path class="fil1" d="M91 372c51,0 92,-41 92,-91 0,-51 -41,-92 -92,-92 -50,0 -91,41 -91,92 0,50 41,91 91,91z"/>
   <path class="fil0" d="M9292 4587l0 0c-50,0 -91,-41 -91,-91l0 -3789c0,-51 41,-92 91,-92 51,0 92,41 92,92l0 3789c0,50 -41,91 -92,91z"/>
   <path class="fil1" d="M11442 1655c-24,0 -46,-21 -46,-46l0 -322 -310 0 0 322c0,25 -21,46 -46,46 -25,0 -45,-21 -45,-46l0 -733c0,-24 20,-45 45,-45 25,0 46,21 46,45l0 322 310 0 0 -322c0,-24 22,-45 46,-45 23,0 45,21 45,45l0 733c0,25 -20,46 -45,46z"/>
   <path class="fil1" d="M11710 1478l0 4c0,54 24,91 100,91 49,0 88,-16 128,-50l0 -123c-38,-11 -82,-17 -116,-17 -94,0 -112,44 -112,95zm228 -218c0,-84 -40,-122 -122,-122 -40,0 -61,10 -86,24 -4,1 -17,9 -30,9 -22,0 -31,-21 -32,-38 -4,-52 81,-74 159,-74 143,0 199,80 199,230l0 250c0,23 7,34 21,34 3,0 4,-1 9,-1 22,0 33,19 33,39 0,28 -26,38 -51,38 -38,0 -68,-21 -86,-56 -43,39 -94,60 -155,60 -117,0 -174,-70 -174,-172l0 -4c0,-112 66,-169 200,-169 41,0 79,6 115,16l0 -64z"/>
   <path class="fil1" d="M12621 1569l31 0c25,0 44,19 44,44l0 146c0,25 -19,44 -44,44 -25,0 -44,-19 -44,-44l0 -115 -361 0c-25,0 -44,-21 -44,-45l0 -492c0,-25 19,-44 44,-44 25,0 45,19 45,44l0 462 241 0 0 -462c0,-25 19,-44 44,-44 25,0 44,19 44,44l0 462z"/>
   <path class="fil1" d="M12805 1605l0 -497c0,-25 18,-46 43,-46 25,0 46,21 46,46l0 384 252 -403c9,-17 27,-27 47,-27 28,0 47,21 47,50l0 497c0,25 -19,46 -44,46 -25,0 -44,-21 -44,-46l0 -384 -252 404c-10,16 -27,26 -45,26 -30,0 -50,-23 -50,-50z"/>
   <path class="fil1" d="M13712 1451l0 -192c0,-74 -42,-119 -124,-119 -81,0 -124,45 -124,119l0 192c0,74 43,120 124,120 82,0 124,-46 124,-120zm-336 0l0 -190c0,-114 74,-203 212,-203 139,0 213,89 213,203l0 190c0,113 -74,202 -213,202 -138,0 -212,-89 -212,-202z"/>
   <path class="fil1" d="M13981 1653c-25,0 -44,-19 -44,-44l0 -502c0,-24 19,-44 44,-44 25,0 44,20 44,44l0 203 242 0 0 -203c0,-24 19,-44 44,-44 25,0 44,20 44,44l0 502c0,25 -19,44 -44,44 -25,0 -44,-19 -44,-44l0 -224 -242 0 0 224c0,25 -19,44 -44,44z"/>
   <path class="fil1" d="M14577 1478l0 4c0,54 24,91 101,91 48,0 87,-16 127,-50l0 -123c-38,-11 -82,-17 -116,-17 -93,0 -112,44 -112,95zm228 -218c0,-84 -40,-122 -122,-122 -40,0 -61,10 -86,24 -4,1 -17,9 -30,9 -21,0 -31,-21 -32,-38 -4,-52 81,-74 159,-74 143,0 199,80 199,230l0 250c0,23 7,34 21,34 3,0 4,-1 9,-1 22,0 33,19 33,39 0,28 -26,38 -51,38 -38,0 -68,-21 -85,-56 -44,39 -95,60 -156,60 -117,0 -174,-70 -174,-172l0 -4c0,-112 66,-169 200,-169 41,0 80,6 115,16l0 -64z"/>
   <path class="fil1" d="M15456 1653c-25,0 -45,-19 -45,-44l0 -464 -181 0 -25 313c-9,115 -46,192 -136,192 -35,0 -70,-2 -70,-40 0,-31 22,-43 43,-43 6,0 6,1 14,1 41,0 60,-33 65,-103l30 -351c3,-33 26,-45 43,-45l262 0c24,0 44,21 44,45l0 495c0,25 -20,44 -44,44z"/>
   <path class="fil1" d="M15755 1379l0 189 128 0c67,0 104,-30 104,-95 0,-45 -18,-94 -116,-94l-116 0zm0 -75l116 0c144,0 203,62 203,173 0,99 -62,167 -188,167l-176 0c-25,0 -44,-21 -44,-45l0 -492c0,-24 19,-44 44,-44 26,0 45,20 45,44l0 197z"/>
   <path class="fil1" d="M16247 1653c-24,0 -44,-19 -44,-44l0 -502c0,-24 20,-44 44,-44 26,0 45,20 45,44l0 203 241 0 0 -203c0,-24 19,-44 44,-44 25,0 45,20 45,44l0 502c0,25 -20,44 -45,44 -25,0 -44,-19 -44,-44l0 -224 -241 0 0 224c0,25 -19,44 -45,44z"/>
   <path class="fil1" d="M17320 1653c-25,0 -44,-19 -44,-44l0 -502c0,-24 19,-44 44,-44 25,0 44,20 44,44l0 502c0,25 -19,44 -44,44zm-444 -274l0 189 129 0c67,0 104,-30 104,-95 0,-45 -19,-94 -117,-94l-116 0zm0 -75l116 0c145,0 204,62 204,173 0,99 -62,167 -189,167l-175 0c-25,0 -44,-21 -44,-45l0 -492c0,-24 19,-44 44,-44 25,0 44,20 44,44l0 197z"/>
   <path class="fil1" d="M17750 924c-26,0 -50,-13 -74,-47 -8,-12 -21,-18 -34,-18 -19,0 -37,13 -30,42 16,62 87,92 138,92 52,0 123,-30 138,-92 8,-29 -10,-42 -30,-42 -12,0 -26,6 -34,18 -24,34 -49,47 -74,47zm-168 731c-30,0 -50,-22 -50,-50l0 -497c0,-25 18,-46 43,-46 25,0 46,21 46,46l0 383 252 -402c9,-17 27,-27 47,-27 28,0 48,21 48,50l0 497c0,25 -20,46 -45,46 -25,0 -44,-21 -44,-46l0 -384 -251 404c-11,16 -28,26 -46,26z"/>
   <path class="fil1" d="M11621 2976c0,24 -20,44 -44,44 -25,0 -47,-20 -47,-44l0 -554 -183 392c-9,18 -25,27 -44,27 -18,0 -34,-9 -43,-27l-183 -392 0 554c0,24 -22,44 -48,44 -24,0 -43,-20 -43,-44l0 -732c0,-28 20,-48 47,-48 23,0 39,10 49,30l222 475 222 -477c11,-20 28,-28 48,-28 27,0 47,22 47,48l0 732z"/>
   <path class="fil1" d="M11835 2843l0 5c0,53 24,91 101,91 48,0 87,-16 127,-50l0 -123c-38,-12 -82,-17 -116,-17 -93,0 -112,43 -112,94zm228 -218c0,-83 -40,-122 -122,-122 -40,0 -61,10 -86,24 -4,1 -17,9 -30,9 -21,0 -31,-20 -32,-37 -4,-53 81,-74 159,-74 143,0 200,79 200,229l0 250c0,23 6,35 20,35 3,0 5,-2 9,-2 22,0 33,20 33,39 0,29 -26,39 -51,39 -38,0 -68,-22 -85,-57 -44,40 -95,60 -156,60 -117,0 -174,-69 -174,-172l0 -4c0,-112 66,-168 200,-168 41,0 80,5 115,16l0 -65z"/>
   <path class="fil1" d="M12421 2916c37,17 87,24 115,24 83,0 113,-47 113,-153l0 -148c0,-88 -35,-135 -111,-135 -38,0 -84,15 -122,39 3,17 5,33 5,47l0 326zm0 80l0 214c0,24 -16,44 -44,44 -28,0 -44,-20 -44,-44l0 -620c0,-38 -5,-60 -19,-80 -4,-7 -7,-13 -7,-23 0,-24 20,-40 39,-40 18,0 33,12 45,28 51,-28 107,-50 166,-50 119,0 180,87 180,214l0 148c0,136 -45,230 -190,230 -38,0 -85,-8 -126,-21z"/>
   <path class="fil1" d="M12916 3018c-25,0 -44,-19 -44,-44l0 -502c0,-24 19,-44 44,-44 25,0 45,20 45,44l0 203 69 0 148 -224c9,-15 21,-22 36,-22 23,0 41,15 42,38 0,8 -2,19 -7,26l-155 231 155 231c5,6 7,18 7,26 -1,22 -19,37 -42,37 -15,0 -27,-7 -36,-21l-163 -247 -54 0 0 224c0,25 -20,44 -45,44z"/>
   <path class="fil1" d="M13533 2505c-74,0 -117,40 -117,104l0 86c42,6 96,8 119,8 87,0 101,-46 101,-93 0,-74 -37,-105 -103,-105zm125 403c2,-1 8,-4 16,-4 23,0 40,20 40,40 0,56 -123,74 -184,74 -129,0 -203,-82 -203,-189l0 -212c0,-109 73,-192 208,-192 126,0 189,72 189,185 0,104 -57,168 -192,168 -34,0 -76,-3 -116,-10l0 67c0,64 42,105 124,105 47,0 78,-14 118,-32z"/>
   <path class="fil1" d="M14045 2974c0,25 -20,44 -45,44 -25,0 -44,-19 -44,-44l0 -455 -118 0c-23,0 -41,-18 -41,-42 0,-24 18,-42 41,-42l325 0c23,0 41,18 41,42 0,24 -18,42 -41,42l-118 0 0 455z"/>
   <path class="fil1" d="M14316 2970l0 -496c0,-26 18,-47 43,-47 25,0 45,21 45,47l0 383 253 -403c9,-17 27,-27 47,-27 28,0 47,21 47,50l0 497c0,25 -19,46 -44,46 -25,0 -45,-21 -45,-46l0 -383 -251 403c-10,16 -27,26 -45,26 -30,0 -50,-22 -50,-50z"/>
   <path class="fil1" d="M14963 3018c-25,0 -44,-19 -44,-44l0 -502c0,-24 19,-44 44,-44 25,0 44,20 44,44l0 203 241 0 0 -203c0,-24 20,-44 45,-44 25,0 44,20 44,44l0 502c0,25 -19,44 -44,44 -25,0 -45,-19 -45,-44l0 -224 -241 0 0 224c0,25 -19,44 -44,44z"/>
   <path class="fil1" d="M15592 2974c0,25 -19,44 -44,44 -25,0 -45,-19 -45,-44l0 -499c0,-23 19,-40 41,-40l256 0c22,0 41,17 41,40 0,22 -18,39 -41,39l-208 0 0 460z"/>
   <path class="fil1" d="M16236 2816l0 -191c0,-74 -42,-120 -124,-120 -82,0 -124,46 -124,120l0 191c0,75 42,120 124,120 82,0 124,-45 124,-120zm-337 0l0 -190c0,-114 74,-203 213,-203 139,0 213,89 213,203l0 190c0,113 -74,202 -213,202 -139,0 -213,-89 -213,-202z"/>
   <path class="fil1" d="M16654 2755l-105 0 0 178 117 0c68,0 104,-27 104,-89 0,-43 -19,-89 -116,-89zm-105 -75l108 0c85,0 101,-40 101,-80 0,-62 -36,-89 -103,-89l-106 0 0 169zm217 36c64,22 91,68 91,132 0,95 -62,161 -189,161l-163 0c-25,0 -45,-20 -45,-44l0 -486c0,-24 20,-44 45,-44l152 0c127,0 189,67 189,160 0,58 -24,99 -80,121z"/>
   <path class="fil1" d="M17525 3018c-25,0 -44,-19 -44,-44l0 -502c0,-24 19,-44 44,-44 25,0 44,20 44,44l0 502c0,25 -19,44 -44,44zm-444 -274l0 189 129 0c67,0 103,-30 103,-95 0,-45 -18,-94 -116,-94l-116 0zm0 -75l116 0c145,0 204,63 204,173 0,99 -63,167 -189,167l-175 0c-25,0 -44,-20 -44,-44l0 -493c0,-24 19,-44 44,-44 25,0 44,20 44,44l0 197z"/>
   <path class="fil1" d="M17955 2289c-26,0 -50,-12 -74,-46 -8,-13 -21,-19 -34,-19 -19,0 -38,13 -31,42 16,62 88,93 139,93 51,0 123,-31 138,-93 8,-29 -11,-42 -30,-42 -12,0 -26,6 -34,19 -24,34 -49,46 -74,46zm-168 731c-30,0 -50,-22 -50,-50l0 -497c0,-25 18,-46 43,-46 25,0 45,21 45,46l0 384 253 -403c9,-17 27,-27 46,-27 29,0 48,21 48,50l0 497c0,25 -19,46 -44,46 -25,0 -45,-21 -45,-46l0 -383 -251 403c-10,16 -27,26 -45,26z"/>
   <path class="fil1" d="M10995 4329l0 -721c0,-25 20,-47 45,-47 25,0 46,22 46,47l0 678 310 0 0 -678c0,-25 22,-47 46,-47 25,0 45,22 45,47l0 678 45 0c24,0 46,21 46,45l0 179c0,25 -22,46 -46,46 -23,0 -45,-21 -45,-46l0 -136 -42 0 -3 0 -402 0c-25,0 -45,-21 -45,-45z"/>
   <path class="fil1" d="M11856 3871c-74,0 -117,39 -117,103l0 87c42,5 96,8 119,8 87,0 101,-47 101,-94 0,-74 -37,-104 -103,-104zm125 402c2,-1 8,-3 16,-3 22,0 40,19 40,40 0,55 -123,74 -185,74 -128,0 -202,-82 -202,-189l0 -213c0,-109 73,-192 208,-192 126,0 189,73 189,185 0,105 -57,169 -192,169 -34,0 -76,-4 -116,-11l0 68c0,63 42,104 124,104 47,0 78,-14 118,-32z"/>
   <path class="fil1" d="M12219 4384c-25,0 -45,-20 -45,-45l0 -501c0,-24 20,-45 45,-45 25,0 44,21 44,45l0 202 241 0 0 -202c0,-24 19,-45 45,-45 25,0 44,21 44,45l0 501c0,25 -19,45 -44,45 -26,0 -45,-20 -45,-45l0 -224 -241 0 0 224c0,25 -19,45 -44,45z"/>
   <path class="fil1" d="M12953 4339c0,25 -20,45 -45,45 -25,0 -44,-20 -44,-45l0 -455 -118 0c-23,0 -41,-18 -41,-42 0,-24 18,-42 41,-42l325 0c23,0 41,18 41,42 0,24 -18,42 -41,42l-118 0 0 455z"/>
   <path class="fil1" d="M13317 4281c36,17 86,24 114,24 83,0 113,-47 113,-152l0 -148c0,-89 -35,-136 -110,-136 -39,0 -84,15 -123,39 3,17 6,33 6,47l0 326zm0 80l0 215c0,24 -16,43 -45,43 -28,0 -44,-19 -44,-43l0 -621c0,-38 -5,-59 -18,-80 -5,-7 -8,-12 -8,-23 0,-23 20,-39 40,-39 18,0 33,11 44,27 51,-27 107,-50 166,-50 119,0 181,87 181,215l0 148c0,135 -46,229 -190,229 -39,0 -86,-8 -126,-21z"/>
  </g>
 </g>
</svg>
