<?xml version="1.0" encoding="UTF-8" standalone="no"?>
<svg
   xmlns:dc="http://purl.org/dc/elements/1.1/"
   xmlns:cc="http://creativecommons.org/ns#"
   xmlns:rdf="http://www.w3.org/1999/02/22-rdf-syntax-ns#"
   xmlns:svg="http://www.w3.org/2000/svg"
   xmlns="http://www.w3.org/2000/svg"
   viewBox="0 0 157.61732 157.96933"
   height="157.96933"
   width="157.61732"
   xml:space="preserve"
   id="svg2"
   version="1.1"><metadata
     id="metadata8"><rdf:RDF><cc:Work
         rdf:about=""><dc:format>image/svg+xml</dc:format><dc:type
           rdf:resource="http://purl.org/dc/dcmitype/StillImage" /></cc:Work></rdf:RDF></metadata><defs
     id="defs6"><clipPath
       id="clipPath26"
       clipPathUnits="userSpaceOnUse"><path
         id="path24"
         d="M 0,118.477 H 118.213 V 0 H 0 Z" /></clipPath></defs><g
     transform="matrix(1.3333333,0,0,-1.3333333,0,157.96933)"
     id="g10"><g
       transform="translate(78.1723,53.3858)"
       id="g12"><path
         id="path14"
         style="fill:#ff2d3c;fill-opacity:1;fill-rule:nonzero;stroke:none"
         d="m 0,0 -5.719,-20.973 24.786,-7.626 v 13.346 z" /></g><g
       transform="translate(20.9735,38.1324)"
       id="g16"><path
         id="path18"
         style="fill:#ff2d3c;fill-opacity:1;fill-rule:nonzero;stroke:none"
         d="m 0,0 v -13.346 l 24.786,7.627 -5.719,20.972 z" /></g><g
       id="g20"><g
         clip-path="url(#clipPath26)"
         id="g22"><g
           transform="translate(74.3593,68.6392)"
           id="g28"><path
             id="path30"
             style="fill:#ff2d3c;fill-opacity:1;fill-rule:nonzero;stroke:none"
             d="m 0,0 c 0,-8.424 -6.828,-15.253 -15.253,-15.253 -8.423,0 -15.253,6.829 -15.253,15.253 0,8.424 6.83,15.252 15.253,15.252 C -6.828,15.252 0,8.424 0,0" /></g><path
           id="path32"
           style="fill:#000000;fill-opacity:1;fill-rule:nonzero;stroke:none"
           d="m 57.2,9.533 h 3.814 V 0 H 57.2 Z" /><path
           id="path34"
           style="fill:#000000;fill-opacity:1;fill-rule:nonzero;stroke:none"
           d="M 64.827,15.253 H 68.64 V 7.627 h -3.813 z" /><path
           id="path36"
           style="fill:#000000;fill-opacity:1;fill-rule:nonzero;stroke:none"
           d="m 49.573,15.253 h 3.813 V 7.627 h -3.813 z" /><g
           transform="translate(59.1064,62.9185)"
           id="g38"><path
             id="path40"
             style="fill:#000000;fill-opacity:1;fill-rule:nonzero;stroke:none"
             d="m 0,0 c -3.153,0 -5.72,2.567 -5.72,5.721 0,3.154 2.567,5.72 5.72,5.72 3.154,0 5.72,-2.566 5.72,-5.72 C 5.72,2.567 3.154,0 0,0 m 0,15.254 c -5.256,0 -9.534,-4.276 -9.534,-9.533 0,-5.257 4.278,-9.534 9.534,-9.534 5.257,0 9.534,4.277 9.534,9.534 0,5.257 -4.277,9.533 -9.534,9.533" /></g><g
           transform="translate(104.8661,59.1055)"
           id="g42"><path
             id="path44"
             style="fill:#000000;fill-opacity:1;fill-rule:nonzero;stroke:none"
             d="m 0,0 h -24.136 c 0.75,5.713 1.256,12.117 1.256,19.067 0,4.799 -0.649,9.111 -1.714,12.977 2.187,1.469 4.767,2.276 7.434,2.276 6.91,0 12.611,-5.282 13.281,-12.019 -5.473,-1.667 -9.468,-6.757 -9.468,-12.767 h 3.813 c 0,5.257 4.277,9.533 9.534,9.533 5.257,0 9.533,-4.276 9.533,-9.533 C 9.533,4.277 5.257,0 0,0 m -33.742,-24.787 h -24.034 c -1.609,4.552 -7.05,21.601 -7.05,43.854 0,5.825 1.038,10.866 2.625,15.204 4.68,-3.67 10.42,-5.671 16.441,-5.671 6.005,0 11.731,1.992 16.403,5.644 1.608,-4.344 2.663,-9.378 2.663,-15.177 0,-22.253 -5.441,-39.302 -7.048,-43.854 m -6.005,-11.439 h -12.026 l -1.269,7.626 h 14.566 z M -101.053,28.6 c 0,4.206 3.421,7.627 7.628,7.627 4.206,0 7.626,-3.421 7.626,-7.627 h 3.813 c 0,5.598 -4.041,10.26 -9.359,11.242 0.808,4.441 4.688,7.825 9.359,7.825 5.258,0 9.533,-4.276 9.533,-9.534 h 3.814 c 0,2.489 -0.695,4.81 -1.886,6.805 2.882,1.214 6.326,0.958 8.979,-0.726 -3.688,-5.823 -6.695,-13.497 -7.045,-23.239 h -24.834 c -4.207,0 -7.628,3.421 -7.628,7.627 m 55.284,26.373 c 2.576,-1.667 10.052,-7.167 14.843,-17.066 -4.139,-3.539 -9.346,-5.493 -14.834,-5.493 -5.51,0 -10.734,1.969 -14.88,5.533 4.767,9.93 12.24,15.355 14.871,17.026 M 0,22.88 c -0.038,0 -0.075,-0.005 -0.112,-0.005 -0.95,8.568 -8.228,15.258 -17.048,15.258 -3.062,0 -6.034,-0.821 -8.641,-2.343 -5.815,15.666 -18.358,22.708 -19.047,23.084 l -0.912,0.498 -0.913,-0.498 c -0.488,-0.265 -6.923,-3.88 -12.703,-11.524 -2.168,1.439 -4.712,2.223 -7.357,2.223 -2.216,0 -4.35,-0.562 -6.276,-1.592 -2.374,2.166 -5.518,3.499 -8.977,3.499 -6.763,0 -12.353,-5.06 -13.216,-11.592 -5.467,-0.858 -9.664,-5.585 -9.664,-11.288 0,-6.309 5.132,-11.44 11.441,-11.44 h 24.819 c 0.194,-14.551 2.526,-26.637 4.59,-34.534 l -6.993,-1.749 0.923,-3.697 7.088,1.772 c 1.131,-3.828 2.014,-6.089 2.12,-6.349 l 0.482,-1.203 h 3.489 l 1.906,-11.44 h 18.481 l 1.907,11.44 h 3.489 l 0.48,1.201 c 0.105,0.26 0.988,2.521 2.119,6.349 l 7.089,-1.772 0.923,3.697 -6.993,1.749 c 0.96,3.675 1.978,8.244 2.819,13.561 H 0 c 7.358,0 13.347,5.987 13.347,13.347 0,7.36 -5.989,13.348 -13.347,13.348" /></g><path
           id="path46"
           style="fill:#000000;fill-opacity:1;fill-rule:nonzero;stroke:none"
           d="m 49.573,3.813 h 3.813 V 0 h -3.813 z" /><path
           id="path48"
           style="fill:#000000;fill-opacity:1;fill-rule:nonzero;stroke:none"
           d="M 64.827,3.813 H 68.64 V 0 h -3.813 z" /></g></g></g></svg>