<?xml version="1.0" encoding="UTF-8" standalone="no"?>
<svg
   xmlns:dc="http://purl.org/dc/elements/1.1/"
   xmlns:cc="http://creativecommons.org/ns#"
   xmlns:rdf="http://www.w3.org/1999/02/22-rdf-syntax-ns#"
   xmlns:svg="http://www.w3.org/2000/svg"
   xmlns="http://www.w3.org/2000/svg"
   viewBox="0 0 157.65199 157.65199"
   height="157.65199"
   width="157.65199"
   xml:space="preserve"
   id="svg2"
   version="1.1"><metadata
     id="metadata8"><rdf:RDF><cc:Work
         rdf:about=""><dc:format>image/svg+xml</dc:format><dc:type
           rdf:resource="http://purl.org/dc/dcmitype/StillImage" /></cc:Work></rdf:RDF></metadata><defs
     id="defs6"><clipPath
       id="clipPath18"
       clipPathUnits="userSpaceOnUse"><path
         id="path16"
         d="M 0,118.239 H 118.239 V 0 H 0 Z" /></clipPath></defs><g
     transform="matrix(1.3333333,0,0,-1.3333333,0,157.652)"
     id="g10"><g
       id="g12"><g
         clip-path="url(#clipPath18)"
         id="g14"><g
           transform="translate(59.1194,41.9556)"
           id="g20"><path
             id="path22"
             style="fill:#ff2d3c;fill-opacity:1;fill-rule:nonzero;stroke:none"
             d="m 0,0 c -16.853,0 -30.513,13.661 -30.513,30.513 0,16.853 13.66,30.513 30.513,30.513 16.853,0 30.513,-13.66 30.513,-30.513 C 30.513,13.661 16.853,0 0,0 m 38.142,1.907 c 0.787,0 1.555,-0.08 2.299,-0.231 l -5.294,9.712 c 1.347,2.471 2.428,5.084 3.228,7.797 l 7.395,2.296 v 18.066 l -7.395,2.296 c -0.8,2.712 -1.884,5.326 -3.229,7.8 l 3.607,6.851 -12.773,12.771 -6.853,-3.604 c -2.467,1.344 -5.079,2.426 -7.797,3.227 L 9.032,76.283 H -9.034 l -2.294,-7.395 c -2.718,-0.801 -5.33,-1.883 -7.797,-3.227 l -6.854,3.604 -12.772,-12.771 3.607,-6.851 c -1.346,-2.474 -2.429,-5.088 -3.229,-7.8 L -45.77,39.545 V 21.48 l 7.395,-2.296 c 0.8,-2.714 1.881,-5.327 3.228,-7.798 l -5.294,-9.712 c 0.744,0.153 1.512,0.233 2.299,0.233 5.983,0 10.886,-4.594 11.393,-10.445 l 7.622,3.905 c 2.473,-1.345 5.087,-2.429 7.799,-3.228 l 2.296,-7.395 H 9.034 l 2.296,7.395 c 2.712,0.799 5.326,1.883 7.799,3.228 l 7.618,-3.987 c 0.467,5.891 5.384,10.527 11.395,10.527" /></g><g
           transform="translate(39.7361,51.4912)"
           id="g24"><path
             id="path26"
             style="fill:#000000;fill-opacity:1;fill-rule:nonzero;stroke:none"
             d="M 0,0 H 38.767 C 33.663,-4.719 26.866,-7.628 19.383,-7.628 11.9,-7.628 5.104,-4.719 0,0 m 19.383,19.071 c -5.257,0 -9.535,4.278 -9.535,9.535 v 3.814 c 0,5.258 4.278,9.536 9.535,9.536 5.258,0 9.535,-4.278 9.535,-9.536 v -3.814 c 0,-5.257 -4.277,-9.535 -9.535,-9.535 m -3.814,-3.252 c 1.209,-0.362 2.489,-0.563 3.814,-0.563 1.325,0 2.606,0.201 3.814,0.563 v -0.563 c 0,-2.103 -1.71,-3.814 -3.814,-3.814 -2.103,0 -3.814,1.711 -3.814,3.814 z m -3.386,-2.97 c 1.012,-3.022 3.839,-5.221 7.2,-5.221 3.361,0 6.189,2.199 7.201,5.221 l 5.812,-1.66 C 34.84,10.491 36.547,8.227 36.547,5.687 V 3.814 H 2.22 v 1.873 c 0,2.54 1.706,4.804 4.149,5.502 z m -21.406,8.129 c 0,15.773 12.833,28.606 28.606,28.606 15.774,0 28.606,-12.833 28.606,-28.606 0,-7.481 -2.909,-14.28 -7.628,-19.384 v 4.093 c 0,4.235 -2.844,8.004 -6.917,9.171 l -6.432,1.838 v 0.971 c 3.453,2.416 5.721,6.415 5.721,10.939 v 3.814 c 0,7.359 -5.99,13.35 -13.35,13.35 -7.359,0 -13.349,-5.991 -13.349,-13.35 v -3.814 c 0,-4.524 2.267,-8.523 5.721,-10.939 V 16.696 L 5.32,14.858 C 1.25,13.693 -1.595,9.922 -1.595,5.687 V 1.594 c -4.718,5.104 -7.628,11.903 -7.628,19.384 m 61.027,0 c 0,17.876 -14.544,32.42 -32.421,32.42 -17.877,0 -32.42,-14.544 -32.42,-32.42 0,-17.877 14.543,-32.42 32.42,-32.42 17.877,0 32.421,14.543 32.421,32.42" /></g><g
           transform="translate(38.1413,3.814)"
           id="g28"><path
             id="path30"
             style="fill:#000000;fill-opacity:1;fill-rule:nonzero;stroke:none"
             d="m 0,0 h -34.327 v 1.873 c 0,2.54 1.707,4.804 4.149,5.502 l 5.814,1.66 c 1.012,-3.022 3.84,-5.221 7.2,-5.221 3.361,0 6.189,2.199 7.202,5.221 l 5.811,-1.66 C -1.707,6.677 0,4.413 0,1.873 Z m -26.699,24.792 v 3.814 c 0,5.258 4.278,9.536 9.535,9.536 5.258,0 9.536,-4.278 9.536,-9.536 v -3.814 c 0,-5.257 -4.278,-9.535 -9.536,-9.535 -5.257,0 -9.535,4.278 -9.535,9.535 m 5.721,-12.787 c 1.209,-0.362 2.489,-0.563 3.814,-0.563 1.326,0 2.606,0.201 3.815,0.563 v -0.563 c 0,-2.103 -1.711,-3.813 -3.815,-3.813 -2.103,0 -3.814,1.71 -3.814,3.813 z m 17.875,-0.961 -6.432,1.838 v 0.972 c 3.453,2.415 5.721,6.415 5.721,10.938 v 3.814 c 0,7.359 -5.99,13.35 -13.35,13.35 -7.358,0 -13.349,-5.991 -13.349,-13.35 v -3.814 c 0,-4.523 2.267,-8.523 5.721,-10.938 v -0.972 l -6.434,-1.838 C -35.297,9.879 -38.141,6.108 -38.141,1.873 V -3.814 H 3.814 v 5.687 c 0,4.235 -2.844,8.006 -6.917,9.171" /></g><g
           transform="translate(114.4245,3.814)"
           id="g32"><path
             id="path34"
             style="fill:#000000;fill-opacity:1;fill-rule:nonzero;stroke:none"
             d="m 0,0 h -34.327 v 1.873 c 0,2.54 1.706,4.804 4.149,5.502 l 5.813,1.66 c 1.012,-3.022 3.841,-5.221 7.201,-5.221 3.361,0 6.189,2.199 7.201,5.221 l 5.812,-1.66 C -1.707,6.677 0,4.413 0,1.873 Z m -26.699,24.792 v 3.814 c 0,5.258 4.278,9.536 9.535,9.536 5.258,0 9.536,-4.278 9.536,-9.536 v -3.814 c 0,-5.257 -4.278,-9.535 -9.536,-9.535 -5.257,0 -9.535,4.278 -9.535,9.535 m 5.721,-12.787 c 1.209,-0.362 2.489,-0.563 3.814,-0.563 1.326,0 2.606,0.201 3.814,0.563 v -0.563 c 0,-2.103 -1.71,-3.813 -3.814,-3.813 -2.103,0 -3.814,1.71 -3.814,3.813 z m 17.875,-0.961 -6.432,1.838 v 0.972 c 3.453,2.415 5.721,6.415 5.721,10.938 v 3.814 c 0,7.359 -5.991,13.35 -13.35,13.35 -7.359,0 -13.349,-5.991 -13.349,-13.35 v -3.814 c 0,-4.523 2.267,-8.523 5.721,-10.938 v -0.972 l -6.435,-1.838 c -4.07,-1.165 -6.915,-4.936 -6.915,-9.171 V -3.814 H 3.814 v 5.687 c 0,4.235 -2.844,8.006 -6.917,9.171" /></g></g></g></g></svg>