<?xml version="1.0" encoding="UTF-8" standalone="no"?>
<svg
   xmlns:dc="http://purl.org/dc/elements/1.1/"
   xmlns:cc="http://creativecommons.org/ns#"
   xmlns:rdf="http://www.w3.org/1999/02/22-rdf-syntax-ns#"
   xmlns:svg="http://www.w3.org/2000/svg"
   xmlns="http://www.w3.org/2000/svg"
   viewBox="0 0 137.30933 157.65199"
   height="157.65199"
   width="137.30933"
   xml:space="preserve"
   id="svg2"
   version="1.1"><metadata
     id="metadata8"><rdf:RDF><cc:Work
         rdf:about=""><dc:format>image/svg+xml</dc:format><dc:type
           rdf:resource="http://purl.org/dc/dcmitype/StillImage" /></cc:Work></rdf:RDF></metadata><defs
     id="defs6"><clipPath
       id="clipPath18"
       clipPathUnits="userSpaceOnUse"><path
         id="path16"
         d="M 0,118.239 H 102.982 V 0 H 0 Z" /></clipPath></defs><g
     transform="matrix(1.3333333,0,0,-1.3333333,0,157.652)"
     id="g10"><g
       id="g12"><g
         clip-path="url(#clipPath18)"
         id="g14"><g
           transform="translate(102.9825,78.7217)"
           id="g20"><path
             id="path22"
             style="fill:#ff2d3c;fill-opacity:1;fill-rule:nonzero;stroke:none"
             d="m 0,0 v 14.191 l -5.231,1.747 c -0.463,1.436 -1.037,2.823 -1.707,4.141 l 2.459,4.923 -10.034,10.037 -4.924,-2.46 c -1.316,0.671 -2.705,1.242 -4.14,1.707 l -1.747,5.231 h -14.192 l -1.747,-5.231 c -1.435,-0.463 -2.822,-1.036 -4.139,-1.707 l -4.924,2.46 -10.037,-10.035 2.884,-5.768 0.328,-0.697 h 9.473 l -1.906,-22.885 h -7.629 l 0.874,-10.488 6.009,-6.012 4.926,2.459 c 1.315,-0.672 2.704,-1.24 4.139,-1.707 l 1.747,-5.23 h 14.192 l 1.747,5.232 c 1.435,0.465 2.822,1.035 4.14,1.707 l 4.926,-2.457 10.034,10.031 -2.459,4.926 c 0.67,1.316 1.242,2.704 1.707,4.14 z" /></g><path
           id="path24"
           style="fill:#ff2d3c;fill-opacity:1;fill-rule:nonzero;stroke:none"
           d="M 26.699,74.376 H 38.141 V 28.606 H 26.699 Z" /><g
           transform="translate(70.5616,91.5396)"
           id="g26"><path
             id="path28"
             style="fill:#000000;fill-opacity:1;fill-rule:nonzero;stroke:none"
             d="m 0,0 c 1.051,0 1.907,-0.856 1.907,-1.907 h 3.815 c 0,2.483 -1.6,4.581 -3.815,5.37 V 7.628 H -1.907 V 3.463 c -2.214,-0.789 -3.814,-2.887 -3.814,-5.37 0,-3.154 2.568,-5.721 5.721,-5.721 1.051,0 1.907,-0.857 1.907,-1.907 0,-1.05 -0.856,-1.907 -1.907,-1.907 -1.05,0 -1.907,0.857 -1.907,1.907 h -3.814 c 0,-2.483 1.6,-4.581 3.814,-5.37 v -4.166 h 3.814 v 4.166 c 2.215,0.789 3.815,2.887 3.815,5.37 0,3.154 -2.568,5.721 -5.722,5.721 -1.05,0 -1.907,0.856 -1.907,1.907 C -1.907,-0.856 -1.05,0 0,0" /></g><g
           transform="translate(70.5616,68.6548)"
           id="g30"><path
             id="path32"
             style="fill:#000000;fill-opacity:1;fill-rule:nonzero;stroke:none"
             d="m 0,0 c -6.272,0 -11.955,3.389 -14.989,8.851 l 1.583,18.998 c 3.278,4.113 8.126,6.478 13.406,6.478 9.463,0 17.164,-7.701 17.164,-17.163 C 17.164,7.701 9.463,0 0,0 m -57.365,7.628 -0.319,3.814 h 39.082 L -18.92,7.628 Z m 34.314,-45.77 h -30.181 l 3.496,41.956 h 23.19 z m 5.888,-9.535 v -1.907 h -41.956 v 1.907 c 0,3.154 2.567,5.721 5.721,5.721 h 30.513 c 3.155,0 5.722,-2.567 5.722,-5.721 m 7.628,-11.442 v -5.722 h -57.213 v 5.722 c 0,3.153 2.568,5.721 5.722,5.721 h 45.769 c 3.154,0 5.722,-2.568 5.722,-5.721 m -43.444,85.818 1.907,-7.628 h 8.698 l 1.907,7.628 h 4.651 l 1.907,-7.628 h 8.699 l 1.907,7.628 h 5.974 L -18.282,15.256 H -58 l -0.953,11.443 z M 0,38.142 c -6.325,0 -12.139,-2.785 -16.139,-7.629 H -26.28 l -1.907,-7.628 h -2.745 l -1.906,7.628 h -10.606 l -1.908,-7.628 h -2.743 l -1.907,7.628 h -13.097 l 2.226,-26.699 h 7.31 L -57.125,-38.9 c -3.41,-1.456 -5.808,-4.841 -5.808,-8.777 v -2.1 c -4.346,-0.886 -7.629,-4.739 -7.629,-9.342 v -9.536 h 64.841 v 9.536 c 0,4.603 -3.283,8.456 -7.629,9.342 v 2.1 c 0,3.936 -2.398,7.321 -5.81,8.777 l -3.559,42.714 h 6.593 C -12.19,-0.952 -6.349,-3.814 0,-3.814 c 11.566,0 20.979,9.411 20.979,20.978 0,11.566 -9.413,20.978 -20.979,20.978" /></g><path
           id="path34"
           style="fill:#000000;fill-opacity:1;fill-rule:nonzero;stroke:none"
           d="m 30.513,68.655 h 3.814 v -3.814 h -3.814 z" /><path
           id="path36"
           style="fill:#000000;fill-opacity:1;fill-rule:nonzero;stroke:none"
           d="m 30.513,61.026 h 3.814 v -3.814 h -3.814 z" /><path
           id="path38"
           style="fill:#000000;fill-opacity:1;fill-rule:nonzero;stroke:none"
           d="m 30.513,53.398 h 3.814 v -3.814 h -3.814 z" /><path
           id="path40"
           style="fill:#000000;fill-opacity:1;fill-rule:nonzero;stroke:none"
           d="m 30.513,45.77 h 3.814 v -3.814 h -3.814 z" /><path
           id="path42"
           style="fill:#000000;fill-opacity:1;fill-rule:nonzero;stroke:none"
           d="m 30.513,38.142 h 3.814 v -3.814 h -3.814 z" /></g></g></g></svg>