<?xml version="1.0" encoding="UTF-8" standalone="no"?>
<svg
   xmlns:dc="http://purl.org/dc/elements/1.1/"
   xmlns:cc="http://creativecommons.org/ns#"
   xmlns:rdf="http://www.w3.org/1999/02/22-rdf-syntax-ns#"
   xmlns:svg="http://www.w3.org/2000/svg"
   xmlns="http://www.w3.org/2000/svg"
   viewBox="0 0 157.65199 157.65199"
   height="157.65199"
   width="157.65199"
   xml:space="preserve"
   id="svg2"
   version="1.1"><metadata
     id="metadata8"><rdf:RDF><cc:Work
         rdf:about=""><dc:format>image/svg+xml</dc:format><dc:type
           rdf:resource="http://purl.org/dc/dcmitype/StillImage" /></cc:Work></rdf:RDF></metadata><defs
     id="defs6"><clipPath
       id="clipPath18"
       clipPathUnits="userSpaceOnUse"><path
         id="path16"
         d="M 0,118.239 H 118.239 V 0 H 0 Z" /></clipPath><clipPath
       id="clipPath34"
       clipPathUnits="userSpaceOnUse"><path
         id="path32"
         d="M 0,0 H 118.238 V 118.238 H 0 Z" /></clipPath><clipPath
       id="clipPath48"
       clipPathUnits="userSpaceOnUse"><path
         id="path46"
         d="M 0,118.239 H 118.239 V 0 H 0 Z" /></clipPath></defs><g
     transform="matrix(1.3333333,0,0,-1.3333333,0,157.652)"
     id="g10"><g
       id="g12"><g
         clip-path="url(#clipPath18)"
         id="g14"><g
           transform="translate(75.6404,49.4312)"
           id="g20"><path
             id="path22"
             style="fill:#ff2d3c;fill-opacity:1;fill-rule:nonzero;stroke:none"
             d="M 0,0 C -4.136,0 -4.136,3.967 -8.271,3.967 -12.403,3.967 -12.403,0 -16.536,0 c -4.129,0 -4.129,3.967 -8.258,3.967 -4.129,0 -4.129,-3.967 -8.258,-3.967 -3.879,0 -4.157,3.458 -7.592,3.883 l -21.647,-51.407 h 91.54 L 7.604,3.885 C 4.164,3.459 3.885,0 0,0" /></g><path
           id="path24"
           style="fill:#000000;fill-opacity:1;fill-rule:nonzero;stroke:none"
           d="M 0,3.814 H 3.814 V 0 H 0 Z" /><path
           id="path26"
           style="fill:#000000;fill-opacity:1;fill-rule:nonzero;stroke:none"
           d="m 57.213,118.239 h 3.813 v -7.628 h -3.813 z" /></g></g><g
       id="g28"><g
         clip-path="url(#clipPath34)"
         id="g30"><g
           transform="translate(87.6872,47.6768)"
           id="g36"><path
             id="path38"
             style="fill:#000000;fill-opacity:1;fill-rule:nonzero;stroke:none"
             d="m 0,0 h 19.109 c 6.311,0 11.443,5.132 11.443,11.442 0,5.848 -4.409,10.686 -10.077,11.363 -1.631,5.654 -6.792,9.615 -12.808,9.615 -2.237,0 -4.371,-0.582 -6.264,-1.59 -3.012,2.731 -7.214,3.987 -11.216,3.314 l 0.632,-3.762 c 2.598,0.437 5.324,-0.282 7.419,-1.89 -1.372,-1.369 -2.467,-3.032 -3.147,-4.932 l 3.594,-1.283 c 1.351,3.787 4.961,6.329 8.982,6.329 4.674,0 8.623,-3.346 9.392,-7.958 l 0.27,-1.621 1.644,0.027 0.238,0.017 c 4.158,-0.055 7.526,-3.456 7.526,-7.629 0,-4.207 -3.421,-7.628 -7.628,-7.628 H -1.605 l -9.948,23.625 -3.516,-1.48 29.399,-69.822 h -85.796 l 29.4,69.822 -3.517,1.48 -1.916,-4.554 h -28.746 c -4.207,0 -7.628,3.421 -7.628,7.628 0,4.207 3.421,7.629 7.628,7.629 4.207,0 7.629,-3.422 7.629,-7.629 h 3.813 c 0,5.599 -4.043,10.262 -9.361,11.244 0.809,4.442 4.688,7.827 9.361,7.827 2.137,0 4.183,-0.719 5.842,-2.006 -1.379,-1.371 -2.478,-3.04 -3.16,-4.945 l 3.593,-1.283 c 1.352,3.785 4.963,6.327 8.982,6.327 1.157,0 2.287,-0.204 3.355,-0.608 l 1.348,3.567 c -1.5,0.568 -3.084,0.855 -4.703,0.855 -2.234,0 -4.369,-0.58 -6.261,-1.588 -2.446,2.233 -5.643,3.495 -8.996,3.495 -6.763,0 -12.357,-5.061 -13.219,-11.595 -5.467,-0.858 -9.666,-5.585 -9.666,-11.29 0,-6.31 5.132,-11.442 11.443,-11.442 h 27.138 l -26.497,-62.934 h -4.455 v -3.814 H 22.923 v 3.814 h -4.454 z" /></g><path
           id="path40"
           style="fill:#000000;fill-opacity:1;fill-rule:nonzero;stroke:none"
           d="m 114.425,3.814 h 3.814 V 0 h -3.814 z" /></g></g><g
       id="g42"><g
         clip-path="url(#clipPath48)"
         id="g44"><path
           id="path50"
           style="fill:#000000;fill-opacity:1;fill-rule:nonzero;stroke:none"
           d="m 26.699,87.726 h 7.628 v -3.814 h -7.628 z" /><g
           transform="translate(59.1189,64.8408)"
           id="g52"><path
             id="path54"
             style="fill:#ff2d3c;fill-opacity:1;fill-rule:nonzero;stroke:none"
             d="m 0,0 c -11.566,0 -20.978,9.411 -20.978,20.978 0,11.566 9.412,20.978 20.978,20.978 11.567,0 20.979,-9.412 20.979,-20.978 C 20.979,9.411 11.567,0 0,0" /></g><g
           transform="translate(59.1189,87.7256)"
           id="g56"><path
             id="path58"
             style="fill:#000000;fill-opacity:1;fill-rule:nonzero;stroke:none"
             d="m 0,0 c -1.05,0 -1.906,0.856 -1.906,1.907 0,1.051 0.856,1.907 1.906,1.907 1.051,0 1.907,-0.856 1.907,-1.907 h 3.815 c 0,2.483 -1.6,4.581 -3.815,5.37 v 4.165 H -1.906 V 7.277 C -4.121,6.488 -5.721,4.39 -5.721,1.907 c 0,-3.154 2.568,-5.721 5.721,-5.721 1.051,0 1.907,-0.857 1.907,-1.907 0,-1.05 -0.856,-1.907 -1.907,-1.907 -1.05,0 -1.906,0.857 -1.906,1.907 h -3.815 c 0,-2.483 1.6,-4.581 3.815,-5.37 v -4.166 h 3.813 v 4.166 c 2.215,0.789 3.815,2.887 3.815,5.37 C 5.722,-2.567 3.154,0 0,0" /></g><g
           transform="translate(34.8454,107.3941)"
           id="g60"><path
             id="path62"
             style="fill:#000000;fill-opacity:1;fill-rule:nonzero;stroke:none"
             d="M 0,0 2.696,2.698 8.091,-2.697 5.394,-5.394 Z" /></g><path
           id="path64"
           style="fill:#000000;fill-opacity:1;fill-rule:nonzero;stroke:none"
           d="M 83.912,87.726 H 91.54 V 83.912 H 83.912 Z" /><g
           transform="translate(75.3005,104.6983)"
           id="g66"><path
             id="path68"
             style="fill:#000000;fill-opacity:1;fill-rule:nonzero;stroke:none"
             d="M 0,0 5.395,5.394 8.091,2.697 2.697,-2.697 Z" /></g></g></g></g></svg>