<?xml version="1.0" standalone="no"?>
<!DOCTYPE svg PUBLIC "-//W3C//DTD SVG 20010904//EN"
 "http://www.w3.org/TR/2001/REC-SVG-20010904/DTD/svg10.dtd">
<svg version="1.0" xmlns="http://www.w3.org/2000/svg"
 width="1000.000000pt" height="1000.000000pt" viewBox="0 0 1000.000000 1000.000000"
 preserveAspectRatio="xMidYMid meet">
<metadata>
Created by potrace 1.11, written by Peter Selinger 2001-2013
</metadata>
<g transform="translate(0.000000,1000.000000) scale(0.100000,-0.100000)"
fill="#000000" stroke="none">
<path d="M4695 8459 c-753 -69 -1457 -339 -2048 -786 -274 -208 -561 -495
-770 -771 -283 -373 -505 -812 -637 -1259 -22 -75 -40 -140 -40 -145 0 -5 10
-8 22 -6 16 2 25 13 32 38 65 244 189 562 305 785 291 558 726 1055 1233 1408
931 649 2087 861 3193 585 880 -219 1687 -768 2214 -1505 267 -375 486 -831
596 -1245 16 -60 21 -68 41 -68 13 0 24 2 24 5 0 26 -113 366 -164 493 -535
1334 -1728 2258 -3166 2452 -177 24 -660 35 -835 19z"/>
<path d="M4900 7618 c-105 -29 -643 -672 -1264 -1510 -72 -97 -134 -176 -138
-175 -3 1 -60 49 -125 107 -65 59 -163 144 -218 189 -55 46 -160 138 -232 205
-145 133 -239 196 -288 196 -20 0 -49 -12 -76 -31 -101 -72 -485 -479 -857
-909 l-152 -175 347 -3 c190 -1 348 0 350 2 3 2 -3 63 -12 134 -11 76 -15 148
-11 175 9 56 56 130 165 257 60 69 96 123 133 200 29 58 57 108 62 112 6 4 25
8 42 8 28 0 56 -25 243 -215 116 -119 211 -219 211 -224 0 -4 -23 -18 -50 -31
-54 -25 -86 -62 -260 -297 l-90 -123 539 0 539 0 -15 43 c-20 56 -12 131 22
198 23 44 974 1338 1094 1488 94 117 181 132 263 44 46 -49 328 -445 334 -469
11 -42 -3 -68 -97 -180 -102 -123 -323 -445 -392 -574 -25 -47 -65 -141 -87
-210 -47 -140 -71 -187 -142 -277 l-50 -63 1951 0 c1073 0 1951 2 1951 4 0 3
-154 137 -342 299 -773 662 -1082 907 -1144 907 -95 0 -341 -237 -574 -553
l-65 -88 -55 58 c-297 314 -985 1083 -1124 1256 -118 149 -168 196 -230 222
-40 17 -103 18 -156 3z m2158 -1215 c-33 -40 -245 -283 -296 -340 -57 -64 -88
-81 -36 -20 16 19 74 90 129 158 107 133 188 219 207 219 7 0 6 -6 -4 -17z
m-358 -417 c0 -2 -8 -10 -17 -17 -16 -13 -17 -12 -4 4 13 16 21 21 21 13z
m-40 -40 c0 -2 -8 -10 -17 -17 -16 -13 -17 -12 -4 4 13 16 21 21 21 13z"/>
<path d="M687 5034 c-4 -4 -7 -250 -7 -546 l0 -538 422 0 c473 0 503 3 577 66
44 38 76 108 93 205 11 65 -1 151 -32 214 -25 52 -25 66 3 118 19 37 22 57 22
162 0 111 -2 124 -27 171 -32 61 -84 106 -147 131 -41 15 -97 18 -471 21 -234
2 -429 0 -433 -4z m844 -242 c22 -24 29 -42 29 -73 0 -48 -22 -94 -53 -111
-31 -18 -582 -25 -602 -8 -11 9 -15 38 -15 115 0 56 3 105 7 109 4 4 142 6
306 4 l299 -3 29 -33z m-5 -433 c56 -56 38 -166 -31 -195 -46 -19 -574 -21
-593 -2 -13 13 -17 209 -5 222 4 4 141 6 305 4 l298 -3 26 -26z"/>
<path d="M1887 5034 c-10 -10 -8 -675 2 -804 9 -114 23 -154 74 -207 60 -63
92 -68 472 -68 l340 0 57 27 c61 28 109 83 129 147 16 52 25 861 10 890 -11
19 -20 21 -94 21 -45 0 -87 -4 -93 -8 -8 -5 -13 -125 -16 -407 -3 -288 -8
-406 -16 -422 -25 -46 -41 -48 -320 -46 -145 1 -272 5 -283 8 -11 4 -27 21
-36 38 -15 28 -18 82 -23 432 l-5 400 -95 3 c-53 1 -99 0 -103 -4z"/>
<path d="M3319 5026 c-91 -19 -144 -63 -188 -156 -21 -46 -26 -69 -26 -145 0
-167 50 -262 163 -307 53 -21 77 -23 352 -28 315 -5 332 -8 350 -56 23 -60 3
-151 -37 -170 -10 -5 -183 -9 -385 -10 -202 -1 -371 -5 -377 -9 -7 -4 -11 -45
-11 -101 l0 -94 138 -2 c341 -5 657 4 710 18 118 33 185 138 186 294 1 109
-22 187 -71 241 -78 87 -140 99 -488 99 l-262 0 -26 25 c-53 54 -41 156 23
187 31 16 72 18 391 18 294 0 359 2 368 14 8 9 11 46 9 103 l-3 88 -380 2
c-266 1 -397 -2 -436 -11z"/>
<path d="M4322 5028 c-9 -9 -12 -144 -12 -545 l0 -533 99 0 c81 0 100 3 105
16 3 9 6 248 6 533 0 389 -3 520 -12 529 -16 16 -170 16 -186 0z"/>
<path d="M4660 5020 c-19 -19 -20 -33 -20 -522 0 -277 3 -513 6 -525 6 -22 11
-23 98 -23 58 0 96 4 104 12 9 9 12 105 12 371 0 282 3 358 13 355 6 -3 154
-169 327 -369 l315 -364 110 0 110 0 3 529 c1 382 -1 533 -9 542 -15 18 -170
19 -187 2 -9 -9 -12 -106 -12 -375 0 -330 -1 -362 -16 -356 -19 7 -289 309
-465 519 -168 201 -200 224 -310 224 -46 0 -64 -5 -79 -20z"/>
<path d="M5862 5028 c-9 -9 -12 -142 -12 -545 l0 -533 478 -2 c262 -2 505 -3
539 -3 34 0 65 3 68 7 11 10 6 181 -5 192 -5 5 -189 10 -423 10 -335 1 -417 4
-430 15 -14 11 -17 33 -17 117 l0 104 335 0 336 0 -3 103 -3 102 -330 5 -330
5 -3 113 -3 112 441 0 441 0 -3 103 -3 102 -530 3 c-405 2 -534 -1 -543 -10z"/>
<path d="M7291 5029 c-134 -26 -210 -127 -219 -287 -6 -117 16 -197 74 -261
75 -83 84 -85 436 -91 l308 -5 26 -27 c21 -21 28 -39 32 -81 4 -46 1 -57 -20
-82 -34 -39 -86 -44 -485 -44 l-323 -1 0 -95 c0 -90 1 -96 23 -103 12 -4 202
-5 422 -2 l400 5 55 31 c61 34 113 100 131 167 7 25 9 84 7 142 -5 116 -32
182 -93 233 -71 58 -111 65 -420 69 -154 2 -290 6 -303 9 -29 6 -62 60 -62
102 0 18 7 47 16 63 29 57 47 59 449 59 l365 0 0 93 c0 59 -4 97 -12 105 -14
14 -735 15 -807 1z"/>
<path d="M8525 5033 c-107 -24 -179 -72 -215 -144 -27 -52 -44 -165 -35 -234
10 -84 60 -173 118 -212 27 -18 65 -37 85 -43 21 -5 155 -10 310 -10 292 0
328 -5 352 -51 16 -28 16 -109 1 -137 -6 -12 -20 -26 -30 -31 -11 -6 -182 -13
-400 -17 l-381 -7 0 -98 c0 -85 2 -98 18 -103 10 -4 187 -4 393 -2 336 4 380
7 437 24 34 11 78 32 97 47 58 44 66 70 72 239 6 168 2 188 -61 254 -73 79
-142 92 -489 92 l-249 0 -29 29 c-24 24 -29 38 -29 76 0 60 21 100 61 114 21
7 155 11 396 11 l364 0 -3 103 -3 102 -380 1 c-209 1 -389 0 -400 -3z"/>
<path d="M7608 3730 c-93 -15 -136 -45 -176 -125 -26 -52 -482 -1150 -482
-1160 0 -3 89 -5 198 -5 152 0 203 3 217 14 10 7 39 67 65 132 l47 119 230 3
c177 2 233 -1 240 -10 6 -7 28 -60 48 -118 21 -58 47 -113 58 -122 17 -16 43
-18 218 -18 158 0 199 3 199 13 0 18 -455 1110 -488 1170 -28 53 -65 79 -132
95 -69 16 -179 22 -242 12z m177 -547 c33 -91 62 -170 63 -175 2 -4 -57 -8
-132 -8 -75 0 -136 4 -136 9 0 7 89 257 115 324 4 9 12 17 19 17 6 0 38 -75
71 -167z"/>
<path d="M3110 3721 c-82 -8 -131 -37 -159 -95 -20 -41 -21 -57 -21 -544 0
-330 4 -510 11 -529 14 -39 47 -72 89 -92 30 -14 99 -16 533 -19 l498 -3 -3
153 -3 153 -341 5 c-269 4 -344 8 -357 19 -14 11 -17 32 -17 107 l0 94 345 0
345 0 0 135 0 135 -345 0 -345 0 0 68 c0 37 4 72 8 78 20 31 54 34 376 34
l326 0 0 149 c0 117 -3 150 -14 154 -19 7 -846 6 -926 -2z"/>
<path d="M4388 3721 c-81 -7 -113 -23 -150 -72 -31 -41 -38 -169 -38 -695 0
-448 2 -503 16 -508 9 -3 101 -6 205 -6 l188 0 3 466 3 466 24 19 c21 17 41
19 181 19 182 0 216 -8 236 -56 28 -67 11 -182 -31 -210 -15 -10 -61 -18 -128
-23 -113 -8 -153 -24 -191 -74 -26 -35 -27 -117 -1 -167 10 -19 81 -122 158
-228 123 -168 145 -193 176 -202 43 -12 421 -13 439 -1 9 6 -33 56 -153 182
-92 96 -171 182 -176 192 -9 15 -4 17 53 17 104 1 183 51 227 146 44 92 65
337 41 464 -23 122 -96 222 -188 256 -41 15 -93 18 -432 20 -212 1 -420 -1
-462 -5z"/>
<path d="M5820 3723 c-84 -14 -140 -59 -159 -130 -7 -24 -11 -236 -11 -590 l0
-553 205 0 205 0 0 455 0 456 25 25 25 25 175 -3 c166 -3 176 -4 197 -26 19
-18 23 -36 26 -97 5 -82 -8 -129 -40 -146 -11 -6 -61 -13 -111 -16 -116 -6
-146 -15 -187 -58 -40 -41 -51 -109 -28 -165 16 -38 265 -389 304 -430 24 -25
25 -25 237 -28 116 -2 222 0 234 5 19 7 6 25 -153 192 -96 101 -174 187 -174
192 0 5 24 9 53 9 82 0 125 17 178 70 37 37 52 62 69 116 32 105 45 251 32
371 -12 117 -36 181 -90 236 -48 51 -95 74 -173 87 -61 9 -784 12 -839 3z"/>
<path d="M1540 3565 l0 -155 225 0 225 0 0 -480 0 -480 205 0 205 0 0 480 0
480 225 0 225 0 0 155 0 155 -655 0 -655 0 0 -155z"/>
</g>
</svg>
