<?xml version="1.0" encoding="UTF-8"?>
<!DOCTYPE svg PUBLIC "-//W3C//DTD SVG 1.1//EN" "http://www.w3.org/Graphics/SVG/1.1/DTD/svg11.dtd">
<!-- Creator: CorelDRAW X8 -->
<svg xmlns="http://www.w3.org/2000/svg" xml:space="preserve" width="5.87876cm" height="4.0874cm" version="1.1" style="shape-rendering:geometricPrecision; text-rendering:geometricPrecision; image-rendering:optimizeQuality; fill-rule:evenodd; clip-rule:evenodd"
viewBox="0 0 137 95"
 xmlns:xlink="http://www.w3.org/1999/xlink">
 <defs>
  <style type="text/css">
   <![CDATA[
    .fil0 {fill:#010426;fill-rule:nonzero}
    .fil1 {fill:red;fill-rule:nonzero}
   ]]>
  </style>
 </defs>
 <g id="Layer_x0020_1">
  <metadata id="CorelCorpID_0Corel-Layer"/>
  <g id="_2867342904800">
   <path class="fil0" d="M95 39l0 0c0,0 0,0 0,0 2,-3 4,-4 6,-7 0,0 0,0 0,0 -3,2 -4,4 -6,7 0,0 0,0 0,0zm-46 8c-6,0 -12,0 -17,0 1,-2 2,-4 4,-6 0,0 1,-1 1,-1 1,0 1,0 1,-1 -2,-2 -4,-4 -7,-6 0,-1 -1,-1 -1,0 -1,3 -3,4 -5,6 -1,2 -1,3 -1,5 1,1 1,1 1,2 0,1 0,1 -1,1 -3,0 -7,0 -10,0 0,-1 1,-2 2,-3 4,-4 7,-8 11,-12 1,-1 2,-2 3,-2 0,-1 1,-1 2,-1 1,1 2,2 3,2 2,3 6,6 9,8 1,1 1,1 1,0 5,-7 11,-13 16,-20 1,-2 3,-3 4,-4 2,-2 4,-2 5,-1 2,2 2,3 3,4 2,2 4,4 6,6 4,4 8,9 12,13 0,1 0,1 1,0 2,-2 4,-5 6,-7 1,-1 1,-1 2,-2 1,0 2,0 3,0 1,1 3,3 5,4 6,5 11,10 16,14 1,0 1,1 1,1 -21,0 -41,0 -62,0 1,-1 1,-1 1,-1 1,-2 2,-3 2,-4 1,-3 3,-5 4,-8 2,-2 3,-4 5,-6 1,-1 1,-2 0,-3 -1,-2 -3,-4 -4,-6 0,0 -1,0 -1,0 -1,-2 -2,-1 -3,0 -1,0 -2,2 -3,3 -4,5 -8,11 -12,16 -1,2 -2,3 -3,4 -1,2 -1,3 0,5z"/>
   <path class="fil0" d="M70 89c2,2 4,4 6,6 -1,0 -2,0 -3,0 -1,0 -2,0 -4,0 0,0 -1,0 -1,-1 -1,-2 -3,-3 -4,-5 -2,-2 0,-4 2,-5 1,0 1,1 2,0 1,0 1,0 1,-1 0,0 0,-1 0,-2 0,-1 0,-1 -1,-1 -2,0 -3,0 -5,0 -1,0 -1,0 -1,1 0,2 0,4 0,6 0,2 0,5 0,7 0,1 0,1 -1,1 0,0 0,0 0,0 -1,0 -3,0 -5,0 0,0 0,0 0,-1 0,-5 0,-9 0,-14 0,-1 0,-2 0,-3 0,-1 1,-2 2,-2 5,0 9,0 14,0 1,0 3,2 3,4 1,2 1,5 0,7 0,2 -2,3 -4,3 0,0 0,0 -1,0z"/>
   <path class="fil0" d="M99 95c-3,0 -5,0 -7,0 -1,0 -1,0 -1,-1 -2,-1 -3,-3 -4,-5 -1,-1 -1,-2 -1,-3 1,-1 2,-2 3,-2 0,0 1,0 1,0 1,0 1,0 1,0 1,0 1,-1 1,-3 0,-1 -1,-1 -2,-1 -1,0 -2,0 -4,0 -1,0 -1,0 -1,1 0,0 0,1 0,1 0,4 0,8 0,12 0,1 0,1 -1,1 -2,0 -3,0 -5,0 0,0 -1,0 -1,-1 0,-5 0,-10 0,-16 0,-2 2,-3 4,-3 4,0 7,0 11,0 3,0 5,1 5,5 1,2 1,4 0,6 -1,2 -2,3 -4,3 0,0 -1,0 -1,0 0,0 1,0 1,1 1,1 3,3 5,5z"/>
   <path class="fil0" d="M45 95c-2,0 -4,0 -7,0 -1,0 -2,-1 -2,-3 0,-5 0,-9 0,-14 0,-2 1,-3 3,-3 4,0 9,0 14,0 0,0 0,0 0,1 0,1 0,2 0,3 0,0 0,1 0,1 -3,0 -6,0 -8,0 -1,0 -1,0 -1,0 -2,0 -3,0 -2,2 0,1 0,1 1,1 3,0 6,0 9,0 1,0 1,0 1,0 0,1 0,2 0,3 0,1 0,1 -1,1 -3,0 -6,0 -9,0 -1,0 -1,0 -1,0 0,1 0,2 0,2 0,1 0,1 1,1 3,0 6,0 9,0 1,0 1,0 1,1 0,1 0,2 0,3 0,1 0,1 0,1 -3,0 -5,0 -8,0 0,0 0,0 0,0z"/>
   <path class="fil0" d="M111 86c1,0 1,0 2,0 0,0 0,0 0,0 -1,-2 -1,-3 -2,-5 0,0 0,0 0,0 0,0 0,0 0,0 -1,2 -2,3 -2,5 0,0 0,0 0,0 1,0 1,0 2,0zm-12 9c1,-1 1,-2 2,-4 1,-4 3,-9 5,-14 1,-1 2,-2 4,-2 1,0 2,0 3,0 1,0 2,1 3,2 2,5 4,10 6,15 0,1 1,2 1,3 -2,0 -4,0 -6,0 -1,0 -1,0 -1,-1 0,-1 -1,-1 -1,-2 0,-1 0,-1 -1,-1 -2,0 -4,0 -6,0 -1,0 -1,0 -1,1 0,0 -1,1 -1,2 0,1 0,1 -1,1 -2,0 -4,0 -6,0z"/>
   <path class="fil1" d="M8 57c-1,0 -3,0 -4,0 -1,0 -1,1 -1,1 0,1 0,2 0,3 0,0 1,0 1,0 3,0 5,0 8,0 2,0 2,-1 2,-2 0,-1 -1,-2 -2,-2 -1,0 -3,0 -4,0zm0 7c-1,0 -3,0 -4,0 -1,0 -1,1 -1,1 0,1 0,2 0,2 0,1 0,1 1,1 1,0 2,0 2,0 2,0 4,0 6,0 1,0 2,-1 2,-2 0,-1 -1,-2 -2,-2 -1,0 -3,0 -4,0zm-8 -1c0,-3 0,-5 0,-8 0,-1 0,-1 1,-1 4,0 7,0 11,0 3,0 5,2 5,5 0,1 0,2 -1,3 0,1 0,1 0,1 2,2 1,4 1,6 -1,1 -2,2 -3,2 -1,0 -2,0 -2,0 -4,0 -8,0 -11,0 -1,0 -1,0 -1,0 0,-3 0,-6 0,-8z"/>
   <path class="fil0" d="M24 75c3,0 6,0 9,0 1,0 1,0 1,1 0,1 0,2 0,3 0,1 0,1 0,1 -2,0 -4,0 -6,0 -1,0 -1,0 -1,0 0,5 0,10 0,14 0,1 0,1 -1,1 -1,0 -3,0 -5,0 0,0 0,0 0,-1 0,-4 0,-9 0,-13 0,-1 0,-1 -1,-1 -2,0 -4,0 -6,0 0,0 0,0 0,-1 0,-1 0,-2 0,-3 0,-1 0,-1 0,-1 3,0 7,0 10,0z"/>
   <path class="fil1" d="M90 71c-2,0 -5,0 -8,0 0,0 0,0 0,0 0,-6 0,-11 0,-16 0,0 0,-1 0,-1 6,0 11,0 16,0 1,0 1,0 1,1 0,1 0,1 0,2 0,0 0,0 -1,0 -4,0 -8,0 -12,0 -1,0 -1,1 -1,1 0,1 0,2 0,2 0,1 0,1 1,1 3,0 6,0 9,0 0,0 0,0 0,1 0,1 0,1 0,2 0,0 0,0 0,0 -3,0 -6,0 -9,0 -1,0 -1,1 -1,1 0,1 0,1 0,2 0,1 0,1 1,1 4,0 7,0 11,0 2,0 2,0 2,2 0,1 0,1 -1,1 -3,0 -5,0 -8,0 0,0 0,0 0,0z"/>
   <path class="fil1" d="M111 57c-1,0 -3,0 -5,0 -1,0 -2,2 -2,3 1,1 1,1 2,1 3,0 5,0 7,0 3,0 5,2 5,5 0,1 0,2 -1,4 -1,1 -2,1 -3,1 -4,0 -8,0 -11,0 -1,0 -1,0 -1,-1 0,0 0,-1 0,-1 0,-1 0,-1 0,-1 3,0 6,0 10,0 0,0 1,0 1,0 1,0 2,-1 2,-2 0,-1 -1,-2 -2,-2 -2,0 -5,0 -7,0 -2,0 -3,0 -4,-1 -1,-1 -1,-3 -1,-5 0,-2 1,-3 3,-4 1,0 2,0 4,0 2,0 5,0 8,0 1,0 1,0 1,1 0,1 0,1 0,2 0,0 0,0 -1,0 -1,0 -3,0 -5,0z"/>
   <path class="fil1" d="M45 71c-2,0 -3,0 -5,0 -1,0 -1,0 -1,0 0,-1 0,-1 0,-2 0,-1 0,-1 1,-1 3,0 6,0 9,0 1,0 1,0 2,0 1,0 1,-1 1,-2 0,-1 0,-2 -1,-2 -3,0 -5,0 -7,0 -1,0 -2,0 -3,0 -1,0 -2,-1 -2,-3 -1,-1 -1,-3 0,-4 0,-2 2,-3 3,-3 4,0 8,0 12,0 1,0 1,0 1,1 0,0 0,1 0,1 0,1 -1,1 -1,1 -4,0 -7,0 -10,0 0,0 0,0 -1,0 -1,0 -1,1 -1,2 0,2 0,2 2,2 2,0 4,0 6,0 4,0 7,3 5,8 -1,1 -2,2 -4,2 -2,0 -4,0 -6,0 0,0 0,0 0,0z"/>
   <path class="fil1" d="M130 54c2,0 4,0 6,0 0,0 0,0 0,1 0,0 0,1 0,1 0,1 0,1 -1,1 -3,0 -7,0 -10,0 -1,0 -2,1 -2,2 0,1 1,2 2,2 3,0 5,0 8,0 1,0 3,1 3,2 1,1 1,1 1,1l0 0c0,1 0,2 0,3 0,3 -1,4 -4,4 -1,0 -3,0 -4,0 -3,0 -5,0 -8,0 0,0 0,0 0,0 0,-1 0,-2 0,-2 0,-1 0,-1 1,-1 3,0 6,0 10,0 1,0 2,0 2,-2 0,-1 -1,-2 -2,-2 -2,0 -5,0 -7,0 -3,0 -5,-2 -5,-5 0,-2 0,-3 2,-4 1,0 2,-1 2,-1 2,0 4,0 6,0z"/>
   <path class="fil1" d="M77 66c0,-4 0,-7 0,-11 0,-1 0,-1 1,-1 0,0 1,0 1,0 1,0 1,0 1,1 0,5 0,11 0,16 0,0 0,0 -1,0 0,0 0,0 0,0 -3,0 -3,0 -4,-2 -3,-3 -6,-6 -8,-9 0,0 0,0 0,0 -1,0 -1,0 -1,0 0,0 0,0 0,0 0,4 0,7 0,10 0,1 0,1 -1,1 -1,0 -1,0 -2,0 0,0 0,0 0,0 0,-4 0,-7 0,-10 0,-2 0,-4 0,-6 0,-1 0,-1 1,-1 1,0 2,1 3,2 2,2 3,3 5,5 1,2 2,3 4,4 0,1 0,1 1,1z"/>
   <path class="fil1" d="M36 61c0,2 0,4 0,6 0,3 -1,4 -4,4 -3,0 -6,0 -9,0 -2,0 -4,-1 -4,-4 0,-4 0,-8 0,-12 0,-1 0,-1 1,-1 0,0 1,0 1,0 1,0 1,0 1,1 0,3 0,7 0,10 0,1 0,1 0,2 1,1 1,1 2,1 2,0 5,0 7,0 1,0 2,0 2,-2 0,-3 0,-7 0,-11 0,-1 0,-1 1,-1 0,0 1,0 1,0 1,0 1,0 1,1 0,2 0,4 0,6 0,0 0,0 0,0z"/>
   <path class="fil0" d="M69 0c14,0 28,5 39,14 10,8 17,19 21,31 0,1 0,1 0,1 0,1 0,1 0,1 -1,0 -1,0 -1,0 0,-2 -1,-4 -1,-5 -4,-10 -9,-19 -17,-26 -8,-7 -17,-12 -28,-14 -5,-1 -11,-2 -16,-1 -14,0 -26,5 -36,14 -11,8 -17,19 -21,31 0,0 0,0 0,0 0,1 0,1 -1,1 0,0 0,-1 0,-1 1,-2 2,-5 3,-8 8,-18 22,-30 40,-36 5,-1 10,-2 14,-2 1,0 2,0 4,0z"/>
   <path class="fil1" d="M57 63c0,-3 0,-5 0,-8 0,-1 0,-1 1,-1 1,0 1,0 2,0 0,0 1,0 1,1 0,4 0,8 0,12 0,1 0,2 0,3 0,1 -1,1 -1,1 -1,0 -1,0 -2,0 -1,0 -1,0 -1,-1 0,-2 0,-5 0,-7z"/>
  </g>
 </g>
</svg>
